<?xml version="1.0" encoding="UTF-8"?><svg id="Layer_1" xmlns="http://www.w3.org/2000/svg" viewBox="0 0 302.29 392.8"><defs><style>.cls-1{fill:#231f20;}.cls-2{fill:#f2f2f3;stroke-width:1.05px;}.cls-2,.cls-3,.cls-4,.cls-5,.cls-6,.cls-7,.cls-8,.cls-9,.cls-10{stroke:#231f20;stroke-miterlimit:10;}.cls-3,.cls-5,.cls-7{fill:none;}.cls-3,.cls-9,.cls-10{stroke-width:.18px;}.cls-4{fill:#fac964;stroke-width:.48px;}.cls-5{stroke-width:.75px;}.cls-6{fill:#fff;}.cls-8{fill:#f47648;stroke-width:.22px;}.cls-9{fill:#6790b5;}.cls-10{fill:#2f4259;}</style></defs><rect class="cls-6" x="80.38" y="162.82" width="92.25" height="25.25"/><rect class="cls-2" x="80.76" y="53.42" width="210.57" height="97.77"/><rect class="cls-2" x="81.9" y="234.97" width="210.57" height="92.69"/><rect class="cls-6" x="113.79" y="245.29" width="66.11" height="26.81"/><rect class="cls-6" x="139.32" y="64.93" width="44.21" height="26.81"/><rect class="cls-6" x="211.6" y="64.72" width="44.21" height="26.81"/><path class="cls-1" d="m223.25,83.7l.18-.73c.31.25.62.37.94.38.23,0,.43-.06.59-.18s.27-.26.32-.43c.02-.07.02-.17.02-.31v-6.12h.9v5.94c0,.66-.16,1.14-.47,1.43s-.66.43-1.04.43c-.49,0-.97-.14-1.44-.41Zm1.87-9.13v-1.07h1.09v1.07h-1.09Z"/><path class="cls-1" d="m227.54,79c0-.81.26-1.49.78-2.05.52-.56,1.14-.83,1.85-.83s1.38.29,1.88.87c.5.58.75,1.25.75,2.02s-.26,1.45-.79,1.98c-.53.53-1.14.79-1.84.79s-1.32-.27-1.84-.8c-.53-.53-.79-1.2-.79-1.99Zm.94-.12c0,.7.17,1.24.51,1.6s.73.54,1.18.54.84-.18,1.18-.55.51-.89.51-1.59-.17-1.18-.51-1.51c-.34-.34-.73-.5-1.18-.5s-.83.17-1.18.5c-.34.34-.52.84-.52,1.51Z"/><path class="cls-1" d="m234.15,81.65v-8.67h.9v3.91c.59-.47,1.23-.71,1.92-.71.57,0,1.04.28,1.41.83s.55,1.2.55,1.94c0,.81-.22,1.48-.66,2.02-.44.54-.96.81-1.57.81-.57,0-1.1-.23-1.61-.7v.56h-.94Zm.94-1.6c0,.06,0,.11,0,.15s.01.07.02.1.02.06.04.07.03.04.06.08.05.08.08.11c.27.32.59.48.98.48.43,0,.82-.17,1.18-.5s.54-.86.54-1.57c0-.37-.05-.7-.16-.98-.1-.28-.24-.49-.41-.64-.17-.14-.35-.25-.52-.32-.18-.07-.35-.1-.53-.1-.31,0-.6.09-.88.27s-.41.39-.41.61v2.23Z"/><path class="cls-1" d="m239.7,81.25l.15-.81s.07.04.15.09c.09.05.15.09.2.12.04.02.12.06.22.11s.19.09.27.11c.08.03.18.06.29.09.11.03.23.05.35.07.12.01.25.02.39.02.4,0,.69-.08.86-.26.17-.17.26-.36.26-.57s-.07-.37-.22-.5c-.14-.13-.3-.22-.46-.27-.08-.02-.26-.06-.54-.12-.28-.06-.48-.1-.61-.14-.33-.11-.61-.28-.86-.54s-.38-.57-.38-.94c0-.18.03-.36.08-.52.05-.16.15-.33.28-.5.13-.17.33-.31.61-.41s.6-.15.98-.15c.57,0,1.15.12,1.75.37l-.13.8s-.05-.03-.14-.07c-.08-.04-.13-.06-.14-.07-.01,0-.05-.03-.13-.06-.08-.03-.13-.05-.16-.06s-.08-.03-.15-.06-.13-.04-.17-.05-.1-.02-.18-.04-.14-.03-.2-.04-.13,0-.21-.01-.17,0-.26,0c-.37,0-.63.07-.78.22-.15.15-.23.32-.23.51,0,.27.11.46.32.57.21.12.51.21.9.27.38.07.66.14.81.21.29.13.53.32.73.58.2.26.3.56.3.92,0,.18-.03.36-.08.54s-.15.35-.28.52c-.13.17-.33.32-.61.43-.27.11-.6.16-.98.16-.7,0-1.38-.18-2.03-.54Z"/><rect class="cls-6" x="95.12" y="112.86" width="44.21" height="26.81"/><rect class="cls-6" x="139.32" y="112.86" width="44.21" height="26.81"/><rect class="cls-6" x="183.53" y="112.86" width="44.21" height="26.81"/><rect class="cls-6" x="195.19" y="245.29" width="66.11" height="26.81"/><rect class="cls-6" x="113.79" y="292.75" width="147.51" height="26.81"/><path class="cls-1" d="m128.92,263.25l.18-1c.83.67,1.69,1,2.55,1,.52,0,.94-.16,1.27-.48s.49-.69.49-1.11c0-.31-.09-.6-.28-.86s-.43-.45-.74-.58c-.02,0-.51-.14-1.49-.4-.49-.13-.92-.39-1.29-.79-.37-.4-.56-.88-.56-1.46,0-.61.25-1.16.75-1.64.5-.48,1.15-.71,1.95-.71.76,0,1.49.19,2.21.57l-.17.99c-.34-.26-.65-.45-.94-.58s-.66-.19-1.11-.19c-.52,0-.94.14-1.26.43s-.48.62-.48,1c0,.28.09.54.28.77.18.23.42.41.7.52.12.03.41.1.88.22.47.12.78.21.93.28.44.18.82.48,1.13.88.32.4.47.88.47,1.43,0,.68-.26,1.27-.77,1.78-.51.5-1.16.76-1.96.76-.96,0-1.87-.28-2.73-.83Z"/><path class="cls-1" d="m136.01,262.35v-3.87h.94v4.02c0,.28.07.48.2.6.12.12.38.18.76.18.41,0,.75-.11,1-.33.25-.22.4-.48.43-.77,0-.08.01-.19.01-.35v-3.36h.94v5.34h-.91v-.57c-.54.47-1.24.7-2.1.7-.24,0-.44-.04-.61-.11s-.3-.16-.38-.26-.15-.23-.19-.4-.07-.31-.07-.41,0-.24,0-.41Z"/><path class="cls-1" d="m142.22,263.81v-8.67h.9v3.91c.59-.47,1.23-.71,1.92-.71.57,0,1.04.28,1.41.83s.55,1.2.55,1.94c0,.81-.22,1.48-.66,2.02-.44.54-.96.81-1.57.81-.57,0-1.1-.23-1.61-.7v.56h-.94Zm.94-1.6c0,.06,0,.11,0,.15s.01.07.02.1.02.06.04.07.03.04.06.08.05.08.08.11c.27.32.59.48.98.48.43,0,.82-.17,1.18-.5s.54-.86.54-1.57c0-.37-.05-.7-.16-.98-.1-.28-.24-.49-.41-.64-.17-.14-.35-.25-.52-.32-.18-.07-.35-.1-.53-.1-.31,0-.6.09-.88.27s-.41.39-.41.61v2.23Z"/><path class="cls-1" d="m148.41,263.81v-5.4h.87v.85c.46-.61,1.05-.91,1.75-.91.78,0,1.29.33,1.52.98.49-.66,1.09-.98,1.82-.98.3,0,.56.05.78.15s.38.22.49.35c.11.13.19.3.25.51s.09.38.1.51.01.29.01.49v3.46h-.94v-3.43s0-.1-.02-.19-.04-.19-.06-.27c-.03-.08-.07-.18-.13-.28-.06-.1-.12-.19-.21-.27s-.18-.14-.31-.19c-.13-.05-.27-.08-.43-.08-.43,0-.74.18-.93.54-.2.36-.29.79-.29,1.3v2.88h-.94v-3.36c0-.14,0-.24,0-.32s-.03-.19-.07-.34-.1-.27-.18-.35-.19-.17-.35-.23c-.16-.07-.35-.1-.57-.1-.43,0-.74.18-.93.54-.19.36-.29.79-.29,1.3v2.88h-.94Z"/><path class="cls-1" d="m157.86,256.73v-1.07h1.08v1.07h-1.08Zm.08,7.08v-5.34h.81v5.34h-.81Z"/><path class="cls-1" d="m160.06,259.18v-.7h1.03v-1.51h.84v1.51h1.69v.7h-1.69v2.96c0,.7.22,1.04.65,1.04.34,0,.69-.13,1.05-.39l.19.71c-.57.3-1.16.45-1.78.45-.66,0-.98-.51-.98-1.54v-3.23h-1.01Z"/><line class="cls-5" x1="146.28" y1="272.1" x2="146.28" y2="291.94"/><polygon class="cls-1" points="143.21 289.46 143.76 288.94 146.28 291.65 148.8 288.94 149.35 289.46 146.28 292.75 143.21 289.46"/><line class="cls-5" x1="228.25" y1="292.75" x2="228.25" y2="272.92"/><polygon class="cls-1" points="231.32 275.4 230.77 275.91 228.25 273.21 225.73 275.91 225.18 275.4 228.25 272.1 231.32 275.4"/><line class="cls-5" x1="228.25" y1="245.29" x2="228.25" y2="225.46"/><polygon class="cls-1" points="231.32 227.94 230.77 228.45 228.25 225.74 225.73 228.45 225.18 227.94 228.25 224.64 231.32 227.94"/><line class="cls-5" x1="63.39" y1="207.67" x2="79.57" y2="207.67"/><polygon class="cls-1" points="77.08 210.74 76.57 210.19 79.28 207.67 76.57 205.16 77.08 204.61 80.38 207.67 77.08 210.74"/><line class="cls-5" x1="80.38" y1="216.26" x2="64.2" y2="216.26"/><polygon class="cls-1" points="66.69 213.19 67.2 213.74 64.49 216.26 67.2 218.78 66.69 219.33 63.39 216.26 66.69 213.19"/><line class="cls-5" x1="194.06" y1="53.38" x2="194.06" y2="33.54"/><polygon class="cls-1" points="197.12 36.02 196.57 36.54 194.06 33.83 191.54 36.54 190.99 36.02 194.06 32.73 197.12 36.02"/><line class="cls-5" x1="178.76" y1="32.73" x2="178.76" y2="52.56"/><polygon class="cls-1" points="175.69 50.08 176.24 49.57 178.76 52.27 181.27 49.57 181.82 50.08 178.76 53.38 175.69 50.08"/><line class="cls-5" x1="161.43" y1="91.74" x2="161.43" y2="111.58"/><polygon class="cls-1" points="158.36 109.09 158.91 108.58 161.43 111.29 163.94 108.58 164.49 109.09 161.43 112.39 158.36 109.09"/><line class="cls-5" x1="183.53" y1="71.73" x2="210.92" y2="71.73"/><polygon class="cls-1" points="208.44 74.79 207.93 74.24 210.64 71.73 207.93 69.21 208.44 68.66 211.74 71.73 208.44 74.79"/><line class="cls-5" x1="211.74" y1="83.45" x2="184.34" y2="83.45"/><polygon class="cls-1" points="186.83 80.38 187.34 80.93 184.63 83.45 187.34 85.96 186.83 86.51 183.53 83.45 186.83 80.38"/><line class="cls-5" x1="143.49" y1="93.12" x2="133.57" y2="110.3"/><polygon class="cls-1" points="132.16 106.62 132.89 106.45 133.72 110.05 137.25 108.96 137.47 109.68 133.17 111.01 132.16 106.62"/><line class="cls-5" x1="178.37" y1="93.12" x2="188.28" y2="110.3"/><polygon class="cls-1" points="184.39 109.68 184.61 108.97 188.14 110.05 188.97 106.45 189.7 106.62 188.69 111.01 184.39 109.68"/><line class="cls-5" x1="146.28" y1="224.64" x2="146.28" y2="244.48"/><polygon class="cls-1" points="143.21 241.99 143.76 241.48 146.28 244.19 148.8 241.48 149.35 241.99 146.28 245.29 143.21 241.99"/><line class="cls-5" x1="132.91" y1="162.82" x2="132.91" y2="152"/><polygon class="cls-1" points="135.98 154.48 135.43 154.99 132.92 152.29 130.4 154.99 129.85 154.48 132.92 151.18 135.98 154.48"/><line class="cls-5" x1="120.1" y1="151.18" x2="120.1" y2="162"/><polygon class="cls-1" points="117.03 159.52 117.58 159.01 120.1 161.72 122.62 159.01 123.17 159.52 120.1 162.82 117.03 159.52"/><line class="cls-5" x1="132.91" y1="199.7" x2="132.91" y2="188.88"/><polygon class="cls-1" points="135.98 191.37 135.43 191.88 132.92 189.17 130.4 191.88 129.85 191.37 132.92 188.07 135.98 191.37"/><line class="cls-5" x1="120.1" y1="188.07" x2="120.1" y2="198.89"/><polygon class="cls-1" points="117.03 196.41 117.58 195.89 120.1 198.6 122.62 195.89 123.17 196.41 120.1 199.7 117.03 196.41"/><path class="cls-1" d="m151.46,83.45v-8.67h.9v3.91c.59-.47,1.23-.71,1.92-.71.57,0,1.04.28,1.41.83s.55,1.2.55,1.94c0,.81-.22,1.48-.66,2.02-.44.54-.96.81-1.57.81-.57,0-1.1-.23-1.61-.7v.56h-.94Zm.94-1.6c0,.06,0,.11,0,.15s.01.07.02.1.02.06.04.07.03.04.06.08.05.08.08.11c.27.32.59.48.98.48.43,0,.82-.17,1.18-.5s.54-.86.54-1.57c0-.37-.05-.7-.16-.98-.1-.28-.24-.49-.41-.64-.17-.14-.35-.25-.52-.32-.18-.07-.35-.1-.53-.1-.31,0-.6.09-.88.27s-.41.39-.41.61v2.23Z"/><path class="cls-1" d="m157.21,82.09c0-.3.11-.56.34-.78.22-.22.52-.38.88-.49.36-.11.72-.19,1.06-.24.35-.05.69-.08,1.04-.08v-.4c-.02-.51-.12-.88-.31-1.11-.2-.24-.45-.36-.76-.36-.62,0-1.21.2-1.79.61l-.07-.8c.6-.35,1.22-.53,1.88-.53.55,0,1.01.18,1.39.54.37.36.58.8.61,1.32v3.66h-.91v-.42s-.11.08-.22.16c-.12.07-.35.16-.68.25-.34.1-.7.15-1.09.15-.45,0-.79-.16-1.02-.49s-.34-.66-.34-1Zm.86-.03c0,.22.11.4.32.55.21.15.48.22.8.22.35,0,.66-.07.93-.22.28-.15.41-.4.41-.75v-.77c-.25,0-.5.02-.75.05-.26.03-.52.08-.79.15-.27.07-.49.17-.66.3-.17.14-.25.29-.25.47Z"/><path class="cls-1" d="m162.77,83.04l.15-.81s.07.04.15.09c.09.05.15.09.2.12s.12.06.22.11c.1.05.19.09.27.11.08.03.18.06.29.09s.23.05.35.07.25.02.39.02c.4,0,.69-.08.86-.26.17-.17.26-.36.26-.57s-.07-.37-.22-.5c-.15-.13-.3-.22-.46-.27-.08-.02-.26-.06-.54-.12-.28-.06-.48-.1-.61-.14-.33-.11-.61-.28-.86-.54s-.38-.57-.38-.94c0-.18.03-.36.08-.52.05-.16.15-.33.28-.5.13-.17.34-.31.61-.41.27-.1.6-.15.98-.15.57,0,1.15.12,1.75.37l-.13.8s-.05-.03-.13-.07c-.08-.04-.13-.06-.14-.07-.01,0-.05-.03-.13-.06-.08-.03-.13-.05-.16-.06s-.08-.03-.15-.06c-.07-.03-.13-.04-.17-.05s-.1-.02-.18-.04-.14-.03-.2-.04-.13,0-.21-.01-.17,0-.26,0c-.37,0-.63.07-.78.22-.15.15-.23.32-.23.51,0,.27.11.46.32.57.21.12.51.21.9.27.38.07.65.14.81.21.29.13.53.32.73.58.2.26.3.56.3.92,0,.18-.03.36-.08.54s-.15.35-.28.52c-.13.17-.34.32-.61.43-.27.11-.6.16-.98.16-.7,0-1.38-.18-2.03-.54Z"/><path class="cls-1" d="m167.45,80.73c0-.79.24-1.46.72-2,.48-.54,1.05-.81,1.7-.81.24,0,.47.04.68.11s.44.2.66.38.4.44.55.79.23.77.25,1.26v.35h-3.72c.02.6.21,1.09.55,1.47s.75.57,1.22.57c.61,0,1.22-.22,1.82-.66l.08.79c-.61.41-1.24.61-1.9.62-.76,0-1.39-.28-1.88-.85-.49-.56-.74-1.23-.74-2Zm.9-.6h2.98c-.05-.31-.13-.57-.26-.79s-.27-.37-.42-.46-.3-.15-.42-.18c-.12-.03-.24-.05-.35-.05-.41,0-.74.16-1.01.46s-.44.65-.52,1.01Z"/><path class="cls-1" d="m105.71,128.71c0-.74.24-1.41.72-1.99.48-.58,1.12-.87,1.92-.87.38,0,.69.04.93.11s.56.21.93.42l-.15.79c-.39-.25-.69-.4-.9-.46-.23-.06-.51-.09-.83-.09-.54,0-.96.21-1.25.62-.29.41-.44.9-.44,1.47s.16,1.08.47,1.47.72.58,1.21.58c.62,0,1.25-.22,1.89-.65l.06.8c-.63.4-1.29.61-1.96.61-.73,0-1.35-.27-1.85-.82-.5-.55-.75-1.21-.75-1.99Z"/><path class="cls-1" d="m111.14,130.03c0-.3.11-.56.34-.78.22-.22.52-.38.88-.49.36-.11.72-.19,1.06-.24.35-.05.69-.08,1.04-.08v-.4c-.02-.51-.12-.88-.31-1.11-.2-.24-.45-.36-.76-.36-.62,0-1.21.2-1.79.61l-.07-.8c.6-.35,1.22-.53,1.88-.53.55,0,1.01.18,1.39.54.37.36.58.8.61,1.32v3.66h-.91v-.42s-.11.08-.22.16c-.12.07-.35.16-.68.25-.34.1-.7.15-1.09.15-.45,0-.79-.16-1.02-.49s-.34-.66-.34-1Zm.86-.03c0,.22.11.4.32.55.21.15.48.22.8.22.35,0,.66-.07.93-.22.28-.15.41-.4.41-.75v-.77c-.25,0-.5.02-.75.05-.26.03-.52.08-.79.15-.27.07-.49.17-.66.3-.17.14-.25.29-.25.47Z"/><path class="cls-1" d="m117.34,131.38v-8.67h.9v8.67h-.9Z"/><path class="cls-1" d="m119.66,128.71c0-.74.24-1.41.72-1.99.48-.58,1.12-.87,1.92-.87.38,0,.69.04.93.11s.56.21.93.42l-.15.79c-.39-.25-.69-.4-.9-.46-.23-.06-.51-.09-.83-.09-.54,0-.96.21-1.25.62-.29.41-.44.9-.44,1.47s.16,1.08.47,1.47.72.58,1.21.58c.62,0,1.25-.22,1.89-.65l.06.8c-.63.4-1.29.61-1.96.61-.73,0-1.35-.27-1.85-.82-.5-.55-.75-1.21-.75-1.99Z"/><path class="cls-1" d="m124.88,130.98l.15-.81s.07.04.15.09c.09.05.15.09.2.12s.12.06.22.11c.1.05.19.09.27.11.08.03.18.06.29.09s.23.05.35.07.25.02.39.02c.4,0,.69-.08.86-.26.17-.17.26-.36.26-.57s-.07-.37-.22-.5c-.15-.13-.3-.22-.46-.27-.08-.02-.26-.06-.54-.12-.28-.06-.48-.1-.61-.14-.33-.11-.61-.28-.86-.54s-.38-.57-.38-.94c0-.18.03-.36.08-.52.05-.16.15-.33.28-.5.13-.17.34-.31.61-.41.27-.1.6-.15.98-.15.57,0,1.15.12,1.75.37l-.13.8s-.05-.03-.13-.07c-.08-.04-.13-.06-.14-.07-.01,0-.05-.03-.13-.06-.08-.03-.13-.05-.16-.06s-.08-.03-.15-.06c-.07-.03-.13-.04-.17-.05s-.1-.02-.18-.04-.14-.03-.2-.04-.13,0-.21-.01-.17,0-.26,0c-.37,0-.63.07-.78.22-.15.15-.23.32-.23.51,0,.27.11.46.32.57.21.12.51.21.9.27.38.07.65.14.81.21.29.13.53.32.73.58.2.26.3.56.3.92,0,.18-.03.36-.08.54s-.15.35-.28.52c-.13.17-.34.32-.61.43-.27.11-.6.16-.98.16-.7,0-1.38-.18-2.03-.54Z"/><path class="cls-1" d="m150.89,131.38v-5.4h.87v.85c.46-.61,1.05-.91,1.75-.91.78,0,1.29.33,1.52.98.49-.66,1.09-.98,1.82-.98.3,0,.56.05.78.15.22.1.38.22.49.35.11.13.19.3.25.51.06.21.09.38.1.51s.01.29.01.49v3.46h-.94v-3.43s0-.1-.02-.19-.04-.19-.06-.27c-.03-.08-.07-.18-.13-.28-.06-.1-.12-.19-.21-.27s-.18-.14-.31-.19c-.13-.05-.27-.08-.43-.08-.43,0-.74.18-.93.54-.2.36-.29.79-.29,1.3v2.88h-.94v-3.36c0-.14,0-.24,0-.32s-.03-.19-.07-.34-.1-.27-.18-.35-.19-.17-.35-.23c-.16-.07-.35-.1-.57-.1-.43,0-.74.18-.93.54-.19.36-.29.79-.29,1.3v2.88h-.94Z"/><path class="cls-1" d="m159.82,128.73c0-.81.26-1.49.78-2.05.52-.56,1.14-.83,1.85-.83s1.38.29,1.88.87c.5.58.75,1.25.75,2.02s-.26,1.45-.79,1.98c-.53.53-1.14.79-1.84.79s-1.32-.27-1.84-.8c-.53-.53-.79-1.2-.79-1.99Zm.94-.12c0,.7.17,1.24.51,1.6s.73.54,1.18.54.84-.18,1.18-.55.51-.89.51-1.59-.17-1.18-.51-1.51c-.34-.34-.73-.5-1.18-.5s-.83.17-1.18.5c-.34.34-.52.84-.52,1.51Z"/><path class="cls-1" d="m166.43,131.38v-8.67h.9v8.67h-.9Z"/><path class="cls-1" d="m168.65,130.98l.15-.81s.07.04.15.09c.09.05.15.09.2.12.04.02.12.06.22.11s.19.09.28.11.18.06.29.09c.11.03.23.05.35.07.12.01.25.02.39.02.4,0,.69-.08.86-.26.17-.17.26-.36.26-.57s-.07-.37-.22-.5c-.14-.13-.3-.22-.46-.27-.08-.02-.26-.06-.53-.12-.28-.06-.48-.1-.62-.14-.33-.11-.61-.28-.86-.54-.25-.25-.38-.57-.38-.94,0-.18.03-.36.08-.52.05-.16.15-.33.28-.5.13-.17.33-.31.61-.41.27-.1.6-.15.98-.15.57,0,1.15.12,1.75.37l-.13.8s-.05-.03-.14-.07c-.08-.04-.13-.06-.14-.07s-.06-.03-.13-.06c-.08-.03-.13-.05-.16-.06-.03,0-.08-.03-.15-.06s-.13-.04-.17-.05-.1-.02-.18-.04-.14-.03-.2-.04-.13,0-.21-.01c-.08,0-.17,0-.26,0-.37,0-.63.07-.78.22-.15.15-.23.32-.23.51,0,.27.11.46.32.57.21.12.51.21.9.27.38.07.66.14.81.21.29.13.53.32.73.58.2.26.3.56.3.92,0,.18-.03.36-.08.54-.05.17-.15.35-.28.52-.13.17-.33.32-.61.43-.27.11-.6.16-.98.16-.7,0-1.38-.18-2.03-.54Z"/><path class="cls-1" d="m191.51,130.98l.15-.81s.07.04.15.09c.09.05.15.09.2.12.04.02.12.06.22.11s.19.09.28.11.18.06.29.09c.11.03.23.05.35.07.12.01.25.02.39.02.4,0,.69-.08.86-.26.17-.17.26-.36.26-.57s-.07-.37-.22-.5c-.14-.13-.3-.22-.46-.27-.08-.02-.26-.06-.53-.12-.28-.06-.48-.1-.62-.14-.33-.11-.61-.28-.86-.54-.25-.25-.38-.57-.38-.94,0-.18.03-.36.08-.52.05-.16.15-.33.28-.5.13-.17.33-.31.61-.41.27-.1.6-.15.98-.15.57,0,1.15.12,1.75.37l-.13.8s-.05-.03-.14-.07c-.08-.04-.13-.06-.14-.07s-.06-.03-.13-.06c-.08-.03-.13-.05-.16-.06-.03,0-.08-.03-.15-.06s-.13-.04-.17-.05-.1-.02-.18-.04-.14-.03-.2-.04-.13,0-.21-.01c-.08,0-.17,0-.26,0-.37,0-.63.07-.78.22-.15.15-.23.32-.23.51,0,.27.11.46.32.57.21.12.51.21.9.27.38.07.66.14.81.21.29.13.53.32.73.58.2.26.3.56.3.92,0,.18-.03.36-.08.54-.05.17-.15.35-.28.52-.13.17-.33.32-.61.43-.27.11-.6.16-.98.16-.7,0-1.38-.18-2.03-.54Z"/><path class="cls-1" d="m196,126.75v-.7h1.03v-1.51h.84v1.51h1.69v.7h-1.69v2.96c0,.7.22,1.04.65,1.04.34,0,.69-.13,1.05-.39l.19.71c-.57.3-1.16.45-1.78.45-.66,0-.98-.51-.98-1.54v-3.23h-1.01Z"/><path class="cls-1" d="m201.09,131.38v-5.4h.84v1.07c.1-.15.21-.3.35-.44s.36-.29.69-.45c.32-.16.68-.24,1.07-.25v.79c-.21,0-.42.05-.62.11s-.43.18-.66.33-.41.38-.55.68c-.14.3-.21.66-.21,1.07v2.48h-.9Z"/><path class="cls-1" d="m205.18,129.92v-3.87h.94v4.02c0,.28.07.48.2.6.12.12.38.18.76.18.41,0,.75-.11,1-.33.25-.22.4-.48.43-.77,0-.08.01-.19.01-.35v-3.36h.94v5.34h-.91v-.57c-.54.47-1.24.7-2.1.7-.24,0-.44-.04-.61-.11s-.3-.16-.38-.26-.15-.23-.19-.4-.07-.31-.07-.41,0-.24,0-.41Z"/><path class="cls-1" d="m210.84,128.71c0-.74.24-1.41.72-1.99.48-.58,1.12-.87,1.92-.87.38,0,.69.04.93.11s.56.21.93.42l-.15.79c-.39-.25-.69-.4-.9-.46-.23-.06-.51-.09-.83-.09-.54,0-.96.21-1.25.62-.29.41-.44.9-.44,1.47s.16,1.08.47,1.47.72.58,1.21.58c.62,0,1.25-.22,1.89-.65l.06.8c-.63.4-1.29.61-1.96.61-.73,0-1.35-.27-1.85-.82-.5-.55-.75-1.21-.75-1.99Z"/><path class="cls-1" d="m215.96,126.75v-.7h1.03v-1.51h.84v1.51h1.69v.7h-1.69v2.96c0,.7.22,1.04.65,1.04.34,0,.69-.13,1.05-.39l.19.71c-.57.3-1.16.45-1.78.45-.66,0-.98-.51-.98-1.54v-3.23h-1.01Z"/><path class="cls-1" d="m157.15,24.43v-8.33h2.83c.73,0,1.35.16,1.85.47.37.23.65.51.86.85s.31.7.31,1.09c0,.63-.26,1.19-.77,1.7-.52.51-1.25.76-2.19.76-.04,0-.1,0-.19,0s-.16,0-.21,0h-1.4v3.46h-1.08Zm1.04-4.17h1.59c.41,0,.78-.06,1.09-.17s.54-.26.7-.45.26-.38.34-.57.11-.38.11-.57c0-.18-.03-.35-.1-.53s-.17-.37-.32-.56-.38-.35-.69-.47-.69-.18-1.13-.18h-1.59v3.49Z"/><path class="cls-1" d="m163.69,21.78c0-.81.26-1.49.78-2.05.52-.55,1.14-.83,1.85-.83s1.38.29,1.88.87c.5.58.75,1.25.75,2.02s-.26,1.45-.79,1.98c-.53.53-1.14.79-1.84.79s-1.32-.27-1.84-.8c-.53-.53-.79-1.2-.79-1.99Zm.94-.12c0,.7.17,1.24.51,1.6.34.36.73.54,1.18.54s.84-.18,1.18-.55c.34-.36.51-.89.51-1.59s-.17-1.18-.51-1.51c-.34-.34-.73-.5-1.18-.5s-.83.17-1.18.5c-.34.34-.52.84-.52,1.51Z"/><path class="cls-1" d="m169.66,24.03l.15-.81s.07.04.15.09.15.09.2.11.12.06.22.11c.1.05.19.09.28.12s.18.06.29.09.23.05.35.07.25.02.39.02c.4,0,.69-.08.86-.26.17-.17.26-.36.26-.57s-.07-.37-.22-.5c-.15-.13-.3-.22-.46-.27-.08-.02-.26-.06-.53-.12s-.48-.1-.62-.14c-.33-.11-.61-.29-.86-.54-.25-.25-.38-.57-.38-.94,0-.18.03-.36.08-.52s.15-.33.28-.5c.13-.17.33-.31.61-.41.27-.1.6-.15.98-.15.57,0,1.15.12,1.75.37l-.13.8s-.05-.03-.14-.07c-.08-.04-.13-.06-.14-.07s-.06-.03-.13-.06-.13-.05-.16-.06c-.03,0-.08-.03-.15-.06-.07-.03-.13-.04-.17-.05s-.1-.02-.18-.04-.14-.03-.2-.04-.13,0-.21-.01c-.08,0-.17,0-.26,0-.37,0-.63.07-.78.22-.15.15-.23.32-.23.51,0,.27.11.46.32.57s.51.21.9.27.65.14.81.21c.29.13.53.32.73.58s.3.57.3.93c0,.18-.03.36-.08.54-.05.17-.15.35-.28.52-.13.17-.34.32-.61.42-.27.11-.6.16-.98.16-.7,0-1.38-.18-2.03-.54Z"/><path class="cls-1" d="m174.15,19.8v-.7h1.03v-1.51h.84v1.51h1.69v.7h-1.69v2.96c0,.7.22,1.04.65,1.04.34,0,.69-.13,1.05-.39l.19.71c-.57.3-1.16.45-1.78.45-.66,0-.98-.51-.98-1.54v-3.23h-1.01Z"/><path class="cls-1" d="m178.59,25.29c0-.53.25-.94.76-1.24-.2-.29-.3-.59-.3-.91,0-.36.12-.7.35-1.02h0c-.27-.36-.4-.76-.4-1.21,0-.56.19-1.03.56-1.4.38-.37.82-.55,1.32-.55.41,0,.81.13,1.19.4l-.02-.02c.59-.25,1.22-.37,1.89-.38l.13.74c-.24-.02-.47-.04-.71-.04-.02,0-.32.02-.9.05l-.11-.09c.31.43.47.86.47,1.29,0,.52-.19.98-.56,1.38-.37.4-.83.59-1.38.59-.34,0-.7-.12-1.07-.37-.12.18-.18.33-.18.45,0,.16.05.31.15.44.1.13.28.2.54.2h.92c.28,0,.52,0,.72.03.2.02.44.06.74.13.29.07.54.19.74.37.2.18.33.41.41.69.04.16.06.31.06.44,0,.46-.26.85-.79,1.16-.52.31-1.15.47-1.89.47s-1.36-.16-1.88-.47c-.51-.31-.77-.69-.77-1.15Zm.84,0c0,.21.11.39.32.54s.45.26.71.32c.26.06.52.09.76.09.51,0,.94-.09,1.31-.26.36-.17.54-.4.54-.67,0-.56-.6-.83-1.81-.83h-1.1c-.22.04-.4.13-.54.29-.13.16-.2.34-.2.53Zm.42-4.37c0,.39.1.69.3.92.2.23.46.34.79.34.27,0,.52-.1.74-.29.22-.2.33-.52.33-.99,0-.38-.1-.69-.29-.92-.2-.23-.46-.35-.79-.35-.27,0-.52.1-.74.29-.22.2-.33.53-.33.99Z"/><path class="cls-1" d="m185.23,24.43v-5.4h.84v1.07c.1-.15.21-.3.35-.44.13-.14.36-.29.69-.45.32-.16.68-.24,1.07-.25v.79c-.21,0-.42.05-.62.12-.21.07-.43.18-.66.33-.23.15-.41.38-.55.68s-.21.66-.21,1.07v2.48h-.9Z"/><path class="cls-1" d="m188.77,21.72c0-.79.24-1.46.72-2s1.05-.81,1.7-.81c.24,0,.47.04.68.11s.44.2.66.38.4.44.55.79.23.77.25,1.26v.35h-3.72c.02.6.21,1.09.55,1.47s.75.57,1.22.57c.61,0,1.22-.22,1.82-.66l.08.79c-.61.41-1.24.61-1.9.62-.76,0-1.39-.28-1.88-.85s-.74-1.23-.74-2Zm.9-.6h2.98c-.05-.31-.13-.57-.26-.79-.12-.22-.27-.37-.42-.46-.16-.09-.3-.15-.42-.18s-.24-.05-.35-.05c-.41,0-.74.16-1.01.46-.27.31-.44.65-.52,1.01Z"/><path class="cls-1" d="m194.21,23.87l.18-1c.84.67,1.69,1,2.55,1,.52,0,.94-.16,1.27-.48.33-.32.49-.69.49-1.11,0-.31-.09-.6-.28-.86s-.43-.45-.74-.58c-.02,0-.51-.14-1.49-.4-.49-.13-.92-.39-1.29-.79s-.56-.88-.56-1.46c0-.62.25-1.16.75-1.64s1.15-.71,1.95-.71c.76,0,1.49.19,2.21.57l-.17.99c-.34-.26-.65-.45-.94-.58-.29-.13-.66-.19-1.11-.19-.52,0-.94.14-1.26.43-.32.29-.48.62-.48,1,0,.28.09.54.28.77.18.23.42.4.7.52.12.03.41.1.88.22.47.12.78.21.93.28.44.18.82.48,1.13.88s.47.88.47,1.43c0,.68-.25,1.27-.77,1.78-.51.5-1.16.76-1.96.76-.96,0-1.87-.28-2.73-.83Z"/><path class="cls-1" d="m201.01,20.29c0-1.27.37-2.33,1.12-3.18s1.62-1.27,2.62-1.27,1.89.43,2.64,1.29,1.11,1.91,1.11,3.15c0,1.55-.59,2.8-1.76,3.74l1.42,1.9h-1.26l-1.01-1.44c-.43.14-.81.21-1.15.21-1.02,0-1.9-.43-2.64-1.28s-1.1-1.9-1.1-3.13Zm1.04.01c0,1.03.26,1.89.78,2.59s1.16,1.04,1.93,1.04c.13,0,.35-.04.67-.11l-1.21-1.73h1.07l.94,1.26h.01c.81-.73,1.22-1.74,1.22-3.04,0-1.07-.26-1.96-.79-2.66s-1.17-1.05-1.93-1.05h-.01c-.78.02-1.42.38-1.92,1.08s-.76,1.57-.76,2.61Z"/><path class="cls-1" d="m210.31,24.43v-8.33h1.08v7.56h3.78s0,.77,0,.77h-4.86Z"/><path class="cls-1" d="m18.67,102.06v-8.33h2.95c.8,0,1.49.19,2.07.56.59.38,1.04.91,1.36,1.57.32.66.48,1.36.48,2.1,0,1.11-.33,2.04-.98,2.79-.66.75-1.43,1.18-2.31,1.28-.13.02-.32.02-.58.02h-2.97Zm1.04-.67h1.72c1,0,1.78-.37,2.34-1.1.47-.62.71-1.39.71-2.32,0-1.02-.27-1.87-.8-2.55-.53-.68-1.28-1.02-2.25-1.02h-1.72v6.99Z"/><path class="cls-1" d="m25.46,104.12l.18-.73c.31.25.62.37.94.38.23,0,.43-.06.59-.18s.27-.26.32-.43c.02-.07.02-.17.02-.31v-6.12h.9v5.94c0,.66-.16,1.14-.47,1.43s-.66.43-1.04.43c-.49,0-.97-.14-1.44-.41Zm1.87-9.13v-1.07h1.09v1.07h-1.09Z"/><path class="cls-1" d="m29.92,100.71c0-.3.11-.56.34-.78.22-.22.52-.38.88-.49.36-.11.72-.19,1.06-.24.35-.05.69-.08,1.04-.08v-.4c-.02-.51-.12-.88-.31-1.11-.2-.24-.45-.36-.76-.36-.62,0-1.21.2-1.79.61l-.07-.8c.6-.35,1.22-.53,1.87-.53.55,0,1.01.18,1.39.54.37.36.58.8.61,1.32v3.66h-.91v-.42s-.11.08-.22.16-.34.16-.68.25c-.34.1-.7.15-1.09.15-.45,0-.79-.16-1.02-.49-.23-.32-.34-.66-.34-1Zm.86-.03c0,.22.11.4.32.55.21.15.48.22.8.22.34,0,.66-.07.93-.22.28-.15.41-.4.41-.75v-.77c-.25,0-.5.02-.75.05-.26.03-.52.08-.79.15-.27.07-.49.17-.66.3-.17.14-.25.29-.25.47Z"/><path class="cls-1" d="m36.11,102.06v-5.4h.87v.85c.46-.61,1.05-.91,1.75-.91.3,0,.55.04.76.13s.38.2.49.33.2.29.26.49.1.37.11.52.02.33.02.54v3.46h-.94v-3.36c0-.14,0-.24,0-.32s-.03-.19-.07-.34-.1-.27-.18-.35-.19-.17-.35-.23c-.16-.07-.35-.1-.57-.1-.43,0-.74.18-.93.54-.19.36-.29.79-.29,1.3v2.88h-.94Z"/><path class="cls-1" d="m41.68,102.92c0-.52.25-.94.76-1.24-.2-.29-.3-.59-.3-.91,0-.36.12-.7.35-1.02h0c-.27-.36-.4-.76-.4-1.21,0-.56.19-1.03.56-1.4.38-.37.82-.55,1.32-.55.41,0,.81.13,1.19.4l-.02-.02c.59-.25,1.22-.37,1.89-.38l.13.74c-.24-.02-.47-.04-.71-.04-.02,0-.32.02-.9.05l-.11-.09c.31.43.47.86.47,1.29,0,.52-.19.98-.56,1.38-.37.4-.83.59-1.38.59-.34,0-.7-.12-1.07-.37-.12.18-.18.33-.18.45,0,.16.05.31.15.44s.28.2.54.2h.92c.28,0,.52,0,.72.03s.44.06.74.13c.29.07.54.19.73.37s.33.41.41.69c.04.16.06.31.06.44,0,.46-.26.85-.79,1.16-.52.31-1.15.47-1.89.47s-1.36-.16-1.88-.47c-.51-.31-.77-.69-.77-1.15Zm.84,0c0,.21.11.39.32.54.21.15.45.25.71.32.26.06.52.09.76.09.51,0,.94-.09,1.31-.26s.54-.4.54-.67c0-.56-.6-.83-1.81-.83h-1.1c-.22.04-.4.13-.54.29-.13.16-.2.34-.2.53Zm.42-4.37c0,.39.1.69.3.92.2.23.46.35.79.35.27,0,.52-.1.74-.29.22-.2.33-.53.33-.99,0-.39-.1-.69-.29-.92-.2-.23-.46-.34-.79-.34-.27,0-.52.1-.74.29-.22.2-.33.53-.33.99Z"/><path class="cls-1" d="m47.71,99.41c0-.81.26-1.49.78-2.05.52-.56,1.14-.83,1.85-.83s1.38.29,1.88.87c.5.58.75,1.25.75,2.02s-.26,1.45-.79,1.98c-.53.53-1.14.79-1.84.79s-1.32-.27-1.84-.8c-.53-.53-.79-1.2-.79-1.99Zm.94-.12c0,.7.17,1.24.51,1.6s.73.54,1.18.54.84-.18,1.18-.55.51-.89.51-1.59-.17-1.18-.51-1.51c-.34-.34-.73-.5-1.18-.5s-.83.17-1.18.5c-.34.34-.52.84-.52,1.51Z"/><path class="cls-1" d="m87.18,63.48c0-1.24.37-2.29,1.11-3.16.74-.87,1.62-1.3,2.65-1.3s1.88.43,2.63,1.3c.74.86,1.11,1.92,1.11,3.16s-.38,2.3-1.12,3.14c-.75.84-1.62,1.26-2.63,1.26s-1.88-.42-2.63-1.27c-.74-.84-1.12-1.89-1.12-3.13Zm1.87-2.71c-.53.65-.79,1.5-.79,2.55s.25,1.95.74,2.69,1.14,1.11,1.92,1.11,1.4-.37,1.91-1.1.76-1.63.76-2.7-.26-1.9-.79-2.55-1.15-.97-1.88-.97-1.34.32-1.87.97Z"/><path class="cls-1" d="m96.49,67.62v-8.33h2.71c.57,0,1.08.07,1.52.22s.77.34,1.01.57.41.48.52.72.17.48.17.72c0,.46-.18.9-.53,1.29s-.86.69-1.52.88l2.39,3.91h-1.08l-2.24-3.79h-1.89v3.79h-1.04Zm1.04-4.54h1.58c.84,0,1.44-.16,1.79-.47s.53-.67.53-1.07c0-.18-.04-.35-.11-.52s-.19-.33-.35-.5-.4-.3-.71-.4-.69-.16-1.12-.16h-1.62v3.12Z"/><path class="cls-1" d="m104.3,67.62v-8.33h1.37l1.85,4.81c.51,1.39.79,2.2.83,2.41h.01c.04-.28.31-1.08.81-2.4l1.85-4.82h1.38v8.33h-.94v-7.49s-.13.45-.13.45l-.72,1.97-1.85,4.81h-.87l-1.8-4.67c-.51-1.39-.8-2.24-.86-2.55v7.49h-.94Z"/><path class="cls-1" d="m181.95,179.5v-8.33h2.95c.8,0,1.49.19,2.07.56.59.38,1.04.9,1.36,1.57.32.66.48,1.36.48,2.1,0,1.11-.33,2.04-.98,2.79-.66.75-1.43,1.18-2.31,1.28-.13.02-.32.02-.58.02h-2.97Zm1.04-.67h1.72c1,0,1.78-.37,2.34-1.1.47-.62.71-1.39.71-2.32,0-1.02-.27-1.87-.8-2.55-.53-.68-1.28-1.02-2.25-1.02h-1.72v6.99Z"/><path class="cls-1" d="m190.61,179.5v-8.33h2.71c.57,0,1.08.07,1.52.22s.77.34,1.01.57.41.48.52.72.17.48.17.72c0,.46-.18.9-.53,1.29s-.86.69-1.52.88l2.39,3.91h-1.08l-2.24-3.79h-1.89v3.79h-1.04Zm1.04-4.54h1.58c.84,0,1.44-.16,1.79-.47s.53-.67.53-1.07c0-.18-.04-.35-.11-.52s-.19-.33-.35-.5-.4-.3-.71-.4-.69-.16-1.12-.16h-1.62v3.12Z"/><path class="cls-1" d="m198.36,179.5v-8.29h5.19v.78h-.94s-2.79-.01-2.79-.01h-.38s0,3.01,0,3.01h3.61v.74h-3.61v3.77h-1.08Z"/><path class="cls-1" d="m16.13,212.67c0-.79.24-1.46.72-2,.48-.54,1.05-.81,1.7-.81.24,0,.47.04.68.11s.44.2.66.38.4.44.55.79.23.77.25,1.26v.35h-3.72c.02.6.21,1.09.55,1.47s.75.57,1.22.57c.61,0,1.22-.22,1.82-.66l.08.79c-.61.41-1.24.61-1.9.62-.76,0-1.39-.28-1.88-.85-.49-.56-.74-1.23-.74-2Zm.9-.6h2.98c-.05-.31-.13-.57-.26-.79s-.27-.37-.42-.46-.3-.15-.42-.18c-.12-.03-.24-.05-.35-.05-.41,0-.74.16-1.01.46s-.44.65-.52,1.01Z"/><path class="cls-1" d="m21.05,215.38l2.33-2.74v-.02l-2.26-2.58h1l1.66,1.98h.01l1.59-1.98h1l-2.21,2.58h0s2.4,2.76,2.4,2.76h-1l-1.8-2.26-1.73,2.26h-1Z"/><path class="cls-1" d="m26.79,210.75v-.7h1.03v-1.51h.84v1.51h1.69v.7h-1.69v2.96c0,.7.22,1.04.65,1.04.34,0,.69-.13,1.05-.39l.19.71c-.57.3-1.16.45-1.78.45-.66,0-.98-.51-.98-1.54v-3.23h-1.01Z"/><path class="cls-1" d="m31.32,212.67c0-.79.24-1.46.72-2,.48-.54,1.05-.81,1.7-.81.24,0,.47.04.68.11s.44.2.66.38.4.44.55.79.23.77.25,1.26v.35h-3.72c.02.6.21,1.09.55,1.47s.75.57,1.22.57c.61,0,1.22-.22,1.82-.66l.08.79c-.61.41-1.24.61-1.9.62-.76,0-1.39-.28-1.88-.85-.49-.56-.74-1.23-.74-2Zm.9-.6h2.98c-.05-.31-.13-.57-.26-.79s-.27-.37-.42-.46-.3-.15-.42-.18c-.12-.03-.24-.05-.35-.05-.41,0-.74.16-1.01.46s-.44.65-.52,1.01Z"/><path class="cls-1" d="m37.21,215.38v-5.4h.84v1.07c.1-.15.21-.3.35-.44s.36-.29.69-.45c.32-.16.68-.24,1.07-.25v.79c-.21,0-.42.05-.62.11s-.43.18-.66.33-.41.38-.55.68c-.14.3-.21.66-.21,1.07v2.48h-.9Z"/><path class="cls-1" d="m41.3,215.38v-5.4h.87v.85c.46-.61,1.05-.91,1.75-.91.3,0,.55.04.76.13s.38.2.49.33.2.29.26.49.1.37.11.52.02.33.02.54v3.46h-.94v-3.36c0-.14,0-.24,0-.32s-.03-.19-.07-.34-.1-.27-.18-.35-.19-.17-.35-.23c-.16-.07-.35-.1-.57-.1-.43,0-.74.18-.93.54-.19.36-.29.79-.29,1.3v2.88h-.94Z"/><path class="cls-1" d="m47.06,214.03c0-.3.11-.56.34-.78.22-.22.52-.38.88-.49.36-.11.72-.19,1.06-.24.35-.05.69-.08,1.04-.08v-.4c-.02-.51-.12-.88-.31-1.11-.2-.24-.45-.36-.76-.36-.62,0-1.21.2-1.79.61l-.07-.8c.6-.35,1.22-.53,1.87-.53.55,0,1.01.18,1.39.54.37.36.58.8.61,1.32v3.66h-.91v-.42s-.11.08-.22.16-.34.16-.68.25c-.34.1-.7.15-1.09.15-.45,0-.79-.16-1.02-.49-.23-.32-.34-.66-.34-1Zm.86-.03c0,.22.11.4.32.55.21.15.48.22.8.22.34,0,.66-.07.93-.22.28-.15.41-.4.41-.75v-.77c-.25,0-.5.02-.75.05-.26.03-.52.08-.79.15-.27.07-.49.17-.66.3-.17.14-.25.29-.25.47Z"/><path class="cls-1" d="m53.27,215.38v-8.67h.9v8.67h-.9Z"/><line class="cls-5" x1="63.39" y1="170.92" x2="79.57" y2="170.92"/><polygon class="cls-1" points="77.08 173.98 76.57 173.43 79.28 170.92 76.57 168.4 77.08 167.85 80.38 170.92 77.08 173.98"/><line class="cls-5" x1="80.38" y1="179.5" x2="64.2" y2="179.5"/><polygon class="cls-1" points="66.69 176.44 67.2 176.99 64.49 179.5 67.2 182.02 66.69 182.57 63.39 179.5 66.69 176.44"/><path class="cls-1" d="m16.13,175.91c0-.79.24-1.46.72-2s1.05-.81,1.7-.81c.24,0,.47.04.68.11s.44.2.66.38.4.44.55.79.23.77.25,1.26v.35h-3.72c.02.6.21,1.09.55,1.47s.75.57,1.22.57c.61,0,1.22-.22,1.82-.66l.08.79c-.61.41-1.24.61-1.9.62-.76,0-1.39-.28-1.88-.85s-.74-1.23-.74-2Zm.9-.6h2.98c-.05-.31-.13-.57-.26-.79-.12-.22-.27-.37-.42-.46-.16-.09-.3-.15-.42-.18s-.24-.05-.35-.05c-.41,0-.74.16-1.01.46-.27.31-.44.65-.52,1.01Z"/><path class="cls-1" d="m21.05,178.62l2.33-2.74v-.02l-2.26-2.58h1l1.66,1.98h.01l1.59-1.98h1l-2.21,2.58h0s2.4,2.76,2.4,2.76h-1l-1.8-2.26-1.73,2.26h-1Z"/><path class="cls-1" d="m26.79,173.99v-.7h1.03v-1.51h.84v1.51h1.69v.7h-1.69v2.96c0,.7.22,1.04.65,1.04.34,0,.69-.13,1.05-.39l.19.71c-.57.3-1.16.45-1.78.45-.66,0-.98-.51-.98-1.54v-3.23h-1.01Z"/><path class="cls-1" d="m31.32,175.91c0-.79.24-1.46.72-2s1.05-.81,1.7-.81c.24,0,.47.04.68.11s.44.2.66.38.4.44.55.79.23.77.25,1.26v.35h-3.72c.02.6.21,1.09.55,1.47s.75.57,1.22.57c.61,0,1.22-.22,1.82-.66l.08.79c-.61.41-1.24.61-1.9.62-.76,0-1.39-.28-1.88-.85s-.74-1.23-.74-2Zm.9-.6h2.98c-.05-.31-.13-.57-.26-.79-.12-.22-.27-.37-.42-.46-.16-.09-.3-.15-.42-.18s-.24-.05-.35-.05c-.41,0-.74.16-1.01.46-.27.31-.44.65-.52,1.01Z"/><path class="cls-1" d="m37.21,178.62v-5.4h.84v1.07c.1-.15.21-.3.35-.44.13-.14.36-.29.69-.45.32-.16.68-.24,1.07-.25v.79c-.21,0-.42.05-.62.12-.21.07-.43.18-.66.33-.23.15-.41.38-.55.68s-.21.66-.21,1.07v2.48h-.9Z"/><path class="cls-1" d="m41.3,178.62v-5.4h.87v.86c.46-.61,1.05-.91,1.75-.91.3,0,.55.04.76.13s.38.2.49.33.2.29.26.49.1.37.11.52.02.33.02.54v3.46h-.94v-3.36c0-.14,0-.25,0-.32,0-.08-.03-.19-.07-.34-.04-.15-.1-.27-.18-.35-.08-.09-.19-.17-.35-.23s-.35-.1-.57-.1c-.43,0-.74.18-.93.54s-.29.79-.29,1.3v2.88h-.94Z"/><path class="cls-1" d="m47.06,177.27c0-.3.11-.56.34-.78.22-.22.52-.38.88-.49.36-.11.72-.19,1.06-.24.35-.05.69-.08,1.04-.08v-.4c-.02-.51-.12-.88-.31-1.11-.2-.24-.45-.36-.76-.36-.62,0-1.21.2-1.79.61l-.07-.8c.6-.35,1.22-.53,1.87-.53.55,0,1.01.18,1.39.54.37.36.58.8.61,1.32v3.66h-.91v-.42s-.11.08-.22.16-.34.16-.68.25c-.34.1-.7.15-1.09.15-.45,0-.79-.16-1.02-.49-.23-.32-.34-.66-.34-1Zm.86-.03c0,.22.11.4.32.55.21.15.48.22.8.22.34,0,.66-.07.93-.22.28-.15.41-.4.41-.75v-.77c-.25,0-.5.02-.75.05-.26.03-.52.08-.79.15-.27.07-.49.17-.66.3-.17.13-.25.29-.25.47Z"/><path class="cls-1" d="m53.27,178.62v-8.67h.9v8.67h-.9Z"/><path class="cls-1" d="m20.84,21.76c0-.74.24-1.4.72-1.99.48-.58,1.12-.87,1.92-.87.38,0,.69.04.93.11s.56.21.93.42l-.15.79c-.39-.25-.69-.4-.9-.46-.23-.06-.51-.09-.83-.09-.54,0-.96.21-1.25.62-.29.41-.44.9-.44,1.47s.16,1.08.47,1.47c.31.38.72.58,1.21.58.62,0,1.25-.21,1.89-.65l.06.8c-.63.4-1.29.61-1.96.61-.73,0-1.35-.27-1.85-.82-.5-.55-.75-1.21-.75-1.99Z"/><path class="cls-1" d="m26.1,21.78c0-.81.26-1.49.78-2.05.52-.55,1.14-.83,1.85-.83s1.38.29,1.88.87c.5.58.75,1.25.75,2.02s-.26,1.45-.79,1.98c-.53.53-1.14.79-1.84.79s-1.32-.27-1.84-.8c-.53-.53-.79-1.2-.79-1.99Zm.94-.12c0,.7.17,1.24.51,1.6.34.36.73.54,1.18.54s.84-.18,1.18-.55c.34-.36.51-.89.51-1.59s-.17-1.18-.51-1.51c-.34-.34-.73-.5-1.18-.5s-.83.17-1.18.5c-.34.34-.52.84-.52,1.51Z"/><path class="cls-1" d="m32.7,24.43v-5.4h.87v.86c.46-.61,1.05-.91,1.75-.91.3,0,.55.04.76.13s.38.2.49.33.2.29.26.49.1.37.11.52.02.33.02.54v3.46h-.94v-3.36c0-.14,0-.25,0-.32,0-.08-.03-.19-.07-.34-.04-.15-.1-.27-.18-.35-.08-.09-.19-.17-.35-.23s-.35-.1-.57-.1c-.43,0-.74.18-.93.54s-.29.79-.29,1.3v2.88h-.94Z"/><path class="cls-1" d="m38.26,19.8v-.7h.89v-.88s0-.08,0-.14,0-.11,0-.14c0-.74.2-1.31.61-1.71s.87-.6,1.41-.6c.3,0,.61.04.95.13v.82c-.34-.14-.67-.21-.97-.21-.27,0-.53.08-.76.24s-.35.44-.35.85v1.63h1.36v.7h-1.32v4.63h-.9v-4.63h-.89Z"/><path class="cls-1" d="m42.49,17.36v-1.07h1.08v1.07h-1.08Zm.08,7.08v-5.34h.81v5.34h-.81Z"/><path class="cls-1" d="m44.79,25.29c0-.53.25-.94.76-1.24-.2-.29-.3-.59-.3-.91,0-.36.12-.7.35-1.02h0c-.27-.36-.4-.76-.4-1.21,0-.56.19-1.03.56-1.4.38-.37.82-.55,1.32-.55.41,0,.81.13,1.19.4l-.02-.02c.59-.25,1.22-.37,1.89-.38l.13.74c-.24-.02-.47-.04-.71-.04-.02,0-.32.02-.9.05l-.11-.09c.31.43.47.86.47,1.29,0,.52-.19.98-.56,1.38-.37.4-.83.59-1.38.59-.34,0-.7-.12-1.07-.37-.12.18-.18.33-.18.45,0,.16.05.31.15.44.1.13.28.2.54.2h.92c.28,0,.52,0,.72.03.2.02.44.06.74.13.29.07.54.19.74.37.2.18.33.41.41.69.04.16.06.31.06.44,0,.46-.26.85-.79,1.16-.52.31-1.15.47-1.89.47s-1.36-.16-1.88-.47c-.51-.31-.77-.69-.77-1.15Zm.84,0c0,.21.11.39.32.54s.45.26.71.32c.26.06.52.09.76.09.51,0,.94-.09,1.31-.26.36-.17.54-.4.54-.67,0-.56-.6-.83-1.81-.83h-1.1c-.22.04-.4.13-.54.29-.13.16-.2.34-.2.53Zm.42-4.37c0,.39.1.69.3.92.2.23.46.34.79.34.27,0,.52-.1.74-.29.22-.2.33-.52.33-.99,0-.38-.1-.69-.29-.92-.2-.23-.46-.35-.79-.35-.27,0-.52.1-.74.29-.22.2-.33.53-.33.99Z"/><path class="cls-1" d="m12.11,277.51h1.04l1.39,4.88c.37,1.36.57,2.23.62,2.61.03-.35.24-1.23.62-2.64l1.38-4.85h1.01l1.45,4.91.34,1.3.24.94.04.34c.02-.27.22-1.14.62-2.63l1.35-4.86h.86l-2.43,8.33h-1.04l-1.29-4.43c-.38-1.62-.6-2.65-.66-3.06-.01.18-.08.5-.21.96-.12.47-.24.89-.34,1.28s-.16.59-.16.61l-1.4,4.63h-1l-2.44-8.33Z"/><path class="cls-1" d="m23.29,283.19c0-.81.26-1.49.78-2.05.52-.55,1.14-.83,1.85-.83s1.38.29,1.88.87c.5.58.75,1.25.75,2.02s-.26,1.45-.79,1.98c-.53.53-1.14.79-1.84.79s-1.32-.27-1.84-.8c-.53-.53-.79-1.2-.79-1.99Zm.94-.12c0,.7.17,1.24.51,1.6.34.36.73.54,1.18.54s.84-.18,1.18-.55c.34-.36.51-.89.51-1.59s-.17-1.18-.51-1.51c-.34-.34-.73-.5-1.18-.5s-.83.17-1.18.5c-.34.34-.52.84-.52,1.51Z"/><path class="cls-1" d="m29.57,285.84v-5.4h.84v1.07c.1-.15.21-.3.35-.44.13-.14.36-.29.69-.45.32-.16.68-.24,1.07-.25v.79c-.21,0-.42.05-.62.12-.21.07-.43.18-.66.33-.23.15-.41.38-.55.68s-.21.66-.21,1.07v2.48h-.9Z"/><path class="cls-1" d="m33.69,285.84v-8.67h.86v5.84l2.45-2.51h1.08l-2.02,2.06,2.29,3.28h-.98l-1.88-2.69-.96.98v1.71h-.84Z"/><path class="cls-1" d="m38.88,281.21v-.7h.89v-.88s0-.08,0-.14,0-.11,0-.14c0-.74.2-1.31.61-1.71s.87-.6,1.41-.6c.3,0,.61.04.95.13v.82c-.34-.14-.67-.21-.97-.21-.27,0-.53.08-.76.24s-.35.44-.35.85v1.63h1.36v.7h-1.32v4.63h-.9v-4.63h-.89Z"/><path class="cls-1" d="m43.19,285.84v-8.67h.9v8.67h-.9Z"/><path class="cls-1" d="m45.44,283.19c0-.81.26-1.49.78-2.05.52-.55,1.14-.83,1.85-.83s1.38.29,1.88.87c.5.58.75,1.25.75,2.02s-.26,1.45-.79,1.98c-.53.53-1.14.79-1.84.79s-1.32-.27-1.84-.8c-.53-.53-.79-1.2-.79-1.99Zm.94-.12c0,.7.17,1.24.51,1.6.34.36.73.54,1.18.54s.84-.18,1.18-.55c.34-.36.51-.89.51-1.59s-.17-1.18-.51-1.51c-.34-.34-.73-.5-1.18-.5s-.83.17-1.18.5c-.34.34-.52.84-.52,1.51Z"/><path class="cls-1" d="m50.92,280.5h.9c.78,2.46,1.21,4.04,1.29,4.74.02-.5.45-2.08,1.28-4.74h.85l.87,2.92c.28,1.01.43,1.61.46,1.82.04-.39.48-1.97,1.34-4.74h.86l-1.65,5.34h-1.04c-.54-1.8-.88-2.93-1-3.39s-.22-.91-.28-1.34c-.02.41-.44,1.98-1.27,4.73h-.95l-1.65-5.34Z"/><path class="cls-1" d="m24.66,373.37v-8.33h1.08v3.62h4.08v-3.62h1.08v8.33h-1.08v-3.96h-4.08v3.96h-1.08Z"/><path class="cls-1" d="m33.16,373.37v-8.33h2.83c.73,0,1.35.16,1.85.47.37.23.65.51.86.85s.31.7.31,1.09c0,.63-.26,1.19-.77,1.7s-1.25.76-2.19.76c-.04,0-.1,0-.19,0s-.16,0-.21,0h-1.4v3.46h-1.08Zm1.04-4.17h1.59c.41,0,.78-.06,1.09-.17s.54-.26.7-.45.26-.38.34-.57.11-.38.11-.57c0-.18-.03-.35-.1-.53s-.17-.37-.32-.56-.38-.35-.69-.47-.69-.18-1.13-.18h-1.59v3.49Z"/><path class="cls-1" d="m40.47,369.2c0-.66.11-1.27.34-1.83s.53-1.03.89-1.4.77-.66,1.21-.87.88-.32,1.31-.32c.31,0,.56,0,.74.02s.41.05.7.11.6.15.94.28l-.18,1c-.36-.21-.68-.37-.97-.48s-.64-.16-1.07-.16c-.8,0-1.47.36-2.02,1.07s-.82,1.57-.82,2.59.27,1.89.82,2.6,1.23,1.06,2.05,1.06c.15,0,.3,0,.43-.02s.25-.02.35-.04.2-.04.32-.08.2-.07.26-.08.14-.06.25-.12.17-.1.2-.12.1-.06.22-.14.19-.12.22-.14l.07.84c-.43.26-.81.43-1.12.52s-.71.14-1.21.14c-1.14,0-2.09-.44-2.83-1.32s-1.11-1.92-1.11-3.11Z"/><rect class="cls-7" x="153.35" y="5.91" width="66.11" height="26.81"/><line class="cls-5" x1="146.28" y1="319.55" x2="146.28" y2="354.03"/><polygon class="cls-1" points="143.21 351.55 143.76 351.04 146.28 353.75 148.8 351.04 149.35 351.55 146.28 354.85 143.21 351.55"/><line class="cls-5" x1="228.25" y1="354.85" x2="228.25" y2="320.37"/><polygon class="cls-1" points="231.32 322.85 230.77 323.37 228.25 320.66 225.73 323.37 225.18 322.85 228.25 319.55 231.32 322.85"/><path class="cls-1" d="m215.44,263.81v-8.33h2.83c.73,0,1.35.16,1.85.47.37.23.65.51.86.85s.31.7.31,1.09c0,.63-.26,1.19-.77,1.7s-1.25.76-2.19.76c-.04,0-.1,0-.19,0s-.16,0-.21,0h-1.4v3.46h-1.08Zm1.04-4.17h1.59c.41,0,.78-.06,1.09-.17s.54-.26.7-.45.26-.38.34-.57.11-.38.11-.57c0-.18-.03-.35-.1-.53s-.17-.37-.32-.56-.38-.35-.69-.47-.69-.18-1.13-.18h-1.59v3.49Z"/><path class="cls-1" d="m222.15,262.46c0-.3.11-.56.34-.78s.52-.38.88-.49.72-.19,1.06-.24.69-.08,1.04-.08v-.4c-.02-.51-.12-.88-.31-1.11-.2-.24-.45-.36-.76-.36-.62,0-1.21.2-1.79.61l-.07-.8c.6-.35,1.22-.53,1.88-.53.55,0,1.01.18,1.39.54.37.36.58.8.61,1.32v3.66h-.91v-.42s-.11.08-.22.16c-.12.07-.34.16-.68.25s-.7.15-1.09.15c-.45,0-.79-.16-1.02-.49s-.34-.66-.34-1Zm.86-.03c0,.22.11.4.32.55.21.15.48.22.8.22.34,0,.65-.07.93-.22s.41-.4.41-.75v-.77c-.25,0-.5.02-.75.05-.26.03-.52.08-.79.15-.27.07-.49.17-.66.3-.17.14-.25.29-.25.47Z"/><path class="cls-1" d="m228.02,263.81v-5.4h.84v1.07c.1-.15.21-.3.35-.44s.36-.29.69-.45c.32-.16.68-.24,1.07-.25v.79c-.21,0-.42.05-.62.11s-.43.18-.66.33-.41.38-.55.68c-.14.3-.21.66-.21,1.07v2.48h-.9Z"/><path class="cls-1" d="m231.47,263.41l.15-.81s.07.04.15.09c.09.05.15.09.2.12s.12.06.22.11c.1.05.19.09.28.11s.18.06.29.09.23.05.35.07.25.02.39.02c.4,0,.69-.08.86-.26.17-.17.26-.36.26-.57s-.07-.37-.22-.5c-.15-.13-.3-.22-.46-.27-.08-.02-.26-.06-.53-.12s-.48-.1-.62-.14c-.33-.11-.61-.28-.86-.54-.25-.25-.38-.57-.38-.94,0-.18.03-.36.08-.52.05-.16.15-.33.28-.5.13-.17.33-.31.61-.41.27-.1.6-.15.98-.15.57,0,1.15.12,1.75.37l-.13.8s-.05-.03-.14-.07-.13-.06-.14-.07-.06-.03-.13-.06c-.08-.03-.13-.05-.16-.06-.03,0-.08-.03-.15-.06-.07-.03-.13-.04-.17-.05s-.1-.02-.18-.04-.14-.03-.2-.04-.13,0-.21-.01c-.08,0-.17,0-.26,0-.37,0-.63.07-.78.22-.15.15-.23.32-.23.51,0,.27.11.46.32.57.21.12.51.21.9.27.38.07.65.14.81.21.29.13.53.32.73.58.2.26.3.56.3.92,0,.18-.03.36-.08.54-.05.17-.15.35-.28.52-.13.17-.34.32-.61.43-.27.11-.6.16-.98.16-.7,0-1.38-.18-2.03-.54Z"/><path class="cls-1" d="m236.16,261.1c0-.79.24-1.46.72-2,.48-.54,1.05-.81,1.7-.81.24,0,.47.04.68.11s.44.2.66.38.4.44.55.79.23.77.25,1.26v.35h-3.72c.02.6.21,1.09.55,1.47s.75.57,1.22.57c.61,0,1.22-.22,1.82-.66l.08.79c-.61.41-1.24.61-1.9.62-.76,0-1.39-.28-1.88-.85-.49-.56-.74-1.23-.74-2Zm.9-.6h2.98c-.05-.31-.13-.57-.26-.79s-.27-.37-.42-.46-.3-.15-.42-.18c-.12-.03-.24-.05-.35-.05-.41,0-.74.16-1.01.46s-.44.65-.52,1.01Z"/><path class="cls-1" d="m171.8,311.27v-8.29h5.36v.78h-.98s-2.88-.01-2.88-.01h-.42s0,2.83,0,2.83h3.96v.74h-3.96v3.11h1.31s2.33-.01,2.33-.01h.26s.56-.01.56-.01v.86h-5.53Z"/><path class="cls-1" d="m178.79,311.27v-5.4h.87v.85c.46-.61,1.05-.91,1.75-.91.3,0,.55.04.76.13s.38.2.49.33.2.29.26.49.1.37.11.52.02.33.02.54v3.46h-.94v-3.36c0-.14,0-.24,0-.32s-.03-.19-.07-.34-.1-.27-.18-.35-.19-.17-.35-.23c-.16-.07-.35-.1-.57-.1-.43,0-.74.18-.93.54-.19.36-.29.79-.29,1.3v2.88h-.94Z"/><path class="cls-1" d="m184.36,312.13c0-.52.25-.94.76-1.24-.2-.29-.3-.59-.3-.91,0-.36.12-.7.35-1.02h0c-.27-.36-.4-.76-.4-1.21,0-.56.19-1.03.56-1.4.38-.37.82-.55,1.32-.55.41,0,.81.13,1.19.4l-.02-.02c.59-.25,1.22-.37,1.89-.38l.13.74c-.24-.02-.47-.04-.71-.04-.02,0-.32.02-.9.05l-.11-.09c.31.43.47.86.47,1.29,0,.52-.19.98-.56,1.38-.37.4-.83.59-1.38.59-.34,0-.7-.12-1.07-.37-.12.18-.18.33-.18.45,0,.16.05.31.15.44s.28.2.54.2h.92c.28,0,.52,0,.72.03s.44.06.74.13c.29.07.54.19.73.37s.33.41.41.69c.04.16.06.31.06.44,0,.46-.26.85-.79,1.16-.52.31-1.15.47-1.89.47s-1.36-.16-1.88-.47c-.51-.31-.77-.69-.77-1.15Zm.84,0c0,.21.11.39.32.54.21.15.45.25.71.32.26.06.52.09.76.09.51,0,.94-.09,1.31-.26s.54-.4.54-.67c0-.56-.6-.83-1.81-.83h-1.1c-.22.04-.4.13-.54.29-.13.16-.2.34-.2.53Zm.42-4.37c0,.39.1.69.3.92.2.23.46.35.79.35.27,0,.52-.1.74-.29.22-.2.33-.53.33-.99,0-.39-.1-.69-.29-.92-.2-.23-.46-.34-.79-.34-.27,0-.52.1-.74.29-.22.2-.33.53-.33.99Z"/><path class="cls-1" d="m190.92,304.19v-1.07h1.08v1.07h-1.08Zm.08,7.08v-5.34h.81v5.34h-.81Z"/><path class="cls-1" d="m193.86,311.27v-5.4h.87v.85c.46-.61,1.05-.91,1.75-.91.3,0,.55.04.76.13s.38.2.49.33.2.29.26.49.1.37.11.52.02.33.02.54v3.46h-.94v-3.36c0-.14,0-.24,0-.32s-.03-.19-.07-.34-.1-.27-.18-.35-.19-.17-.35-.23c-.16-.07-.35-.1-.57-.1-.43,0-.74.18-.93.54-.19.36-.29.79-.29,1.3v2.88h-.94Z"/><path class="cls-1" d="m199.5,308.55c0-.79.24-1.46.72-2,.48-.54,1.05-.81,1.7-.81.24,0,.47.04.68.11s.44.2.66.38.4.44.55.79.23.77.25,1.26v.35h-3.72c.02.6.21,1.09.55,1.47s.75.57,1.22.57c.61,0,1.22-.22,1.82-.66l.08.79c-.61.41-1.24.61-1.9.62-.76,0-1.39-.28-1.88-.85-.49-.56-.74-1.23-.74-2Zm.9-.6h2.98c-.05-.31-.13-.57-.26-.79s-.27-.37-.42-.46-.3-.15-.42-.18c-.12-.03-.24-.05-.35-.05-.41,0-.74.16-1.01.46s-.44.65-.52,1.01Z"/><path class="cls-1" d="m157.64,373.13l.16-.9c.14.13.25.22.32.28s.22.13.47.23.5.15.76.15c.4,0,.73-.11,1-.32s.41-.57.41-1.09v-6.44h1.04v6.47c0,.41-.06.76-.19,1.05-.12.29-.29.51-.51.66s-.44.25-.67.32-.48.1-.75.1c-.7,0-1.39-.17-2.05-.5Z"/><path class="cls-1" d="m163.17,370.72c0-.81.26-1.49.78-2.05.52-.55,1.14-.83,1.85-.83s1.38.29,1.88.87c.5.58.75,1.25.75,2.02s-.26,1.45-.79,1.98c-.53.53-1.14.79-1.84.79s-1.32-.27-1.84-.8c-.53-.53-.79-1.2-.79-1.99Zm.94-.12c0,.7.17,1.24.51,1.6.34.36.73.54,1.18.54s.84-.18,1.18-.55c.34-.36.51-.89.51-1.59s-.17-1.18-.51-1.51c-.34-.34-.73-.5-1.18-.5s-.83.17-1.18.5c-.34.34-.52.84-.52,1.51Z"/><path class="cls-1" d="m169.78,373.37v-8.67h.9v3.91c.59-.47,1.23-.71,1.92-.71.57,0,1.04.28,1.41.83s.55,1.2.55,1.94c0,.81-.22,1.48-.66,2.02-.44.54-.96.81-1.57.81-.57,0-1.1-.23-1.61-.7v.56h-.94Zm.94-1.6c0,.06,0,.11,0,.15s.01.07.02.1c.01.03.02.06.04.07s.03.04.06.08c.03.04.05.08.08.11.27.32.59.48.98.48.43,0,.82-.17,1.18-.5s.54-.86.54-1.57c0-.37-.05-.7-.16-.98s-.24-.49-.41-.64-.35-.25-.52-.32c-.18-.07-.35-.1-.53-.1-.31,0-.6.09-.88.27s-.41.39-.41.61v2.23Z"/><path class="cls-1" d="m180.13,373.37v-8.33h1.08v3.62h4.08v-3.62h1.08v8.33h-1.08v-3.96h-4.08v3.96h-1.08Z"/><path class="cls-1" d="m188.02,372.01c0-.3.11-.56.34-.78.22-.22.52-.38.88-.49.36-.11.72-.19,1.06-.24.35-.05.69-.08,1.04-.08v-.4c-.02-.51-.12-.88-.31-1.11-.2-.24-.45-.36-.76-.36-.62,0-1.21.2-1.79.61l-.07-.8c.6-.35,1.22-.53,1.87-.53.55,0,1.01.18,1.39.54.37.36.58.8.61,1.32v3.66h-.91v-.42s-.11.08-.22.16-.34.16-.68.25c-.34.1-.7.15-1.09.15-.45,0-.79-.16-1.02-.49-.23-.32-.34-.66-.34-1Zm.86-.03c0,.22.11.4.32.55.21.15.48.22.8.22.34,0,.66-.07.93-.22.28-.15.41-.4.41-.75v-.77c-.25,0-.5.02-.75.05-.26.03-.52.08-.79.15-.27.07-.49.17-.66.3-.17.13-.25.29-.25.47Z"/><path class="cls-1" d="m194.21,373.37v-5.4h.87v.86c.46-.61,1.05-.91,1.75-.91.3,0,.55.04.76.13s.38.2.49.33.2.29.26.49.1.37.11.52.02.33.02.54v3.46h-.94v-3.36c0-.14,0-.25,0-.32,0-.08-.03-.19-.07-.34-.04-.15-.1-.27-.18-.35-.08-.09-.19-.17-.35-.23s-.35-.1-.57-.1c-.43,0-.74.18-.93.54s-.29.79-.29,1.3v2.88h-.94Z"/><path class="cls-1" d="m199.87,370.71c0-.79.21-1.46.62-2,.42-.54.92-.81,1.51-.81s1.19.22,1.74.66v-3.86h.9v8.67h-.94v-.62c-.52.5-1.11.76-1.77.76-.59,0-1.09-.28-1.48-.84-.39-.56-.59-1.21-.59-1.95Zm.94-.01c0,.71.17,1.23.5,1.56.33.33.71.5,1.12.5.34,0,.63-.11.89-.34.26-.23.39-.45.39-.65v-2.3c0-.15-.08-.31-.25-.46-.26-.24-.55-.36-.89-.36h-.02c-.19,0-.38.04-.57.11-.19.07-.37.18-.56.33-.18.15-.33.36-.44.64-.11.28-.17.61-.17.98Z"/><path class="cls-1" d="m206.62,373.37v-8.67h.9v8.67h-.9Z"/><path class="cls-1" d="m208.92,370.65c0-.79.24-1.46.72-2s1.05-.81,1.7-.81c.24,0,.47.04.68.11s.44.2.66.38.4.44.55.79.23.77.25,1.26v.35h-3.72c.02.6.21,1.09.55,1.47s.75.57,1.22.57c.61,0,1.22-.22,1.82-.66l.08.79c-.61.41-1.24.61-1.9.62-.76,0-1.39-.28-1.88-.85s-.74-1.23-.74-2Zm.9-.6h2.98c-.05-.31-.13-.57-.26-.79-.12-.22-.27-.37-.42-.46-.16-.09-.3-.15-.42-.18s-.24-.05-.35-.05c-.41,0-.74.16-1.01.46-.27.31-.44.65-.52,1.01Z"/><path class="cls-1" d="m214.81,373.37v-5.4h.84v1.07c.1-.15.21-.3.35-.44.13-.14.36-.29.69-.45.32-.16.68-.24,1.07-.25v.79c-.21,0-.42.05-.62.12-.21.07-.43.18-.66.33-.23.15-.41.38-.55.68s-.21.66-.21,1.07v2.48h-.9Z"/><rect class="cls-7" x="113.79" y="354.85" width="147.51" height="26.81"/><path class="cls-1" d="m100.72,178.97v-8.33h2.71c.57,0,1.08.07,1.52.22s.77.34,1.01.57.41.48.52.72.17.48.17.72c0,.46-.18.9-.53,1.29s-.86.69-1.52.88l2.39,3.91h-1.08l-2.24-3.79h-1.89v3.79h-1.04Zm1.04-4.54h1.58c.84,0,1.44-.16,1.79-.47s.53-.67.53-1.07c0-.18-.04-.35-.11-.52s-.19-.33-.35-.5-.4-.3-.71-.4-.69-.16-1.12-.16h-1.62v3.12Z"/><path class="cls-1" d="m108.46,178.97v-8.29h5.36v.78h-.98s-2.88-.01-2.88-.01h-.42s0,2.83,0,2.83h3.96v.74h-3.96v3.11h1.31s2.33-.01,2.33-.01h.26s.56-.01.56-.01v.86h-5.53Z"/><path class="cls-1" d="m115.02,178.4l.18-1c.83.67,1.69,1,2.55,1,.52,0,.94-.16,1.27-.48.32-.32.49-.69.49-1.11,0-.31-.09-.6-.28-.86s-.43-.45-.74-.58c-.02,0-.51-.14-1.49-.4-.49-.13-.92-.39-1.29-.79s-.56-.88-.56-1.46c0-.62.25-1.16.75-1.64.5-.48,1.15-.71,1.95-.71.76,0,1.49.19,2.21.57l-.17.99c-.34-.26-.65-.45-.94-.58-.29-.13-.66-.19-1.11-.19-.52,0-.94.14-1.26.43-.32.29-.48.62-.48,1,0,.28.09.54.28.77.18.23.42.4.7.52.12.03.41.1.88.22s.78.21.93.28c.44.18.82.48,1.13.88.32.4.47.88.47,1.43,0,.68-.26,1.27-.77,1.78-.51.5-1.17.76-1.96.76-.96,0-1.87-.28-2.73-.83Z"/><path class="cls-1" d="m121.58,171.49v-.79h7.28v.79h-3.1s0,7.48,0,7.48h-1.08v-7.49h-1.41s-1.69.01-1.69.01Z"/><path class="cls-1" d="m133.62,178.97l3.13-8.33h1.07l3.12,8.33h-1.11l-.93-2.45h-3.47l-.91,2.45h-.9Zm2.07-3.12h2.97c-.95-2.62-1.44-4.07-1.48-4.37-.11.49-.6,1.95-1.49,4.37Z"/><path class="cls-1" d="m142.44,178.97v-8.33h2.83c.73,0,1.35.16,1.85.47.37.23.65.51.86.85s.31.7.31,1.09c0,.63-.26,1.19-.77,1.7-.52.51-1.25.76-2.19.76-.04,0-.1,0-.19,0s-.16,0-.21,0h-1.4v3.46h-1.08Zm1.04-4.17h1.59c.41,0,.78-.06,1.09-.17s.54-.26.7-.45.26-.38.34-.57.11-.38.11-.57c0-.18-.03-.35-.1-.53s-.17-.37-.32-.56-.38-.35-.69-.47-.69-.18-1.13-.18h-1.59v3.49Z"/><path class="cls-1" d="m150.09,178.97v-8.33h1.08v8.33h-1.08Z"/><line class="cls-5" x1="257.89" y1="199.23" x2="257.89" y2="152"/><polygon class="cls-1" points="260.95 154.48 260.4 154.99 257.89 152.29 255.37 154.99 254.82 154.48 257.89 151.18 260.95 154.48"/><line class="cls-5" x1="242.5" y1="151.18" x2="242.5" y2="198.42"/><polygon class="cls-1" points="239.44 195.94 239.99 195.42 242.5 198.13 245.02 195.42 245.57 195.94 242.5 199.23 239.44 195.94"/><path class="cls-1" d="m159.34,215.38v-5.4h.87v.85c.46-.61,1.05-.91,1.75-.91.78,0,1.29.33,1.52.98.49-.66,1.09-.98,1.82-.98.3,0,.56.05.78.15s.38.22.49.35c.11.13.19.3.25.51.06.21.09.38.1.51s.01.29.01.49v3.46h-.94v-3.43s0-.1-.02-.19-.04-.19-.06-.27c-.03-.08-.07-.18-.13-.28-.06-.1-.12-.19-.21-.27s-.18-.14-.31-.19c-.13-.05-.27-.08-.43-.08-.43,0-.74.18-.93.54-.2.36-.29.79-.29,1.3v2.88h-.94v-3.36c0-.14,0-.24,0-.32s-.03-.19-.07-.34-.1-.27-.18-.35-.19-.17-.35-.23c-.16-.07-.35-.1-.57-.1-.43,0-.74.18-.93.54-.19.36-.29.79-.29,1.3v2.88h-.94Z"/><path class="cls-1" d="m168.8,208.3v-1.07h1.08v1.07h-1.08Zm.08,7.08v-5.34h.81v5.34h-.81Z"/><path class="cls-1" d="m171.19,212.73c0-.79.21-1.46.62-2,.42-.54.92-.81,1.51-.81s1.19.22,1.74.66v-3.86h.9v8.67h-.94v-.62c-.52.5-1.11.76-1.77.76-.59,0-1.09-.28-1.48-.84-.39-.56-.59-1.21-.59-1.95Zm.94-.01c0,.71.17,1.23.5,1.56.33.33.71.5,1.12.5.34,0,.63-.11.89-.34.26-.23.39-.45.39-.65v-2.3c0-.15-.08-.31-.25-.46-.26-.24-.55-.36-.89-.36h-.02c-.19,0-.38.04-.57.11-.19.07-.37.18-.56.33-.18.15-.33.36-.44.64-.11.28-.17.61-.17.98Z"/><path class="cls-1" d="m177.39,212.73c0-.79.21-1.46.62-2,.42-.54.92-.81,1.51-.81s1.19.22,1.74.66v-3.86h.9v8.67h-.94v-.62c-.52.5-1.11.76-1.77.76-.59,0-1.09-.28-1.48-.84-.39-.56-.59-1.21-.59-1.95Zm.94-.01c0,.71.17,1.23.5,1.56.33.33.71.5,1.12.5.34,0,.63-.11.89-.34.26-.23.39-.45.39-.65v-2.3c0-.15-.08-.31-.25-.46-.26-.24-.55-.36-.89-.36h-.02c-.19,0-.38.04-.57.11-.19.07-.37.18-.56.33-.18.15-.33.36-.44.64-.11.28-.17.61-.17.98Z"/><path class="cls-1" d="m184.14,215.38v-8.67h.9v8.67h-.9Z"/><path class="cls-1" d="m186.44,212.67c0-.79.24-1.46.72-2,.48-.54,1.05-.81,1.7-.81.24,0,.47.04.68.11s.44.2.66.38.4.44.55.79.23.77.25,1.26v.35h-3.72c.02.6.21,1.09.55,1.47s.75.57,1.22.57c.61,0,1.22-.22,1.82-.66l.08.79c-.61.41-1.24.61-1.9.62-.76,0-1.39-.28-1.88-.85-.49-.56-.74-1.23-.74-2Zm.9-.6h2.98c-.05-.31-.13-.57-.26-.79s-.27-.37-.42-.46-.3-.15-.42-.18c-.12-.03-.24-.05-.35-.05-.41,0-.74.16-1.01.46s-.44.65-.52,1.01Z"/><path class="cls-1" d="m191.53,210.04h.9c.78,2.46,1.21,4.04,1.29,4.74.02-.5.45-2.08,1.28-4.74h.85l.87,2.92c.28,1.01.43,1.61.46,1.82.04-.39.48-1.97,1.34-4.74h.86l-1.65,5.34h-1.04c-.54-1.8-.88-2.93-1-3.39s-.22-.91-.28-1.34c-.02.41-.44,1.98-1.27,4.73h-.95l-1.65-5.34Z"/><path class="cls-1" d="m199.75,214.03c0-.3.11-.56.34-.78.22-.22.52-.38.88-.49.36-.11.72-.19,1.06-.24.35-.05.69-.08,1.04-.08v-.4c-.02-.51-.12-.88-.31-1.11-.2-.24-.45-.36-.76-.36-.62,0-1.21.2-1.79.61l-.07-.8c.6-.35,1.22-.53,1.87-.53.55,0,1.01.18,1.39.54.37.36.58.8.61,1.32v3.66h-.91v-.42s-.11.08-.22.16-.34.16-.68.25c-.34.1-.7.15-1.09.15-.45,0-.79-.16-1.02-.49-.23-.32-.34-.66-.34-1Zm.86-.03c0,.22.11.4.32.55.21.15.48.22.8.22.34,0,.66-.07.93-.22.28-.15.41-.4.41-.75v-.77c-.25,0-.5.02-.75.05-.26.03-.52.08-.79.15-.27.07-.49.17-.66.3-.17.14-.25.29-.25.47Z"/><path class="cls-1" d="m205.62,215.38v-5.4h.84v1.07c.1-.15.21-.3.35-.44s.36-.29.69-.45c.32-.16.68-.24,1.07-.25v.79c-.21,0-.42.05-.62.11s-.43.18-.66.33-.41.38-.55.68c-.14.3-.21.66-.21,1.07v2.48h-.9Z"/><path class="cls-1" d="m209.16,212.67c0-.79.24-1.46.72-2,.48-.54,1.05-.81,1.7-.81.24,0,.47.04.68.11s.44.2.66.38.4.44.55.79.23.77.25,1.26v.35h-3.72c.02.6.21,1.09.55,1.47s.75.57,1.22.57c.61,0,1.22-.22,1.82-.66l.08.79c-.61.41-1.24.61-1.9.62-.76,0-1.39-.28-1.88-.85-.49-.56-.74-1.23-.74-2Zm.9-.6h2.98c-.05-.31-.13-.57-.26-.79s-.27-.37-.42-.46-.3-.15-.42-.18c-.12-.03-.24-.05-.35-.05-.41,0-.74.16-1.01.46s-.44.65-.52,1.01Z"/><rect class="cls-7" x="80.94" y="199.23" width="210.57" height="25.25"/><path class="cls-1" d="m97.96,344.23l.11-.6c.1.09.17.15.21.19.04.04.15.09.31.16.16.07.33.1.51.1.27,0,.49-.07.67-.21.18-.14.27-.38.27-.73v-4.29h.7v4.31c0,.27-.04.5-.12.7-.08.2-.2.34-.34.44-.14.1-.29.17-.45.21-.16.04-.32.06-.5.06-.47,0-.92-.11-1.37-.34Z"/><path class="cls-1" d="m101.65,342.63c0-.54.17-1,.52-1.37.34-.37.76-.55,1.24-.55s.92.19,1.25.58c.33.39.5.84.5,1.35s-.18.97-.53,1.32c-.35.35-.76.53-1.23.53s-.88-.18-1.23-.53c-.35-.35-.53-.8-.53-1.32Zm.62-.08c0,.47.11.82.34,1.06.23.24.49.36.79.36s.56-.12.79-.36c.23-.24.34-.6.34-1.06s-.11-.79-.34-1.01c-.23-.22-.49-.34-.79-.34s-.56.11-.79.34c-.23.22-.34.56-.34,1.01Z"/><path class="cls-1" d="m106.06,344.39v-5.78h.6v2.61c.39-.31.82-.47,1.28-.47.38,0,.69.18.94.55.25.37.37.8.37,1.29,0,.54-.15.99-.44,1.35-.29.36-.64.54-1.05.54-.38,0-.73-.16-1.07-.46v.38h-.62Zm.62-1.07s0,.07,0,.1c0,.02,0,.05.02.07,0,.02.02.04.02.05,0,.01.02.03.04.05.02.03.04.05.05.07.18.21.4.32.66.32.28,0,.54-.11.79-.33.24-.22.36-.57.36-1.04,0-.25-.04-.47-.1-.65-.07-.19-.16-.33-.28-.43-.12-.1-.23-.17-.35-.21-.12-.04-.23-.07-.35-.07-.21,0-.4.06-.58.18-.18.12-.27.26-.27.41v1.49Z"/><path class="cls-1" d="m110.3,344.39v-5.55h.72v5.55h-.72Z"/><path class="cls-1" d="m112.4,344.39v-3.6h.58v.57c.31-.41.7-.61,1.17-.61.2,0,.37.03.51.09.14.06.25.13.32.22s.13.19.17.32c.04.13.07.25.08.35,0,.1.02.22.02.36v2.3h-.62v-2.24c0-.09,0-.16,0-.22,0-.05-.02-.13-.05-.23-.03-.1-.07-.18-.12-.24s-.13-.11-.23-.16c-.1-.05-.23-.07-.38-.07-.28,0-.49.12-.62.36s-.19.53-.19.87v1.92h-.62Z"/><path class="cls-1" d="m116.11,341.3v-.47h.59v-.59s0-.05,0-.1c0-.04,0-.08,0-.1,0-.49.13-.87.4-1.14s.58-.4.94-.4c.2,0,.41.03.63.09v.55c-.23-.09-.45-.14-.65-.14-.18,0-.35.05-.51.16-.16.11-.24.29-.24.57v1.09h.91v.47h-.88v3.09h-.6v-3.09h-.59Z"/><path class="cls-1" d="m118.57,342.63c0-.54.17-1,.52-1.37.34-.37.76-.55,1.24-.55s.92.19,1.25.58c.33.39.5.84.5,1.35s-.18.97-.53,1.32c-.35.35-.76.53-1.23.53s-.88-.18-1.23-.53c-.35-.35-.53-.8-.53-1.32Zm.62-.08c0,.47.11.82.34,1.06.23.24.49.36.79.36s.56-.12.79-.36c.23-.24.34-.6.34-1.06s-.11-.79-.34-1.01c-.23-.22-.49-.34-.79-.34s-.56.11-.79.34c-.23.22-.34.56-.34,1.01Z"/><rect class="cls-4" x="127.48" y="333.09" width="12.76" height="16.33"/><path class="cls-1" d="m250.19,344.23l.11-.6c.1.09.17.15.21.19.04.04.15.09.31.16.16.07.33.1.51.1.27,0,.49-.07.67-.21.18-.14.27-.38.27-.73v-4.29h.7v4.31c0,.27-.04.5-.12.7-.08.2-.2.34-.34.44-.14.1-.29.17-.45.21-.16.04-.32.06-.5.06-.47,0-.92-.11-1.37-.34Z"/><path class="cls-1" d="m253.88,342.63c0-.54.17-1,.52-1.37.34-.37.76-.55,1.24-.55s.92.19,1.25.58c.33.39.5.84.5,1.35s-.18.97-.53,1.32c-.35.35-.76.53-1.23.53s-.88-.18-1.23-.53c-.35-.35-.53-.8-.53-1.32Zm.62-.08c0,.47.11.82.34,1.06.23.24.49.36.79.36s.56-.12.79-.36c.23-.24.34-.6.34-1.06s-.11-.79-.34-1.01c-.23-.22-.49-.34-.79-.34s-.56.11-.79.34c-.23.22-.34.56-.34,1.01Z"/><path class="cls-1" d="m258.29,344.39v-5.78h.6v2.61c.39-.31.82-.47,1.28-.47.38,0,.69.18.94.55.25.37.37.8.37,1.29,0,.54-.15.99-.44,1.35-.29.36-.64.54-1.05.54-.38,0-.73-.16-1.07-.46v.38h-.62Zm.62-1.07s0,.07,0,.1c0,.02,0,.05.02.07,0,.02.02.04.02.05,0,.01.02.03.04.05.02.03.04.05.05.07.18.21.4.32.66.32.28,0,.54-.11.79-.33.24-.22.36-.57.36-1.04,0-.25-.04-.47-.1-.65-.07-.19-.16-.33-.28-.43-.12-.1-.23-.17-.35-.21-.12-.04-.23-.07-.35-.07-.21,0-.4.06-.58.18-.18.12-.27.26-.27.41v1.49Z"/><path class="cls-1" d="m262.53,344.39v-5.55h1.8c.38,0,.72.05,1.01.15.29.1.52.22.67.38s.27.32.35.48c.07.16.11.32.11.48,0,.31-.12.6-.35.86s-.57.46-1.02.59l1.59,2.61h-.72l-1.5-2.53h-1.26v2.53h-.7Zm.7-3.02h1.05c.56,0,.96-.11,1.2-.32.24-.21.36-.45.36-.71,0-.12-.02-.23-.07-.34-.05-.11-.12-.22-.23-.33-.11-.11-.27-.2-.48-.27s-.46-.11-.75-.11h-1.08v2.08Z"/><path class="cls-1" d="m267.21,342.58c0-.53.16-.97.48-1.33.32-.36.7-.54,1.13-.54.16,0,.31.03.46.08s.29.13.44.25c.15.12.27.29.37.53.1.23.15.51.17.84v.23h-2.48c.02.4.14.73.37.98.23.25.5.38.82.38.41,0,.81-.15,1.21-.44l.05.53c-.41.27-.83.41-1.27.41-.51,0-.93-.19-1.25-.56-.33-.38-.49-.82-.49-1.33Zm.6-.4h1.98c-.03-.21-.09-.38-.17-.53-.08-.14-.18-.25-.28-.31-.1-.06-.2-.1-.28-.12-.08-.02-.16-.03-.24-.03-.27,0-.5.1-.67.31-.18.21-.29.43-.34.67Z"/><path class="cls-1" d="m270.7,344.13l.1-.54s.04.03.1.06c.06.04.1.06.13.08.03.02.08.04.14.07.07.03.13.06.18.08.06.02.12.04.2.06.07.02.15.04.24.04.08,0,.17.01.26.01.27,0,.46-.06.57-.17.12-.11.17-.24.17-.38s-.05-.24-.15-.33-.2-.15-.3-.18c-.05-.02-.17-.04-.36-.08-.19-.04-.32-.07-.41-.1-.22-.07-.41-.19-.58-.36-.17-.17-.25-.38-.25-.63,0-.12.02-.24.05-.35.04-.11.1-.22.19-.34.09-.11.22-.21.41-.27s.4-.1.66-.1c.38,0,.77.08,1.16.25l-.08.53s-.04-.02-.09-.04c-.05-.03-.09-.04-.09-.05,0,0-.04-.02-.09-.04-.05-.02-.08-.03-.1-.04-.02,0-.05-.02-.1-.04-.05-.02-.08-.03-.11-.03s-.07-.01-.12-.02-.1-.02-.14-.02c-.04,0-.08,0-.14,0-.05,0-.11,0-.17,0-.25,0-.42.05-.52.15-.1.1-.15.21-.15.34,0,.18.07.3.21.38.14.08.34.14.6.18.26.04.44.09.54.14.19.09.35.21.49.39.13.17.2.38.2.62,0,.12-.02.24-.05.36s-.1.23-.19.35-.22.21-.41.28c-.18.07-.4.11-.65.11-.47,0-.92-.12-1.35-.36Z"/><path class="cls-1" d="m274.19,343.42v-2.58h.62v2.68c0,.19.05.32.13.4.08.08.25.12.51.12.28,0,.5-.07.67-.22.17-.15.26-.32.29-.51,0-.05,0-.13,0-.23v-2.24h.62v3.56h-.61v-.38c-.36.31-.83.47-1.4.47-.16,0-.29-.03-.41-.08s-.2-.11-.25-.17c-.06-.07-.1-.16-.13-.27-.03-.12-.04-.21-.05-.27,0-.07,0-.16,0-.28Z"/><path class="cls-1" d="m278.33,344.39v-5.78h.6v5.78h-.6Z"/><path class="cls-1" d="m279.74,341.3v-.47h.69v-1.01h.56v1.01h1.13v.47h-1.13v1.97c0,.46.14.7.43.7.22,0,.46-.09.7-.26l.13.47c-.38.2-.77.3-1.18.3-.44,0-.66-.34-.66-1.03v-2.15h-.67Z"/><path class="cls-1" d="m282.7,344.13l.1-.54s.04.03.1.06c.06.04.1.06.13.08.03.02.08.04.14.07.07.03.13.06.18.08.06.02.12.04.2.06.07.02.15.04.24.04.08,0,.17.01.26.01.27,0,.46-.06.57-.17.12-.11.17-.24.17-.38s-.05-.24-.15-.33-.2-.15-.3-.18c-.05-.02-.17-.04-.36-.08-.19-.04-.32-.07-.41-.1-.22-.07-.41-.19-.58-.36-.17-.17-.25-.38-.25-.63,0-.12.02-.24.05-.35.04-.11.1-.22.19-.34.09-.11.22-.21.41-.27s.4-.1.66-.1c.38,0,.77.08,1.16.25l-.08.53s-.04-.02-.09-.04c-.05-.03-.09-.04-.09-.05,0,0-.04-.02-.09-.04-.05-.02-.08-.03-.1-.04-.02,0-.05-.02-.1-.04-.05-.02-.08-.03-.11-.03s-.07-.01-.12-.02-.1-.02-.14-.02c-.04,0-.08,0-.14,0-.05,0-.11,0-.17,0-.25,0-.42.05-.52.15-.1.1-.15.21-.15.34,0,.18.07.3.21.38.14.08.34.14.6.18.26.04.44.09.54.14.19.09.35.21.49.39.13.17.2.38.2.62,0,.12-.02.24-.05.36s-.1.23-.19.35-.22.21-.41.28c-.18.07-.4.11-.65.11-.47,0-.92-.12-1.35-.36Z"/><rect class="cls-4" x="232.6" y="333.09" width="12.76" height="16.33"/><rect class="cls-10" x="239.29" y="341.79" width="5.21" height="5.21"/><rect class="cls-8" x="240.09" y="335.11" width="4.14" height="4.14"/><rect class="cls-9" x="233.35" y="341.79" width="5.21" height="5.21"/><line class="cls-3" x1="238.53" y1="344.39" x2="239.29" y2="344.39"/></svg>