<?xml version="1.0" encoding="UTF-8"?><svg id="Layer_1" xmlns="http://www.w3.org/2000/svg" xmlns:xlink="http://www.w3.org/1999/xlink" viewBox="0 0 223.52 272.93"><defs><style>.cls-1{fill:url(#linear-gradient);}.cls-2{fill:#f47648;}.cls-3{fill:#f2f2f3;}.cls-4{fill:#fac964;}.cls-5{fill:#fff;}.cls-6{fill:#fae9b4;}.cls-7{fill:#fbdf88;}.cls-8{fill:#6790b5;}.cls-9{fill:#9e9e9e;}.cls-10{fill:#231f20;}.cls-11{fill:#3c9394;}.cls-12{fill:#971a3f;}.cls-13,.cls-14{fill:#2f4259;}.cls-15{fill:#58595b;}.cls-16{fill:#77787b;}.cls-17{stroke:#9e9e9e;stroke-miterlimit:3.2;stroke-width:1.28px;}.cls-17,.cls-18,.cls-19,.cls-20{fill:none;}.cls-18,.cls-19{stroke-width:.32px;}.cls-18,.cls-19,.cls-20{stroke-miterlimit:10;}.cls-18,.cls-20{stroke:#77787b;}.cls-19{stroke:#938551;}.cls-20{stroke-width:.75px;}.cls-21{fill:url(#linear-gradient-2);}.cls-14{fill-rule:evenodd;}</style><linearGradient id="linear-gradient" x1="-3834.26" y1="785.53" x2="-3804.56" y2="759.98" gradientTransform="translate(2199.83 682.22) scale(.56 -.57)" gradientUnits="userSpaceOnUse"><stop offset="0" stop-color="#5c9fd3"/><stop offset="1" stop-color="#316a99"/></linearGradient><linearGradient id="linear-gradient-2" x1="-3793.08" y1="744.51" x2="-3803.68" y2="759.52" gradientTransform="translate(2199.83 682.22) scale(.56 -.57)" gradientUnits="userSpaceOnUse"><stop offset="0" stop-color="#ffd53d"/><stop offset="1" stop-color="#fee875"/></linearGradient></defs><line class="cls-20" x1="64.77" y1="61.29" x2="64.77" y2="71.88"/><polygon class="cls-16" points="61.71 69.39 62.25 68.88 64.77 71.59 67.29 68.88 67.84 69.39 64.77 72.69 61.71 69.39"/><path class="cls-13" d="m23.22,64.01l.1-.54s.04.03.1.06c.06.04.1.06.13.08s.08.04.14.07c.07.03.13.06.18.08.06.02.12.04.19.06.07.02.15.04.24.04.08,0,.17.01.26.01.27,0,.46-.06.57-.17.12-.11.17-.24.17-.38s-.05-.24-.15-.33-.2-.15-.31-.18c-.05-.02-.17-.04-.36-.08-.19-.04-.32-.07-.41-.1-.22-.07-.41-.19-.58-.36-.17-.17-.25-.38-.25-.63,0-.12.02-.24.05-.35.04-.11.1-.22.19-.34.09-.11.22-.21.41-.27s.4-.1.66-.1c.38,0,.77.08,1.16.25l-.08.53s-.04-.02-.09-.04c-.06-.03-.09-.04-.09-.05,0,0-.04-.02-.09-.04-.05-.02-.08-.03-.1-.04-.02,0-.05-.02-.1-.04-.05-.02-.08-.03-.11-.03-.03,0-.07-.01-.12-.02s-.1-.02-.14-.02c-.04,0-.09,0-.14,0-.05,0-.11,0-.17,0-.25,0-.42.05-.52.15-.1.1-.15.21-.15.34,0,.18.07.3.21.38.14.08.34.14.6.18.26.04.44.09.54.14.19.09.35.21.49.39s.2.38.2.62c0,.12-.02.24-.05.36-.04.12-.1.23-.19.35-.09.12-.22.21-.41.28-.18.07-.4.11-.65.11-.47,0-.92-.12-1.35-.36Z"/><path class="cls-13" d="m26.34,62.47c0-.53.16-.97.48-1.33.32-.36.7-.54,1.13-.54.16,0,.31.03.46.08s.29.13.44.25.27.29.37.53.15.51.17.84v.23h-2.48c.02.4.14.73.37.98.23.25.5.38.82.38.41,0,.81-.15,1.21-.44l.05.53c-.41.27-.83.41-1.27.41-.51,0-.93-.19-1.25-.56-.33-.38-.49-.82-.49-1.33Zm.6-.4h1.98c-.03-.21-.09-.38-.17-.53s-.18-.25-.28-.31c-.1-.06-.2-.1-.28-.12-.08-.02-.16-.03-.24-.03-.27,0-.49.1-.67.31-.18.21-.29.43-.34.67Z"/><path class="cls-13" d="m30.26,64.28v-3.6h.58v.57c.31-.41.7-.61,1.17-.61.2,0,.37.03.51.09s.25.13.32.22.13.19.17.32c.04.13.07.25.08.35s.02.22.02.36v2.3h-.62v-2.24c0-.09,0-.16,0-.22,0-.05-.02-.13-.05-.23s-.07-.18-.12-.24-.13-.11-.23-.16c-.1-.05-.23-.07-.38-.07-.28,0-.49.12-.62.36s-.19.53-.19.87v1.92h-.62Z"/><path class="cls-13" d="m34.03,62.51c0-.53.14-.97.42-1.34.28-.36.61-.54,1.01-.54s.79.15,1.16.44v-2.57h.6v5.78h-.62v-.41c-.35.34-.74.5-1.18.5-.4,0-.73-.19-.99-.56-.26-.37-.39-.81-.39-1.3Zm.62,0c0,.47.11.82.34,1.04.22.22.47.33.74.33.22,0,.42-.08.59-.23s.26-.3.26-.44v-1.53c0-.1-.06-.21-.17-.31-.17-.16-.37-.24-.59-.24h-.02c-.13,0-.25.02-.38.07-.12.05-.25.12-.37.22-.12.1-.22.24-.3.43-.08.19-.11.4-.11.65Z"/><path class="cls-13" d="m38.1,64.01l.1-.54s.04.03.1.06c.06.04.1.06.13.08s.08.04.14.07c.07.03.13.06.18.08.06.02.12.04.19.06.07.02.15.04.24.04.08,0,.17.01.26.01.27,0,.46-.06.57-.17.12-.11.17-.24.17-.38s-.05-.24-.15-.33-.2-.15-.31-.18c-.05-.02-.17-.04-.36-.08-.19-.04-.32-.07-.41-.1-.22-.07-.41-.19-.58-.36-.17-.17-.25-.38-.25-.63,0-.12.02-.24.05-.35.04-.11.1-.22.19-.34.09-.11.22-.21.41-.27s.4-.1.66-.1c.38,0,.77.08,1.16.25l-.08.53s-.04-.02-.09-.04c-.06-.03-.09-.04-.09-.05,0,0-.04-.02-.09-.04-.05-.02-.08-.03-.1-.04-.02,0-.05-.02-.1-.04-.05-.02-.08-.03-.11-.03-.03,0-.07-.01-.12-.02s-.1-.02-.14-.02c-.04,0-.09,0-.14,0-.05,0-.11,0-.17,0-.25,0-.42.05-.52.15-.1.1-.15.21-.15.34,0,.18.07.3.21.38.14.08.34.14.6.18.26.04.44.09.54.14.19.09.35.21.49.39s.2.38.2.62c0,.12-.02.24-.05.36-.04.12-.1.23-.19.35-.09.12-.22.21-.41.28-.18.07-.4.11-.65.11-.47,0-.92-.12-1.35-.36Z"/><path class="cls-13" d="m43.12,65.64l.12-.49c.21.16.42.25.62.25.15,0,.29-.04.39-.12s.18-.17.21-.29c.01-.05.02-.12.02-.21v-4.08h.6v3.96c0,.44-.1.76-.31.95-.21.19-.44.29-.69.29-.33,0-.65-.09-.96-.27Zm1.25-6.09v-.71h.73v.71h-.73Z"/><path class="cls-13" d="m45.98,62.51c0-.54.17-1,.52-1.37s.76-.55,1.24-.55.92.19,1.25.58c.33.39.5.84.5,1.35s-.18.97-.53,1.32-.76.53-1.23.53-.88-.18-1.23-.53c-.35-.35-.53-.8-.53-1.32Zm.62-.08c0,.47.11.82.34,1.06.23.24.49.36.79.36s.56-.12.79-.36c.23-.24.34-.6.34-1.06s-.11-.79-.34-1.01c-.23-.22-.49-.34-.79-.34s-.56.11-.79.34c-.23.22-.34.56-.34,1.01Z"/><path class="cls-13" d="m50.39,64.28v-5.78h.6v2.61c.39-.31.82-.47,1.28-.47.38,0,.69.18.94.55.25.37.37.8.37,1.29,0,.54-.15.99-.44,1.35-.29.36-.64.54-1.05.54-.38,0-.73-.16-1.07-.46v.38h-.62Zm.62-1.07s0,.07,0,.1,0,.05.02.07c0,.02.02.04.02.05,0,.01.02.03.04.05.02.03.04.05.05.07.18.21.4.32.66.32.28,0,.55-.11.79-.33s.36-.57.36-1.04c0-.25-.03-.47-.1-.65-.07-.19-.16-.33-.28-.43s-.23-.17-.35-.21c-.12-.04-.23-.07-.35-.07-.21,0-.4.06-.58.18-.18.12-.27.26-.27.41v1.49Z"/><path class="cls-13" d="m16.35,68.56v-.71h.72v.71h-.72Zm.05,4.72v-3.56h.54v3.56h-.54Z"/><path class="cls-13" d="m18.31,73.28v-3.6h.58v.57c.31-.41.7-.61,1.17-.61.2,0,.37.03.51.09s.25.13.32.22.13.19.17.32c.04.13.07.25.08.35s.02.22.02.36v2.3h-.62v-2.24c0-.09,0-.16,0-.22,0-.05-.02-.13-.05-.23s-.07-.18-.12-.24-.13-.11-.23-.16c-.1-.05-.23-.07-.38-.07-.28,0-.49.12-.62.36s-.19.53-.19.87v1.92h-.62Z"/><path class="cls-13" d="m22.02,70.19v-.47h.59v-.59s0-.05,0-.1,0-.08,0-.1c0-.49.13-.87.4-1.14s.58-.4.94-.4c.2,0,.41.03.63.09v.55c-.23-.09-.45-.14-.65-.14-.18,0-.35.05-.51.16-.16.11-.24.29-.24.57v1.09h.91v.47h-.88v3.09h-.6v-3.09h-.59Z"/><path class="cls-13" d="m24.48,71.51c0-.54.17-1,.52-1.37s.76-.55,1.24-.55.92.19,1.25.58c.33.39.5.84.5,1.35s-.18.97-.53,1.32-.76.53-1.23.53-.88-.18-1.23-.53c-.35-.35-.53-.8-.53-1.32Zm.62-.08c0,.47.11.82.34,1.06.23.24.49.36.79.36s.56-.12.79-.36c.23-.24.34-.6.34-1.06s-.11-.79-.34-1.01c-.23-.22-.49-.34-.79-.34s-.56.11-.79.34c-.23.22-.34.56-.34,1.01Z"/><path class="cls-13" d="m28.67,73.28v-3.6h.56v.71c.06-.1.14-.2.23-.29s.24-.19.46-.3.45-.16.71-.17v.53c-.14,0-.28.03-.42.08s-.29.12-.44.22c-.15.1-.28.25-.37.45-.09.2-.14.44-.14.71v1.65h-.6Z"/><path class="cls-13" d="m31.39,73.28v-3.6h.58v.57c.31-.41.7-.61,1.17-.61.52,0,.86.22,1.02.66.33-.44.73-.66,1.21-.66.2,0,.38.03.52.1.15.07.25.14.32.23.07.09.13.2.17.34.04.14.06.25.07.34,0,.09,0,.2,0,.32v2.3h-.62v-2.29s0-.07-.02-.13-.02-.12-.04-.18c-.02-.06-.05-.12-.08-.19-.04-.07-.08-.13-.14-.18s-.12-.09-.21-.13-.18-.05-.29-.05c-.28,0-.49.12-.62.36s-.2.53-.2.87v1.92h-.62v-2.24c0-.09,0-.16,0-.22,0-.05-.02-.13-.05-.23s-.07-.18-.12-.24-.13-.11-.23-.16c-.1-.05-.23-.07-.38-.07-.28,0-.49.12-.62.36s-.19.53-.19.87v1.92h-.62Z"/><path class="cls-13" d="m37.46,72.37c0-.2.07-.37.22-.52.15-.15.34-.26.59-.33.24-.07.48-.12.71-.16s.46-.05.7-.05v-.27c-.01-.34-.08-.59-.21-.74-.13-.16-.3-.24-.51-.24-.41,0-.81.13-1.2.41l-.05-.54c.4-.23.82-.35,1.25-.35.37,0,.68.12.92.36s.38.54.4.88v2.44h-.61v-.28s-.07.05-.15.1c-.08.05-.23.1-.45.17-.22.06-.47.1-.73.1-.3,0-.53-.11-.68-.32-.15-.22-.23-.44-.23-.67Zm.57-.02c0,.15.07.27.21.37.14.1.32.15.53.15.23,0,.44-.05.62-.15.18-.1.28-.26.28-.5v-.51c-.16,0-.33.01-.5.03-.17.02-.35.05-.53.1-.18.04-.33.11-.44.2-.11.09-.17.2-.17.31Z"/><path class="cls-13" d="m41.09,70.19v-.47h.69v-1.01h.56v1.01h1.13v.47h-1.13v1.97c0,.46.14.7.43.7.22,0,.46-.09.7-.26l.13.47c-.38.2-.77.3-1.18.3-.44,0-.66-.34-.66-1.03v-2.15h-.67Z"/><path class="cls-13" d="m44.42,68.56v-.71h.72v.71h-.72Zm.05,4.72v-3.56h.54v3.56h-.54Z"/><path class="cls-13" d="m45.98,71.51c0-.54.17-1,.52-1.37s.76-.55,1.24-.55.92.19,1.25.58c.33.39.5.84.5,1.35s-.18.97-.53,1.32-.76.53-1.23.53-.88-.18-1.23-.53c-.35-.35-.53-.8-.53-1.32Zm.62-.08c0,.47.11.82.34,1.06.23.24.49.36.79.36s.56-.12.79-.36c.23-.24.34-.6.34-1.06s-.11-.79-.34-1.01c-.23-.22-.49-.34-.79-.34s-.56.11-.79.34c-.23.22-.34.56-.34,1.01Z"/><path class="cls-13" d="m50.38,73.28v-3.6h.58v.57c.31-.41.7-.61,1.17-.61.2,0,.37.03.51.09s.25.13.32.22.13.19.17.32c.04.13.07.25.08.35s.02.22.02.36v2.3h-.62v-2.24c0-.09,0-.16,0-.22,0-.05-.02-.13-.05-.23s-.07-.18-.12-.24-.13-.11-.23-.16c-.1-.05-.23-.07-.38-.07-.28,0-.49.12-.62.36s-.19.53-.19.87v1.92h-.62Z"/><line class="cls-20" x1="64.77" y1="129.87" x2="64.77" y2="140.45"/><polygon class="cls-16" points="61.71 137.97 62.25 137.46 64.77 140.17 67.29 137.46 67.84 137.97 64.77 141.27 61.71 137.97"/><path class="cls-13" d="m3.76,131.08c0-.53.14-.97.42-1.34.28-.36.61-.54,1.01-.54s.79.15,1.16.44v-2.57h.6v5.78h-.62v-.41c-.35.34-.74.5-1.18.5-.4,0-.73-.19-.99-.56-.26-.37-.39-.81-.39-1.3Zm.62,0c0,.47.11.82.34,1.04.22.22.47.33.74.33.22,0,.42-.08.59-.23s.26-.3.26-.44v-1.53c0-.1-.06-.2-.17-.31-.17-.16-.37-.24-.59-.24h-.02c-.13,0-.25.02-.38.07-.12.05-.25.12-.37.22-.12.1-.22.24-.3.43-.08.19-.11.4-.11.65Z"/><path class="cls-13" d="m8.21,128.13v-.71h.72v.71h-.72Zm.05,4.72v-3.56h.54v3.56h-.54Z"/><path class="cls-13" d="m9.74,132.58l.1-.54s.04.03.1.06c.06.04.1.06.13.08.03.02.08.04.14.07.07.03.13.06.18.08.06.02.12.04.19.06.07.02.15.04.24.04.08,0,.17.01.26.01.27,0,.46-.06.57-.17.12-.11.17-.24.17-.38s-.05-.24-.15-.33-.2-.15-.31-.18c-.05-.02-.17-.04-.36-.08-.19-.04-.32-.07-.41-.1-.22-.07-.41-.19-.58-.36-.17-.17-.25-.38-.25-.63,0-.12.02-.24.05-.35.04-.11.1-.22.19-.34.09-.12.22-.21.41-.27.18-.07.4-.1.66-.1.38,0,.77.08,1.16.25l-.08.53s-.04-.02-.09-.04-.09-.04-.09-.04c0,0-.04-.02-.09-.04-.05-.02-.08-.04-.1-.04-.02,0-.05-.02-.1-.04-.05-.02-.08-.03-.11-.03-.03,0-.07,0-.12-.02-.05-.01-.1-.02-.14-.02-.04,0-.09,0-.14,0-.05,0-.11,0-.17,0-.25,0-.42.05-.52.15-.1.1-.15.21-.15.34,0,.18.07.3.21.38.14.08.34.14.6.18.26.04.44.09.54.14.19.09.35.21.49.39s.2.38.2.62c0,.12-.02.24-.05.36-.04.12-.1.23-.19.35-.09.12-.22.21-.41.28-.18.07-.4.11-.65.11-.47,0-.92-.12-1.35-.36Z"/><path class="cls-13" d="m12.73,129.76v-.47h.69v-1.01h.56v1.01h1.13v.47h-1.13v1.97c0,.46.14.7.43.7.22,0,.46-.09.7-.26l.13.47c-.38.2-.77.3-1.18.3-.44,0-.66-.34-.66-1.03v-2.15h-.67Z"/><path class="cls-13" d="m16.12,132.85v-3.6h.56v.72c.06-.1.14-.2.23-.29s.24-.19.46-.3c.22-.11.45-.16.71-.17v.53c-.14,0-.28.03-.42.08-.14.05-.29.12-.44.22s-.28.25-.37.45c-.09.2-.14.44-.14.71v1.65h-.6Z"/><path class="cls-13" d="m18.8,128.13v-.71h.72v.71h-.72Zm.05,4.72v-3.56h.54v3.56h-.54Z"/><path class="cls-13" d="m20.77,132.85v-5.78h.6v2.61c.39-.32.82-.47,1.28-.47.38,0,.69.18.94.55.25.37.37.8.37,1.29,0,.54-.15.99-.44,1.35-.29.36-.64.54-1.05.54-.38,0-.73-.15-1.07-.46v.37h-.62Zm.62-1.07s0,.07,0,.1c0,.02,0,.05.02.07,0,.02.02.04.02.05,0,0,.02.03.04.05.02.03.04.05.05.07.18.21.4.32.66.32.28,0,.55-.11.79-.33s.36-.57.36-1.04c0-.25-.03-.47-.1-.65s-.16-.33-.28-.42c-.11-.1-.23-.17-.35-.21-.12-.05-.23-.07-.35-.07-.21,0-.4.06-.58.18-.18.12-.27.26-.27.41v1.49Z"/><path class="cls-13" d="m24.89,131.87v-2.58h.62v2.68c0,.19.05.32.13.4.08.08.25.12.51.12.28,0,.5-.07.67-.22s.26-.32.29-.51c0-.05,0-.13,0-.23v-2.24h.62v3.56h-.61v-.38c-.36.31-.83.47-1.4.47-.16,0-.29-.03-.41-.08s-.2-.11-.25-.17c-.06-.06-.1-.15-.13-.27-.03-.11-.04-.21-.05-.27s0-.16,0-.28Z"/><path class="cls-13" d="m28.53,129.76v-.47h.69v-1.01h.56v1.01h1.13v.47h-1.13v1.97c0,.46.14.7.43.7.22,0,.46-.09.7-.26l.13.47c-.38.2-.77.3-1.18.3-.44,0-.66-.34-.66-1.03v-2.15h-.67Z"/><path class="cls-13" d="m31.55,131.04c0-.53.16-.97.48-1.33.32-.36.7-.54,1.13-.54.16,0,.31.03.46.08s.29.13.44.25.27.29.37.53.15.51.17.84v.23h-2.48c.02.4.14.73.37.98.23.25.5.38.82.38.41,0,.81-.15,1.21-.44l.05.53c-.41.27-.83.41-1.27.41-.51,0-.93-.19-1.25-.56-.33-.38-.49-.82-.49-1.33Zm.6-.4h1.98c-.03-.21-.09-.38-.17-.53-.08-.14-.18-.25-.28-.31s-.2-.1-.28-.12-.16-.03-.24-.03c-.27,0-.49.1-.67.31-.18.21-.29.43-.34.67Z"/><path class="cls-13" d="m35.04,132.58l.1-.54s.04.03.1.06c.06.04.1.06.13.08.03.02.08.04.14.07.07.03.13.06.18.08.06.02.12.04.19.06.07.02.15.04.24.04.08,0,.17.01.26.01.27,0,.46-.06.57-.17.12-.11.17-.24.17-.38s-.05-.24-.15-.33-.2-.15-.31-.18c-.05-.02-.17-.04-.36-.08-.19-.04-.32-.07-.41-.1-.22-.07-.41-.19-.58-.36-.17-.17-.25-.38-.25-.63,0-.12.02-.24.05-.35.04-.11.1-.22.19-.34.09-.12.22-.21.41-.27.18-.07.4-.1.66-.1.38,0,.77.08,1.16.25l-.08.53s-.04-.02-.09-.04-.09-.04-.09-.04c0,0-.04-.02-.09-.04-.05-.02-.08-.04-.1-.04-.02,0-.05-.02-.1-.04-.05-.02-.08-.03-.11-.03-.03,0-.07,0-.12-.02-.05-.01-.1-.02-.14-.02-.04,0-.09,0-.14,0-.05,0-.11,0-.17,0-.25,0-.42.05-.52.15-.1.1-.15.21-.15.34,0,.18.07.3.21.38.14.08.34.14.6.18.26.04.44.09.54.14.19.09.35.21.49.39s.2.38.2.62c0,.12-.02.24-.05.36-.04.12-.1.23-.19.35-.09.12-.22.21-.41.28-.18.07-.4.11-.65.11-.47,0-.92-.12-1.35-.36Z"/><path class="cls-13" d="m40.06,134.22l.12-.49c.21.16.42.25.62.25.15,0,.29-.04.39-.12s.18-.17.21-.29c.01-.05.02-.12.02-.21v-4.08h.6v3.96c0,.44-.1.76-.31.95-.21.19-.44.29-.69.29-.33,0-.65-.09-.96-.27Zm1.25-6.09v-.71h.73v.71h-.73Z"/><path class="cls-13" d="m42.92,131.08c0-.54.17-.99.52-1.36s.76-.56,1.24-.56.92.19,1.25.58c.33.39.5.84.5,1.35s-.18.97-.53,1.32-.76.53-1.23.53-.88-.18-1.23-.53c-.35-.36-.53-.8-.53-1.33Zm.62-.08c0,.47.11.82.34,1.06.23.24.49.36.79.36s.56-.12.79-.36c.23-.24.34-.6.34-1.06s-.11-.79-.34-1.01c-.23-.22-.49-.34-.79-.34s-.56.11-.79.34c-.23.22-.34.56-.34,1.01Z"/><path class="cls-13" d="m47.33,132.85v-5.78h.6v2.61c.39-.32.82-.47,1.28-.47.38,0,.69.18.94.55.25.37.37.8.37,1.29,0,.54-.15.99-.44,1.35-.29.36-.64.54-1.05.54-.38,0-.73-.15-1.07-.46v.37h-.62Zm.62-1.07s0,.07,0,.1c0,.02,0,.05.02.07,0,.02.02.04.02.05,0,0,.02.03.04.05.02.03.04.05.05.07.18.21.4.32.66.32.28,0,.55-.11.79-.33s.36-.57.36-1.04c0-.25-.03-.47-.1-.65s-.16-.33-.28-.42c-.11-.1-.23-.17-.35-.21-.12-.05-.23-.07-.35-.07-.21,0-.4.06-.58.18-.18.12-.27.26-.27.41v1.49Z"/><path class="cls-13" d="m51.03,132.58l.1-.54s.04.03.1.06c.06.04.1.06.13.08.03.02.08.04.14.07.07.03.13.06.18.08.06.02.12.04.19.06.07.02.15.04.24.04.08,0,.17.01.26.01.27,0,.46-.06.57-.17.12-.11.17-.24.17-.38s-.05-.24-.15-.33-.2-.15-.31-.18c-.05-.02-.17-.04-.36-.08-.19-.04-.32-.07-.41-.1-.22-.07-.41-.19-.58-.36-.17-.17-.25-.38-.25-.63,0-.12.02-.24.05-.35.04-.11.1-.22.19-.34.09-.12.22-.21.41-.27.18-.07.4-.1.66-.1.38,0,.77.08,1.16.25l-.08.53s-.04-.02-.09-.04-.09-.04-.09-.04c0,0-.04-.02-.09-.04-.05-.02-.08-.04-.1-.04-.02,0-.05-.02-.1-.04-.05-.02-.08-.03-.11-.03-.03,0-.07,0-.12-.02-.05-.01-.1-.02-.14-.02-.04,0-.09,0-.14,0-.05,0-.11,0-.17,0-.25,0-.42.05-.52.15-.1.1-.15.21-.15.34,0,.18.07.3.21.38.14.08.34.14.6.18.26.04.44.09.54.14.19.09.35.21.49.39s.2.38.2.62c0,.12-.02.24-.05.36-.04.12-.1.23-.19.35-.09.12-.22.21-.41.28-.18.07-.4.11-.65.11-.47,0-.92-.12-1.35-.36Z"/><path class="cls-13" d="m19.69,138.76v-.47h.69v-1.01h.56v1.01h1.13v.47h-1.13v1.97c0,.46.14.7.43.7.22,0,.46-.09.7-.26l.13.47c-.38.2-.77.3-1.18.3-.44,0-.66-.34-.66-1.03v-2.15h-.67Z"/><path class="cls-13" d="m22.67,140.08c0-.54.17-.99.52-1.36s.76-.56,1.24-.56.92.19,1.25.58c.33.39.5.84.5,1.35s-.18.97-.53,1.32-.76.53-1.23.53-.88-.18-1.23-.53c-.35-.36-.53-.8-.53-1.33Zm.62-.08c0,.47.11.82.34,1.06.23.24.49.36.79.36s.56-.12.79-.36c.23-.24.34-.6.34-1.06s-.11-.79-.34-1.01c-.23-.22-.49-.34-.79-.34s-.56.11-.79.34c-.23.22-.34.56-.34,1.01Z"/><path class="cls-13" d="m29.2,138.29h.6c.52,1.64.81,2.7.86,3.16.02-.33.3-1.38.85-3.16h.57l.58,1.95c.19.67.29,1.08.3,1.21.03-.26.32-1.31.89-3.16h.57l-1.1,3.56h-.7c-.36-1.2-.59-1.95-.67-2.26-.08-.31-.15-.6-.19-.89-.01.27-.29,1.32-.85,3.15h-.63l-1.1-3.56Z"/><path class="cls-13" d="m34.57,140.08c0-.54.17-.99.52-1.36s.76-.56,1.24-.56.92.19,1.25.58c.33.39.5.84.5,1.35s-.18.97-.53,1.32-.76.53-1.23.53-.88-.18-1.23-.53c-.35-.36-.53-.8-.53-1.33Zm.62-.08c0,.47.11.82.34,1.06.23.24.49.36.79.36s.56-.12.79-.36c.23-.24.34-.6.34-1.06s-.11-.79-.34-1.01c-.23-.22-.49-.34-.79-.34s-.56.11-.79.34c-.23.22-.34.56-.34,1.01Z"/><path class="cls-13" d="m38.75,141.85v-3.6h.56v.72c.06-.1.14-.2.23-.29s.24-.19.46-.3c.22-.11.45-.16.71-.17v.53c-.14,0-.28.03-.42.08-.14.05-.29.12-.44.22s-.28.25-.37.45c-.09.2-.14.44-.14.71v1.65h-.6Z"/><path class="cls-13" d="m41.5,141.85v-5.78h.57v3.89l1.63-1.67h.72l-1.35,1.38,1.52,2.18h-.66l-1.25-1.79-.64.66v1.14h-.56Z"/><path class="cls-13" d="m44.8,140.04c0-.53.16-.97.48-1.33.32-.36.7-.54,1.13-.54.16,0,.31.03.46.08s.29.13.44.25.27.29.37.53.15.51.17.84v.23h-2.48c.02.4.14.73.37.98.23.25.5.38.82.38.41,0,.81-.15,1.21-.44l.05.53c-.41.27-.83.41-1.27.41-.51,0-.93-.19-1.25-.56-.33-.38-.49-.82-.49-1.33Zm.6-.4h1.98c-.03-.21-.09-.38-.17-.53-.08-.14-.18-.25-.28-.31s-.2-.1-.28-.12-.16-.03-.24-.03c-.27,0-.49.1-.67.31-.18.21-.29.43-.34.67Z"/><path class="cls-13" d="m48.73,141.85v-3.6h.56v.72c.06-.1.14-.2.23-.29s.24-.19.46-.3c.22-.11.45-.16.71-.17v.53c-.14,0-.28.03-.42.08-.14.05-.29.12-.44.22s-.28.25-.37.45c-.09.2-.14.44-.14.71v1.65h-.6Z"/><path class="cls-13" d="m51.03,141.58l.1-.54s.04.03.1.06c.06.04.1.06.13.08.03.02.08.04.14.07.07.03.13.06.18.08.06.02.12.04.19.06.07.02.15.04.24.04.08,0,.17.01.26.01.27,0,.46-.06.57-.17.12-.11.17-.24.17-.38s-.05-.24-.15-.33-.2-.15-.31-.18c-.05-.02-.17-.04-.36-.08-.19-.04-.32-.07-.41-.1-.22-.07-.41-.19-.58-.36-.17-.17-.25-.38-.25-.63,0-.12.02-.24.05-.35.04-.11.1-.22.19-.34.09-.12.22-.21.41-.27.18-.07.4-.1.66-.1.38,0,.77.08,1.16.25l-.08.53s-.04-.02-.09-.04-.09-.04-.09-.04c0,0-.04-.02-.09-.04-.05-.02-.08-.04-.1-.04-.02,0-.05-.02-.1-.04-.05-.02-.08-.03-.11-.03-.03,0-.07,0-.12-.02-.05-.01-.1-.02-.14-.02-.04,0-.09,0-.14,0-.05,0-.11,0-.17,0-.25,0-.42.05-.52.15-.1.1-.15.21-.15.34,0,.18.07.3.21.38.14.08.34.14.6.18.26.04.44.09.54.14.19.09.35.21.49.39s.2.38.2.62c0,.12-.02.24-.05.36-.04.12-.1.23-.19.35-.09.12-.22.21-.41.28-.18.07-.4.11-.65.11-.47,0-.92-.12-1.35-.36Z"/><line class="cls-20" x1="64.77" y1="209.66" x2="64.77" y2="220.25"/><polygon class="cls-16" points="61.71 217.76 62.25 217.25 64.77 219.96 67.29 217.25 67.84 217.76 64.77 221.06 61.71 217.76"/><path class="cls-13" d="m22.81,207.93v-.71h.72v.71h-.72Zm.05,4.72v-3.56h.54v3.56h-.54Z"/><path class="cls-13" d="m24.77,212.65v-3.6h.58v.57c.31-.41.7-.61,1.17-.61.2,0,.37.03.51.09s.25.13.32.22.13.19.17.32c.04.13.07.25.08.35s.02.22.02.36v2.3h-.62v-2.24c0-.09,0-.16,0-.22s-.02-.13-.05-.23c-.03-.1-.07-.18-.12-.24s-.13-.11-.23-.16c-.1-.05-.23-.07-.38-.07-.28,0-.49.12-.62.36-.13.24-.19.53-.19.87v1.92h-.62Z"/><path class="cls-13" d="m28.4,209.56v-.47h.69v-1.01h.56v1.01h1.13v.47h-1.13v1.97c0,.46.14.7.43.7.22,0,.46-.09.7-.26l.13.47c-.38.2-.77.3-1.18.3-.44,0-.66-.34-.66-1.03v-2.15h-.67Z"/><path class="cls-13" d="m31.42,210.84c0-.53.16-.97.48-1.33.32-.36.7-.54,1.13-.54.16,0,.31.03.46.08s.29.13.44.25.27.29.37.53.15.51.17.84v.23h-2.48c.02.4.14.73.37.98.23.25.5.38.82.38.41,0,.81-.15,1.21-.44l.05.53c-.41.27-.83.41-1.27.41-.51,0-.93-.19-1.25-.56-.33-.38-.49-.82-.49-1.34Zm.6-.4h1.98c-.03-.21-.09-.38-.17-.53-.08-.14-.18-.25-.28-.31s-.2-.1-.28-.12c-.08-.02-.16-.03-.24-.03-.27,0-.49.1-.67.31s-.29.43-.34.67Z"/><path class="cls-13" d="m35.35,212.65v-3.6h.56v.71c.06-.1.14-.2.23-.29s.24-.19.46-.3.45-.16.71-.17v.53c-.14,0-.28.03-.42.08-.14.04-.29.12-.44.22s-.28.25-.37.46c-.09.2-.14.44-.14.71v1.65h-.6Z"/><path class="cls-13" d="m37.65,209.56v-.47h.59v-.59s0-.05,0-.1,0-.08,0-.1c0-.49.13-.87.4-1.14s.58-.4.94-.4c.2,0,.41.03.63.09v.55c-.23-.09-.45-.14-.65-.14-.18,0-.35.05-.51.16-.16.11-.24.29-.24.57v1.09h.91v.47h-.88v3.09h-.6v-3.09h-.59Z"/><path class="cls-13" d="m40.22,211.74c0-.2.07-.37.22-.52.15-.15.34-.26.59-.33.24-.07.48-.12.71-.16s.46-.05.7-.05v-.27c-.01-.34-.08-.59-.21-.74-.13-.16-.3-.24-.51-.24-.41,0-.81.13-1.2.41l-.05-.54c.4-.23.82-.35,1.25-.35.37,0,.68.12.92.36s.38.54.4.88v2.44h-.61v-.28s-.07.05-.15.1c-.08.05-.23.1-.45.17-.22.06-.47.1-.73.1-.3,0-.53-.11-.68-.32-.15-.22-.23-.44-.23-.67Zm.57-.02c0,.15.07.27.21.37.14.1.32.15.53.15.23,0,.44-.05.62-.15.18-.1.28-.26.28-.5v-.51c-.16,0-.33,0-.5.03-.17.02-.35.05-.53.1-.18.04-.33.11-.44.2-.11.09-.17.2-.17.32Z"/><path class="cls-13" d="m43.99,210.86c0-.5.16-.94.48-1.32s.75-.58,1.28-.58c.25,0,.46.02.62.07.17.05.37.14.62.28l-.1.53c-.26-.16-.46-.27-.6-.3-.15-.04-.34-.06-.55-.06-.36,0-.64.14-.84.41s-.29.6-.29.98.1.72.31.98.48.38.81.38c.42,0,.84-.14,1.26-.43l.04.53c-.42.27-.86.41-1.3.41-.49,0-.9-.18-1.24-.55s-.5-.81-.5-1.32Z"/><path class="cls-13" d="m47.53,210.84c0-.53.16-.97.48-1.33.32-.36.7-.54,1.13-.54.16,0,.31.03.46.08s.29.13.44.25.27.29.37.53.15.51.17.84v.23h-2.48c.02.4.14.73.37.98.23.25.5.38.82.38.41,0,.81-.15,1.21-.44l.05.53c-.41.27-.83.41-1.27.41-.51,0-.93-.19-1.25-.56-.33-.38-.49-.82-.49-1.34Zm.6-.4h1.98c-.03-.21-.09-.38-.17-.53-.08-.14-.18-.25-.28-.31s-.2-.1-.28-.12c-.08-.02-.16-.03-.24-.03-.27,0-.49.1-.67.31s-.29.43-.34.67Z"/><path class="cls-13" d="m51.03,212.38l.1-.54s.04.03.1.06c.06.04.1.06.13.08.03.02.08.04.14.07s.13.06.18.08c.06.02.12.04.19.06.07.02.15.04.24.04.08,0,.17.01.26.01.27,0,.46-.06.57-.17s.17-.24.17-.38-.05-.24-.15-.33-.2-.15-.31-.18c-.05-.02-.17-.04-.36-.08-.19-.04-.32-.07-.41-.1-.22-.07-.41-.19-.58-.36-.17-.17-.25-.38-.25-.63,0-.12.02-.24.05-.35.04-.11.1-.22.19-.34.09-.12.22-.21.41-.27s.4-.1.66-.1c.38,0,.77.08,1.16.25l-.08.53s-.04-.02-.09-.04c-.06-.02-.09-.04-.09-.04,0,0-.04-.02-.09-.04s-.08-.04-.1-.04-.05-.02-.1-.04c-.05-.02-.08-.03-.11-.03-.03,0-.07-.01-.12-.02-.05-.01-.1-.02-.14-.02-.04,0-.09,0-.14,0-.05,0-.11,0-.17,0-.25,0-.42.05-.52.15-.1.1-.15.21-.15.34,0,.18.07.3.21.38.14.08.34.14.6.18.26.04.44.09.54.14.19.09.35.21.49.39s.2.38.2.62c0,.12-.02.24-.05.36-.04.12-.1.23-.19.35-.09.12-.22.21-.41.28-.18.07-.4.11-.65.11-.47,0-.92-.12-1.35-.36Z"/><path class="cls-13" d="m38.75,221.65v-5.55h.72v2.41h2.72v-2.41h.72v5.55h-.72v-2.64h-2.72v2.64h-.72Z"/><path class="cls-13" d="m44.42,221.65v-5.55h1.89c.49,0,.9.1,1.23.31.24.15.44.34.57.57.14.22.21.47.21.73,0,.42-.17.79-.52,1.13s-.83.51-1.46.51c-.03,0-.07,0-.13,0-.06,0-.1,0-.14,0h-.93v2.31h-.72Zm.7-2.78h1.06c.28,0,.52-.04.73-.11s.36-.17.46-.3.18-.25.22-.38c.05-.13.07-.25.07-.38,0-.12-.02-.24-.06-.36-.04-.12-.11-.24-.21-.37-.1-.13-.25-.23-.46-.31-.21-.08-.46-.12-.75-.12h-1.06v2.33Z"/><path class="cls-13" d="m49.29,218.87c0-.44.08-.85.23-1.22.15-.38.35-.69.6-.94s.51-.44.81-.58.58-.21.87-.21c.21,0,.37,0,.49.01s.28.03.47.07.4.1.62.19l-.12.66c-.24-.14-.45-.25-.64-.32-.19-.07-.43-.1-.71-.1-.53,0-.98.24-1.35.71-.36.47-.54,1.05-.54,1.73s.18,1.26.55,1.73.82.71,1.37.71c.1,0,.2,0,.29-.01s.17-.02.23-.02.13-.03.21-.05.13-.05.17-.06c.04-.01.09-.04.16-.08s.12-.07.13-.08c.02-.01.07-.04.15-.09s.13-.08.14-.09l.05.56c-.29.17-.54.29-.74.35-.21.06-.48.09-.81.09-.76,0-1.39-.29-1.88-.88-.49-.59-.74-1.28-.74-2.07Z"/><line class="cls-20" x1="91.08" y1="221.06" x2="91.08" y2="210.48"/><polygon class="cls-16" points="94.15 212.96 93.6 213.47 91.08 210.76 88.56 213.47 88.01 212.96 91.08 209.66 94.15 212.96"/><path class="cls-13" d="m103.25,214.2v-5.12h.6v.39c.39-.32.83-.47,1.33-.47.36,0,.67.18.9.55.24.37.36.8.36,1.29,0,.55-.15,1-.44,1.36-.29.35-.64.53-1.04.53s-.76-.16-1.08-.46v1.93h-.62Zm.62-2.57c0,.12.08.25.23.39s.33.22.55.22c.3,0,.57-.13.8-.38s.36-.59.36-.99c0-.36-.1-.68-.3-.95-.2-.27-.46-.4-.78-.4-.06,0-.12,0-.17.01s-.1.02-.15.04-.09.04-.13.06-.08.04-.11.06-.07.05-.09.07-.05.05-.08.07c-.02.03-.04.05-.06.06-.01.02-.03.03-.04.05l-.02.03v1.66Z"/><path class="cls-13" d="m107.19,210.88c0-.54.17-1,.52-1.37s.76-.55,1.24-.55.92.19,1.25.58c.33.39.5.84.5,1.35s-.18.97-.53,1.32-.76.53-1.23.53-.88-.18-1.23-.53-.53-.8-.53-1.32Zm.62-.08c0,.47.11.82.34,1.06s.49.36.79.36.56-.12.79-.36.34-.6.34-1.06-.11-.79-.34-1.01-.49-.34-.79-.34-.56.11-.79.34-.34.56-.34,1.01Z"/><path class="cls-13" d="m111.17,212.38l.1-.54s.04.03.1.06c.06.04.1.06.13.08.03.02.08.04.14.07s.13.06.18.08c.06.02.12.04.19.06.07.02.15.04.24.04.08,0,.17.01.26.01.27,0,.46-.06.57-.17s.17-.24.17-.38-.05-.24-.15-.33-.2-.15-.31-.18c-.05-.02-.17-.04-.36-.08-.19-.04-.32-.07-.41-.1-.22-.07-.41-.19-.58-.36-.17-.17-.25-.38-.25-.63,0-.12.02-.24.05-.35.04-.11.1-.22.19-.34.09-.12.22-.21.41-.27s.4-.1.66-.1c.38,0,.77.08,1.16.25l-.08.53s-.04-.02-.09-.04c-.06-.02-.09-.04-.09-.04,0,0-.04-.02-.09-.04s-.08-.04-.1-.04-.05-.02-.1-.04c-.05-.02-.08-.03-.11-.03-.03,0-.07-.01-.12-.02-.05-.01-.1-.02-.14-.02-.04,0-.09,0-.14,0-.05,0-.11,0-.17,0-.25,0-.42.05-.52.15-.1.1-.15.21-.15.34,0,.18.07.3.21.38.14.08.34.14.6.18.26.04.44.09.54.14.19.09.35.21.49.39s.2.38.2.62c0,.12-.02.24-.05.36-.04.12-.1.23-.19.35-.09.12-.22.21-.41.28-.18.07-.4.11-.65.11-.47,0-.92-.12-1.35-.36Z"/><path class="cls-13" d="m114.16,209.56v-.47h.69v-1.01h.56v1.01h1.13v.47h-1.13v1.97c0,.46.14.7.43.7.22,0,.46-.09.7-.26l.13.47c-.38.2-.77.3-1.18.3-.44,0-.66-.34-.66-1.03v-2.15h-.67Z"/><path class="cls-13" d="m117.55,214.2v-5.12h.6v.39c.39-.32.83-.47,1.33-.47.36,0,.67.18.9.55.24.37.36.8.36,1.29,0,.55-.15,1-.44,1.36-.29.35-.64.53-1.04.53s-.76-.16-1.08-.46v1.93h-.62Zm.62-2.57c0,.12.08.25.23.39s.33.22.55.22c.3,0,.57-.13.8-.38s.36-.59.36-.99c0-.36-.1-.68-.3-.95-.2-.27-.46-.4-.78-.4-.06,0-.12,0-.17.01s-.1.02-.15.04-.09.04-.13.06-.08.04-.11.06-.07.05-.09.07-.05.05-.08.07c-.02.03-.04.05-.06.06-.01.02-.03.03-.04.05l-.02.03v1.66Z"/><path class="cls-13" d="m121.46,212.65v-3.6h.56v.71c.06-.1.14-.2.23-.29s.24-.19.46-.3.45-.16.71-.17v.53c-.14,0-.28.03-.42.08-.14.04-.29.12-.44.22s-.28.25-.37.46c-.09.2-.14.44-.14.71v1.65h-.6Z"/><path class="cls-13" d="m123.79,210.88c0-.54.17-1,.52-1.37s.76-.55,1.24-.55.92.19,1.25.58c.33.39.5.84.5,1.35s-.18.97-.53,1.32-.76.53-1.23.53-.88-.18-1.23-.53-.53-.8-.53-1.32Zm.62-.08c0,.47.11.82.34,1.06s.49.36.79.36.56-.12.79-.36.34-.6.34-1.06-.11-.79-.34-1.01-.49-.34-.79-.34-.56.11-.79.34-.34.56-.34,1.01Z"/><path class="cls-13" d="m128.05,210.86c0-.5.16-.94.48-1.32s.75-.58,1.28-.58c.25,0,.46.02.62.07.17.05.37.14.62.28l-.1.53c-.26-.16-.46-.27-.6-.3-.15-.04-.34-.06-.55-.06-.36,0-.64.14-.84.41s-.29.6-.29.98.1.72.31.98.48.38.81.38c.42,0,.84-.14,1.26-.43l.04.53c-.42.27-.86.41-1.3.41-.49,0-.9-.18-1.24-.55s-.5-.81-.5-1.32Z"/><path class="cls-13" d="m131.6,210.84c0-.53.16-.97.48-1.33.32-.36.7-.54,1.13-.54.16,0,.31.03.46.08s.29.13.44.25.27.29.37.53.15.51.17.84v.23h-2.48c.02.4.14.73.37.98.23.25.5.38.82.38.41,0,.81-.15,1.21-.44l.05.53c-.41.27-.83.41-1.27.41-.51,0-.93-.19-1.25-.56-.33-.38-.49-.82-.49-1.34Zm.6-.4h1.98c-.03-.21-.09-.38-.17-.53-.08-.14-.18-.25-.28-.31s-.2-.1-.28-.12c-.08-.02-.16-.03-.24-.03-.27,0-.49.1-.67.31s-.29.43-.34.67Z"/><path class="cls-13" d="m135.09,212.38l.1-.54s.04.03.1.06c.06.04.1.06.13.08.03.02.08.04.14.07s.13.06.18.08c.06.02.12.04.19.06.07.02.15.04.24.04.08,0,.17.01.26.01.27,0,.46-.06.57-.17s.17-.24.17-.38-.05-.24-.15-.33-.2-.15-.31-.18c-.05-.02-.17-.04-.36-.08-.19-.04-.32-.07-.41-.1-.22-.07-.41-.19-.58-.36-.17-.17-.25-.38-.25-.63,0-.12.02-.24.05-.35.04-.11.1-.22.19-.34.09-.12.22-.21.41-.27s.4-.1.66-.1c.38,0,.77.08,1.16.25l-.08.53s-.04-.02-.09-.04c-.06-.02-.09-.04-.09-.04,0,0-.04-.02-.09-.04s-.08-.04-.1-.04-.05-.02-.1-.04c-.05-.02-.08-.03-.11-.03-.03,0-.07-.01-.12-.02-.05-.01-.1-.02-.14-.02-.04,0-.09,0-.14,0-.05,0-.11,0-.17,0-.25,0-.42.05-.52.15-.1.1-.15.21-.15.34,0,.18.07.3.21.38.14.08.34.14.6.18.26.04.44.09.54.14.19.09.35.21.49.39s.2.38.2.62c0,.12-.02.24-.05.36-.04.12-.1.23-.19.35-.09.12-.22.21-.41.28-.18.07-.4.11-.65.11-.47,0-.92-.12-1.35-.36Z"/><path class="cls-13" d="m138.15,212.38l.1-.54s.04.03.1.06c.06.04.1.06.13.08.03.02.08.04.14.07s.13.06.18.08c.06.02.12.04.19.06.07.02.15.04.24.04.08,0,.17.01.26.01.27,0,.46-.06.57-.17s.17-.24.17-.38-.05-.24-.15-.33-.2-.15-.31-.18c-.05-.02-.17-.04-.36-.08-.19-.04-.32-.07-.41-.1-.22-.07-.41-.19-.58-.36-.17-.17-.25-.38-.25-.63,0-.12.02-.24.05-.35.04-.11.1-.22.19-.34.09-.12.22-.21.41-.27s.4-.1.66-.1c.38,0,.77.08,1.16.25l-.08.53s-.04-.02-.09-.04c-.06-.02-.09-.04-.09-.04,0,0-.04-.02-.09-.04s-.08-.04-.1-.04-.05-.02-.1-.04c-.05-.02-.08-.03-.11-.03-.03,0-.07-.01-.12-.02-.05-.01-.1-.02-.14-.02-.04,0-.09,0-.14,0-.05,0-.11,0-.17,0-.25,0-.42.05-.52.15-.1.1-.15.21-.15.34,0,.18.07.3.21.38.14.08.34.14.6.18.26.04.44.09.54.14.19.09.35.21.49.39s.2.38.2.62c0,.12-.02.24-.05.36-.04.12-.1.23-.19.35-.09.12-.22.21-.41.28-.18.07-.4.11-.65.11-.47,0-.92-.12-1.35-.36Z"/><path class="cls-13" d="m141.59,207.93v-.71h.72v.71h-.72Zm.05,4.72v-3.56h.54v3.56h-.54Z"/><path class="cls-13" d="m143.55,212.65v-3.6h.58v.57c.31-.41.7-.61,1.17-.61.2,0,.37.03.51.09.14.06.25.13.32.22s.13.19.17.32c.04.13.07.25.08.35.01.1.02.22.02.36v2.3h-.62v-2.24c0-.09,0-.16,0-.22,0-.05-.02-.13-.05-.23-.03-.1-.07-.18-.12-.24s-.13-.11-.23-.16c-.1-.05-.23-.07-.38-.07-.28,0-.49.12-.62.36-.13.24-.19.53-.19.87v1.92h-.62Z"/><path class="cls-13" d="m147.26,213.22c0-.35.17-.62.51-.83-.13-.19-.2-.39-.2-.6,0-.24.08-.47.23-.68h0c-.18-.24-.27-.51-.27-.81,0-.38.13-.69.38-.93.25-.25.54-.37.88-.37.28,0,.54.09.8.27l-.02-.02c.4-.16.82-.25,1.26-.25l.09.49c-.16-.02-.32-.02-.47-.02-.02,0-.21,0-.6.03l-.07-.06c.21.29.31.57.31.86,0,.35-.12.65-.37.92-.25.26-.55.4-.92.4-.23,0-.47-.08-.72-.24-.08.12-.12.22-.12.3,0,.11.03.21.1.29.07.09.18.13.36.13h.61c.19,0,.35,0,.48.02.13.01.29.04.49.09.2.05.36.13.49.25s.22.27.27.46c.03.11.04.2.04.29,0,.31-.17.57-.52.77-.35.21-.77.31-1.26.31s-.91-.1-1.25-.31c-.34-.21-.51-.46-.51-.77Zm.56,0c0,.14.07.26.21.36.14.1.3.17.47.21.17.04.34.06.51.06.34,0,.63-.06.87-.17.24-.12.36-.27.36-.45,0-.37-.4-.56-1.21-.56h-.73c-.15.02-.27.08-.36.19-.09.11-.13.23-.13.35Zm.28-2.91c0,.26.07.46.2.62.13.15.31.23.53.23.18,0,.35-.07.49-.2.15-.13.22-.35.22-.66,0-.26-.06-.46-.2-.62-.13-.15-.3-.23-.52-.23-.18,0-.35.06-.49.2-.15.13-.22.35-.22.66Z"/><path class="cls-13" d="m102.95,220.74c0-.2.07-.37.22-.52.15-.15.34-.26.59-.33.24-.07.48-.12.71-.16s.46-.05.7-.05v-.27c-.01-.34-.08-.59-.21-.74-.13-.16-.3-.24-.51-.24-.41,0-.81.13-1.2.41l-.05-.54c.4-.23.82-.35,1.25-.35.37,0,.68.12.92.36s.38.54.4.88v2.44h-.61v-.28s-.07.05-.15.1c-.08.05-.23.1-.45.17-.22.06-.47.1-.73.1-.3,0-.53-.11-.68-.32-.15-.22-.23-.44-.23-.67Zm.57-.02c0,.15.07.27.21.37.14.1.32.15.53.15.23,0,.44-.05.62-.15.18-.1.28-.26.28-.5v-.51c-.16,0-.33,0-.5.03-.17.02-.35.05-.53.1-.18.04-.33.11-.44.2-.11.09-.17.2-.17.32Z"/><path class="cls-13" d="m107.08,221.65v-3.6h.58v.57c.31-.41.7-.61,1.17-.61.2,0,.37.03.51.09s.25.13.32.22.13.19.17.32c.04.13.07.25.08.35s.02.22.02.36v2.3h-.62v-2.24c0-.09,0-.16,0-.22s-.02-.13-.05-.23c-.03-.1-.07-.18-.12-.24s-.13-.11-.23-.16c-.1-.05-.23-.07-.38-.07-.28,0-.49.12-.62.36-.13.24-.19.53-.19.87v1.92h-.62Z"/><path class="cls-13" d="m110.85,219.88c0-.53.14-.97.42-1.34.28-.36.61-.54,1.01-.54s.79.15,1.16.44v-2.57h.6v5.78h-.62v-.41c-.35.34-.74.5-1.18.5-.4,0-.73-.19-.99-.56-.26-.37-.39-.81-.39-1.3Zm.62,0c0,.47.11.82.34,1.04.22.22.47.33.74.33.22,0,.42-.08.59-.23s.26-.3.26-.44v-1.53c0-.1-.06-.21-.17-.31-.17-.16-.37-.24-.59-.24h-.02c-.13,0-.25.02-.38.07-.12.05-.25.12-.37.22-.12.1-.22.24-.3.43-.08.19-.11.4-.11.65Z"/><path class="cls-13" d="m117.72,220.74c0-.2.07-.37.22-.52.15-.15.34-.26.59-.33.24-.07.48-.12.71-.16s.46-.05.7-.05v-.27c-.01-.34-.08-.59-.21-.74-.13-.16-.3-.24-.51-.24-.41,0-.81.13-1.2.41l-.05-.54c.4-.23.82-.35,1.25-.35.37,0,.68.12.92.36s.38.54.4.88v2.44h-.61v-.28s-.07.05-.15.1c-.08.05-.23.1-.45.17-.22.06-.47.1-.73.1-.3,0-.53-.11-.68-.32-.15-.22-.23-.44-.23-.67Zm.57-.02c0,.15.07.27.21.37.14.1.32.15.53.15.23,0,.44-.05.62-.15.18-.1.28-.26.28-.5v-.51c-.16,0-.33,0-.5.03-.17.02-.35.05-.53.1-.18.04-.33.11-.44.2-.11.09-.17.2-.17.32Z"/><path class="cls-13" d="m121.63,221.65v-3.6h.56v.71c.06-.1.14-.2.23-.29s.24-.19.46-.3.45-.16.71-.17v.53c-.14,0-.28.03-.42.08-.14.04-.29.12-.44.22s-.28.25-.37.46c-.09.2-.14.44-.14.71v1.65h-.6Z"/><path class="cls-13" d="m124,219.86c0-.5.16-.94.48-1.32s.75-.58,1.28-.58c.25,0,.46.02.62.07.17.05.37.14.62.28l-.1.53c-.26-.16-.46-.27-.6-.3-.15-.04-.34-.06-.55-.06-.36,0-.64.14-.84.41s-.29.6-.29.98.1.72.31.98.48.38.81.38c.42,0,.84-.14,1.26-.43l.04.53c-.42.27-.86.41-1.3.41-.49,0-.9-.18-1.24-.55s-.5-.81-.5-1.32Z"/><path class="cls-13" d="m127.91,221.65v-5.78h.6v2.71c.32-.38.7-.58,1.15-.58.2,0,.38.03.52.1.14.06.25.14.32.23.07.09.13.2.17.34.04.13.06.25.07.34s.01.2.01.33v2.3h-.62v-2.24c0-.09,0-.16,0-.22s-.02-.13-.05-.23c-.03-.1-.07-.18-.12-.24s-.13-.11-.23-.16c-.1-.05-.23-.07-.38-.07-.28,0-.49.12-.62.36-.13.24-.19.53-.19.87v1.92h-.62Z"/><path class="cls-13" d="m132,216.93v-.71h.72v.71h-.72Zm.05,4.72v-3.56h.54v3.56h-.54Z"/><path class="cls-13" d="m133.42,218.09h.61l.75,1.95c.23.65.36,1.05.38,1.21.04-.27.42-1.32,1.12-3.16h.59l-1.38,3.56h-.7l-1.38-3.56Z"/><path class="cls-13" d="m137.59,216.93v-.71h.72v.71h-.72Zm.05,4.72v-3.56h.54v3.56h-.54Z"/><path class="cls-13" d="m139.55,221.65v-3.6h.58v.57c.31-.41.7-.61,1.17-.61.2,0,.37.03.51.09s.25.13.32.22.13.19.17.32c.04.13.07.25.08.35s.02.22.02.36v2.3h-.62v-2.24c0-.09,0-.16,0-.22s-.02-.13-.05-.23c-.03-.1-.07-.18-.12-.24s-.13-.11-.23-.16c-.1-.05-.23-.07-.38-.07-.28,0-.49.12-.62.36-.13.24-.19.53-.19.87v1.92h-.62Z"/><path class="cls-13" d="m143.26,222.22c0-.35.17-.62.51-.83-.13-.19-.2-.39-.2-.6,0-.24.08-.47.23-.68h0c-.18-.24-.27-.51-.27-.81,0-.38.13-.69.38-.93.25-.25.54-.37.88-.37.28,0,.54.09.8.27l-.02-.02c.4-.16.82-.25,1.26-.25l.09.49c-.16-.02-.32-.02-.47-.02-.02,0-.21,0-.6.03l-.07-.06c.21.29.31.57.31.86,0,.35-.12.65-.37.92-.25.26-.55.4-.92.4-.23,0-.47-.08-.72-.24-.08.12-.12.22-.12.3,0,.11.03.21.1.29.07.09.18.13.36.13h.61c.19,0,.35,0,.48.02.13.01.29.04.49.09.2.05.36.13.49.25s.22.27.27.46c.03.11.04.2.04.29,0,.31-.17.57-.52.77-.35.21-.77.31-1.26.31s-.91-.1-1.25-.31c-.34-.21-.51-.46-.51-.77Zm.56,0c0,.14.07.26.21.36.14.1.3.17.47.21.17.04.34.06.51.06.34,0,.63-.06.87-.17.24-.12.36-.27.36-.45,0-.37-.4-.56-1.21-.56h-.73c-.15.02-.27.08-.36.19-.09.11-.13.23-.13.35Zm.28-2.91c0,.26.07.46.2.62.13.15.31.23.53.23.18,0,.35-.07.49-.2.15-.13.22-.35.22-.66,0-.26-.06-.46-.2-.62-.13-.15-.3-.23-.52-.23-.18,0-.35.06-.49.2-.15.13-.22.35-.22.66Z"/><path class="cls-13" d="m153.23,246.97l.13-.75c.12.11.21.19.26.23.06.05.18.11.39.2.2.08.42.12.64.12.33,0,.61-.09.84-.26.23-.18.34-.48.34-.91v-5.37h.87v5.39c0,.34-.05.63-.16.88s-.24.43-.42.55c-.18.12-.36.21-.56.26-.19.05-.4.08-.62.08-.59,0-1.16-.14-1.71-.42Z"/><path class="cls-13" d="m157.84,244.97c0-.67.22-1.24.65-1.71.43-.46.95-.69,1.54-.69s1.15.24,1.57.73.63,1.04.63,1.68-.22,1.21-.66,1.65c-.44.44-.95.66-1.54.66s-1.1-.22-1.54-.67c-.44-.44-.66-1-.66-1.66Zm.78-.1c0,.59.14,1.03.42,1.33s.61.45.99.45.7-.15.99-.46.42-.75.42-1.33-.14-.98-.42-1.26-.61-.42-.99-.42-.69.14-.98.42c-.29.28-.43.7-.43,1.26Z"/><path class="cls-13" d="m163.35,247.18v-7.22h.75v3.26c.49-.39,1.02-.59,1.6-.59.48,0,.87.23,1.17.69.31.46.46,1,.46,1.62,0,.67-.18,1.24-.55,1.68-.37.45-.8.67-1.31.67-.47,0-.92-.19-1.34-.58v.47h-.78Zm.78-1.33c0,.05,0,.09,0,.12,0,.03,0,.06.02.09s.02.05.03.06c0,.01.03.04.05.07.02.03.04.06.06.09.22.27.5.4.82.4.36,0,.68-.14.98-.42.3-.28.45-.71.45-1.31,0-.31-.04-.58-.13-.82-.09-.24-.2-.41-.34-.53-.14-.12-.29-.21-.43-.26s-.29-.09-.44-.09c-.26,0-.5.08-.73.23-.23.15-.34.32-.34.51v1.86Z"/><path class="cls-13" d="m171.97,247.18v-6.91h4.47v.65h-.82s-2.4,0-2.4,0h-.35s0,2.36,0,2.36h3.3v.62h-3.3v2.59h1.09s1.94,0,1.94,0h.22s.46,0,.46,0v.72h-4.61Z"/><path class="cls-13" d="m177,247.18l1.94-2.28v-.02l-1.88-2.15h.83l1.38,1.65h0l1.33-1.65h.83l-1.84,2.15h0s2,2.3,2,2.3h-.83l-1.5-1.88-1.44,1.88h-.83Z"/><path class="cls-13" d="m181.95,244.91c0-.66.2-1.22.6-1.67.4-.45.87-.68,1.41-.68.2,0,.39.03.57.09s.36.17.55.32c.18.15.34.37.46.66.12.29.19.64.21,1.05v.29h-3.1c.02.5.17.91.46,1.22.29.31.63.47,1.02.47.51,0,1.01-.18,1.52-.55l.06.66c-.51.34-1.04.51-1.58.51-.63,0-1.16-.23-1.56-.71-.41-.47-.61-1.03-.61-1.67Zm.75-.5h2.48c-.04-.26-.11-.48-.21-.66-.1-.18-.22-.31-.35-.38-.13-.08-.25-.13-.35-.15s-.2-.04-.3-.04c-.34,0-.62.13-.84.39-.22.26-.36.54-.43.84Z"/><path class="cls-13" d="m186.4,244.95c0-.62.2-1.17.6-1.65s.93-.73,1.6-.73c.31,0,.57.03.78.09.21.06.46.18.77.35l-.12.66c-.33-.21-.57-.33-.75-.38-.19-.05-.42-.08-.69-.08-.45,0-.8.17-1.04.52-.24.34-.37.75-.37,1.22s.13.9.39,1.22c.26.32.6.48,1.01.48.52,0,1.04-.18,1.57-.54l.05.67c-.53.34-1.07.5-1.63.51-.61,0-1.13-.23-1.54-.68-.42-.46-.63-1.01-.63-1.66Z"/><path class="cls-13" d="m191.28,245.95v-3.23h.78v3.35c0,.24.06.4.16.5s.31.15.63.15c.35,0,.62-.09.83-.28.21-.18.33-.4.36-.64,0-.06,0-.16,0-.29v-2.8h.78v4.45h-.76v-.47c-.45.39-1.04.59-1.75.59-.2,0-.37-.03-.51-.09s-.25-.14-.32-.22c-.07-.08-.12-.19-.16-.34-.04-.14-.05-.26-.06-.34,0-.08,0-.2,0-.34Z"/><path class="cls-13" d="m195.83,243.31v-.59h.86v-1.26h.7v1.26h1.41v.59h-1.41v2.46c0,.58.18.87.54.87.28,0,.57-.11.88-.33l.16.59c-.47.25-.96.38-1.48.38-.55,0-.82-.43-.82-1.28v-2.69h-.84Z"/><path class="cls-13" d="m200,241.28v-.89h.9v.89h-.9Zm.07,5.9v-4.45h.68v4.45h-.68Z"/><path class="cls-13" d="m201.94,244.97c0-.67.22-1.24.65-1.71.43-.46.95-.69,1.54-.69s1.15.24,1.57.73.63,1.04.63,1.68-.22,1.21-.66,1.65c-.44.44-.95.66-1.54.66s-1.1-.22-1.54-.67c-.44-.44-.66-1-.66-1.66Zm.78-.1c0,.59.14,1.03.42,1.33s.61.45.99.45.7-.15.99-.46.42-.75.42-1.33-.14-.98-.42-1.26-.61-.42-.99-.42-.69.14-.98.42c-.29.28-.43.7-.43,1.26Z"/><path class="cls-13" d="m207.45,247.18v-4.5h.73v.71c.39-.51.87-.76,1.46-.76.25,0,.46.04.64.11.18.07.31.16.41.27s.16.24.21.4c.05.16.08.31.09.44.01.13.02.28.02.45v2.88h-.78v-2.8c0-.11,0-.2,0-.27,0-.07-.02-.16-.06-.29-.04-.12-.08-.22-.15-.29-.06-.07-.16-.14-.29-.2-.13-.06-.29-.09-.48-.09-.35,0-.61.15-.77.45s-.24.66-.24,1.09v2.4h-.78Z"/><path class="cls-13" d="m146.57,171.75l.13-.75c.12.11.21.18.26.23.05.05.18.11.39.2.2.08.42.12.64.12.33,0,.61-.09.84-.26.23-.18.34-.48.34-.91v-5.37h.87v5.39c0,.34-.05.63-.16.87s-.25.43-.42.55-.36.21-.56.26-.4.08-.62.08c-.59,0-1.16-.14-1.71-.42Z"/><path class="cls-13" d="m151.18,169.74c0-.67.22-1.24.65-1.71.43-.46.95-.69,1.55-.69s1.15.24,1.57.73c.42.48.63,1.04.63,1.68s-.22,1.21-.66,1.65c-.44.44-.95.66-1.54.66s-1.1-.22-1.54-.67c-.44-.44-.66-1-.66-1.66Zm.78-.1c0,.59.14,1.03.42,1.33s.61.45.99.45.7-.15.99-.46c.28-.3.42-.75.42-1.33s-.14-.98-.42-1.26-.61-.42-.99-.42-.7.14-.98.42c-.29.28-.43.7-.43,1.26Z"/><path class="cls-13" d="m156.69,171.95v-7.22h.75v3.26c.49-.39,1.02-.59,1.6-.59.48,0,.87.23,1.17.69.31.46.46,1,.46,1.62,0,.67-.18,1.23-.55,1.68-.37.45-.8.67-1.31.67-.47,0-.92-.19-1.34-.58v.47h-.78Zm.78-1.33c0,.05,0,.09,0,.12,0,.03,0,.06.02.08s.02.05.03.06.03.04.05.07c.02.03.04.06.06.09.22.27.49.4.82.4.35,0,.68-.14.98-.42.3-.28.45-.71.45-1.31,0-.31-.04-.58-.13-.82-.09-.23-.2-.41-.34-.53-.14-.12-.29-.21-.43-.26s-.29-.08-.44-.08c-.26,0-.5.08-.73.23-.23.15-.34.32-.34.51v1.86Z"/><path class="cls-13" d="m165.37,171.95v-6.94h1.14l1.54,4.01c.43,1.16.66,1.83.69,2.01h0c.03-.23.26-.9.68-2l1.54-4.02h1.15v6.94h-.78v-6.24s-.11.37-.11.37l-.6,1.64-1.54,4.01h-.72l-1.5-3.89c-.43-1.16-.67-1.87-.72-2.13v6.24h-.78Z"/><path class="cls-13" d="m173.56,170.82c0-.25.09-.46.28-.65.19-.18.43-.32.73-.41.3-.09.6-.16.89-.2s.58-.07.87-.07v-.34c-.01-.43-.1-.73-.26-.92-.17-.2-.38-.3-.63-.3-.51,0-1.01.17-1.5.51l-.06-.67c.5-.29,1.02-.44,1.56-.44.46,0,.84.15,1.16.45.31.3.48.67.51,1.1v3.05h-.76v-.35s-.09.07-.19.13c-.1.06-.29.13-.57.21-.28.08-.58.12-.91.12-.38,0-.66-.14-.85-.41-.19-.27-.28-.55-.28-.83Zm.72-.02c0,.18.09.34.26.46.18.12.4.18.67.18.29,0,.55-.06.78-.18.23-.12.35-.33.35-.62v-.64c-.21,0-.42.01-.63.04-.21.03-.43.07-.66.12s-.41.14-.55.25c-.14.11-.21.24-.21.39Z"/><path class="cls-13" d="m178.72,171.95v-4.5h.73v.71c.39-.51.87-.76,1.46-.76.25,0,.46.04.64.11.18.07.31.16.41.27s.17.24.21.41c.05.16.08.31.1.43.01.13.02.28.02.45v2.88h-.78v-2.8c0-.11,0-.2,0-.27,0-.07-.02-.16-.06-.29-.04-.12-.09-.22-.15-.29-.06-.07-.16-.14-.29-.2-.13-.06-.29-.08-.48-.08-.36,0-.61.15-.77.45s-.24.66-.24,1.09v2.4h-.78Z"/><path class="cls-13" d="m183.52,170.82c0-.25.09-.46.28-.65.19-.18.43-.32.73-.41.3-.09.6-.16.89-.2s.58-.07.87-.07v-.34c-.01-.43-.1-.73-.26-.92-.17-.2-.38-.3-.63-.3-.51,0-1.01.17-1.5.51l-.06-.67c.5-.29,1.02-.44,1.56-.44.46,0,.84.15,1.16.45.31.3.48.67.51,1.1v3.05h-.76v-.35s-.09.07-.19.13c-.1.06-.29.13-.57.21-.28.08-.58.12-.91.12-.38,0-.66-.14-.85-.41-.19-.27-.28-.55-.28-.83Zm.72-.02c0,.18.09.34.26.46.18.12.4.18.67.18.29,0,.55-.06.78-.18.23-.12.35-.33.35-.62v-.64c-.21,0-.42.01-.63.04-.21.03-.43.07-.66.12s-.41.14-.55.25c-.14.11-.21.24-.21.39Z"/><path class="cls-13" d="m188.16,172.67c0-.44.21-.78.63-1.03-.17-.24-.25-.49-.25-.76,0-.3.1-.58.29-.85h0c-.22-.3-.33-.63-.33-1.01,0-.47.16-.86.47-1.16.31-.31.68-.46,1.1-.46.34,0,.68.11,1,.33l-.02-.02c.49-.21,1.02-.31,1.57-.31l.11.62c-.2-.02-.4-.03-.59-.03-.02,0-.27.01-.75.04l-.09-.08c.26.36.39.72.39,1.08,0,.44-.16.82-.46,1.15-.31.33-.69.49-1.15.49-.29,0-.58-.1-.89-.31-.1.15-.15.27-.15.37,0,.13.04.26.12.37.08.11.23.17.45.17h.77c.24,0,.43,0,.6.02.16.02.37.05.61.11s.45.16.61.31c.16.15.28.34.34.57.03.13.05.25.05.37,0,.39-.22.71-.65.97-.44.26-.96.39-1.58.39s-1.13-.13-1.56-.39c-.43-.26-.64-.58-.64-.96Zm.7,0c0,.17.09.32.27.45.18.12.38.21.59.26.22.05.43.08.64.08.42,0,.79-.07,1.09-.22.3-.15.45-.33.45-.56,0-.46-.5-.7-1.51-.7h-.92c-.19.03-.33.11-.45.24s-.17.28-.17.44Zm.35-3.64c0,.32.08.58.25.77.17.19.38.29.66.29.23,0,.43-.08.62-.25.18-.16.27-.44.27-.82,0-.32-.08-.58-.24-.77-.16-.19-.38-.29-.65-.29-.23,0-.43.08-.62.25-.18.16-.28.44-.28.82Z"/><path class="cls-13" d="m193.23,169.69c0-.66.2-1.22.6-1.67.4-.45.87-.68,1.41-.68.2,0,.39.03.57.09s.36.17.55.32c.18.15.34.37.46.66.12.29.19.64.21,1.05v.29h-3.1c.02.5.17.91.46,1.22.29.31.63.47,1.02.47.51,0,1.01-.18,1.52-.55l.06.66c-.51.34-1.04.51-1.58.51-.63,0-1.16-.24-1.57-.71-.41-.47-.61-1.03-.61-1.67Zm.75-.5h2.48c-.04-.26-.11-.48-.21-.66-.1-.18-.22-.31-.35-.38-.13-.08-.25-.13-.35-.15-.1-.03-.2-.04-.29-.04-.34,0-.62.13-.84.39-.22.26-.37.54-.43.84Z"/><path class="cls-13" d="m198.12,171.95v-4.5h.73v.71c.39-.51.87-.76,1.46-.76.65,0,1.07.27,1.27.82.41-.55.91-.82,1.51-.82.25,0,.47.04.65.12s.32.18.4.29c.09.11.16.25.21.42.05.17.08.31.08.42,0,.11,0,.25,0,.41v2.88h-.78v-2.86s0-.08-.02-.16c-.01-.08-.03-.15-.05-.22-.02-.07-.06-.15-.11-.23-.05-.09-.1-.16-.17-.22-.07-.06-.15-.12-.26-.16-.11-.04-.23-.07-.36-.07-.36,0-.61.15-.78.45-.16.3-.24.66-.24,1.09v2.4h-.78v-2.8c0-.11,0-.2,0-.27,0-.07-.02-.16-.06-.29-.04-.12-.09-.22-.15-.29-.06-.07-.16-.14-.29-.2-.13-.06-.29-.08-.48-.08-.36,0-.61.15-.77.45s-.24.66-.24,1.09v2.4h-.78Z"/><path class="cls-13" d="m205.6,169.69c0-.66.2-1.22.6-1.67.4-.45.87-.68,1.41-.68.2,0,.39.03.57.09s.36.17.55.32c.18.15.34.37.46.66.12.29.19.64.21,1.05v.29h-3.1c.02.5.17.91.46,1.22.29.31.63.47,1.02.47.51,0,1.01-.18,1.52-.55l.06.66c-.51.34-1.04.51-1.58.51-.63,0-1.16-.24-1.57-.71-.41-.47-.61-1.03-.61-1.67Zm.75-.5h2.48c-.04-.26-.11-.48-.21-.66-.1-.18-.22-.31-.35-.38-.13-.08-.25-.13-.35-.15-.1-.03-.2-.04-.29-.04-.34,0-.62.13-.84.39-.22.26-.37.54-.43.84Z"/><path class="cls-13" d="m210.5,171.95v-4.5h.73v.71c.39-.51.87-.76,1.46-.76.25,0,.46.04.64.11.18.07.31.16.41.27s.17.24.21.41c.05.16.08.31.1.43.01.13.02.28.02.45v2.88h-.78v-2.8c0-.11,0-.2,0-.27,0-.07-.02-.16-.06-.29-.04-.12-.09-.22-.15-.29-.06-.07-.16-.14-.29-.2-.13-.06-.29-.08-.48-.08-.36,0-.61.15-.77.45s-.24.66-.24,1.09v2.4h-.78Z"/><path class="cls-13" d="m215.05,168.09v-.59h.86v-1.26h.7v1.26h1.41v.59h-1.41v2.46c0,.58.18.87.54.87.28,0,.57-.11.88-.33l.16.59c-.47.25-.97.38-1.48.38-.55,0-.82-.43-.82-1.28v-2.69h-.84Z"/><path class="cls-13" d="m163.83,99.39v-6.94h2.46c.67,0,1.24.16,1.72.47.49.32.87.75,1.13,1.3.26.55.4,1.13.4,1.75,0,.93-.27,1.7-.82,2.33-.55.62-1.19.98-1.93,1.07-.11.01-.27.02-.48.02h-2.48Zm.87-.56h1.43c.83,0,1.48-.31,1.95-.92.39-.51.59-1.16.59-1.93,0-.85-.22-1.55-.67-2.12-.44-.57-1.07-.85-1.87-.85h-1.43v5.83Z"/><path class="cls-13" d="m170.53,98.26c0-.25.09-.46.28-.65.19-.18.43-.32.73-.41.3-.09.6-.16.88-.2.29-.04.58-.07.87-.07v-.34c-.01-.43-.1-.73-.26-.92-.17-.2-.38-.3-.63-.3-.51,0-1.01.17-1.5.51l-.06-.67c.5-.29,1.02-.44,1.56-.44.46,0,.84.15,1.16.45s.48.67.51,1.1v3.05h-.76v-.35s-.09.07-.19.13c-.1.06-.29.13-.57.21-.28.08-.58.12-.91.12-.38,0-.66-.13-.85-.41-.19-.27-.28-.55-.28-.83Zm.72-.02c0,.18.09.34.26.46.18.12.4.18.67.18.29,0,.54-.06.78-.18.23-.12.34-.33.34-.62v-.64c-.21,0-.42.01-.63.04s-.43.07-.66.12c-.23.05-.41.14-.55.25-.14.11-.21.24-.21.39Z"/><path class="cls-13" d="m175.07,95.53v-.59h.86v-1.26h.7v1.26h1.41v.59h-1.41v2.46c0,.58.18.87.54.87.28,0,.57-.11.88-.33l.16.59c-.47.25-.96.38-1.48.38-.55,0-.82-.43-.82-1.28v-2.69h-.84Z"/><path class="cls-13" d="m178.94,98.26c0-.25.09-.46.28-.65.19-.18.43-.32.73-.41.3-.09.6-.16.88-.2.29-.04.58-.07.87-.07v-.34c-.01-.43-.1-.73-.26-.92-.17-.2-.38-.3-.63-.3-.51,0-1.01.17-1.5.51l-.06-.67c.5-.29,1.02-.44,1.56-.44.46,0,.84.15,1.16.45s.48.67.51,1.1v3.05h-.76v-.35s-.09.07-.19.13c-.1.06-.29.13-.57.21-.28.08-.58.12-.91.12-.38,0-.66-.13-.85-.41-.19-.27-.28-.55-.28-.83Zm.72-.02c0,.18.09.34.26.46.18.12.4.18.67.18.29,0,.54-.06.78-.18.23-.12.34-.33.34-.62v-.64c-.21,0-.42.01-.63.04s-.43.07-.66.12c-.23.05-.41.14-.55.25-.14.11-.21.24-.21.39Z"/><path class="cls-13" d="m187.57,99.39v-6.94h.9v6.94h-.9Z"/><path class="cls-13" d="m189.96,101.58s.03-.16.09-.33l3.16-9.06c.07-.19.17-.29.32-.29.08,0,.15.03.21.09.06.06.09.13.09.21,0,.05-.02.14-.07.28l-3.18,9.11c-.08.2-.19.3-.32.3-.08,0-.15-.03-.21-.09s-.09-.13-.09-.22Z"/><path class="cls-13" d="m194.95,95.94c0-1.03.31-1.91.93-2.63.62-.72,1.35-1.08,2.2-1.08s1.57.36,2.19,1.08c.62.72.93,1.6.93,2.63s-.31,1.92-.94,2.62c-.62.7-1.35,1.05-2.19,1.05s-1.57-.35-2.19-1.06c-.62-.7-.93-1.57-.93-2.61Zm1.56-2.26c-.44.54-.66,1.25-.66,2.12s.21,1.62.62,2.24c.41.62.95.93,1.6.93s1.17-.31,1.59-.92.64-1.36.64-2.25-.22-1.58-.66-2.12c-.44-.54-.96-.81-1.57-.81s-1.12.27-1.56.81Z"/><path class="cls-13" d="m155.63,17.26v-6.94h2.46c.67,0,1.24.16,1.72.47.49.32.87.75,1.13,1.3.26.55.4,1.13.4,1.75,0,.93-.27,1.7-.82,2.33-.55.62-1.19.98-1.93,1.07-.11.01-.27.02-.48.02h-2.48Zm.87-.56h1.43c.83,0,1.48-.31,1.95-.92.39-.51.59-1.16.59-1.93,0-.85-.22-1.55-.67-2.12s-1.07-.85-1.87-.85h-1.43v5.83Z"/><path class="cls-13" d="m162.33,16.13c0-.25.09-.46.28-.65.19-.18.43-.32.73-.41.3-.09.6-.16.88-.2.29-.04.58-.07.87-.07v-.34c-.01-.43-.1-.73-.26-.92-.17-.2-.38-.3-.63-.3-.51,0-1.01.17-1.5.51l-.06-.67c.5-.29,1.02-.44,1.56-.44.46,0,.84.15,1.16.45s.48.67.51,1.1v3.05h-.76v-.35s-.09.07-.19.13c-.1.06-.29.13-.57.21-.28.08-.58.12-.91.12-.38,0-.66-.14-.85-.41-.19-.27-.28-.55-.28-.83Zm.72-.02c0,.18.09.34.26.46.18.12.4.18.67.18.29,0,.54-.06.78-.18.23-.12.34-.33.34-.62v-.64c-.21,0-.42.01-.63.04-.21.03-.43.07-.66.12-.23.05-.41.14-.55.25-.14.11-.21.24-.21.39Z"/><path class="cls-13" d="m166.87,13.4v-.59h.86v-1.26h.7v1.26h1.41v.59h-1.41v2.46c0,.58.18.87.54.87.28,0,.57-.11.88-.33l.16.59c-.47.25-.96.38-1.48.38-.55,0-.82-.43-.82-1.28v-2.69h-.84Z"/><path class="cls-13" d="m170.74,16.13c0-.25.09-.46.28-.65.19-.18.43-.32.73-.41.3-.09.6-.16.88-.2.29-.04.58-.07.87-.07v-.34c-.01-.43-.1-.73-.26-.92-.17-.2-.38-.3-.63-.3-.51,0-1.01.17-1.5.51l-.06-.67c.5-.29,1.02-.44,1.56-.44.46,0,.84.15,1.16.45s.48.67.51,1.1v3.05h-.76v-.35s-.09.07-.19.13c-.1.06-.29.13-.57.21-.28.08-.58.12-.91.12-.38,0-.66-.14-.85-.41-.19-.27-.28-.55-.28-.83Zm.72-.02c0,.18.09.34.26.46.18.12.4.18.67.18.29,0,.54-.06.78-.18.23-.12.34-.33.34-.62v-.64c-.21,0-.42.01-.63.04-.21.03-.43.07-.66.12-.23.05-.41.14-.55.25-.14.11-.21.24-.21.39Z"/><path class="cls-13" d="m178.87,16.79l.15-.83c.7.55,1.4.83,2.13.83.43,0,.79-.13,1.06-.4.27-.27.41-.57.41-.92,0-.26-.08-.5-.23-.71-.15-.22-.36-.38-.62-.48-.01,0-.43-.12-1.24-.33-.41-.11-.76-.33-1.07-.66-.31-.33-.46-.74-.46-1.22,0-.51.21-.97.62-1.36.41-.4.96-.6,1.62-.6.63,0,1.24.16,1.84.47l-.14.83c-.28-.21-.54-.38-.78-.48-.24-.11-.55-.16-.93-.16-.43,0-.78.12-1.05.36-.27.24-.4.52-.4.83,0,.24.08.45.23.64.15.19.35.34.58.43.1.03.34.09.73.19.39.1.65.18.77.23.37.15.68.4.95.73.26.34.39.73.39,1.19,0,.57-.21,1.06-.64,1.48-.43.42-.97.63-1.63.63-.8,0-1.56-.23-2.28-.69Z"/><path class="cls-13" d="m184.15,13.4v-.59h.86v-1.26h.7v1.26h1.41v.59h-1.41v2.46c0,.58.18.87.54.87.28,0,.57-.11.88-.33l.16.59c-.47.25-.96.38-1.48.38-.55,0-.82-.43-.82-1.28v-2.69h-.84Z"/><path class="cls-13" d="m187.88,15.05c0-.67.22-1.24.65-1.71.43-.46.95-.69,1.54-.69s1.15.24,1.57.73c.42.48.63,1.04.63,1.68s-.22,1.21-.66,1.65c-.44.44-.95.66-1.54.66s-1.1-.22-1.54-.67c-.44-.44-.66-1-.66-1.66Zm.78-.1c0,.59.14,1.03.42,1.33s.61.45.99.45.7-.15.99-.46c.28-.3.42-.75.42-1.33s-.14-.98-.42-1.26-.61-.42-.99-.42-.69.14-.98.42c-.29.28-.43.7-.43,1.26Z"/><path class="cls-13" d="m193.11,17.26v-4.5h.7v.89c.08-.12.18-.25.29-.36s.3-.24.57-.37c.27-.13.57-.2.89-.21v.66c-.17,0-.35.04-.52.09-.17.06-.36.15-.55.27s-.34.31-.46.57c-.12.25-.18.55-.18.89v2.07h-.75Z"/><path class="cls-13" d="m196.16,16.13c0-.25.09-.46.28-.65.19-.18.43-.32.73-.41.3-.09.6-.16.88-.2.29-.04.58-.07.87-.07v-.34c-.01-.43-.1-.73-.26-.92-.17-.2-.38-.3-.63-.3-.51,0-1.01.17-1.5.51l-.06-.67c.5-.29,1.02-.44,1.56-.44.46,0,.84.15,1.16.45s.48.67.51,1.1v3.05h-.76v-.35s-.09.07-.19.13c-.1.06-.29.13-.57.21-.28.08-.58.12-.91.12-.38,0-.66-.14-.85-.41-.19-.27-.28-.55-.28-.83Zm.72-.02c0,.18.09.34.26.46.18.12.4.18.67.18.29,0,.54-.06.78-.18.23-.12.34-.33.34-.62v-.64c-.21,0-.42.01-.63.04-.21.03-.43.07-.66.12-.23.05-.41.14-.55.25-.14.11-.21.24-.21.39Z"/><path class="cls-13" d="m200.79,17.97c0-.44.21-.78.63-1.03-.17-.24-.25-.49-.25-.76,0-.3.1-.58.29-.85h0c-.22-.3-.33-.63-.33-1.01,0-.47.16-.86.47-1.16.31-.31.68-.46,1.1-.46.35,0,.68.11,1,.33l-.02-.02c.5-.21,1.02-.31,1.57-.31l.11.62c-.2-.02-.4-.03-.59-.03-.02,0-.27.01-.75.04l-.09-.08c.26.36.39.72.39,1.08,0,.44-.15.82-.46,1.15-.31.33-.69.49-1.15.49-.29,0-.58-.1-.89-.31-.1.15-.15.27-.15.37,0,.13.04.26.12.37.08.11.23.17.45.17h.77c.23,0,.43,0,.6.02.16.02.37.05.61.11s.45.16.61.31.28.34.34.57c.03.13.05.25.05.37,0,.39-.22.71-.65.97-.44.26-.96.39-1.58.39s-1.13-.13-1.56-.39c-.43-.26-.64-.58-.64-.96Zm.7,0c0,.17.09.32.27.45s.38.21.59.26c.22.05.43.08.64.08.42,0,.79-.07,1.09-.22.3-.15.45-.33.45-.56,0-.46-.5-.7-1.51-.7h-.92c-.19.03-.34.11-.45.24-.11.13-.17.28-.17.44Zm.35-3.64c0,.32.08.58.25.77.16.19.38.29.66.29.23,0,.43-.08.62-.25.18-.16.27-.44.27-.82,0-.32-.08-.58-.24-.77-.16-.19-.38-.29-.65-.29-.23,0-.43.08-.62.25-.18.16-.28.44-.28.82Z"/><path class="cls-13" d="m205.86,15c0-.66.2-1.22.6-1.67.4-.45.87-.68,1.41-.68.2,0,.39.03.57.09s.36.17.55.32c.18.15.34.37.46.66.12.29.19.64.21,1.05v.29h-3.1c.02.5.17.91.46,1.22.29.31.63.47,1.02.47.51,0,1.01-.18,1.52-.55l.06.66c-.51.34-1.04.51-1.58.51-.63,0-1.16-.24-1.56-.71-.41-.47-.61-1.03-.61-1.67Zm.75-.5h2.48c-.04-.26-.11-.48-.21-.66-.1-.18-.22-.31-.35-.38-.13-.08-.25-.13-.35-.15-.1-.03-.2-.04-.3-.04-.34,0-.62.13-.84.39-.22.26-.36.54-.43.84Z"/><path class="cls-2" d="m164.67,25.62v-.67s.34-1,.34-1h.34l-.21,1h.21v.67h-.67Zm1.69,0v-.67s.34-1,.34-1h.34l-.21,1h.21v.67h-.67Z"/><path class="cls-2" d="m167.46,27.94c0-.5.16-.94.48-1.32.32-.39.75-.58,1.28-.58.25,0,.46.02.62.07.17.05.37.14.62.28l-.1.53c-.26-.16-.46-.27-.6-.31-.15-.04-.34-.06-.55-.06-.36,0-.64.14-.84.41s-.29.6-.29.98c0,.4.1.72.31.98.21.25.48.38.81.38.42,0,.84-.14,1.26-.43l.04.53c-.42.27-.86.41-1.3.41-.49,0-.9-.18-1.24-.55-.33-.37-.5-.81-.5-1.33Z"/><path class="cls-2" d="m171.37,28.75v-2.58h.62v2.68c0,.19.05.32.13.4.08.08.25.12.51.12.28,0,.5-.07.67-.22.17-.15.26-.32.29-.51,0-.05,0-.13,0-.23v-2.24h.62v3.56h-.61v-.38c-.36.31-.83.47-1.4.47-.16,0-.29-.03-.41-.08s-.2-.11-.25-.17c-.06-.06-.1-.15-.13-.27-.03-.11-.04-.21-.05-.27,0-.07,0-.16,0-.28Z"/><path class="cls-2" d="m175.08,29.46l.1-.54s.04.03.1.06.1.06.13.08c.03.02.08.04.14.07.07.03.13.06.18.08s.12.04.19.06c.07.02.15.04.24.04.08,0,.17.01.26.01.27,0,.46-.06.57-.17.12-.11.17-.24.17-.38s-.05-.24-.14-.33-.2-.15-.31-.18c-.05-.02-.17-.04-.36-.08s-.32-.07-.41-.1c-.22-.07-.41-.19-.58-.36-.17-.17-.25-.38-.25-.63,0-.12.02-.24.05-.35s.1-.22.19-.34c.09-.12.22-.21.41-.27.18-.07.4-.1.66-.1.38,0,.77.08,1.16.25l-.08.53s-.04-.02-.09-.04c-.06-.02-.09-.04-.09-.04,0,0-.04-.02-.09-.04-.05-.02-.08-.04-.1-.04-.02,0-.05-.02-.1-.04-.05-.02-.08-.03-.11-.03-.03,0-.07,0-.12-.02-.05-.01-.1-.02-.13-.02-.04,0-.09,0-.14,0-.05,0-.11,0-.17,0-.25,0-.42.05-.52.15-.1.1-.15.21-.15.34,0,.18.07.3.21.38s.34.14.6.18c.26.04.44.09.54.14.19.09.35.21.49.39.13.17.2.38.2.62,0,.12-.02.24-.05.36-.04.12-.1.23-.19.35-.09.12-.22.21-.41.28s-.4.11-.65.11c-.47,0-.92-.12-1.35-.36Z"/><path class="cls-2" d="m178.07,26.64v-.47h.69v-1.01h.56v1.01h1.13v.47h-1.13v1.97c0,.46.14.7.43.7.22,0,.46-.09.7-.26l.13.47c-.38.2-.77.3-1.18.3-.44,0-.66-.34-.66-1.03v-2.15h-.67Z"/><path class="cls-2" d="m181.05,27.96c0-.54.17-.99.52-1.36.35-.37.76-.56,1.24-.56s.92.19,1.25.58c.33.39.5.84.5,1.35s-.17.97-.53,1.32c-.35.35-.76.53-1.23.53s-.88-.18-1.23-.53c-.35-.36-.53-.8-.53-1.33Zm.62-.08c0,.47.11.82.34,1.06.23.24.49.36.79.36s.56-.12.79-.36c.23-.24.34-.6.34-1.06s-.11-.79-.34-1.01c-.23-.22-.49-.34-.79-.34s-.56.11-.79.34c-.23.22-.34.56-.34,1.01Z"/><path class="cls-2" d="m185.46,29.73v-3.6h.58v.57c.31-.41.7-.61,1.17-.61.52,0,.86.22,1.02.66.33-.44.73-.66,1.21-.66.2,0,.38.03.52.1.15.07.25.14.32.23.07.09.13.2.17.34.04.14.06.25.07.34,0,.09,0,.2,0,.32v2.3h-.62v-2.29s0-.06-.02-.13c0-.06-.02-.12-.04-.18-.02-.06-.05-.12-.08-.19-.04-.07-.08-.13-.14-.18-.05-.05-.12-.09-.21-.13-.08-.04-.18-.05-.29-.05-.28,0-.49.12-.62.36-.13.24-.2.53-.2.87v1.92h-.62v-2.24c0-.09,0-.16,0-.22,0-.05-.02-.13-.05-.23-.03-.1-.07-.18-.12-.24s-.13-.11-.23-.16c-.1-.04-.23-.07-.38-.07-.28,0-.49.12-.62.36-.13.24-.19.53-.19.87v1.92h-.62Z"/><path class="cls-2" d="m191.44,27.92c0-.53.16-.97.48-1.33.32-.36.7-.54,1.13-.54.16,0,.31.03.46.08s.29.13.44.25c.15.12.27.29.37.53.1.23.15.51.17.84v.23h-2.48c.02.4.14.73.37.98.23.25.5.38.82.38.41,0,.81-.15,1.21-.44l.05.53c-.41.27-.83.41-1.27.41-.51,0-.92-.19-1.25-.56-.33-.38-.49-.82-.49-1.33Zm.6-.4h1.98c-.03-.21-.09-.38-.17-.53-.08-.14-.18-.25-.28-.31-.1-.06-.2-.1-.28-.12s-.16-.03-.24-.03c-.27,0-.49.1-.67.31-.18.21-.29.43-.34.67Z"/><path class="cls-2" d="m195.37,29.73v-3.6h.56v.72c.07-.1.14-.2.23-.29s.24-.19.46-.3c.22-.11.45-.16.71-.17v.53c-.14,0-.28.03-.42.08-.14.05-.29.12-.44.22s-.28.25-.37.45c-.09.2-.14.44-.14.71v1.65h-.6Z"/><path class="cls-2" d="m197.6,25.61l.21-1h-.21v-.67h.67v.67s-.34,1-.34,1h-.34Zm1.69,0l.21-1h-.21v-.67h.67v.67s-.34,1-.34,1h-.34Z"/><path class="cls-2" d="m163.66,108.86v-.67s.34-1,.34-1h.34l-.21,1h.21v.67h-.67Zm1.69,0v-.67s.34-1,.34-1h.34l-.21,1h.21v.67h-.67Z"/><path class="cls-2" d="m166.52,112.06c0-.2.08-.37.22-.52.15-.15.34-.26.59-.33.24-.07.48-.12.71-.16.23-.04.46-.05.7-.05v-.27c-.01-.34-.08-.59-.21-.74-.13-.16-.3-.24-.51-.24-.41,0-.81.13-1.2.41l-.05-.54c.4-.23.82-.35,1.25-.35.37,0,.68.12.92.36s.38.54.4.88v2.44h-.61v-.28s-.07.05-.15.1c-.08.05-.23.1-.45.17-.22.06-.47.1-.73.1-.3,0-.53-.11-.68-.32-.15-.22-.23-.44-.23-.67Zm.57-.02c0,.15.07.27.21.37.14.1.32.15.53.15.23,0,.44-.05.62-.15.18-.1.28-.26.28-.5v-.51c-.16,0-.33.01-.5.03-.17.02-.35.05-.53.1-.18.04-.33.11-.44.2-.11.09-.17.2-.17.31Z"/><path class="cls-2" d="m170.16,109.87v-.47h.69v-1.01h.56v1.01h1.13v.47h-1.13v1.97c0,.46.14.7.43.7.22,0,.46-.09.7-.26l.13.47c-.38.2-.77.3-1.18.3-.44,0-.66-.34-.66-1.03v-2.15h-.67Z"/><path class="cls-2" d="m173.04,109.87v-.47h.69v-1.01h.56v1.01h1.13v.47h-1.13v1.97c0,.46.14.7.43.7.22,0,.46-.09.7-.26l.13.47c-.38.2-.77.3-1.18.3-.44,0-.66-.34-.66-1.03v-2.15h-.67Z"/><path class="cls-2" d="m176.06,111.15c0-.53.16-.97.48-1.33.32-.36.7-.54,1.13-.54.16,0,.31.03.46.08s.29.13.44.25c.15.12.27.29.37.53.1.23.15.51.17.84v.23h-2.48c.02.4.14.73.37.98.23.25.5.38.82.38.41,0,.81-.15,1.21-.44l.05.53c-.41.27-.83.41-1.27.41-.51,0-.92-.19-1.25-.56-.33-.38-.49-.82-.49-1.33Zm.6-.4h1.98c-.03-.21-.09-.38-.17-.53-.08-.14-.18-.25-.28-.31-.1-.06-.2-.1-.28-.12-.08-.02-.16-.03-.24-.03-.27,0-.49.1-.67.31-.18.21-.29.43-.34.67Z"/><path class="cls-2" d="m179.98,112.96v-3.6h.58v.57c.31-.41.7-.61,1.17-.61.2,0,.37.03.51.09.14.06.25.13.32.22s.13.19.17.32c.04.13.07.25.08.35.01.1.02.22.02.36v2.3h-.62v-2.24c0-.09,0-.16,0-.22,0-.05-.02-.13-.05-.23-.03-.1-.07-.18-.12-.24s-.13-.11-.23-.16c-.1-.05-.23-.07-.38-.07-.28,0-.49.12-.62.36s-.19.53-.19.87v1.92h-.62Z"/><path class="cls-2" d="m183.75,111.19c0-.53.14-.97.42-1.34.28-.36.61-.54,1.01-.54s.79.15,1.16.44v-2.57h.6v5.78h-.62v-.41c-.35.34-.74.5-1.18.5-.4,0-.73-.19-.99-.56-.26-.37-.39-.81-.39-1.3Zm.62,0c0,.47.11.82.34,1.04.22.22.47.33.74.33.22,0,.42-.08.59-.23s.26-.3.26-.44v-1.53c0-.1-.06-.21-.17-.31-.17-.16-.37-.24-.59-.24h-.02c-.13,0-.25.02-.38.07-.12.05-.25.12-.37.22-.12.1-.22.24-.3.43-.08.19-.11.4-.11.65Z"/><path class="cls-2" d="m187.95,112.06c0-.2.08-.37.22-.52.15-.15.34-.26.59-.33.24-.07.48-.12.71-.16.23-.04.46-.05.7-.05v-.27c-.01-.34-.08-.59-.21-.74-.13-.16-.3-.24-.51-.24-.41,0-.81.13-1.2.41l-.05-.54c.4-.23.82-.35,1.25-.35.37,0,.68.12.92.36s.38.54.4.88v2.44h-.61v-.28s-.07.05-.15.1c-.08.05-.23.1-.45.17-.22.06-.47.1-.73.1-.3,0-.53-.11-.68-.32-.15-.22-.23-.44-.23-.67Zm.57-.02c0,.15.07.27.21.37.14.1.32.15.53.15.23,0,.44-.05.62-.15.18-.1.28-.26.28-.5v-.51c-.16,0-.33.01-.5.03-.17.02-.35.05-.53.1-.18.04-.33.11-.44.2-.11.09-.17.2-.17.31Z"/><path class="cls-2" d="m192.08,112.96v-3.6h.58v.57c.31-.41.7-.61,1.17-.61.2,0,.37.03.51.09.14.06.25.13.32.22s.13.19.17.32c.04.13.07.25.08.35.01.1.02.22.02.36v2.3h-.62v-2.24c0-.09,0-.16,0-.22,0-.05-.02-.13-.05-.23-.03-.1-.07-.18-.12-.24s-.13-.11-.23-.16c-.1-.05-.23-.07-.38-.07-.28,0-.49.12-.62.36s-.19.53-.19.87v1.92h-.62Z"/><path class="cls-2" d="m195.72,109.87v-.47h.69v-1.01h.56v1.01h1.13v.47h-1.13v1.97c0,.46.14.7.43.7.22,0,.46-.09.7-.26l.13.47c-.38.2-.77.3-1.18.3-.44,0-.66-.34-.66-1.03v-2.15h-.67Z"/><path class="cls-2" d="m198.61,108.85l.21-1h-.21v-.67h.67v.67s-.34,1-.34,1h-.34Zm1.69,0l.21-1h-.21v-.67h.67v.67s-.34,1-.34,1h-.34Z"/><path class="cls-2" d="m158.83,182.12v-.67s.34-1,.34-1h.34l-.21,1h.21v.67h-.67Zm1.69,0v-.67s.34-1,.34-1h.34l-.21,1h.21v.67h-.67Z"/><path class="cls-2" d="m162.01,186.23v-5.78h.57v3.89l1.63-1.67h.72l-1.35,1.38,1.52,2.18h-.66l-1.25-1.79-.64.66v1.14h-.56Z"/><path class="cls-2" d="m165.85,181.51v-.71h.72v.71h-.72Zm.05,4.72v-3.56h.54v3.56h-.54Z"/><path class="cls-2" d="m167.31,183.14v-.47h.69v-1.01h.56v1.01h1.13v.47h-1.13v1.97c0,.46.14.7.43.7.22,0,.46-.09.7-.26l.13.47c-.38.2-.77.3-1.18.3-.44,0-.66-.34-.66-1.03v-2.15h-.67Z"/><path class="cls-2" d="m170.33,184.45c0-.5.16-.94.48-1.32.32-.39.75-.58,1.28-.58.25,0,.46.02.62.07.17.05.37.14.62.28l-.1.53c-.26-.16-.46-.27-.6-.3-.15-.04-.34-.06-.55-.06-.36,0-.64.14-.84.41-.2.28-.29.6-.29.98,0,.4.1.72.31.98.21.26.48.38.81.38.42,0,.84-.14,1.26-.43l.04.54c-.42.27-.86.4-1.3.41-.49,0-.9-.18-1.24-.55-.33-.37-.5-.81-.5-1.32Z"/><path class="cls-2" d="m174.24,186.23v-5.78h.6v2.71c.32-.38.71-.58,1.15-.58.2,0,.38.03.52.1.14.06.25.14.32.23.07.09.13.2.17.34.04.13.06.25.07.34s.01.2.01.33v2.3h-.62v-2.24c0-.09,0-.16,0-.22,0-.05-.02-.13-.05-.23-.03-.1-.07-.18-.12-.24s-.13-.11-.23-.16c-.1-.05-.23-.07-.38-.07-.28,0-.49.12-.62.36s-.19.53-.19.87v1.92h-.62Z"/><path class="cls-2" d="m178.01,184.42c0-.53.16-.97.48-1.33.32-.36.7-.54,1.13-.54.16,0,.31.03.46.08s.29.13.44.25c.15.12.27.29.37.53.1.23.15.51.17.84v.23h-2.48c.02.4.14.73.37.98.23.25.5.38.82.38.41,0,.81-.15,1.21-.44l.05.53c-.41.27-.83.41-1.27.41-.51,0-.92-.19-1.25-.56-.33-.38-.49-.82-.49-1.33Zm.6-.4h1.98c-.03-.21-.09-.38-.17-.53-.08-.14-.18-.25-.28-.31-.1-.06-.2-.1-.28-.12-.08-.02-.16-.03-.24-.03-.27,0-.49.1-.67.31-.18.21-.29.43-.34.67Z"/><path class="cls-2" d="m181.92,186.23v-3.6h.58v.57c.31-.41.7-.61,1.17-.61.2,0,.37.03.51.09.14.06.25.13.32.22s.13.19.17.32c.04.13.07.25.08.35.01.1.02.22.02.36v2.3h-.62v-2.24c0-.09,0-.16,0-.22,0-.05-.02-.13-.05-.23-.03-.1-.07-.18-.12-.24s-.13-.11-.23-.16c-.1-.05-.23-.07-.38-.07-.28,0-.49.12-.62.36s-.19.53-.19.87v1.92h-.62Z"/><path class="cls-2" d="m188.29,185.96l.1-.54s.04.03.1.06.1.06.13.08c.03.02.08.04.14.07.07.03.13.06.18.08.06.02.12.04.19.06.07.02.15.04.24.04.08,0,.17.01.26.01.27,0,.46-.06.57-.17.12-.11.17-.24.17-.38s-.05-.24-.14-.33-.2-.15-.31-.18c-.05-.02-.17-.04-.36-.08-.19-.04-.32-.07-.41-.1-.22-.07-.41-.19-.58-.36-.17-.17-.25-.38-.25-.63,0-.12.02-.24.05-.35s.1-.22.19-.34c.09-.11.22-.21.41-.27s.4-.1.66-.1c.38,0,.77.08,1.16.25l-.08.53s-.04-.02-.09-.04c-.06-.03-.09-.04-.09-.05,0,0-.04-.02-.09-.04-.05-.02-.08-.03-.1-.04-.02,0-.05-.02-.1-.04s-.08-.03-.11-.03c-.03,0-.07-.01-.12-.02s-.1-.02-.13-.02-.09,0-.14,0c-.05,0-.11,0-.17,0-.25,0-.42.05-.52.15-.1.1-.15.21-.15.34,0,.18.07.3.21.38s.34.14.6.18c.26.04.44.09.54.14.19.09.35.21.49.39.13.17.2.38.2.62,0,.12-.02.24-.05.36-.04.12-.1.23-.19.35-.09.12-.22.21-.41.28-.18.07-.4.11-.65.11-.47,0-.92-.12-1.35-.36Z"/><path class="cls-2" d="m191.28,183.14v-.47h.69v-1.01h.56v1.01h1.13v.47h-1.13v1.97c0,.46.14.7.43.7.22,0,.46-.09.7-.26l.13.47c-.38.2-.77.3-1.18.3-.44,0-.66-.34-.66-1.03v-2.15h-.67Z"/><path class="cls-2" d="m194.38,185.33c0-.2.08-.37.22-.52.15-.15.34-.26.59-.33.24-.07.48-.12.71-.16.23-.04.46-.05.7-.05v-.27c-.01-.34-.08-.59-.21-.74-.13-.16-.3-.24-.51-.24-.41,0-.81.13-1.2.41l-.05-.54c.4-.23.82-.35,1.25-.35.37,0,.68.12.92.36s.38.54.4.88v2.44h-.61v-.28s-.07.05-.15.1c-.08.05-.23.1-.45.17-.22.06-.47.1-.73.1-.3,0-.53-.11-.68-.32-.15-.22-.23-.44-.23-.67Zm.57-.02c0,.15.07.27.21.37.14.1.32.15.53.15.23,0,.44-.05.62-.15.18-.1.28-.26.28-.5v-.51c-.16,0-.33.01-.5.03-.17.02-.35.05-.53.1-.18.04-.33.11-.44.2-.11.09-.17.2-.17.31Z"/><path class="cls-2" d="m198.08,183.14v-.47h.59v-.59s0-.05,0-.1c0-.04,0-.08,0-.1,0-.49.13-.87.4-1.14s.58-.4.94-.4c.2,0,.41.03.63.09v.55c-.23-.09-.45-.14-.65-.14-.18,0-.35.05-.51.16-.16.11-.24.29-.24.57v1.09h.91v.47h-.88v3.09h-.6v-3.09h-.59Z"/><path class="cls-2" d="m200.52,183.14v-.47h.59v-.59s0-.05,0-.1c0-.04,0-.08,0-.1,0-.49.13-.87.4-1.14s.58-.4.94-.4c.2,0,.41.03.63.09v.55c-.23-.09-.45-.14-.65-.14-.18,0-.35.05-.51.16-.16.11-.24.29-.24.57v1.09h.91v.47h-.88v3.09h-.6v-3.09h-.59Z"/><path class="cls-2" d="m203.44,182.12l.21-1h-.21v-.67h.67v.67s-.34,1-.34,1h-.34Zm1.69,0l.21-1h-.21v-.67h.67v.67s-.34,1-.34,1h-.34Z"/><path class="cls-2" d="m151.04,255.86v-.67s.34-1,.34-1h.34l-.21,1h.21v.67h-.67Zm1.69,0v-.67s.34-1,.34-1h.34l-.21,1h.21v.67h-.67Z"/><path class="cls-2" d="m154.2,259.97v-3.6h.56v.72c.07-.1.14-.2.23-.29s.24-.19.46-.3c.22-.11.45-.16.71-.17v.53c-.14,0-.28.03-.42.08-.14.05-.29.12-.44.22s-.28.25-.37.45c-.09.2-.14.44-.14.71v1.65h-.6Z"/><path class="cls-2" d="m156.56,258.16c0-.53.16-.97.48-1.33.32-.36.7-.54,1.13-.54.16,0,.31.03.46.08s.29.13.44.25c.15.12.27.29.37.53.1.23.15.51.17.84v.23h-2.48c.02.4.14.73.37.98.23.25.5.38.82.38.41,0,.81-.15,1.21-.44l.05.53c-.41.27-.83.41-1.27.41-.51,0-.92-.19-1.25-.56-.33-.38-.49-.82-.49-1.33Zm.6-.4h1.98c-.03-.21-.09-.38-.17-.53-.08-.14-.18-.25-.28-.31-.1-.06-.2-.1-.28-.12s-.16-.03-.24-.03c-.27,0-.49.1-.67.31-.18.21-.29.43-.34.67Z"/><path class="cls-2" d="m160.11,258.19c0-.5.16-.94.48-1.32.32-.39.75-.58,1.28-.58.25,0,.46.02.62.07.17.05.37.14.62.28l-.1.53c-.26-.16-.46-.27-.6-.31-.15-.04-.34-.06-.55-.06-.36,0-.64.14-.84.41s-.29.6-.29.98c0,.4.1.72.31.98.21.25.48.38.81.38.42,0,.84-.14,1.26-.43l.04.53c-.42.27-.86.41-1.3.41-.49,0-.9-.18-1.24-.55-.33-.37-.5-.81-.5-1.33Z"/><path class="cls-2" d="m163.98,255.25v-.71h.72v.71h-.72Zm.05,4.72v-3.56h.54v3.56h-.54Z"/><path class="cls-2" d="m165.94,261.53v-5.12h.6v.39c.39-.31.83-.47,1.33-.47.37,0,.67.18.9.55.24.37.36.8.36,1.29,0,.55-.15,1-.44,1.36-.29.35-.64.53-1.04.53s-.75-.15-1.08-.46v1.93h-.62Zm.62-2.57c0,.12.08.25.23.39.15.14.33.22.55.22.3,0,.57-.13.8-.38.24-.26.36-.59.36-.99,0-.36-.1-.68-.3-.94-.2-.27-.46-.4-.78-.4-.06,0-.12,0-.17.01-.05,0-.1.02-.15.04-.04.02-.09.04-.13.06s-.08.04-.11.06-.07.05-.09.07c-.03.02-.05.05-.08.07-.02.03-.04.05-.06.06-.01.02-.03.03-.04.05l-.02.03v1.66Z"/><path class="cls-2" d="m169.92,258.16c0-.53.16-.97.48-1.33.32-.36.7-.54,1.13-.54.16,0,.31.03.46.08s.29.13.44.25c.15.12.27.29.37.53.1.23.15.51.17.84v.23h-2.48c.02.4.14.73.37.98.23.25.5.38.82.38.41,0,.81-.15,1.21-.44l.05.53c-.41.27-.83.41-1.27.41-.51,0-.92-.19-1.25-.56-.33-.38-.49-.82-.49-1.33Zm.6-.4h1.98c-.03-.21-.09-.38-.17-.53-.08-.14-.18-.25-.28-.31-.1-.06-.2-.1-.28-.12s-.16-.03-.24-.03c-.27,0-.49.1-.67.31-.18.21-.29.43-.34.67Z"/><path class="cls-2" d="m173.41,259.7l.1-.54s.04.03.1.06.1.06.13.08c.03.02.08.04.14.07.07.03.13.06.18.08s.12.04.19.06c.07.02.15.04.24.04.08,0,.17.01.26.01.27,0,.46-.06.57-.17.12-.11.17-.24.17-.38s-.05-.24-.14-.33-.2-.15-.31-.18c-.05-.02-.17-.04-.36-.08s-.32-.07-.41-.1c-.22-.07-.41-.19-.58-.36-.17-.17-.25-.38-.25-.63,0-.12.02-.24.05-.35s.1-.22.19-.34c.09-.12.22-.21.41-.27.18-.07.4-.1.66-.1.38,0,.77.08,1.16.25l-.08.53s-.04-.02-.09-.04c-.06-.02-.09-.04-.09-.04,0,0-.04-.02-.09-.04-.05-.02-.08-.04-.1-.04-.02,0-.05-.02-.1-.04-.05-.02-.08-.03-.11-.03-.03,0-.07,0-.12-.02-.05-.01-.1-.02-.13-.02-.04,0-.09,0-.14,0-.05,0-.11,0-.17,0-.25,0-.42.05-.52.15-.1.1-.15.21-.15.34,0,.18.07.3.21.38s.34.14.6.18c.26.04.44.09.54.14.19.09.35.21.49.39.13.17.2.38.2.62,0,.12-.02.24-.05.36-.04.12-.1.23-.19.35-.09.12-.22.21-.41.28s-.4.11-.65.11c-.47,0-.92-.12-1.35-.36Z"/><path class="cls-2" d="m176.71,261.72s.02-.12.07-.27l2.53-7.25c.05-.15.14-.23.26-.23.07,0,.12.02.17.07.05.05.07.1.07.17,0,.04-.02.11-.05.23l-2.54,7.29c-.06.16-.15.24-.26.24-.06,0-.12-.02-.17-.07s-.07-.11-.07-.18Z"/><path class="cls-2" d="m180.54,258.19c0-.5.16-.94.48-1.32.32-.39.75-.58,1.28-.58.25,0,.46.02.62.07.17.05.37.14.62.28l-.1.53c-.26-.16-.46-.27-.6-.31-.15-.04-.34-.06-.55-.06-.36,0-.64.14-.84.41s-.29.6-.29.98c0,.4.1.72.31.98.21.25.48.38.81.38.42,0,.84-.14,1.26-.43l.04.53c-.42.27-.86.41-1.3.41-.49,0-.9-.18-1.24-.55-.33-.37-.5-.81-.5-1.33Z"/><path class="cls-2" d="m184.05,258.2c0-.54.17-.99.52-1.36.35-.37.76-.56,1.24-.56s.92.19,1.25.58c.33.39.5.84.5,1.35s-.17.97-.53,1.32c-.35.35-.76.53-1.23.53s-.88-.18-1.23-.53c-.35-.36-.53-.8-.53-1.33Zm.62-.08c0,.47.11.82.34,1.06.23.24.49.36.79.36s.56-.12.79-.36c.23-.24.34-.6.34-1.06s-.11-.79-.34-1.01c-.23-.22-.49-.34-.79-.34s-.56.11-.79.34c-.23.22-.34.56-.34,1.01Z"/><path class="cls-2" d="m188.27,258.2c0-.54.17-.99.52-1.36.35-.37.76-.56,1.24-.56s.92.19,1.25.58c.33.39.5.84.5,1.35s-.17.97-.53,1.32c-.35.35-.76.53-1.23.53s-.88-.18-1.23-.53c-.35-.36-.53-.8-.53-1.33Zm.62-.08c0,.47.11.82.34,1.06.23.24.49.36.79.36s.56-.12.79-.36c.23-.24.34-.6.34-1.06s-.11-.79-.34-1.01c-.23-.22-.49-.34-.79-.34s-.56.11-.79.34c-.23.22-.34.56-.34,1.01Z"/><path class="cls-2" d="m192.7,259.97v-5.78h.57v3.89l1.63-1.67h.72l-1.35,1.38,1.52,2.18h-.66l-1.25-1.79-.64.66v1.14h-.56Z"/><path class="cls-2" d="m196.06,256.41h.6c.52,1.64.81,2.7.86,3.16.02-.33.3-1.38.85-3.16h.57l.58,1.95c.19.67.29,1.08.3,1.21.03-.26.32-1.31.89-3.16h.57l-1.1,3.56h-.7c-.36-1.2-.58-1.95-.67-2.26-.08-.31-.15-.6-.19-.89,0,.27-.29,1.32-.85,3.15h-.63l-1.1-3.56Z"/><path class="cls-2" d="m201.54,259.07c0-.2.08-.37.22-.52.15-.15.34-.26.59-.33.24-.07.48-.12.71-.16.23-.04.46-.05.7-.05v-.27c-.01-.34-.08-.59-.21-.74-.13-.16-.3-.24-.51-.24-.41,0-.81.14-1.2.41l-.05-.54c.4-.23.82-.35,1.25-.35.37,0,.68.12.92.36s.38.54.4.88v2.44h-.61v-.28s-.07.06-.15.1c-.08.05-.23.11-.45.17-.22.07-.47.1-.73.1-.3,0-.53-.11-.68-.32-.15-.22-.23-.44-.23-.67Zm.57-.02c0,.15.07.27.21.37.14.1.32.15.53.15.23,0,.44-.05.62-.15.18-.1.28-.26.28-.5v-.51c-.16,0-.33.01-.5.03s-.35.05-.53.1c-.18.04-.33.11-.44.2-.11.09-.17.2-.17.32Z"/><path class="cls-2" d="m205.45,259.97v-3.6h.56v.72c.07-.1.14-.2.23-.29s.24-.19.46-.3c.22-.11.45-.16.71-.17v.53c-.14,0-.28.03-.42.08-.14.05-.29.12-.44.22s-.28.25-.37.45c-.09.2-.14.44-.14.71v1.65h-.6Z"/><path class="cls-2" d="m207.81,258.16c0-.53.16-.97.48-1.33.32-.36.7-.54,1.13-.54.16,0,.31.03.46.08s.29.13.44.25c.15.12.27.29.37.53.1.23.15.51.17.84v.23h-2.48c.02.4.14.73.37.98.23.25.5.38.82.38.41,0,.81-.15,1.21-.44l.05.53c-.41.27-.83.41-1.27.41-.51,0-.92-.19-1.25-.56-.33-.38-.49-.82-.49-1.33Zm.6-.4h1.98c-.03-.21-.09-.38-.17-.53-.08-.14-.18-.25-.28-.31-.1-.06-.2-.1-.28-.12s-.16-.03-.24-.03c-.27,0-.49.1-.67.31-.18.21-.29.43-.34.67Z"/><path class="cls-2" d="m211.23,255.86l.21-1h-.21v-.67h.67v.67s-.34,1-.34,1h-.34Zm1.69,0l.21-1h-.21v-.67h.67v.67s-.34,1-.34,1h-.34Z"/><line class="cls-20" x1="91.08" y1="141.27" x2="91.08" y2="130.68"/><polygon class="cls-16" points="94.15 133.17 93.6 133.68 91.08 130.97 88.56 133.68 88.01 133.17 91.08 129.87 94.15 133.17"/><path class="cls-13" d="m102.75,129.76v-.47h.69v-1.01h.56v1.01h1.13v.47h-1.13v1.97c0,.46.14.7.43.7.22,0,.46-.09.7-.26l.13.47c-.38.2-.77.3-1.18.3-.44,0-.66-.34-.66-1.03v-2.15h-.67Z"/><path class="cls-13" d="m105.76,131.04c0-.53.16-.97.48-1.33.32-.36.7-.54,1.13-.54.16,0,.31.03.46.08s.29.13.44.25.27.29.37.53.15.51.17.84v.23h-2.48c.02.4.14.73.37.98.23.25.5.38.82.38.41,0,.81-.15,1.21-.44l.05.53c-.41.27-.83.41-1.27.41-.51,0-.93-.19-1.25-.56-.33-.38-.49-.82-.49-1.33Zm.6-.4h1.98c-.03-.21-.09-.38-.17-.53s-.18-.25-.28-.31c-.1-.06-.2-.1-.28-.12-.08-.02-.16-.03-.24-.03-.27,0-.49.1-.67.31-.18.21-.29.43-.34.67Z"/><path class="cls-13" d="m109.68,132.85v-3.6h.58v.57c.31-.41.7-.61,1.17-.61.52,0,.86.22,1.02.66.33-.44.73-.66,1.21-.66.2,0,.38.03.52.1.15.07.25.14.32.23.07.09.13.2.17.34.04.14.06.25.07.34,0,.09,0,.2,0,.32v2.3h-.62v-2.29s0-.07-.02-.13-.02-.12-.04-.18c-.02-.06-.05-.12-.08-.19-.04-.07-.08-.13-.14-.18s-.12-.09-.21-.13-.18-.05-.29-.05c-.28,0-.49.12-.62.36s-.2.53-.2.87v1.92h-.62v-2.24c0-.09,0-.16,0-.22,0-.05-.02-.13-.05-.23s-.07-.18-.12-.24-.13-.11-.23-.16c-.1-.05-.23-.07-.38-.07-.28,0-.49.12-.62.36s-.19.53-.19.87v1.92h-.62Z"/><path class="cls-13" d="m116.04,134.41v-5.12h.6v.39c.39-.32.83-.47,1.33-.47.36,0,.67.18.9.55.24.37.36.8.36,1.29,0,.55-.15,1-.44,1.36-.29.35-.64.53-1.04.53s-.76-.16-1.08-.46v1.93h-.62Zm.62-2.57c0,.12.08.25.23.39.15.14.33.22.55.22.3,0,.57-.13.8-.38s.36-.59.36-.99c0-.36-.1-.68-.3-.94-.2-.27-.46-.4-.78-.4-.06,0-.12,0-.17.01s-.1.02-.15.04-.09.04-.13.06c-.04.02-.08.04-.11.06s-.07.05-.09.07-.05.05-.08.07-.04.05-.06.06c-.01.02-.03.03-.04.05l-.02.03v1.66Z"/><path class="cls-13" d="m119.98,131.08c0-.54.17-1,.52-1.37s.76-.55,1.24-.55.92.19,1.25.58c.33.39.5.84.5,1.35s-.18.97-.53,1.32-.76.53-1.23.53-.88-.18-1.23-.53c-.35-.35-.53-.8-.53-1.32Zm.62-.08c0,.47.11.82.34,1.06.23.24.49.36.79.36s.56-.12.79-.36c.23-.24.34-.6.34-1.06s-.11-.79-.34-1.01c-.23-.22-.49-.34-.79-.34s-.56.11-.79.34c-.23.22-.34.56-.34,1.01Z"/><path class="cls-13" d="m124.17,132.85v-3.6h.56v.71c.06-.1.14-.2.23-.29s.24-.19.46-.3.45-.16.71-.17v.53c-.14,0-.28.03-.42.08s-.29.12-.44.22c-.15.1-.28.25-.37.45-.09.2-.14.44-.14.71v1.65h-.6Z"/><path class="cls-13" d="m126.61,131.95c0-.2.07-.37.22-.52.15-.15.34-.26.59-.33.24-.07.48-.12.71-.16s.46-.05.7-.05v-.27c-.01-.34-.08-.59-.21-.74-.13-.16-.3-.24-.51-.24-.41,0-.81.13-1.2.41l-.05-.54c.4-.23.82-.35,1.25-.35.37,0,.68.12.92.36s.38.54.4.88v2.44h-.61v-.28s-.07.05-.15.1c-.08.05-.23.1-.45.17-.22.06-.47.1-.73.1-.3,0-.53-.11-.68-.32-.15-.22-.23-.44-.23-.67Zm.57-.02c0,.15.07.27.21.37.14.1.32.15.53.15.23,0,.44-.05.62-.15.18-.1.28-.26.28-.5v-.51c-.16,0-.33.01-.5.03-.17.02-.35.05-.53.1-.18.04-.33.11-.44.2-.11.09-.17.2-.17.31Z"/><path class="cls-13" d="m130.52,132.85v-3.6h.56v.71c.06-.1.14-.2.23-.29s.24-.19.46-.3.45-.16.71-.17v.53c-.14,0-.28.03-.42.08s-.29.12-.44.22c-.15.1-.28.25-.37.45-.09.2-.14.44-.14.71v1.65h-.6Z"/><path class="cls-13" d="m132.72,129.29h.63c.34.78.6,1.4.77,1.84.17.44.27.72.3.84.03.12.06.28.09.48.01-.37.37-1.43,1.07-3.16h.6l-1.73,4.28c-.15.36-.3.6-.43.73s-.3.19-.49.19c-.22,0-.41-.02-.58-.07l-.04-.52c.28.09.48.14.58.14.14,0,.25-.05.32-.16.07-.1.18-.34.33-.7.04-.09.07-.16.09-.21.02-.05.03-.09.03-.13s-.01-.08-.04-.14l-1.5-3.42Z"/><path class="cls-13" d="m102.81,141.58l.1-.54s.04.03.1.06c.06.04.1.06.13.08s.08.04.14.07c.07.03.13.06.18.08.06.02.12.04.19.06.07.02.15.04.24.04.08,0,.17.01.26.01.27,0,.46-.06.57-.17.12-.11.17-.24.17-.38s-.05-.24-.15-.33-.2-.15-.31-.18c-.05-.02-.17-.04-.36-.08-.19-.04-.32-.07-.41-.1-.22-.07-.41-.19-.58-.36-.17-.17-.25-.38-.25-.63,0-.12.02-.24.05-.35.04-.11.1-.22.19-.34.09-.11.22-.21.41-.27s.4-.1.66-.1c.38,0,.77.08,1.16.25l-.08.53s-.04-.02-.09-.04c-.06-.03-.09-.04-.09-.05,0,0-.04-.02-.09-.04-.05-.02-.08-.03-.1-.04-.02,0-.05-.02-.1-.04-.05-.02-.08-.03-.11-.03-.03,0-.07-.01-.12-.02s-.1-.02-.14-.02c-.04,0-.09,0-.14,0-.05,0-.11,0-.17,0-.25,0-.42.05-.52.15-.1.1-.15.21-.15.34,0,.18.07.3.21.38.14.08.34.14.6.18.26.04.44.09.54.14.19.09.35.21.49.39s.2.38.2.62c0,.12-.02.24-.05.36-.04.12-.1.23-.19.35-.09.12-.22.21-.41.28-.18.07-.4.11-.65.11-.47,0-.92-.12-1.35-.36Z"/><path class="cls-13" d="m105.81,138.76v-.47h.69v-1.01h.56v1.01h1.13v.47h-1.13v1.97c0,.46.14.7.43.7.22,0,.46-.09.7-.26l.13.47c-.38.2-.77.3-1.18.3-.44,0-.66-.34-.66-1.03v-2.15h-.67Z"/><path class="cls-13" d="m108.79,140.08c0-.54.17-1,.52-1.37s.76-.55,1.24-.55.92.19,1.25.58c.33.39.5.84.5,1.35s-.18.97-.53,1.32-.76.53-1.23.53-.88-.18-1.23-.53c-.35-.35-.53-.8-.53-1.32Zm.62-.08c0,.47.11.82.34,1.06.23.24.49.36.79.36s.56-.12.79-.36c.23-.24.34-.6.34-1.06s-.11-.79-.34-1.01c-.23-.22-.49-.34-.79-.34s-.56.11-.79.34c-.23.22-.34.56-.34,1.01Z"/><path class="cls-13" d="m112.98,141.85v-3.6h.56v.71c.06-.1.14-.2.23-.29s.24-.19.46-.3.45-.16.71-.17v.53c-.14,0-.28.03-.42.08s-.29.12-.44.22c-.15.1-.28.25-.37.45-.09.2-.14.44-.14.71v1.65h-.6Z"/><path class="cls-13" d="m115.41,140.95c0-.2.07-.37.22-.52.15-.15.34-.26.59-.33.24-.07.48-.12.71-.16s.46-.05.7-.05v-.27c-.01-.34-.08-.59-.21-.74-.13-.16-.3-.24-.51-.24-.41,0-.81.13-1.2.41l-.05-.54c.4-.23.82-.35,1.25-.35.37,0,.68.12.92.36s.38.54.4.88v2.44h-.61v-.28s-.07.05-.15.1c-.08.05-.23.1-.45.17-.22.06-.47.1-.73.1-.3,0-.53-.11-.68-.32-.15-.22-.23-.44-.23-.67Zm.57-.02c0,.15.07.27.21.37.14.1.32.15.53.15.23,0,.44-.05.62-.15.18-.1.28-.26.28-.5v-.51c-.16,0-.33.01-.5.03-.17.02-.35.05-.53.1-.18.04-.33.11-.44.2-.11.09-.17.2-.17.31Z"/><path class="cls-13" d="m119.12,142.42c0-.35.17-.62.51-.83-.13-.19-.2-.39-.2-.6,0-.24.08-.47.23-.68h0c-.18-.24-.27-.5-.27-.81,0-.38.13-.69.38-.93s.54-.37.88-.37c.28,0,.54.09.8.27l-.02-.02c.4-.16.81-.25,1.26-.25l.09.49c-.16-.02-.32-.02-.47-.02-.02,0-.21.01-.6.03l-.07-.06c.21.29.31.57.31.86,0,.35-.12.66-.37.92s-.55.4-.92.4c-.23,0-.47-.08-.72-.24-.08.12-.12.22-.12.3,0,.11.03.21.1.3.06.09.18.13.36.13h.61c.19,0,.35,0,.48.02.13.01.29.04.49.09.2.05.36.13.49.25.13.12.22.27.27.46.03.11.04.2.04.29,0,.31-.17.57-.52.77-.35.21-.77.31-1.26.31s-.91-.1-1.25-.31c-.34-.21-.51-.46-.51-.77Zm.56,0c0,.14.07.26.21.36s.3.17.47.21.34.06.51.06c.34,0,.63-.06.87-.17.24-.12.36-.27.36-.45,0-.37-.4-.56-1.21-.56h-.73c-.15.02-.27.08-.36.19-.09.11-.13.23-.13.35Zm.28-2.91c0,.26.07.46.2.62s.31.23.53.23c.18,0,.35-.07.49-.2.15-.13.22-.35.22-.66,0-.26-.06-.46-.2-.62-.13-.15-.3-.23-.52-.23-.18,0-.35.07-.49.2s-.22.35-.22.66Z"/><path class="cls-13" d="m123.17,140.04c0-.53.16-.97.48-1.33.32-.36.7-.54,1.13-.54.16,0,.31.03.46.08s.29.13.44.25.27.29.37.53.15.51.17.84v.23h-2.48c.02.4.14.73.37.98.23.25.5.38.82.38.41,0,.81-.15,1.21-.44l.05.53c-.41.27-.83.41-1.27.41-.51,0-.93-.19-1.25-.56-.33-.38-.49-.82-.49-1.33Zm.6-.4h1.98c-.03-.21-.09-.38-.17-.53s-.18-.25-.28-.31c-.1-.06-.2-.1-.28-.12-.08-.02-.16-.03-.24-.03-.27,0-.49.1-.67.31-.18.21-.29.43-.34.67Z"/><line class="cls-20" x1="91.08" y1="72.69" x2="91.08" y2="62.11"/><polygon class="cls-16" points="94.15 64.59 93.6 65.1 91.08 62.39 88.56 65.1 88.01 64.59 91.08 61.29 94.15 64.59"/><path class="cls-13" d="m102.81,64.01l.1-.54s.04.03.1.06c.06.04.1.06.13.08s.08.04.14.07c.07.03.13.06.18.08.06.02.12.04.19.06.07.02.15.04.24.04.08,0,.17.01.26.01.27,0,.46-.06.57-.17.12-.11.17-.24.17-.38s-.05-.24-.15-.33-.2-.15-.31-.18c-.05-.02-.17-.04-.36-.08-.19-.04-.32-.07-.41-.1-.22-.07-.41-.19-.58-.36-.17-.17-.25-.38-.25-.63,0-.12.02-.24.05-.35.04-.11.1-.22.19-.34.09-.11.22-.21.41-.27s.4-.1.66-.1c.38,0,.77.08,1.16.25l-.08.53s-.04-.02-.09-.04c-.06-.03-.09-.04-.09-.05,0,0-.04-.02-.09-.04-.05-.02-.08-.03-.1-.04-.02,0-.05-.02-.1-.04-.05-.02-.08-.03-.11-.03-.03,0-.07-.01-.12-.02s-.1-.02-.14-.02c-.04,0-.09,0-.14,0-.05,0-.11,0-.17,0-.25,0-.42.05-.52.15-.1.1-.15.21-.15.34,0,.18.07.3.21.38.14.08.34.14.6.18.26.04.44.09.54.14.19.09.35.21.49.39s.2.38.2.62c0,.12-.02.24-.05.36-.04.12-.1.23-.19.35-.09.12-.22.21-.41.28-.18.07-.4.11-.65.11-.47,0-.92-.12-1.35-.36Z"/><path class="cls-13" d="m105.81,61.19v-.47h.69v-1.01h.56v1.01h1.13v.47h-1.13v1.97c0,.46.14.7.43.7.22,0,.46-.09.7-.26l.13.47c-.38.2-.77.3-1.18.3-.44,0-.66-.34-.66-1.03v-2.15h-.67Z"/><path class="cls-13" d="m108.79,62.51c0-.54.17-1,.52-1.37s.76-.55,1.24-.55.92.19,1.25.58c.33.39.5.84.5,1.35s-.18.97-.53,1.32-.76.53-1.23.53-.88-.18-1.23-.53c-.35-.35-.53-.8-.53-1.32Zm.62-.08c0,.47.11.82.34,1.06.23.24.49.36.79.36s.56-.12.79-.36c.23-.24.34-.6.34-1.06s-.11-.79-.34-1.01c-.23-.22-.49-.34-.79-.34s-.56.11-.79.34c-.23.22-.34.56-.34,1.01Z"/><path class="cls-13" d="m112.98,64.28v-3.6h.56v.71c.06-.1.14-.2.23-.29s.24-.19.46-.3.45-.16.71-.17v.53c-.14,0-.28.03-.42.08s-.29.12-.44.22c-.15.1-.28.25-.37.45-.09.2-.14.44-.14.71v1.65h-.6Z"/><path class="cls-13" d="m115.33,62.47c0-.53.16-.97.48-1.33.32-.36.7-.54,1.13-.54.16,0,.31.03.46.08s.29.13.44.25.27.29.37.53.15.51.17.84v.23h-2.48c.02.4.14.73.37.98.23.25.5.38.82.38.41,0,.81-.15,1.21-.44l.05.53c-.41.27-.83.41-1.27.41-.51,0-.93-.19-1.25-.56-.33-.38-.49-.82-.49-1.33Zm.6-.4h1.98c-.03-.21-.09-.38-.17-.53s-.18-.25-.28-.31c-.1-.06-.2-.1-.28-.12-.08-.02-.16-.03-.24-.03-.27,0-.49.1-.67.31-.18.21-.29.43-.34.67Z"/><path class="cls-13" d="m118.83,64.01l.1-.54s.04.03.1.06c.06.04.1.06.13.08s.08.04.14.07c.07.03.13.06.18.08.06.02.12.04.19.06.07.02.15.04.24.04.08,0,.17.01.26.01.27,0,.46-.06.57-.17.12-.11.17-.24.17-.38s-.05-.24-.15-.33-.2-.15-.31-.18c-.05-.02-.17-.04-.36-.08-.19-.04-.32-.07-.41-.1-.22-.07-.41-.19-.58-.36-.17-.17-.25-.38-.25-.63,0-.12.02-.24.05-.35.04-.11.1-.22.19-.34.09-.11.22-.21.41-.27s.4-.1.66-.1c.38,0,.77.08,1.16.25l-.08.53s-.04-.02-.09-.04c-.06-.03-.09-.04-.09-.05,0,0-.04-.02-.09-.04-.05-.02-.08-.03-.1-.04-.02,0-.05-.02-.1-.04-.05-.02-.08-.03-.11-.03-.03,0-.07-.01-.12-.02s-.1-.02-.14-.02c-.04,0-.09,0-.14,0-.05,0-.11,0-.17,0-.25,0-.42.05-.52.15-.1.1-.15.21-.15.34,0,.18.07.3.21.38.14.08.34.14.6.18.26.04.44.09.54.14.19.09.35.21.49.39s.2.38.2.62c0,.12-.02.24-.05.36-.04.12-.1.23-.19.35-.09.12-.22.21-.41.28-.18.07-.4.11-.65.11-.47,0-.92-.12-1.35-.36Z"/><path class="cls-13" d="m123.85,65.64l.12-.49c.21.16.42.25.62.25.15,0,.29-.04.39-.12s.18-.17.21-.29c.01-.05.02-.12.02-.21v-4.08h.6v3.96c0,.44-.1.76-.31.95-.21.19-.44.29-.69.29-.33,0-.65-.09-.96-.27Zm1.25-6.09v-.71h.73v.71h-.73Z"/><path class="cls-13" d="m126.71,62.51c0-.54.17-1,.52-1.37s.76-.55,1.24-.55.92.19,1.25.58c.33.39.5.84.5,1.35s-.18.97-.53,1.32-.76.53-1.23.53-.88-.18-1.23-.53c-.35-.35-.53-.8-.53-1.32Zm.62-.08c0,.47.11.82.34,1.06.23.24.49.36.79.36s.56-.12.79-.36c.23-.24.34-.6.34-1.06s-.11-.79-.34-1.01c-.23-.22-.49-.34-.79-.34s-.56.11-.79.34c-.23.22-.34.56-.34,1.01Z"/><path class="cls-13" d="m131.12,64.28v-5.78h.6v2.61c.39-.31.82-.47,1.28-.47.38,0,.69.18.94.55.25.37.37.8.37,1.29,0,.54-.15.99-.44,1.35-.29.36-.64.54-1.05.54-.38,0-.73-.16-1.07-.46v.38h-.62Zm.62-1.07s0,.07,0,.1,0,.05.02.07c0,.02.02.04.02.05,0,.01.02.03.04.05.02.03.04.05.05.07.18.21.4.32.66.32.28,0,.55-.11.79-.33s.36-.57.36-1.04c0-.25-.03-.47-.1-.65-.07-.19-.16-.33-.28-.43s-.23-.17-.35-.21c-.12-.04-.23-.07-.35-.07-.21,0-.4.06-.58.18-.18.12-.27.26-.27.41v1.49Z"/><path class="cls-13" d="m103.25,73.28v-3.6h.56v.71c.06-.1.14-.2.23-.29s.24-.19.46-.3.45-.16.71-.17v.53c-.14,0-.28.03-.42.08s-.29.12-.44.22c-.15.1-.28.25-.37.45-.09.2-.14.44-.14.71v1.65h-.6Z"/><path class="cls-13" d="m105.61,71.47c0-.53.16-.97.48-1.33.32-.36.7-.54,1.13-.54.16,0,.31.03.46.08s.29.13.44.25.27.29.37.53.15.51.17.84v.23h-2.48c.02.4.14.73.37.98.23.25.5.38.82.38.41,0,.81-.15,1.21-.44l.05.53c-.41.27-.83.41-1.27.41-.51,0-.93-.19-1.25-.56-.33-.38-.49-.82-.49-1.33Zm.6-.4h1.98c-.03-.21-.09-.38-.17-.53s-.18-.25-.28-.31c-.1-.06-.2-.1-.28-.12-.08-.02-.16-.03-.24-.03-.27,0-.49.1-.67.31-.18.21-.29.43-.34.67Z"/><path class="cls-13" d="m109.1,73.01l.1-.54s.04.03.1.06c.06.04.1.06.13.08s.08.04.14.07c.07.03.13.06.18.08.06.02.12.04.19.06.07.02.15.04.24.04.08,0,.17.01.26.01.27,0,.46-.06.57-.17.12-.11.17-.24.17-.38s-.05-.24-.15-.33-.2-.15-.31-.18c-.05-.02-.17-.04-.36-.08-.19-.04-.32-.07-.41-.1-.22-.07-.41-.19-.58-.36-.17-.17-.25-.38-.25-.63,0-.12.02-.24.05-.35.04-.11.1-.22.19-.34.09-.11.22-.21.41-.27s.4-.1.66-.1c.38,0,.77.08,1.16.25l-.08.53s-.04-.02-.09-.04c-.06-.03-.09-.04-.09-.05,0,0-.04-.02-.09-.04-.05-.02-.08-.03-.1-.04-.02,0-.05-.02-.1-.04-.05-.02-.08-.03-.11-.03-.03,0-.07-.01-.12-.02s-.1-.02-.14-.02c-.04,0-.09,0-.14,0-.05,0-.11,0-.17,0-.25,0-.42.05-.52.15-.1.1-.15.21-.15.34,0,.18.07.3.21.38.14.08.34.14.6.18.26.04.44.09.54.14.19.09.35.21.49.39s.2.38.2.62c0,.12-.02.24-.05.36-.04.12-.1.23-.19.35-.09.12-.22.21-.41.28-.18.07-.4.11-.65.11-.47,0-.92-.12-1.35-.36Z"/><path class="cls-13" d="m112.59,72.3v-2.58h.62v2.68c0,.19.05.32.13.4.08.08.25.12.51.12.28,0,.5-.07.67-.22.17-.15.26-.32.29-.51,0-.05,0-.13,0-.23v-2.24h.62v3.56h-.61v-.38c-.36.31-.83.47-1.4.47-.16,0-.29-.03-.41-.08s-.2-.11-.25-.17c-.06-.07-.1-.16-.13-.27-.03-.12-.04-.21-.05-.27s0-.16,0-.28Z"/><path class="cls-13" d="m116.73,73.28v-5.78h.6v5.78h-.6Z"/><path class="cls-13" d="m118.14,70.19v-.47h.69v-1.01h.56v1.01h1.13v.47h-1.13v1.97c0,.46.14.7.43.7.22,0,.46-.09.7-.26l.13.47c-.38.2-.77.3-1.18.3-.44,0-.66-.34-.66-1.03v-2.15h-.67Z"/><path class="cls-13" d="m121.09,73.01l.1-.54s.04.03.1.06c.06.04.1.06.13.08s.08.04.14.07c.07.03.13.06.18.08.06.02.12.04.19.06.07.02.15.04.24.04.08,0,.17.01.26.01.27,0,.46-.06.57-.17.12-.11.17-.24.17-.38s-.05-.24-.15-.33-.2-.15-.31-.18c-.05-.02-.17-.04-.36-.08-.19-.04-.32-.07-.41-.1-.22-.07-.41-.19-.58-.36-.17-.17-.25-.38-.25-.63,0-.12.02-.24.05-.35.04-.11.1-.22.19-.34.09-.11.22-.21.41-.27s.4-.1.66-.1c.38,0,.77.08,1.16.25l-.08.53s-.04-.02-.09-.04c-.06-.03-.09-.04-.09-.05,0,0-.04-.02-.09-.04-.05-.02-.08-.03-.1-.04-.02,0-.05-.02-.1-.04-.05-.02-.08-.03-.11-.03-.03,0-.07-.01-.12-.02s-.1-.02-.14-.02c-.04,0-.09,0-.14,0-.05,0-.11,0-.17,0-.25,0-.42.05-.52.15-.1.1-.15.21-.15.34,0,.18.07.3.21.38.14.08.34.14.6.18.26.04.44.09.54.14.19.09.35.21.49.39s.2.38.2.62c0,.12-.02.24-.05.36-.04.12-.1.23-.19.35-.09.12-.22.21-.41.28-.18.07-.4.11-.65.11-.47,0-.92-.12-1.35-.36Z"/><path id="path7264" class="cls-17" d="m101.56,178.58h-8.54"/><path id="path7264-2" class="cls-17" d="m101.59,184.43h-8.54"/><path id="path7264-3" class="cls-17" d="m101.59,181.5h-8.54"/><path id="path7264-4" class="cls-17" d="m101.59,175.65h-8.54"/><path id="path7264-5" class="cls-17" d="m101.59,169.8h-8.54"/><path id="path7264-6" class="cls-17" d="m101.59,163.94h-8.54"/><path id="path7264-7" class="cls-17" d="m101.59,187.36h-8.54"/><g id="path7252"><polyline class="cls-17" points="87.62 169.8 109.6 169.8 114.16 166.1"/><path class="cls-9" d="m115.01,167.27c.62-.5.71-1.41.21-2.03-.5-.62-1.41-.71-2.03-.21-.62.5-.71,1.41-.21,2.03.5.62,1.41.71,2.03.21Z"/></g><g id="path7252-2"><polyline class="cls-17" points="82.26 163.94 104.24 163.94 108.8 160.25"/><path class="cls-9" d="m109.65,161.42c.62-.5.71-1.41.21-2.03-.5-.62-1.41-.71-2.03-.21-.62.5-.71,1.41-.21,2.03.5.62,1.41.71,2.03.21Z"/></g><g id="path7252-3"><polyline class="cls-17" points="87.62 181.5 109.6 181.5 114.16 185.2"/><path class="cls-9" d="m113.19,186.27c.62.5,1.53.41,2.03-.21.5-.62.41-1.53-.21-2.03s-1.53-.41-2.03.21c-.5.62-.41,1.53.21,2.03Z"/></g><g id="path7252-4"><polyline class="cls-17" points="82.26 187.36 104.24 187.36 108.8 191.05"/><path class="cls-9" d="m107.83,192.13c.62.5,1.53.41,2.03-.21.5-.62.41-1.53-.21-2.03-.62-.5-1.53-.41-2.03.21-.5.62-.41,1.53.21,2.03Z"/></g><g id="path7268"><line class="cls-17" x1="87.62" y1="175.65" x2="116.26" y2="175.65"/><path class="cls-9" d="m116.18,177.09c.8,0,1.44-.65,1.44-1.44s-.65-1.44-1.44-1.44-1.44.65-1.44,1.44.65,1.44,1.44,1.44Z"/></g><path id="path7272" class="cls-17" d="m101.56,172.72h-8.54"/><path id="path7280" class="cls-17" d="m101.56,166.87h-8.54"/><path id="path7264-8" class="cls-17" d="m65.6,178.58h-19.13"/><path id="path7264-9" class="cls-17" d="m65.63,184.43h-8.54"/><path id="path7264-10" class="cls-17" d="m65.63,181.5h-19.13"/><path id="path7264-11" class="cls-17" d="m65.63,175.65h-19.13"/><path id="path7264-12" class="cls-17" d="m65.63,169.8h-19.13"/><path id="path7264-13" class="cls-17" d="m65.63,163.94h-8.54"/><path id="path7264-14" class="cls-17" d="m65.63,187.36h-8.54"/><path id="path7272-2" class="cls-17" d="m65.6,172.72h-19.13"/><path id="path7280-2" class="cls-17" d="m65.6,166.87h-8.54"/><g id="g7312"><path id="path7314" class="cls-17" d="m89.27,197.32v-8.54"/><path id="path7316" class="cls-17" d="m68.22,197.32v-8.54"/><path id="path7318" class="cls-17" d="m71.22,197.32v-8.54"/><path id="path7320" class="cls-17" d="m74.23,197.32v-8.54"/><path id="path7322" class="cls-17" d="m77.24,197.32v-8.54"/><path id="path7324" class="cls-17" d="m80.25,197.32v-8.54"/><path id="path7326" class="cls-17" d="m83.25,197.32v-8.54"/><path id="path7328" class="cls-17" d="m86.26,197.32v-8.54"/></g><path id="path7332" class="cls-17" d="m89.27,162.14v-8.54"/><path id="path7336" class="cls-17" d="m71.22,162.14v-8.54"/><path id="path7336-2" class="cls-17" d="m68.22,162.14v-8.54"/><path id="path7338" class="cls-17" d="m74.23,162.14v-8.54"/><path id="path7340" class="cls-17" d="m77.24,162.14v-8.54"/><path id="path7344" class="cls-17" d="m83.25,162.14v-8.54"/><path id="path7344-2" class="cls-17" d="m80.25,162.14v-8.54"/><path id="path7346" class="cls-17" d="m86.26,162.14v-8.54"/><path id="path7332-2" class="cls-17" d="m89.27,188.78v8.54"/><path id="path7336-3" class="cls-17" d="m71.22,188.78v8.54"/><path id="path7336-4" class="cls-17" d="m68.22,188.78v8.54"/><path id="path7338-2" class="cls-17" d="m74.23,188.78v8.54"/><path id="path7340-2" class="cls-17" d="m77.24,188.78v8.54"/><path id="path7344-3" class="cls-17" d="m83.25,188.78v8.54"/><path id="path7344-4" class="cls-17" d="m80.25,188.78v8.54"/><path id="path7346-2" class="cls-17" d="m86.26,188.78v8.54"/><path id="path7348" class="cls-14" d="m63.33,157.88l-1.6,1.6v33.58h35.17v-35.18h-33.58s0,0,0,0Z"/><circle id="path7250" class="cls-7" cx="65.63" cy="161.77" r="1.33"/><path class="cls-3" d="m72.67,188.25c0-.34,0-.62-.03-.89h.52l.03.53h.02c.18-.31.49-.6,1.03-.6.45,0,.79.27.93.66h.01c.1-.18.23-.33.37-.43.2-.15.41-.23.73-.23.43,0,1.08.29,1.08,1.43v1.94h-.58v-1.86c0-.63-.23-1.01-.71-1.01-.34,0-.6.25-.71.54-.03.08-.05.19-.05.3v2.03h-.58v-1.97c0-.52-.23-.9-.69-.9-.37,0-.65.3-.74.6-.03.09-.05.19-.05.29v1.98h-.58v-2.4Z"/><path class="cls-3" d="m78.92,188.86h.01c.08-.12.2-.26.29-.37l.96-1.13h.72l-1.27,1.35,1.45,1.94h-.73l-1.13-1.58-.31.34v1.24h-.59v-4.82h.59v3.04Z"/><path class="cls-7" d="m81.85,187.36l.43,1.67c.1.37.18.71.24,1.05h.02c.07-.33.18-.69.29-1.04l.54-1.68h.5l.51,1.64c.12.39.22.74.29,1.07h.02c.05-.33.14-.68.25-1.07l.47-1.65h.59l-1.06,3.29h-.54l-.5-1.57c-.12-.37-.21-.69-.29-1.08h-.01c-.08.39-.18.73-.3,1.09l-.53,1.56h-.54l-.99-3.29h.61Z"/><path class="cls-7" d="m87.28,186.43c0,.2-.14.37-.38.37-.21,0-.36-.16-.36-.37s.16-.37.37-.37.37.16.37.37Zm-.67,4.21v-3.29h.6v3.29h-.6Z"/><path class="cls-7" d="m88.2,188.25c0-.34,0-.62-.03-.89h.53l.03.54h.01c.16-.31.54-.62,1.09-.62.45,0,1.16.27,1.16,1.4v1.96h-.6v-1.89c0-.53-.2-.97-.76-.97-.39,0-.7.28-.8.61-.03.07-.04.18-.04.28v1.98h-.6v-2.4Z"/><path class="cls-7" d="m94.81,185.82v3.97c0,.29,0,.62.03.85h-.54l-.03-.57h-.01c-.18.37-.58.64-1.12.64-.79,0-1.41-.67-1.41-1.67,0-1.09.67-1.77,1.47-1.77.5,0,.84.24.99.5h.01v-1.96h.6Zm-.6,2.87c0-.07,0-.18-.03-.25-.09-.38-.41-.69-.86-.69-.62,0-.98.54-.98,1.27,0,.67.33,1.22.97,1.22.4,0,.77-.26.88-.71.02-.08.03-.16.03-.26v-.57Z"/><polygon class="cls-7" points="126.92 5.9 99.64 8.02 96.2 39.21 127.29 32.78 126.92 5.9"/><path class="cls-18" d="m95.41,39.94c-4.58,4.39-10.37,7.99-16.71,8.11-7.29.13-13.83-4.29-20.91-6.03-3.24-.79-7.06-.88-9.49,1.41"/><path class="cls-18" d="m50.9,41.93c-.91.14-1.9.01-3.03-.55"/><polyline class="cls-19" points="126.92 5.9 116.69 17.21 96.2 39.21"/><circle class="cls-8" cx="88.59" cy="45.09" r="1.26"/><circle class="cls-11" cx="81.19" cy="47.8" r="1.26"/><circle class="cls-4" cx="72.59" cy="47.23" r="1.26"/><circle class="cls-2" cx="64.53" cy="44.5" r="1.26"/><circle class="cls-12" cx="56.16" cy="41.6" r="1.26"/><polygon class="cls-4" points="96.2 39.21 122.77 25.35 126.92 5.9 127.29 32.78 96.2 39.21"/><polygon class="cls-6" points="96.2 39.21 104.49 10.27 126.92 5.9 99.64 8.02 96.2 39.21"/><path class="cls-19" d="m99.64,8.02s13.46,5.95,17.05,9.19c3.5,3.15,10.6,15.57,10.6,15.57"/><circle class="cls-13" cx="99.64" cy="8.02" r="1.76"/><circle class="cls-13" cx="126.92" cy="5.9" r="1.76"/><circle class="cls-13" cx="127.29" cy="32.78" r="1.76"/><circle class="cls-13" cx="96.2" cy="39.21" r="1.76"/><circle class="cls-13" cx="116.78" cy="17.26" r="1.76"/><path class="cls-15" d="m36.73,19.35c0-1.15-.02-2.09-.09-3h1.77l.09,1.79h.07c.62-1.05,1.65-2.04,3.49-2.04,1.51,0,2.66.92,3.14,2.22h.05c.34-.62.78-1.1,1.24-1.44.67-.5,1.4-.78,2.45-.78,1.47,0,3.65.96,3.65,4.82v6.54h-1.97v-6.28c0-2.13-.78-3.42-2.41-3.42-1.15,0-2.04.85-2.39,1.83-.09.28-.16.64-.16,1.01v6.86h-1.97v-6.65c0-1.77-.78-3.05-2.32-3.05-1.26,0-2.18,1.01-2.5,2.02-.11.3-.16.64-.16.99v6.7h-1.97v-8.1Z"/><path class="cls-15" d="m57.84,21.43h.05c.28-.39.67-.87.99-1.26l3.26-3.83h2.43l-4.29,4.56,4.88,6.54h-2.45l-3.83-5.32-1.03,1.15v4.17h-2V11.16h2v10.27Z"/><path class="cls-13" d="m69.24,13.22c.02.69-.48,1.24-1.28,1.24-.71,0-1.22-.55-1.22-1.24s.53-1.26,1.26-1.26,1.24.55,1.24,1.26Zm-2.25,14.22v-11.1h2.02v11.1h-2.02Z"/><path class="cls-13" d="m74.79,13.15v3.19h2.89v1.54h-2.89v5.99c0,1.38.39,2.16,1.51,2.16.53,0,.92-.07,1.17-.14l.09,1.51c-.39.16-1.01.28-1.79.28-.94,0-1.7-.3-2.18-.85-.57-.6-.78-1.58-.78-2.89v-6.05h-1.72v-1.54h1.72v-2.66l1.97-.53Z"/><path class="cls-13" d="m80.94,22.26c.05,2.73,1.79,3.85,3.81,3.85,1.44,0,2.32-.25,3.07-.57l.34,1.44c-.71.32-1.93.69-3.69.69-3.42,0-5.46-2.25-5.46-5.6s1.97-5.99,5.21-5.99c3.62,0,4.59,3.19,4.59,5.23,0,.41-.05.73-.07.94h-7.8Zm5.92-1.45c.02-1.28-.53-3.28-2.8-3.28-2.04,0-2.94,1.88-3.1,3.28h5.89Z"/><rect class="cls-7" x="93.83" y="92.6" width="33.59" height="20.47"/><path class="cls-4" d="m93.83,113.07h33.59l-14.95-13.6c-.27-.25-.6-.44-.95-.56h-.03c-.57-.2-1.18-.2-1.75,0h0c-.34.12-.65.3-.92.55l-15,13.61Z"/><path class="cls-15" d="m36.18,95.94c0-1.15-.02-2.1-.09-3.02h1.78l.09,1.8h.07c.62-1.06,1.66-2.05,3.51-2.05,1.52,0,2.68.92,3.16,2.24h.05c.35-.62.78-1.11,1.25-1.45.67-.51,1.41-.78,2.47-.78,1.48,0,3.67.97,3.67,4.84v6.58h-1.98v-6.32c0-2.15-.78-3.44-2.42-3.44-1.15,0-2.05.85-2.4,1.85-.09.28-.16.65-.16,1.01v6.9h-1.98v-6.69c0-1.78-.78-3.07-2.33-3.07-1.27,0-2.19,1.01-2.51,2.03-.12.3-.16.65-.16.99v6.74h-1.98v-8.14Z"/><path class="cls-15" d="m57.43,98.04h.05c.28-.39.67-.88.99-1.27l3.28-3.85h2.45l-4.31,4.59,4.91,6.58h-2.47l-3.85-5.35-1.04,1.15v4.2h-2.01v-16.38h2.01v10.34Z"/><path class="cls-13" d="m68.9,89.78c.02.69-.48,1.25-1.29,1.25-.72,0-1.22-.55-1.22-1.25s.53-1.27,1.27-1.27,1.25.55,1.25,1.27Zm-2.26,14.3v-11.17h2.03v11.17h-2.03Z"/><path class="cls-13" d="m74.48,89.71v3.21h2.91v1.54h-2.91v6.02c0,1.38.39,2.17,1.52,2.17.53,0,.92-.07,1.18-.14l.09,1.52c-.39.16-1.02.28-1.8.28-.95,0-1.71-.3-2.19-.85-.58-.6-.78-1.59-.78-2.91v-6.09h-1.73v-1.54h1.73v-2.68l1.98-.53Z"/><path class="cls-13" d="m80.67,98.87c.05,2.75,1.8,3.88,3.83,3.88,1.45,0,2.33-.25,3.09-.58l.35,1.45c-.72.32-1.94.69-3.71.69-3.44,0-5.49-2.26-5.49-5.63s1.98-6.02,5.24-6.02c3.65,0,4.61,3.21,4.61,5.26,0,.42-.05.74-.07.95h-7.84Zm5.95-1.45c.02-1.29-.53-3.3-2.81-3.3-2.05,0-2.95,1.89-3.11,3.3h5.93Z"/><path class="cls-2" d="m56.61,110.82c.02,1.18.78,1.67,1.65,1.67.63,0,1-.11,1.33-.25l.15.63c-.31.14-.84.3-1.6.3-1.48,0-2.37-.97-2.37-2.43s.86-2.6,2.26-2.6c1.57,0,1.99,1.38,1.99,2.27,0,.18-.02.32-.03.41h-3.38Zm2.57-.63c.01-.56-.23-1.42-1.21-1.42-.89,0-1.27.82-1.34,1.42h2.56Z"/><path class="cls-2" d="m61.1,109.56c0-.5,0-.91-.04-1.3h.78l.05.8h.02c.24-.46.8-.91,1.59-.91.67,0,1.7.4,1.7,2.05v2.88h-.88v-2.78c0-.78-.29-1.42-1.11-1.42-.58,0-1.02.41-1.17.9-.04.11-.06.26-.06.41v2.9h-.88v-3.51Z"/><path class="cls-2" d="m70.77,108.25c-.02.35-.04.74-.04,1.32v2.8c0,1.1-.22,1.78-.69,2.2-.47.44-1.14.58-1.75.58s-1.21-.14-1.6-.4l.22-.67c.32.2.82.38,1.41.38.9,0,1.55-.47,1.55-1.68v-.54h-.02c-.27.45-.79.81-1.53.81-1.19,0-2.05-1.02-2.05-2.35,0-1.63,1.06-2.56,2.17-2.56.84,0,1.29.44,1.5.84h.02l.04-.73h.77Zm-.91,1.9c0-.15-.01-.28-.05-.4-.16-.51-.59-.93-1.22-.93-.84,0-1.43.71-1.43,1.82,0,.95.48,1.73,1.42,1.73.54,0,1.02-.34,1.21-.9.05-.15.07-.32.07-.47v-.87Z"/><path class="cls-2" d="m73.1,106.9c.01.3-.21.54-.56.54-.31,0-.53-.24-.53-.54s.23-.55.55-.55.54.24.54.55Zm-.98,6.17v-4.82h.88v4.82h-.88Z"/><path class="cls-2" d="m74.45,109.56c0-.5,0-.91-.04-1.3h.78l.05.8h.02c.24-.46.8-.91,1.59-.91.67,0,1.7.4,1.7,2.05v2.88h-.88v-2.78c0-.78-.29-1.42-1.11-1.42-.58,0-1.02.41-1.17.9-.04.11-.06.26-.06.41v2.9h-.88v-3.51Z"/><path class="cls-2" d="m80.46,110.82c.02,1.18.78,1.67,1.65,1.67.63,0,1-.11,1.33-.25l.15.63c-.31.14-.84.3-1.6.3-1.48,0-2.37-.97-2.37-2.43s.86-2.6,2.26-2.6c1.57,0,1.99,1.38,1.99,2.27,0,.18-.02.32-.03.41h-3.38Zm2.57-.63c.01-.56-.23-1.42-1.21-1.42-.89,0-1.27.82-1.34,1.42h2.56Z"/><path class="cls-2" d="m84.84,112.17c.26.17.72.35,1.15.35.64,0,.94-.32.94-.72,0-.42-.25-.65-.9-.88-.87-.31-1.27-.79-1.27-1.36,0-.78.63-1.41,1.66-1.41.49,0,.92.14,1.18.3l-.22.64c-.19-.12-.54-.28-.98-.28-.52,0-.81.3-.81.66,0,.4.29.58.92.82.84.32,1.26.74,1.26,1.45,0,.85-.66,1.44-1.8,1.44-.53,0-1.02-.13-1.35-.33l.22-.67Z"/><path class="cls-6" d="m93.83,92.6h33.59l-14.95,13.6c-.27.25-.6.44-.95.56h-.03c-.57.2-1.18.2-1.75,0h0c-.34-.12-.65-.3-.92-.55l-15-13.61Z"/><circle class="cls-2" cx="126.43" cy="93.24" r="3.17"/><polygon class="cls-7" points="126.92 5.9 99.64 8.02 96.2 39.21 127.29 32.78 126.92 5.9"/><path class="cls-18" d="m95.41,39.94c-4.58,4.39-10.37,7.99-16.71,8.11-7.29.13-13.83-4.29-20.91-6.03-3.24-.79-7.06-.88-9.49,1.41"/><path class="cls-18" d="m50.9,41.93c-.91.14-1.9.01-3.03-.55"/><polyline class="cls-19" points="126.92 5.9 116.69 17.21 96.2 39.21"/><circle class="cls-8" cx="88.59" cy="45.09" r="1.26"/><circle class="cls-11" cx="81.19" cy="47.8" r="1.26"/><circle class="cls-4" cx="72.59" cy="47.23" r="1.26"/><circle class="cls-2" cx="64.53" cy="44.5" r="1.26"/><circle class="cls-12" cx="56.16" cy="41.6" r="1.26"/><polygon class="cls-4" points="96.2 39.21 122.77 25.35 126.92 5.9 127.29 32.78 96.2 39.21"/><polygon class="cls-6" points="96.2 39.21 104.49 10.27 126.92 5.9 99.64 8.02 96.2 39.21"/><path class="cls-19" d="m99.64,8.02s13.46,5.95,17.05,9.19c3.5,3.15,10.6,15.57,10.6,15.57"/><circle class="cls-13" cx="99.64" cy="8.02" r="1.76"/><circle class="cls-13" cx="126.92" cy="5.9" r="1.76"/><circle class="cls-13" cx="127.29" cy="32.78" r="1.76"/><circle class="cls-13" cx="96.2" cy="39.21" r="1.76"/><circle class="cls-13" cx="116.78" cy="17.26" r="1.76"/><path class="cls-15" d="m36.73,19.35c0-1.15-.02-2.09-.09-3h1.77l.09,1.79h.07c.62-1.05,1.65-2.04,3.49-2.04,1.51,0,2.66.92,3.14,2.22h.05c.34-.62.78-1.1,1.24-1.44.67-.5,1.4-.78,2.45-.78,1.47,0,3.65.96,3.65,4.82v6.54h-1.97v-6.28c0-2.13-.78-3.42-2.41-3.42-1.15,0-2.04.85-2.39,1.83-.09.28-.16.64-.16,1.01v6.86h-1.97v-6.65c0-1.77-.78-3.05-2.32-3.05-1.26,0-2.18,1.01-2.5,2.02-.11.3-.16.64-.16.99v6.7h-1.97v-8.1Z"/><path class="cls-15" d="m57.84,21.43h.05c.28-.39.67-.87.99-1.26l3.26-3.83h2.43l-4.29,4.56,4.88,6.54h-2.45l-3.83-5.32-1.03,1.15v4.17h-2V11.16h2v10.27Z"/><path class="cls-13" d="m69.24,13.22c.02.69-.48,1.24-1.28,1.24-.71,0-1.22-.55-1.22-1.24s.53-1.26,1.26-1.26,1.24.55,1.24,1.26Zm-2.25,14.22v-11.1h2.02v11.1h-2.02Z"/><path class="cls-13" d="m74.79,13.15v3.19h2.89v1.54h-2.89v5.99c0,1.38.39,2.16,1.51,2.16.53,0,.92-.07,1.17-.14l.09,1.51c-.39.16-1.01.28-1.79.28-.94,0-1.7-.3-2.18-.85-.57-.6-.78-1.58-.78-2.89v-6.05h-1.72v-1.54h1.72v-2.66l1.97-.53Z"/><path class="cls-13" d="m80.94,22.26c.05,2.73,1.79,3.85,3.81,3.85,1.44,0,2.32-.25,3.07-.57l.34,1.44c-.71.32-1.93.69-3.69.69-3.42,0-5.46-2.25-5.46-5.6s1.97-5.99,5.21-5.99c3.62,0,4.59,3.19,4.59,5.23,0,.41-.05.73-.07.94h-7.8Zm5.92-1.45c.02-1.28-.53-3.28-2.8-3.28-2.04,0-2.94,1.88-3.1,3.28h5.89Z"/><rect class="cls-7" x="93.83" y="92.6" width="33.59" height="20.47"/><path class="cls-4" d="m93.83,113.07h33.59l-14.95-13.6c-.27-.25-.6-.44-.95-.56h-.03c-.57-.2-1.18-.2-1.75,0h0c-.34.12-.65.3-.92.55l-15,13.61Z"/><path class="cls-15" d="m36.18,95.94c0-1.15-.02-2.1-.09-3.02h1.78l.09,1.8h.07c.62-1.06,1.66-2.05,3.51-2.05,1.52,0,2.68.92,3.16,2.24h.05c.35-.62.78-1.11,1.25-1.45.67-.51,1.41-.78,2.47-.78,1.48,0,3.67.97,3.67,4.84v6.58h-1.98v-6.32c0-2.15-.78-3.44-2.42-3.44-1.15,0-2.05.85-2.4,1.85-.09.28-.16.65-.16,1.01v6.9h-1.98v-6.69c0-1.78-.78-3.07-2.33-3.07-1.27,0-2.19,1.01-2.51,2.03-.12.3-.16.65-.16.99v6.74h-1.98v-8.14Z"/><path class="cls-15" d="m57.43,98.04h.05c.28-.39.67-.88.99-1.27l3.28-3.85h2.45l-4.31,4.59,4.91,6.58h-2.47l-3.85-5.35-1.04,1.15v4.2h-2.01v-16.38h2.01v10.34Z"/><path class="cls-13" d="m68.9,89.78c.02.69-.48,1.25-1.29,1.25-.72,0-1.22-.55-1.22-1.25s.53-1.27,1.27-1.27,1.25.55,1.25,1.27Zm-2.26,14.3v-11.17h2.03v11.17h-2.03Z"/><path class="cls-13" d="m74.48,89.71v3.21h2.91v1.54h-2.91v6.02c0,1.38.39,2.17,1.52,2.17.53,0,.92-.07,1.18-.14l.09,1.52c-.39.16-1.02.28-1.8.28-.95,0-1.71-.3-2.19-.85-.58-.6-.78-1.59-.78-2.91v-6.09h-1.73v-1.54h1.73v-2.68l1.98-.53Z"/><path class="cls-13" d="m80.67,98.87c.05,2.75,1.8,3.88,3.83,3.88,1.45,0,2.33-.25,3.09-.58l.35,1.45c-.72.32-1.94.69-3.71.69-3.44,0-5.49-2.26-5.49-5.63s1.98-6.02,5.24-6.02c3.65,0,4.61,3.21,4.61,5.26,0,.42-.05.74-.07.95h-7.84Zm5.95-1.45c.02-1.29-.53-3.3-2.81-3.3-2.05,0-2.95,1.89-3.11,3.3h5.93Z"/><path class="cls-2" d="m56.61,110.82c.02,1.18.78,1.67,1.65,1.67.63,0,1-.11,1.33-.25l.15.63c-.31.14-.84.3-1.6.3-1.48,0-2.37-.97-2.37-2.43s.86-2.6,2.26-2.6c1.57,0,1.99,1.38,1.99,2.27,0,.18-.02.32-.03.41h-3.38Zm2.57-.63c.01-.56-.23-1.42-1.21-1.42-.89,0-1.27.82-1.34,1.42h2.56Z"/><path class="cls-2" d="m61.1,109.56c0-.5,0-.91-.04-1.3h.78l.05.8h.02c.24-.46.8-.91,1.59-.91.67,0,1.7.4,1.7,2.05v2.88h-.88v-2.78c0-.78-.29-1.42-1.11-1.42-.58,0-1.02.41-1.17.9-.04.11-.06.26-.06.41v2.9h-.88v-3.51Z"/><path class="cls-2" d="m70.77,108.25c-.02.35-.04.74-.04,1.32v2.8c0,1.1-.22,1.78-.69,2.2-.47.44-1.14.58-1.75.58s-1.21-.14-1.6-.4l.22-.67c.32.2.82.38,1.41.38.9,0,1.55-.47,1.55-1.68v-.54h-.02c-.27.45-.79.81-1.53.81-1.19,0-2.05-1.02-2.05-2.35,0-1.63,1.06-2.56,2.17-2.56.84,0,1.29.44,1.5.84h.02l.04-.73h.77Zm-.91,1.9c0-.15-.01-.28-.05-.4-.16-.51-.59-.93-1.22-.93-.84,0-1.43.71-1.43,1.82,0,.95.48,1.73,1.42,1.73.54,0,1.02-.34,1.21-.9.05-.15.07-.32.07-.47v-.87Z"/><path class="cls-2" d="m73.1,106.9c.01.3-.21.54-.56.54-.31,0-.53-.24-.53-.54s.23-.55.55-.55.54.24.54.55Zm-.98,6.17v-4.82h.88v4.82h-.88Z"/><path class="cls-2" d="m74.45,109.56c0-.5,0-.91-.04-1.3h.78l.05.8h.02c.24-.46.8-.91,1.59-.91.67,0,1.7.4,1.7,2.05v2.88h-.88v-2.78c0-.78-.29-1.42-1.11-1.42-.58,0-1.02.41-1.17.9-.04.11-.06.26-.06.41v2.9h-.88v-3.51Z"/><path class="cls-2" d="m80.46,110.82c.02,1.18.78,1.67,1.65,1.67.63,0,1-.11,1.33-.25l.15.63c-.31.14-.84.3-1.6.3-1.48,0-2.37-.97-2.37-2.43s.86-2.6,2.26-2.6c1.57,0,1.99,1.38,1.99,2.27,0,.18-.02.32-.03.41h-3.38Zm2.57-.63c.01-.56-.23-1.42-1.21-1.42-.89,0-1.27.82-1.34,1.42h2.56Z"/><path class="cls-2" d="m84.84,112.17c.26.17.72.35,1.15.35.64,0,.94-.32.94-.72,0-.42-.25-.65-.9-.88-.87-.31-1.27-.79-1.27-1.36,0-.78.63-1.41,1.66-1.41.49,0,.92.14,1.18.3l-.22.64c-.19-.12-.54-.28-.98-.28-.52,0-.81.3-.81.66,0,.4.29.58.92.82.84.32,1.26.74,1.26,1.45,0,.85-.66,1.44-1.8,1.44-.53,0-1.02-.13-1.35-.33l.22-.67Z"/><path class="cls-6" d="m93.83,92.6h33.59l-14.95,13.6c-.27.25-.6.44-.95.56h-.03c-.57.2-1.18.2-1.75,0h0c-.34-.12-.65-.3-.92-.55l-15-13.61Z"/><circle class="cls-2" cx="126.43" cy="93.24" r="3.17"/><path id="path1948" class="cls-1" d="m58.61,235.19c-1.25,0-2.44.11-3.49.3-3.09.55-3.65,1.69-3.65,3.8v2.78h7.3v.93h-10.05c-2.12,0-3.98,1.28-4.56,3.7-.67,2.78-.7,4.52,0,7.42.52,2.16,1.76,3.7,3.88,3.7h2.51v-3.34c0-2.41,2.09-4.54,4.56-4.54h7.3c2.03,0,3.65-1.67,3.65-3.71v-6.96c0-1.98-1.67-3.47-3.65-3.8-1.25-.21-2.56-.3-3.81-.3Zm-3.95,2.24c.75,0,1.37.63,1.37,1.4,0,.77-.62,1.39-1.37,1.39-.76,0-1.37-.62-1.37-1.39s.61-1.4,1.37-1.4Z"/><path id="path1950" class="cls-21" d="m66.98,242.99v3.24c0,2.51-2.13,4.63-4.56,4.63h-7.3c-2,0-3.65,1.71-3.65,3.71v6.96c0,1.98,1.72,3.14,3.65,3.71,2.31.68,4.53.8,7.3,0,1.84-.53,3.65-1.6,3.65-3.71v-2.78h-7.3v-.93h10.95c2.12,0,2.91-1.48,3.65-3.7.76-2.29.73-4.49,0-7.42-.52-2.11-1.53-3.7-3.65-3.7h-2.74Zm-4.1,17.61c.76,0,1.37.62,1.37,1.39s-.61,1.4-1.37,1.4-1.37-.63-1.37-1.4.62-1.39,1.37-1.39Z"/><rect class="cls-10" x="89.01" y="237.12" width="31.44" height="26.75" rx="1.28" ry="1.28"/><path class="cls-4" d="m97.05,256.15v-1.58c-.91-.02-1.85-.3-2.4-.69l.38-1.05c.56.38,1.38.67,2.26.67,1.11,0,1.87-.64,1.87-1.54s-.61-1.4-1.77-1.87c-1.6-.63-2.59-1.35-2.59-2.71s.93-2.29,2.37-2.53v-1.58h.97v1.52c.94.03,1.58.28,2.04.55l-.39,1.04c-.33-.19-.97-.53-1.98-.53-1.21,0-1.66.72-1.66,1.35,0,.82.58,1.22,1.94,1.79,1.62.66,2.43,1.47,2.43,2.87,0,1.24-.86,2.4-2.48,2.67v1.63h-.99Z"/><path class="cls-5" d="m109.52,255.97v.78h-7.84v-.78h7.84Z"/></svg>