<?xml version="1.0" encoding="UTF-8"?><svg id="Layer_1" xmlns="http://www.w3.org/2000/svg" xmlns:xlink="http://www.w3.org/1999/xlink" viewBox="0 0 203.85 149.54"><defs><style>.cls-1,.cls-2,.cls-3,.cls-4,.cls-5,.cls-6,.cls-7{fill:none;}.cls-8{fill:url(#linear-gradient-2);opacity:.98;}.cls-8,.cls-9,.cls-10{isolation:isolate;}.cls-11{fill:url(#linear-gradient);}.cls-2{stroke:#938551;}.cls-2,.cls-3{stroke-width:.27px;}.cls-2,.cls-3,.cls-12,.cls-13,.cls-14,.cls-15,.cls-16,.cls-4,.cls-17,.cls-18,.cls-6,.cls-19,.cls-20,.cls-21,.cls-22,.cls-7,.cls-23,.cls-24,.cls-25{stroke-miterlimit:10;}.cls-3{stroke:#77787b;}.cls-26{fill:url(#radial-gradient);}.cls-26,.cls-27{fill-rule:evenodd;}.cls-12{fill:rgba(253,254,255,.44);stroke:rgba(255,255,255,.44);}.cls-12,.cls-16,.cls-23,.cls-24,.cls-25{stroke-width:.05px;}.cls-28,.cls-19,.cls-20{fill:#f47648;}.cls-29{fill:#f2f2f3;}.cls-30,.cls-13,.cls-14,.cls-17,.cls-18{fill:#fac964;}.cls-31,.cls-9{fill:#fff;}.cls-32{fill:#fae9b4;}.cls-33{fill:#fbdf88;}.cls-34,.cls-15,.cls-22{fill:#6790b5;}.cls-35,.cls-36{fill:#999;}.cls-37{fill:#9e9e9e;}.cls-38{fill:#231f20;}.cls-39{fill:#3e68b0;}.cls-40{fill:#3c9394;}.cls-41{fill:#971a3f;}.cls-42{fill:#2f3536;}.cls-43,.cls-27,.cls-21{fill:#2f4259;}.cls-44{fill:#58595b;}.cls-45{fill:#575858;}.cls-46{fill:#575757;}.cls-13{stroke-width:.31px;}.cls-13,.cls-14,.cls-15,.cls-4,.cls-17,.cls-18,.cls-6,.cls-19,.cls-20,.cls-21,.cls-22,.cls-7{stroke:#231f20;}.cls-47{fill:rgba(87,88,88,.16);}.cls-14{stroke-width:.49px;}.cls-15,.cls-17,.cls-7{stroke-width:.24px;}.cls-16{fill:rgba(255,255,255,.39);stroke:rgba(255,255,255,.39);}.cls-4,.cls-21,.cls-22{stroke-width:.18px;}.cls-5{stroke:#9e9e9e;stroke-miterlimit:3.2;stroke-width:.9px;}.cls-18{stroke-width:.47px;}.cls-9{opacity:.72;}.cls-6{stroke-width:.75px;}.cls-10{fill:#010101;opacity:.35;}.cls-19{stroke-width:.44px;}.cls-48{fill:url(#linear-gradient-3);}.cls-49{fill:url(#linear-gradient-4);}.cls-50{fill:url(#linear-gradient-6);}.cls-51{fill:url(#linear-gradient-7);}.cls-52{fill:url(#linear-gradient-5);}.cls-20{stroke-width:.22px;}.cls-53{opacity:.9;}.cls-23{fill:rgba(1,1,1,.23);stroke:rgba(255,255,255,.23);}.cls-24{fill:rgba(255,255,255,.4);stroke:rgba(255,255,255,.4);}.cls-25{fill:rgba(255,255,255,.54);stroke:rgba(255,255,255,.54);}.cls-36{opacity:.95;}</style><linearGradient id="linear-gradient" x1="163.48" y1="69.59" x2="182.56" y2="69.59" gradientUnits="userSpaceOnUse"><stop offset="0" stop-color="#e2e2e2"/><stop offset="1" stop-color="#a3a2a5"/></linearGradient><radialGradient id="radial-gradient" cx="-1122.62" cy="1025.36" fx="-1122.62" fy="1025.36" r="1.96" gradientTransform="translate(3954.44 1344.66) scale(3.36 -1.23)" gradientUnits="userSpaceOnUse"><stop offset="0" stop-color="#010101" stop-opacity=".33"/><stop offset="1" stop-color="#010101" stop-opacity="0"/></radialGradient><linearGradient id="linear-gradient-2" x1="2744.76" y1="1385.27" x2="2753.66" y2="1346.26" gradientTransform="translate(-935.91 630.56) scale(.41 -.41)" gradientUnits="userSpaceOnUse"><stop offset="0" stop-color="#2f4259"/><stop offset="1" stop-color="#6790b5"/></linearGradient><linearGradient id="linear-gradient-3" x1="-1039.67" y1="402.81" x2="-1037.37" y2="402.81" gradientTransform="translate(5225.61 2070.07) scale(4.96 -4.96)" gradientUnits="userSpaceOnUse"><stop offset="0" stop-color="#c7c6c5"/><stop offset=".2" stop-color="#e3e3e3"/><stop offset="1" stop-color="#a5a5a8"/></linearGradient><linearGradient id="linear-gradient-4" x1="-1037.66" y1="380.23" x2="-1037.07" y2="379.02" gradientTransform="translate(5225.61 1944.1) scale(4.96 -4.96)" gradientUnits="userSpaceOnUse"><stop offset="0" stop-color="#e3e3e3"/><stop offset="1" stop-color="#a5a5a8"/></linearGradient><linearGradient id="linear-gradient-5" x1="-955.88" y1="390.47" x2="-953.22" y2="390.78" gradientTransform="translate(4091.51 1701.11) scale(4.2 -4.2)" gradientUnits="userSpaceOnUse"><stop offset="0" stop-color="#fff"/><stop offset="1" stop-color="#fff" stop-opacity="0"/></linearGradient><linearGradient id="linear-gradient-6" y1="400.14" x2="-953.22" y2="400.46" gradientTransform="translate(4091.51 1748.25) scale(4.2 -4.2)" xlink:href="#linear-gradient-5"/><linearGradient id="linear-gradient-7" x1="-955.88" y1="409.21" x2="-953.22" y2="409.53" gradientTransform="translate(4091.51 1792.44) scale(4.2 -4.2)" xlink:href="#linear-gradient-5"/></defs><rect class="cls-19" x="109.79" y="10.5" width="10.68" height="13.67"/><rect class="cls-19" x="113.06" y="13.91" width="10.68" height="13.67"/><rect class="cls-19" x="116.33" y="17.33" width="10.68" height="13.67"/><g id="g14"><path id="path16" class="cls-45" d="m182.19,76.74c.11.16.22.25.17.48-.25.6-8.4,7.38-8.83,7.56-5.51-.03-9.23-2.04-9.85-3.1-.24-1.33-.03-2.06.19-2.49.2-.38,10.63-4.11,10.99-4.2.33-.07,7.04,1.31,7.32,1.76Z"/></g><path id="path16-2" class="cls-11" d="m182.42,56.36c.25.4.17,19.72-.15,20.48-.25.6-8.4,7.38-8.83,7.56-5.51-.03-9.23-2.04-9.85-3.1-.24-1.33-.03-21.88.19-22.31.2-.38,10.63-4.11,10.99-4.2.33-.07,7.37,1.13,7.65,1.58Z"/><g id="g22"><path id="path24" class="cls-25" d="m182.02,56.76l-.26.11-.26.11-.26.11-.26.12-.26.12-.26.13-.26.13-.27.13-.27.13-.27.14-.27.14-.27.14-.27.14-.27.14-.55.3-.55.3-.55.3-.56.3-.56.3-.56.3-.56.29-.28.14-.28.14-.29.14-.28.14-.13-.03-.14-.03-.28-.06-.29-.07-.29-.06-.3-.07-.3-.07-.3-.07-.31-.07-.31-.07-.31-.07-.63-.14-.63-.14-.32-.07-.31-.07-.31-.06-.31-.06-.3-.06-.3-.06-.3-.06-.29-.06-.28-.06-.14-.02-.14-.03-.13-.02-.13-.03-.13-.02-.13-.02-.13-.02-.12-.03-.12-.02-.12-.02-.12-.02-.12-.02-.11-.02-.11-.02-.11-.02h-.1s-.1-.03-.1-.03l-.1-.02.26.08.26.08.26.08.27.07.27.08.27.07.28.08.28.07.28.08.29.07.57.15.58.15.58.15.58.15.58.15.57.15.29.07.28.08.28.07.28.08.27.07.27.08.27.07.26.08.26.08.26.08v.3s.01.3.01.3v.3s0,.31,0,.31v.32s.01.32.01.32v.32s0,.33,0,.33v.33s0,.33,0,.33v.34s0,.34,0,.34v.34s0,.35,0,.35v.35s0,.35,0,.35v.35s0,.36,0,.36v.36s0,.36,0,.36v.72s0,.73,0,.73v1.47s.01,1.48.01,1.48v1.48s0,.74,0,.74v.73s0,.73,0,.73v.72s0,.36,0,.36v.71s0,.35,0,.35v.7s0,.34,0,.34v.35s0,.34,0,.34v.34s0,.33,0,.33v.33s0,.33,0,.33v.32s0,.32,0,.32v.31s.01.31.01.31v.31s.01.3.01.3v.3s0-.3,0-.3v-.3s0-.31,0-.31v-.31s0-.32,0-.32v-.32s0-.33,0-.33v-.33s0-.33,0-.33v-.34s0-.34,0-.34v-.34s.01-.35.01-.35v-.35s0-.35,0-.35v-.36s0-.36,0-.36v-.36s.01-.36.01-.36v-.36s.02-.73.02-.73v-.74s.02-.75.02-.75v-.75s.04-1.5.04-1.5l.02-1.5v-.75s.03-.74.03-.74v-.74s.02-.74.02-.74v-.36s.01-.36.01-.36v-.36s0-.36,0-.36v-.35s0-.36,0-.36v-.35s.01-.35.01-.35v-.35s0-.34,0-.34v-.34s0-.34,0-.34v-.33s0-.33,0-.33v-.32s0-.32,0-.32v-.32s0-.31,0-.31v-.31s0-.3,0-.3l.54-.29.54-.29.54-.28.54-.29.53-.28.53-.29.53-.28.53-.29.52-.29.52-.29.51-.3.51-.3.25-.15.25-.15.25-.15.25-.15.25-.15.25-.16.24-.16.25-.16Z"/></g><g id="g28"><path id="path30" class="cls-1" d="m182.02,56.76c-2.71,1.14-5.71,2.99-8.73,4.45-2.86-.68-6.99-1.59-9.08-1.95,2.68.83,6.2,1.61,8.88,2.45.16,6.27.08,15.77.24,22.05.08-6.33.29-15.98.37-22.3,2.89-1.56,5.73-2.97,8.31-4.68Z"/></g><g id="g32"><path id="path34" class="cls-47" d="m165.23,77.42l.05.07.05.06.05.06.06.06.06.06.06.06.07.06.06.06.07.06.07.05.07.05.08.05.07.05.08.05.08.05.08.05.09.04.09.05.09.04.09.04.09.04.09.04.09.04.09.04.2.07.2.07.2.06.2.05.21.05.2.04.21.04.2.03.2.03h.2s.1.02.1.02h.1s.09,0,.09,0h.38s.09,0,.09,0h.09s.09,0,.09,0h.08s.09-.02.09-.02h.08s.08-.02.08-.02l.08-.02.08-.02.07-.02.07-.02.07-.02.07-.02h0s0,0,0,0h-.02s-.03-.01-.03-.01h-.03s-.04-.02-.04-.02h-.05s-.05-.03-.05-.03h-.06s-.06-.03-.06-.03h-.07s-.07-.03-.07-.03l-.08-.02-.08-.02-.09-.02-.09-.02-.09-.02-.1-.03-.1-.02-.1-.03-.11-.03-.11-.03-.11-.03-.11-.03-.12-.03-.24-.06-.24-.07-.25-.07-.25-.06-.25-.07-.25-.06-.24-.07-.24-.06-.11-.03-.12-.03-.11-.03-.11-.03-.11-.03-.1-.03-.1-.03-.1-.02-.09-.03-.09-.02-.09-.02-.08-.02-.08-.02-.07-.02-.07-.02-.06-.02h-.06s-.06-.03-.06-.03h-.05s-.04-.03-.04-.03h-.03s-.03-.02-.03-.02h-.02s0,0,0,0h0Z"/></g><g id="g38"><path id="path40" class="cls-1" d="m165.23,77.42c.99,1.43,4.11,2.13,5.59,1.55-.26-.07-5.26-1.45-5.59-1.55Z"/></g><g id="g42"><path id="path44" class="cls-16" d="m170.33,74.78l-4.62-1.78-.04.02-.04.02-.04.02-.03.02-.03.03-.03.03-.02.03-.02.03-.02.03-.02.03v.03s-.03.04-.03.04v.04s-.02.03-.02.03v.07s-.02.07-.02.07v.07s0,.18,0,.18v.02s0,.03,0,.03l.72.25h0s0,0,0,0h0s0,.01,0,.01h0s0,.02,0,.02h.01s0,.03,0,.03v.02s.03.02.03.02v.02s.03.02.03.02l.02.02.02.03.02.02.05.06.05.05.06.06.06.06.07.06.07.06.08.06.08.06.09.06.09.05.1.05.11.05.05.02.05.02.06.02.06.02h.06s.06.03.06.03h.06s.06.03.06.03h.06s.06.01.06.01h.07s.07.01.07.01h.29s.07-.01.07-.01h.07s.08-.02.08-.02h.08s.08-.03.08-.03l.08-.02.08-.02.08-.03h.01s.01,0,.01,0h.03s.03,0,.03,0h.03s.04,0,.04,0h.04s.05,0,.05,0h.05s.06,0,.06,0h.06s.06,0,.06,0h.06s.13,0,.13,0h.07s.06,0,.06,0h.07s.06-.01.06-.01h.06s.06-.02.06-.02h.06s.06-.03.06-.03l.05-.02.05-.02.04-.03.04-.03.04-.04v-.02s.03-.02.03-.02v-.02s.02-.02.02-.02v-.02s.02-.02.02-.02Z"/></g><g id="g48"><path id="path50" class="cls-1" d="m170.33,74.78l-4.62-1.78c-.48.17-.38.87-.38.87l.72.25s1.01,1.57,2.79.96,1.33.24,1.49-.3Z"/></g><g id="g52"><path id="path54" class="cls-45" d="m170.29,74.18c-1.53-.4-3.07-.79-4.6-1.19-.06.22-.06.53.03.69.23.11.7.2.93.32.67.65,1.26.7,2.33.61.41.08.83.15,1.24.24.13-.25.16-.36.07-.66Z"/></g><g id="g56"><path id="path58" class="cls-1" d="m170.29,74.18c-1.53-.4-3.07-.79-4.6-1.19-.06.22-.06.53.03.69.23.11.7.2.93.32.67.65,1.26.7,2.33.61.41.08.83.15,1.24.24.13-.25.16-.36.07-.66Z"/></g><g id="g60"><path id="path62" class="cls-24" d="m182.19,56.62l-8.95,5.02.03,22.45,8.76-7.37.15-20.1Z"/></g><g id="g66"><path id="path68" class="cls-1" d="m182.19,56.62l-8.95,5.02.03,22.45,8.76-7.37.15-20.1Z"/></g><g id="g70"><path id="path72" class="cls-47" d="m165.75,78.84l.05.06.05.06.05.06.05.05.05.06.05.05.06.05.06.05.06.05.06.05.06.05.06.04.06.04.06.04.13.08.14.07.14.07.14.06.14.05.14.05.15.04.15.04.14.04.15.03.15.02.15.02h.15s.15.02.15.02h.14s.14,0,.14,0h.14s.13-.01.13-.01h.14s.13-.02.13-.02l.13-.02.12-.02.12-.03.12-.03.11-.04h0s-.02,0-.02,0h-.02s-.02-.01-.02-.01h-.03s-.04-.02-.04-.02h-.04s-.04-.02-.04-.02h-.05s-.05-.03-.05-.03h-.05s-.06-.03-.06-.03l-.06-.02h-.06s-.07-.03-.07-.03l-.07-.02-.07-.02-.07-.02-.08-.02-.08-.02-.08-.02-.09-.02-.17-.05-.18-.05-.19-.05-.19-.05-.19-.05-.38-.1-.18-.05-.18-.05-.18-.05-.08-.02-.08-.02-.08-.02-.08-.02-.08-.02-.07-.02-.07-.02-.07-.02-.07-.02-.06-.02h-.06s-.05-.03-.05-.03h-.06s-.05-.03-.05-.03h-.04s-.04-.02-.04-.02h-.04s-.03-.02-.03-.02h-.03s-.02-.02-.02-.02h-.02s-.01,0-.01,0Z"/></g><g id="g76"><path id="path78" class="cls-1" d="m165.75,78.84c1.03,1.36,3.09,1.59,4.25,1.18-.19-.05-4-1.1-4.25-1.18Z"/></g><g id="g80"><path id="path82" class="cls-47" d="m166.51,80.24l.06.07.06.07.06.07.07.06.07.06.07.05.07.05.08.05.07.04.08.04.08.04.08.03.09.03.08.03.09.02.09.02.09.02h.09s.09.03.09.03h.09s.09.02.09.02h.09s.19,0,.19,0h.09s.09-.01.09-.01h.09s.09-.02.09-.02l.09-.02.09-.02.09-.02.08-.03h-.01s-.01,0-.01,0h-.02s-.01,0-.01,0h-.02s-.02-.01-.02-.01h-.03s-.03-.01-.03-.01h-.03s-.03-.02-.03-.02h-.04s-.04-.02-.04-.02h-.04s-.04-.02-.04-.02h-.04s-.09-.04-.09-.04l-.1-.02-.11-.03-.11-.03-.11-.03-.11-.03-.24-.06-.24-.06-.11-.03-.11-.03-.11-.03-.1-.03-.1-.03-.09-.03h-.04s-.04-.02-.04-.02h-.04s-.04-.02-.04-.02h-.04s-.03-.02-.03-.02h-.03s-.03-.02-.03-.02h-.03s-.02-.02-.02-.02h-.02s-.02,0-.02,0h-.01s-.01,0-.01,0h-.01s0,0,0,0Z"/></g><g id="g86"><path id="path88" class="cls-1" d="m166.51,80.24c.6.8,1.75,1.05,2.67.74-.12-.03-2.5-.69-2.67-.74Z"/></g><g id="g90"><path id="path92" class="cls-12" d="m164.91,60.79l-.45.06-.08,10.72,7.03,1.97.17-.57-6.76-1.8.09-10.38Z"/></g><g id="g96"><path id="path98" class="cls-1" d="m164.91,60.79l-.45.06-.08,10.72,7.03,1.97.17-.57-6.76-1.8.09-10.38Z"/></g><g id="g100"><path id="path102" class="cls-23" d="m171.55,64.77v.3s-6.62-1.91-6.62-1.91l6.62,1.6Z"/></g><g id="g106"><path id="path108" class="cls-23" d="m171.64,66.95v.3s-6.62-1.91-6.62-1.91l6.62,1.6Z"/></g><g id="g112"><path id="path114" class="cls-23" d="m171.55,68.97v.3s-6.62-1.91-6.62-1.91l6.62,1.6Z"/></g><g id="g118"><path id="path120" class="cls-23" d="m171.55,70.96v.3s-6.62-1.91-6.62-1.91l6.62,1.61Z"/></g><path id="path1538" class="cls-26" d="m189.04,79.91c0,2.18-3.59,3.95-8.01,3.95s-8.01-1.77-8.01-3.95,3.59-3.95,8.01-3.95,8.01,1.77,8.01,3.95Z"/><path id="path53304" class="cls-8" d="m181.01,81.62l-6.74-6.74,6.74-6.74,6.74,6.74-6.74,6.74h0Z"/><path id="path53359" class="cls-9" d="m187.52,74.88l-6.51-6.51-6.51,6.51.26.21,6.3-6.24,6.45,6.03h0Z"/><path id="path53365" class="cls-10" d="m174.54,74.93l6.46,6.46,6.51-6.51-.24-.23-6.26,6.25-6.47-5.97h0s0,0,0,0Z"/><path class="cls-31" d="m179.12,73.98v-.27h.3c.07,0,.13,0,.18.01s.1.04.16.1c.06.06.1.15.13.26.02.09.04.22.04.4,0,.18.01.35.03.51.01.16.04.32.09.49.05.17.14.31.27.43s.3.2.52.25v-2.91h.36v2.91c.59-.12.9-.58.91-1.38v-.03c0-.37.04-.62.09-.75.06-.17.17-.26.31-.28.03,0,.07,0,.13,0h.28v.27c-.1,0-.18.04-.24.1-.06.06-.11.13-.14.23s-.04.19-.06.28c-.01.09-.02.19-.02.31,0,.12,0,.2-.02.25,0,.05-.01.1-.02.14,0,.04-.02.11-.05.19-.03.09-.06.17-.09.24-.03.07-.08.15-.15.23-.07.09-.14.16-.22.22-.08.06-.19.12-.31.17-.12.05-.26.08-.41.1v.58h-.36v-.58c-.83-.1-1.24-.67-1.25-1.72v-.05c-.03-.43-.18-.66-.46-.68Z"/><g class="cls-53"><circle class="cls-39" cx="20.4" cy="71.41" r="4.09"/><circle class="cls-35" cx="25.56" cy="73.06" r="1.93"/><circle class="cls-39" cx="30.81" cy="74.45" r="4.09"/><circle class="cls-35" cx="20.4" cy="66.26" r="1.93"/><circle class="cls-35" cx="30.81" cy="69.07" r="1.93"/><circle class="cls-39" cx="20.4" cy="60.52" r="4.09"/><circle class="cls-35" cx="25.56" cy="62.17" r="1.93"/><circle class="cls-39" cx="30.81" cy="63.56" r="4.09"/></g><circle class="cls-36" cx="27.49" cy="76.92" r="1.93"/><circle class="cls-36" cx="26.99" cy="65.97" r="1.93"/><circle class="cls-36" cx="16.58" cy="62.51" r="1.93"/><circle class="cls-36" cx="16.58" cy="73.83" r="1.93"/><circle class="cls-30" cx="21.56" cy="70.6" r="4.98"/><circle class="cls-39" cx="12.49" cy="75.99" r="4.09"/><circle class="cls-35" cx="17.65" cy="77.63" r="1.93"/><circle class="cls-39" cx="22.9" cy="79.03" r="4.09"/><circle class="cls-35" cx="12.49" cy="70.83" r="1.93"/><circle class="cls-35" cx="22.9" cy="73.65" r="1.93"/><circle class="cls-39" cx="12.49" cy="65.09" r="4.09"/><circle class="cls-35" cx="17.65" cy="66.74" r="1.93"/><circle class="cls-39" cx="22.9" cy="68.13" r="4.09"/><polygon class="cls-33" points="82.86 3.05 59.53 4.86 56.6 31.54 83.18 26.03 82.86 3.05"/><path class="cls-3" d="m55.92,32.15c-3.91,3.75-8.87,6.84-14.29,6.93-6.24.11-11.82-3.67-17.88-5.15-2.77-.68-6.04-.75-8.12,1.21"/><path class="cls-3" d="m17.86,33.86c-.78.12-1.63,0-2.59-.47"/><polyline class="cls-2" points="82.86 3.05 74.12 12.72 56.6 31.54"/><circle class="cls-34" cx="50.09" cy="36.56" r="1.08"/><circle class="cls-40" cx="43.76" cy="38.87" r="1.08"/><circle class="cls-30" cx="36.41" cy="38.39" r="1.08"/><circle class="cls-28" cx="29.51" cy="36.06" r="1.08"/><circle class="cls-41" cx="22.35" cy="33.57" r="1.08"/><polygon class="cls-30" points="56.6 31.54 79.31 19.68 82.86 3.05 83.18 26.03 56.6 31.54"/><polygon class="cls-32" points="56.6 31.54 63.68 6.78 82.86 3.05 59.53 4.86 56.6 31.54"/><path class="cls-2" d="m59.53,4.86s11.51,5.08,14.58,7.86c2.99,2.7,9.06,13.31,9.06,13.31"/><circle class="cls-43" cx="59.53" cy="4.86" r="1.51"/><circle class="cls-43" cx="82.86" cy="3.05" r="1.51"/><circle class="cls-43" cx="83.18" cy="26.03" r="1.51"/><circle class="cls-43" cx="56.6" cy="31.54" r="1.51"/><circle class="cls-43" cx="74.2" cy="12.76" r="1.51"/><path class="cls-44" d="m5.73,14.55c0-.98-.02-1.78-.08-2.57h1.51l.08,1.53h.06c.53-.9,1.41-1.75,2.98-1.75,1.29,0,2.27.78,2.69,1.9h.04c.29-.53.67-.94,1.06-1.24.57-.43,1.2-.67,2.1-.67,1.25,0,3.12.82,3.12,4.12v5.59h-1.69v-5.37c0-1.82-.67-2.92-2.06-2.92-.98,0-1.75.73-2.04,1.57-.08.24-.14.55-.14.86v5.86h-1.69v-5.69c0-1.51-.67-2.61-1.98-2.61-1.08,0-1.86.86-2.14,1.73-.1.25-.14.55-.14.84v5.73h-1.69v-6.92Z"/><path class="cls-44" d="m23.79,16.33h.04c.24-.33.57-.75.84-1.08l2.78-3.27h2.08l-3.67,3.9,4.18,5.59h-2.1l-3.27-4.55-.88.98v3.57h-1.71V7.55h1.71v8.78Z"/><path class="cls-43" d="m33.54,9.32c.02.59-.41,1.06-1.1,1.06-.61,0-1.04-.47-1.04-1.06s.45-1.08,1.08-1.08,1.06.47,1.06,1.08Zm-1.92,12.16v-9.49h1.73v9.49h-1.73Z"/><path class="cls-43" d="m38.28,9.26v2.73h2.47v1.31h-2.47v5.12c0,1.18.33,1.84,1.29,1.84.45,0,.78-.06,1-.12l.08,1.29c-.33.14-.86.24-1.53.24-.8,0-1.45-.25-1.86-.73-.49-.51-.67-1.35-.67-2.47v-5.18h-1.47v-1.31h1.47v-2.27l1.69-.45Z"/><path class="cls-43" d="m43.54,17.04c.04,2.33,1.53,3.29,3.25,3.29,1.23,0,1.98-.22,2.63-.49l.29,1.24c-.61.27-1.65.59-3.16.59-2.92,0-4.67-1.92-4.67-4.78s1.69-5.12,4.45-5.12c3.1,0,3.92,2.73,3.92,4.47,0,.35-.04.63-.06.8h-6.67Zm5.06-1.24c.02-1.1-.45-2.8-2.39-2.8-1.75,0-2.51,1.61-2.65,2.8h5.04Z"/><g id="layer1"><g id="g6097"><path id="path6079" class="cls-42" d="m88.99,79.47c0,2.1-5.12,3.81-11.43,3.81s-11.43-1.71-11.43-3.81,5.12-3.81,11.43-3.81,11.43,1.71,11.43,3.81Z"/><path id="path5488" class="cls-48" d="m66.13,60.23v17.46h.07c-.05.14-.07.27-.07.42,0,2.1,5.11,3.81,11.43,3.81s11.43-1.7,11.43-3.81c0-.14-.03-.28-.07-.42h.07v-17.46h-22.85Z"/><path id="path5460" class="cls-49" d="m88.99,60.08c0,2.1-5.12,3.81-11.43,3.81s-11.43-1.71-11.43-3.81,5.12-3.81,11.43-3.81,11.43,1.71,11.43,3.81Z"/><path id="path6026" class="cls-46" d="m66.12,72.76c.09,2.08,5.18,3.75,11.44,3.75s11.31-1.66,11.43-3.74c-2,1.7-6.36,2.88-11.43,2.88s-9.45-1.19-11.44-2.9h0Z"/><path id="path6030" class="cls-52" d="m66.12,60.13c.09,2.08,5.18,3.75,11.44,3.75s11.31-1.66,11.43-3.74c-.13.11-.26.21-.4.31,0,0-.01.01-.02.02-1.33,1.61-5.75,2.79-11.01,2.79s-9.74-1.2-11.05-2.83c-.01-.01-.02-.03-.04-.04-.13-.09-.25-.18-.36-.27h0Z"/><g id="g6071"><g id="g6067"><path id="path6022" class="cls-46" d="m66.12,66.65c.09,2.08,5.18,3.75,11.44,3.75s11.31-1.66,11.43-3.74c-2,1.7-6.36,2.88-11.43,2.88s-9.45-1.19-11.44-2.9h0Z"/><path id="path6043" class="cls-50" d="m66.12,66.65c.09,2.08,5.18,3.75,11.44,3.75s11.31-1.66,11.43-3.74c-.03.02-.06.05-.09.07-.72,1.87-5.52,3.32-11.34,3.32s-10.72-1.46-11.37-3.36c-.02-.02-.05-.04-.07-.05h0Z"/></g><path id="path6054" class="cls-51" d="m66.12,72.76c.09,2.08,5.18,3.75,11.44,3.75s11.31-1.66,11.43-3.74c-.03.02-.06.05-.09.07-.72,1.87-5.52,3.32-11.34,3.32s-10.72-1.46-11.37-3.36c-.02-.02-.05-.04-.07-.05h0Z"/></g><path id="path6060" class="cls-46" d="m66.19,79.05c.65,1.9,5.5,3.36,11.37,3.36s10.61-1.45,11.34-3.32c-2.04,1.66-6.34,2.81-11.34,2.81s-9.34-1.17-11.37-2.85Z"/></g></g><path id="path7264" class="cls-5" d="m189.93,22.93h-5.98"/><path id="path7264-2" class="cls-5" d="m189.95,27.03h-5.98"/><path id="path7264-3" class="cls-5" d="m189.95,24.98h-5.98"/><path id="path7264-4" class="cls-5" d="m189.95,20.87h-5.98"/><path id="path7264-5" class="cls-5" d="m189.95,16.77h-5.98"/><path id="path7264-6" class="cls-5" d="m189.95,12.67h-5.98"/><path id="path7264-7" class="cls-5" d="m189.95,29.08h-5.98"/><g id="path7252"><polyline class="cls-5" points="180.16 16.77 195.56 16.77 198.76 14.19"/><path class="cls-37" d="m199.35,15c.43-.35.5-.99.15-1.42-.35-.43-.99-.5-1.42-.15-.43.35-.5.99-.15,1.42.35.43.99.5,1.42.15Z"/></g><g id="path7252-2"><polyline class="cls-5" points="176.41 12.67 191.81 12.67 195 10.09"/><path class="cls-37" d="m195.6,10.9c.43-.35.5-.99.15-1.42s-.99-.5-1.42-.15c-.43.35-.5.99-.15,1.42s.99.5,1.42.15Z"/></g><g id="path7252-3"><polyline class="cls-5" points="180.16 24.98 195.56 24.98 198.76 27.56"/><path class="cls-37" d="m198.08,28.32c.43.35,1.07.29,1.42-.15s.29-1.07-.15-1.42c-.43-.35-1.07-.29-1.42.15-.35.43-.29,1.07.15,1.42Z"/></g><g id="path7252-4"><polyline class="cls-5" points="176.41 29.08 191.81 29.08 195 31.66"/><path class="cls-37" d="m194.32,32.42c.43.35,1.07.29,1.42-.15.35-.43.29-1.07-.15-1.42-.43-.35-1.07-.29-1.42.15s-.29,1.07.15,1.42Z"/></g><g id="path7268"><line class="cls-5" x1="180.16" y1="20.87" x2="200.23" y2="20.87"/><circle class="cls-37" cx="200.18" cy="20.87" r="1.01"/></g><path id="path7272" class="cls-5" d="m189.93,18.82h-5.98"/><path id="path7280" class="cls-5" d="m189.93,14.72h-5.98"/><path id="path7264-8" class="cls-5" d="m164.74,22.93h-13.4"/><path id="path7264-9" class="cls-5" d="m164.76,27.03h-5.98"/><path id="path7264-10" class="cls-5" d="m164.76,24.98h-13.4"/><path id="path7264-11" class="cls-5" d="m164.76,20.87h-13.4"/><path id="path7264-12" class="cls-5" d="m164.76,16.77h-13.4"/><path id="path7264-13" class="cls-5" d="m164.76,12.67h-5.98"/><path id="path7264-14" class="cls-5" d="m164.76,29.08h-5.98"/><path id="path7272-2" class="cls-5" d="m164.74,18.82h-13.4"/><path id="path7280-2" class="cls-5" d="m164.74,14.72h-5.98"/><g id="g7312"><path id="path7314" class="cls-5" d="m181.32,36.06v-5.98"/><path id="path7316" class="cls-5" d="m166.57,36.06v-5.98"/><path id="path7318" class="cls-5" d="m168.68,36.06v-5.98"/><path id="path7320" class="cls-5" d="m170.78,36.06v-5.98"/><path id="path7322" class="cls-5" d="m172.89,36.06v-5.98"/><path id="path7324" class="cls-5" d="m175,36.06v-5.98"/><path id="path7326" class="cls-5" d="m177.1,36.06v-5.98"/><path id="path7328" class="cls-5" d="m179.21,36.06v-5.98"/></g><path id="path7332" class="cls-5" d="m181.32,11.41v-5.98"/><path id="path7336" class="cls-5" d="m168.68,11.41v-5.98"/><path id="path7336-2" class="cls-5" d="m166.57,11.41v-5.98"/><path id="path7338" class="cls-5" d="m170.78,11.41v-5.98"/><path id="path7340" class="cls-5" d="m172.89,11.41v-5.98"/><path id="path7344" class="cls-5" d="m177.1,11.41v-5.98"/><path id="path7344-2" class="cls-5" d="m175,11.41v-5.98"/><path id="path7346" class="cls-5" d="m179.21,11.41v-5.98"/><path id="path7332-2" class="cls-5" d="m181.32,30.08v5.98"/><path id="path7336-3" class="cls-5" d="m168.68,30.08v5.98"/><path id="path7336-4" class="cls-5" d="m166.57,30.08v5.98"/><path id="path7338-2" class="cls-5" d="m170.78,30.08v5.98"/><path id="path7340-2" class="cls-5" d="m172.89,30.08v5.98"/><path id="path7344-3" class="cls-5" d="m177.1,30.08v5.98"/><path id="path7344-4" class="cls-5" d="m175,30.08v5.98"/><path id="path7346-2" class="cls-5" d="m179.21,30.08v5.98"/><path id="path7348" class="cls-27" d="m163.15,8.42l-1.12,1.12v23.52h24.64V8.42h-23.52s0,0,0,0Z"/><circle id="path7250" class="cls-33" cx="164.76" cy="11.15" r=".93"/><path class="cls-29" d="m169.69,29.7c0-.24,0-.43-.02-.62h.37l.02.37h.01c.13-.22.34-.42.72-.42.31,0,.55.19.65.46h0c.07-.13.16-.23.26-.3.14-.1.29-.16.51-.16.3,0,.76.2.76,1v1.36h-.41v-1.3c0-.44-.16-.71-.5-.71-.24,0-.42.18-.5.38-.02.06-.03.13-.03.21v1.42h-.41v-1.38c0-.37-.16-.63-.48-.63-.26,0-.45.21-.52.42-.02.06-.03.13-.03.2v1.39h-.41v-1.68Z"/><path class="cls-29" d="m174.07,30.13h0c.06-.08.14-.18.2-.26l.68-.79h.5l-.89.95,1.01,1.36h-.51l-.79-1.1-.21.24v.87h-.41v-3.38h.41v2.13Z"/><path class="cls-33" d="m176.12,29.08l.3,1.17c.07.26.13.5.17.73h.01c.05-.23.13-.48.2-.73l.38-1.18h.35l.36,1.15c.09.28.15.52.2.75h.01c.04-.23.1-.48.18-.75l.33-1.16h.41l-.74,2.3h-.38l-.35-1.1c-.08-.26-.15-.49-.21-.76h0c-.06.28-.13.51-.21.76l-.37,1.09h-.38l-.7-2.3h.43Z"/><path class="cls-33" d="m179.92,28.43c0,.14-.1.26-.27.26-.15,0-.25-.11-.25-.26s.11-.26.26-.26.26.11.26.26Zm-.47,2.95v-2.3h.42v2.3h-.42Z"/><path class="cls-33" d="m180.57,29.7c0-.24,0-.43-.02-.62h.37l.02.38h0c.11-.22.38-.43.76-.43.32,0,.81.19.81.98v1.38h-.42v-1.33c0-.37-.14-.68-.53-.68-.28,0-.49.19-.56.43-.02.05-.03.12-.03.2v1.39h-.42v-1.68Z"/><path class="cls-33" d="m185.2,28v2.78c0,.2,0,.44.02.6h-.38l-.02-.4h0c-.13.26-.41.45-.79.45-.56,0-.99-.47-.99-1.17,0-.77.47-1.24,1.03-1.24.35,0,.59.17.7.35h0v-1.38h.42Zm-.42,2.01c0-.05,0-.12-.02-.18-.06-.27-.29-.49-.6-.49-.43,0-.69.38-.69.89,0,.47.23.85.68.85.28,0,.54-.19.61-.5.01-.06.02-.11.02-.18v-.4Z"/><path class="cls-38" d="m64.85,133.97l.08-.32c.14.11.27.16.41.16.1,0,.19-.03.26-.08.07-.05.12-.11.14-.19,0-.03.01-.08.01-.14v-2.66h.39v2.58c0,.29-.07.5-.2.62-.14.13-.29.19-.45.19-.21,0-.42-.06-.63-.18Zm.81-3.97v-.47h.47v.47h-.47Z"/><path class="cls-38" d="m66.72,131.92c0-.35.11-.65.34-.89.23-.24.5-.36.81-.36s.6.13.82.38c.22.25.33.55.33.88s-.11.63-.34.86c-.23.23-.5.35-.8.35s-.57-.12-.8-.35c-.23-.23-.34-.52-.34-.87Zm.41-.05c0,.31.07.54.22.69.15.16.32.23.52.23s.37-.08.52-.24c.15-.16.22-.39.22-.69s-.07-.51-.22-.66c-.15-.15-.32-.22-.52-.22s-.36.07-.51.22-.22.37-.22.66Z"/><path class="cls-38" d="m69.6,133.08v-3.77h.39v1.7c.25-.21.53-.31.84-.31.25,0,.45.12.61.36.16.24.24.52.24.85,0,.35-.1.64-.29.88-.19.23-.42.35-.68.35-.25,0-.48-.1-.7-.3v.24h-.41Zm.41-.7s0,.05,0,.06c0,.02,0,.03.01.04,0,.01,0,.03.01.03,0,0,.01.02.03.04.01.02.02.03.03.05.12.14.26.21.43.21.19,0,.36-.07.51-.22s.23-.37.23-.68c0-.16-.02-.3-.07-.43s-.1-.22-.18-.28-.15-.11-.23-.14c-.08-.03-.15-.04-.23-.04-.14,0-.26.04-.38.12s-.18.17-.18.27v.97Z"/><path class="cls-38" d="m72.26,130v-.47h.47v.47h-.47Zm.04,3.08v-2.32h.35v2.32h-.35Z"/><path class="cls-38" d="m73.54,133.08v-2.35h.38v.37c.2-.27.46-.4.76-.4.13,0,.24.02.33.06.09.04.16.09.21.14s.09.13.11.21.04.16.05.23c0,.07,0,.14,0,.23v1.5h-.41v-1.46c0-.06,0-.11,0-.14s-.01-.08-.03-.15c-.02-.06-.04-.12-.08-.15-.03-.04-.08-.07-.15-.1-.07-.03-.15-.04-.25-.04-.18,0-.32.08-.4.23-.08.16-.13.35-.13.57v1.25h-.41Z"/><path class="cls-38" d="m75.96,131.06v-.31h.39v-.38s0-.03,0-.06c0-.03,0-.05,0-.06,0-.32.09-.57.26-.74s.38-.26.61-.26c.13,0,.27.02.41.06v.36c-.15-.06-.29-.09-.42-.09-.12,0-.23.04-.33.1-.1.07-.15.19-.15.37v.71h.59v.31h-.58v2.02h-.39v-2.02h-.39Z"/><path class="cls-38" d="m77.56,131.92c0-.35.11-.65.34-.89.23-.24.5-.36.81-.36s.6.13.82.38c.22.25.33.55.33.88s-.11.63-.34.86c-.23.23-.5.35-.8.35s-.57-.12-.8-.35c-.23-.23-.34-.52-.34-.87Zm.41-.05c0,.31.07.54.22.69.15.16.32.23.52.23s.37-.08.52-.24c.15-.16.22-.39.22-.69s-.07-.51-.22-.66c-.15-.15-.32-.22-.52-.22s-.36.07-.51.22-.22.37-.22.66Z"/><path class="cls-38" d="m80.52,133.08v-.47h.44v.47h-.44Z"/><path class="cls-38" d="m81.15,133.97l.08-.32c.14.11.27.16.41.16.1,0,.19-.03.26-.08.07-.05.12-.11.14-.19,0-.03.01-.08.01-.14v-2.66h.39v2.58c0,.29-.07.5-.2.62-.14.13-.29.19-.45.19-.21,0-.42-.06-.63-.18Zm.81-3.97v-.47h.47v.47h-.47Z"/><path class="cls-38" d="m83,132.9l.06-.35s.03.02.07.04c.04.02.07.04.09.05s.05.03.09.05c.04.02.08.04.12.05.04.01.08.02.13.04.05.01.1.02.15.03.05,0,.11,0,.17,0,.17,0,.3-.04.38-.11s.11-.16.11-.25-.03-.16-.09-.22c-.06-.06-.13-.1-.2-.12-.03-.01-.11-.03-.23-.05-.12-.02-.21-.05-.27-.06-.14-.05-.27-.12-.38-.23-.11-.11-.16-.25-.16-.41,0-.08.01-.16.04-.23.02-.07.06-.15.12-.22.06-.08.15-.13.27-.18.12-.04.26-.06.43-.06.25,0,.5.05.76.16l-.06.35s-.02-.01-.06-.03c-.04-.02-.06-.03-.06-.03,0,0-.02-.01-.06-.03-.03-.01-.06-.02-.07-.03-.01,0-.03-.01-.06-.02-.03-.01-.05-.02-.07-.02-.02,0-.04,0-.08-.02-.03,0-.06-.01-.09-.02-.03,0-.06,0-.09,0-.03,0-.07,0-.11,0-.16,0-.27.03-.34.1-.07.06-.1.14-.1.22,0,.12.05.2.14.25s.22.09.39.12c.17.03.29.06.35.09.12.06.23.14.32.25.09.11.13.25.13.4,0,.08-.01.16-.04.23-.02.08-.06.15-.12.23-.06.08-.15.14-.27.19s-.26.07-.43.07c-.3,0-.6-.08-.88-.23Z"/><path class="cls-38" d="m85.02,131.92c0-.35.11-.65.34-.89.23-.24.5-.36.81-.36s.6.13.82.38c.22.25.33.55.33.88s-.11.63-.34.86c-.23.23-.5.35-.8.35s-.57-.12-.8-.35c-.23-.23-.34-.52-.34-.87Zm.41-.05c0,.31.07.54.22.69.15.16.32.23.52.23s.37-.08.52-.24c.15-.16.22-.39.22-.69s-.07-.51-.22-.66c-.15-.15-.32-.22-.52-.22s-.36.07-.51.22-.22.37-.22.66Z"/><path class="cls-38" d="m87.89,133.08v-2.35h.38v.37c.2-.27.46-.4.76-.4.13,0,.24.02.33.06.09.04.16.09.21.14s.09.13.11.21.04.16.05.23c0,.07,0,.14,0,.23v1.5h-.41v-1.46c0-.06,0-.11,0-.14s-.01-.08-.03-.15c-.02-.06-.04-.12-.08-.15-.03-.04-.08-.07-.15-.1-.07-.03-.15-.04-.25-.04-.18,0-.32.08-.4.23-.08.16-.13.35-.13.57v1.25h-.41Z"/><rect class="cls-13" x="63.65" y="110.52" width="8.33" height="10.66"/><rect class="cls-13" x="70.14" y="112.04" width="8.33" height="10.66"/><rect class="cls-13" x="76.63" y="113.56" width="8.33" height="10.66"/><rect class="cls-13" x="83.12" y="115.08" width="8.33" height="10.66"/><path class="cls-14" d="m182.3,124.4h-14.59c-.52,0-.95-.42-.95-.95v-9.23c0-.52.42-.95.95-.95h7.84l1.5-1.35h5.26c.52,0,.95.42.95.95v10.58c0,.52-.42.95-.95.95Z"/><rect class="cls-18" x="173.16" y="117.39" width="12.61" height="16.13"/><rect class="cls-21" x="179.78" y="125.99" width="5.15" height="5.15"/><rect class="cls-20" x="180.57" y="119.38" width="4.09" height="4.09"/><rect class="cls-22" x="173.91" y="125.99" width="5.15" height="5.15"/><line class="cls-4" x1="179.02" y1="128.56" x2="179.78" y2="128.56"/><line class="cls-6" x1="131.85" y1="20.75" x2="143.11" y2="20.75"/><polygon class="cls-38" points="140.63 23.81 140.12 23.26 142.82 20.75 140.12 18.23 140.63 17.68 143.93 20.75 140.63 23.81"/><line class="cls-6" x1="104.95" y1="20.75" x2="93.69" y2="20.75"/><polygon class="cls-38" points="96.18 17.68 96.69 18.23 93.98 20.74 96.69 23.26 96.18 23.81 92.88 20.74 96.18 17.68"/><path class="cls-38" d="m60.74,97.81c0-.53.14-.97.42-1.34.28-.36.61-.54,1.01-.54s.79.15,1.16.44v-2.57h.6v5.78h-.62v-.41c-.35.34-.74.5-1.18.5-.4,0-.73-.19-.99-.56s-.39-.81-.39-1.3Zm.62,0c0,.47.11.82.34,1.04.22.22.47.33.74.33.22,0,.42-.08.59-.23s.26-.3.26-.44v-1.53c0-.1-.06-.2-.17-.31-.17-.16-.37-.24-.59-.24h-.02c-.13,0-.25.02-.38.07-.12.05-.25.12-.37.22s-.22.24-.3.43-.11.4-.11.65Z"/><path class="cls-38" d="m64.94,98.67c0-.2.08-.37.22-.52.15-.15.34-.26.59-.33s.48-.12.71-.16c.23-.04.46-.05.7-.05v-.27c-.01-.34-.08-.59-.21-.74-.13-.16-.3-.24-.51-.24-.41,0-.81.14-1.2.41l-.05-.54c.4-.23.82-.35,1.25-.35.37,0,.68.12.92.36s.38.54.4.88v2.44h-.61v-.28s-.07.06-.15.1-.23.1-.45.17-.47.1-.73.1c-.3,0-.53-.11-.68-.32-.15-.22-.23-.44-.23-.67Zm.57-.02c0,.15.07.27.21.37.14.1.32.15.53.15.23,0,.44-.05.62-.15.18-.1.28-.26.28-.5v-.51c-.16,0-.33.01-.5.03-.17.02-.35.05-.53.1-.18.04-.33.11-.44.2s-.17.2-.17.31Z"/><path class="cls-38" d="m68.57,96.49v-.47h.69v-1.01h.56v1.01h1.13v.47h-1.13v1.97c0,.46.14.7.43.7.22,0,.46-.09.7-.26l.13.47c-.38.2-.77.3-1.18.3-.44,0-.66-.34-.66-1.03v-2.15h-.67Z"/><path class="cls-38" d="m71.67,98.67c0-.2.08-.37.22-.52.15-.15.34-.26.59-.33s.48-.12.71-.16c.23-.04.46-.05.7-.05v-.27c-.01-.34-.08-.59-.21-.74-.13-.16-.3-.24-.51-.24-.41,0-.81.14-1.2.41l-.05-.54c.4-.23.82-.35,1.25-.35.37,0,.68.12.92.36s.38.54.4.88v2.44h-.61v-.28s-.07.06-.15.1-.23.1-.45.17-.47.1-.73.1c-.3,0-.53-.11-.68-.32-.15-.22-.23-.44-.23-.67Zm.57-.02c0,.15.07.27.21.37.14.1.32.15.53.15.23,0,.44-.05.62-.15.18-.1.28-.26.28-.5v-.51c-.16,0-.33.01-.5.03-.17.02-.35.05-.53.1-.18.04-.33.11-.44.2s-.17.2-.17.31Z"/><path class="cls-38" d="m75.8,99.58v-5.78h.6v2.61c.39-.31.82-.47,1.28-.47.38,0,.69.18.94.55.25.37.37.8.37,1.29,0,.54-.15.99-.44,1.35-.29.36-.64.54-1.05.54-.38,0-.73-.15-1.07-.46v.37h-.62Zm.62-1.07s0,.07,0,.1c0,.02,0,.05.02.07s.02.04.02.05.02.03.04.05c.02.03.04.05.05.07.18.21.4.32.66.32.28,0,.55-.11.79-.33.24-.22.36-.57.36-1.04,0-.25-.03-.47-.1-.65-.07-.19-.16-.33-.28-.43-.11-.1-.23-.17-.35-.21s-.23-.07-.35-.07c-.21,0-.4.06-.58.18-.18.12-.27.26-.27.41v1.49Z"/><path class="cls-38" d="m79.64,98.67c0-.2.08-.37.22-.52.15-.15.34-.26.59-.33s.48-.12.71-.16c.23-.04.46-.05.7-.05v-.27c-.01-.34-.08-.59-.21-.74-.13-.16-.3-.24-.51-.24-.41,0-.81.14-1.2.41l-.05-.54c.4-.23.82-.35,1.25-.35.37,0,.68.12.92.36s.38.54.4.88v2.44h-.61v-.28s-.07.06-.15.1-.23.1-.45.17-.47.1-.73.1c-.3,0-.53-.11-.68-.32-.15-.22-.23-.44-.23-.67Zm.57-.02c0,.15.07.27.21.37.14.1.32.15.53.15.23,0,.44-.05.62-.15.18-.1.28-.26.28-.5v-.51c-.16,0-.33.01-.5.03-.17.02-.35.05-.53.1-.18.04-.33.11-.44.2s-.17.2-.17.31Z"/><path class="cls-38" d="m83.34,99.31l.1-.54s.04.03.1.06.1.06.13.08c.03.02.08.04.14.07s.13.06.18.08c.06.02.12.04.19.06.07.02.15.04.24.04s.17.01.26.01c.27,0,.46-.06.57-.17s.17-.24.17-.38-.05-.24-.14-.33-.2-.15-.31-.18c-.05-.02-.17-.04-.36-.08-.19-.04-.32-.07-.41-.1-.22-.07-.41-.19-.58-.36-.17-.17-.25-.38-.25-.63,0-.12.02-.24.05-.35s.1-.22.19-.34.22-.21.41-.27c.18-.07.4-.1.66-.1.38,0,.77.08,1.16.25l-.08.53s-.04-.02-.09-.04c-.06-.02-.09-.04-.09-.05s-.04-.02-.09-.04c-.05-.02-.08-.03-.1-.04s-.05-.02-.1-.04c-.05-.02-.08-.03-.11-.03-.03,0-.07-.01-.12-.02-.05-.01-.1-.02-.13-.02-.04,0-.09,0-.14,0-.05,0-.11,0-.17,0-.25,0-.42.05-.52.15-.1.1-.15.21-.15.34,0,.18.07.3.21.38s.34.14.6.18.44.09.54.14c.19.09.35.21.49.39.13.17.2.38.2.62,0,.12-.02.24-.05.36-.04.12-.1.23-.19.35-.09.12-.22.21-.41.28-.18.07-.4.11-.65.11-.47,0-.92-.12-1.35-.36Z"/><path class="cls-38" d="m86.47,97.77c0-.53.16-.97.48-1.33.32-.36.7-.54,1.13-.54.16,0,.31.03.46.08s.29.13.44.25c.15.12.27.29.37.53.1.23.15.51.17.84v.23h-2.48c.02.4.14.73.37.98.23.25.5.38.82.38.41,0,.81-.15,1.21-.44l.05.53c-.41.27-.83.41-1.27.41-.51,0-.92-.19-1.25-.56-.33-.38-.49-.82-.49-1.33Zm.6-.4h1.98c-.03-.21-.09-.38-.17-.53-.08-.14-.18-.25-.28-.31-.1-.06-.2-.1-.28-.12-.08-.02-.16-.03-.24-.03-.27,0-.49.1-.67.31-.18.21-.29.43-.34.67Z"/><path class="cls-38" d="m89.96,99.31l.1-.54s.04.03.1.06.1.06.13.08c.03.02.08.04.14.07s.13.06.18.08c.06.02.12.04.19.06.07.02.15.04.24.04s.17.01.26.01c.27,0,.46-.06.57-.17s.17-.24.17-.38-.05-.24-.14-.33-.2-.15-.31-.18c-.05-.02-.17-.04-.36-.08-.19-.04-.32-.07-.41-.1-.22-.07-.41-.19-.58-.36-.17-.17-.25-.38-.25-.63,0-.12.02-.24.05-.35s.1-.22.19-.34.22-.21.41-.27c.18-.07.4-.1.66-.1.38,0,.77.08,1.16.25l-.08.53s-.04-.02-.09-.04c-.06-.02-.09-.04-.09-.05s-.04-.02-.09-.04c-.05-.02-.08-.03-.1-.04s-.05-.02-.1-.04c-.05-.02-.08-.03-.11-.03-.03,0-.07-.01-.12-.02-.05-.01-.1-.02-.13-.02-.04,0-.09,0-.14,0-.05,0-.11,0-.17,0-.25,0-.42.05-.52.15-.1.1-.15.21-.15.34,0,.18.07.3.21.38s.34.14.6.18.44.09.54.14c.19.09.35.21.49.39.13.17.2.38.2.62,0,.12-.02.24-.05.36-.04.12-.1.23-.19.35-.09.12-.22.21-.41.28-.18.07-.4.11-.65.11-.47,0-.92-.12-1.35-.36Z"/><path class="cls-38" d="m116.4,97.77c0-.53.16-.97.48-1.33.32-.36.7-.54,1.13-.54.16,0,.31.03.46.08s.29.13.44.25c.15.12.27.29.37.53.1.23.15.51.17.84v.23h-2.48c.02.4.14.73.37.98.23.25.5.38.82.38.41,0,.81-.15,1.21-.44l.05.53c-.41.27-.83.41-1.27.41-.51,0-.93-.19-1.25-.56-.33-.38-.49-.82-.49-1.33Zm.6-.4h1.98c-.03-.21-.09-.38-.17-.53-.08-.14-.18-.25-.28-.31-.1-.06-.2-.1-.28-.12-.08-.02-.16-.03-.24-.03-.27,0-.5.1-.67.31-.18.21-.29.43-.34.67Z"/><path class="cls-38" d="m120.32,99.58v-3.6h.58v.57c.31-.41.7-.61,1.17-.61.2,0,.37.03.51.09.14.06.25.13.32.22s.13.19.17.32c.04.13.07.25.08.35,0,.1.02.22.02.36v2.3h-.62v-2.24c0-.09,0-.16,0-.22,0-.05-.02-.13-.05-.23-.03-.1-.07-.18-.12-.24s-.13-.11-.23-.16c-.1-.05-.23-.07-.38-.07-.28,0-.49.12-.62.36-.13.24-.19.53-.19.87v1.92h-.62Z"/><path class="cls-38" d="m124.03,100.15c0-.35.17-.62.51-.83-.13-.19-.2-.39-.2-.6,0-.24.08-.47.23-.68h0c-.18-.24-.27-.5-.27-.81,0-.38.12-.69.38-.93.25-.25.54-.37.88-.37.28,0,.54.09.8.27l-.02-.02c.4-.16.81-.25,1.26-.25l.09.49c-.16-.02-.32-.02-.47-.02-.02,0-.21.01-.6.03l-.07-.06c.21.29.31.57.31.86,0,.35-.12.66-.37.92-.25.26-.55.4-.92.4-.23,0-.47-.08-.72-.24-.08.12-.12.22-.12.3,0,.11.03.21.1.3.06.09.18.13.36.13h.61c.19,0,.35,0,.48.02.13.01.29.04.49.09s.36.13.49.25c.13.12.22.27.27.46.03.11.04.2.04.29,0,.31-.17.57-.52.77s-.77.31-1.26.31-.91-.1-1.25-.31c-.34-.21-.51-.46-.51-.77Zm.56,0c0,.14.07.26.21.36.14.1.3.17.47.21.17.04.34.06.51.06.34,0,.63-.06.87-.17.24-.12.36-.27.36-.45,0-.37-.4-.56-1.21-.56h-.73c-.15.02-.27.09-.36.19s-.13.23-.13.35Zm.28-2.91c0,.26.07.46.2.62.13.15.31.23.53.23.18,0,.35-.07.49-.2.15-.13.22-.35.22-.66,0-.26-.07-.46-.2-.62-.13-.15-.3-.23-.52-.23-.18,0-.35.07-.49.2-.15.13-.22.35-.22.66Z"/><path class="cls-38" d="m128.41,94.86v-.71h.72v.71h-.72Zm.05,4.72v-3.56h.54v3.56h-.54Z"/><path class="cls-38" d="m130.36,99.58v-3.6h.58v.57c.31-.41.7-.61,1.17-.61.2,0,.37.03.51.09.14.06.25.13.32.22s.13.19.17.32c.04.13.07.25.08.35,0,.1.02.22.02.36v2.3h-.62v-2.24c0-.09,0-.16,0-.22,0-.05-.02-.13-.05-.23-.03-.1-.07-.18-.12-.24s-.13-.11-.23-.16c-.1-.05-.23-.07-.38-.07-.28,0-.49.12-.62.36-.13.24-.19.53-.19.87v1.92h-.62Z"/><path class="cls-38" d="m134.13,97.77c0-.53.16-.97.48-1.33.32-.36.7-.54,1.13-.54.16,0,.31.03.46.08s.29.13.44.25c.15.12.27.29.37.53.1.23.15.51.17.84v.23h-2.48c.02.4.14.73.37.98.23.25.5.38.82.38.41,0,.81-.15,1.21-.44l.05.53c-.41.27-.83.41-1.27.41-.51,0-.93-.19-1.25-.56-.33-.38-.49-.82-.49-1.33Zm.6-.4h1.98c-.03-.21-.09-.38-.17-.53-.08-.14-.18-.25-.28-.31-.1-.06-.2-.1-.28-.12-.08-.02-.16-.03-.24-.03-.27,0-.5.1-.67.31-.18.21-.29.43-.34.67Z"/><path class="cls-38" d="m137.62,99.31l.1-.54s.04.03.1.06c.06.04.1.06.13.08.03.02.08.04.14.07s.13.06.18.08c.06.02.12.04.2.06.07.02.15.04.24.04.08,0,.17.01.26.01.27,0,.46-.06.57-.17s.17-.24.17-.38-.05-.24-.15-.33-.2-.15-.3-.18c-.05-.02-.17-.04-.36-.08-.19-.04-.32-.07-.41-.1-.22-.07-.41-.19-.58-.36s-.25-.38-.25-.63c0-.12.02-.24.05-.35.04-.11.1-.22.19-.34.09-.11.22-.21.41-.27.18-.07.4-.1.66-.1.38,0,.77.08,1.16.25l-.08.53s-.04-.02-.09-.04c-.05-.02-.09-.04-.09-.05,0,0-.04-.02-.09-.04-.05-.02-.08-.03-.1-.04s-.05-.02-.1-.04c-.05-.02-.08-.03-.11-.03-.03,0-.07-.01-.12-.02-.05-.01-.1-.02-.14-.02-.04,0-.08,0-.14,0s-.11,0-.17,0c-.25,0-.42.05-.52.15s-.15.21-.15.34c0,.18.07.3.21.38.14.08.34.14.6.18s.44.09.54.14c.19.09.35.21.49.39.13.17.2.38.2.62,0,.12-.02.24-.05.36-.04.12-.1.23-.19.35-.09.12-.22.21-.41.28-.18.07-.4.11-.65.11-.47,0-.92-.12-1.35-.36Z"/><path class="cls-38" d="m108.67,40.64c0-.5.16-.94.48-1.32s.75-.58,1.28-.58c.25,0,.46.02.62.07s.37.14.62.28l-.1.53c-.26-.16-.46-.27-.6-.31-.15-.04-.34-.06-.55-.06-.36,0-.64.14-.84.41-.2.28-.29.6-.29.98,0,.4.1.72.31.98s.48.38.81.38c.42,0,.84-.14,1.26-.43l.04.53c-.42.27-.86.4-1.3.41-.49,0-.9-.18-1.24-.55-.33-.37-.5-.81-.5-1.32Z"/><path class="cls-38" d="m112.18,40.66c0-.54.17-.99.52-1.36s.76-.56,1.24-.56.92.19,1.25.58c.33.39.5.84.5,1.35s-.18.97-.53,1.32-.76.53-1.23.53-.88-.18-1.23-.53-.53-.8-.53-1.32Zm.62-.08c0,.47.11.82.34,1.06s.49.36.79.36.56-.12.79-.36.34-.6.34-1.06-.11-.79-.34-1.01-.49-.34-.79-.34-.56.11-.79.34-.34.56-.34,1.01Z"/><path class="cls-38" d="m116.58,42.43v-3.6h.58v.57c.31-.41.7-.61,1.17-.61.2,0,.37.03.51.09s.25.13.32.22.13.19.17.32.07.25.08.35.02.22.02.36v2.3h-.62v-2.24c0-.09,0-.16,0-.22,0-.05-.02-.13-.05-.23s-.07-.18-.12-.24-.13-.11-.23-.16-.23-.07-.38-.07c-.28,0-.49.12-.62.36-.13.24-.19.53-.19.87v1.92h-.62Z"/><path class="cls-38" d="m120.29,39.34v-.47h.59v-.59s0-.05,0-.1,0-.07,0-.1c0-.49.13-.87.4-1.14s.58-.4.94-.4c.2,0,.41.03.63.09v.55c-.23-.09-.45-.14-.65-.14-.18,0-.35.05-.51.16s-.24.3-.24.57v1.09h.91v.47h-.88v3.09h-.6v-3.09h-.59Z"/><path class="cls-38" d="m123.1,37.71v-.71h.72v.71h-.72Zm.05,4.72v-3.56h.54v3.56h-.54Z"/><path class="cls-38" d="m124.64,43c0-.35.17-.62.51-.83-.13-.19-.2-.39-.2-.6,0-.24.08-.47.23-.68h0c-.18-.24-.27-.5-.27-.81,0-.38.12-.69.38-.93.25-.25.54-.37.88-.37.28,0,.54.09.8.27l-.02-.02c.4-.16.81-.25,1.26-.25l.09.49c-.16-.02-.32-.02-.47-.02-.02,0-.21.01-.6.03l-.07-.06c.21.29.31.57.31.86,0,.35-.12.66-.37.92-.25.26-.55.4-.92.4-.23,0-.47-.08-.72-.24-.08.12-.12.22-.12.3,0,.11.03.21.1.3s.18.13.36.13h.61c.19,0,.35,0,.48.02.13.01.29.04.49.09s.36.13.49.25c.13.12.22.27.27.46.03.11.04.2.04.29,0,.31-.17.57-.52.77-.35.21-.77.31-1.26.31s-.91-.1-1.25-.31c-.34-.21-.51-.46-.51-.77Zm.56,0c0,.14.07.26.21.36.14.1.3.17.47.21.17.04.34.06.51.06.34,0,.63-.06.87-.17s.36-.27.36-.45c0-.37-.4-.56-1.21-.56h-.73c-.15.02-.27.09-.36.19-.09.11-.13.23-.13.35Zm.28-2.91c0,.26.07.46.2.62s.31.23.53.23c.18,0,.35-.07.49-.2.15-.13.22-.35.22-.66,0-.26-.06-.46-.2-.62-.13-.15-.3-.23-.52-.23-.18,0-.35.07-.49.2-.15.13-.22.35-.22.66Z"/><path class="cls-38" d="m112.18,48.94v-.47h.59v-.59s0-.05,0-.1,0-.07,0-.1c0-.49.13-.87.4-1.14s.58-.4.94-.4c.2,0,.41.03.63.09v.55c-.23-.09-.45-.14-.65-.14-.18,0-.35.05-.51.16s-.24.3-.24.57v1.09h.91v.47h-.88v3.09h-.6v-3.09h-.59Z"/><path class="cls-38" d="m115,47.31v-.71h.72v.71h-.72Zm.05,4.72v-3.56h.54v3.56h-.54Z"/><path class="cls-38" d="m116.96,52.03v-5.78h.6v5.78h-.6Z"/><path class="cls-38" d="m118.5,50.22c0-.53.16-.97.48-1.33.32-.36.7-.54,1.13-.54.16,0,.31.03.46.08s.29.13.44.25.27.29.37.53.15.51.17.84v.23h-2.48c.02.4.14.73.37.98s.5.38.82.38c.41,0,.81-.15,1.21-.44l.05.53c-.41.27-.83.41-1.27.41-.51,0-.93-.19-1.25-.56-.33-.38-.49-.82-.49-1.33Zm.6-.4h1.98c-.03-.21-.09-.38-.17-.53-.08-.14-.18-.25-.28-.31-.1-.06-.2-.1-.28-.12-.08-.02-.16-.03-.24-.03-.27,0-.49.1-.67.31s-.29.43-.34.67Z"/><path class="cls-38" d="m121.99,51.76l.1-.54s.04.03.1.06c.06.04.1.06.13.08.03.02.08.04.14.07s.13.06.18.08c.06.02.12.04.19.06.07.02.15.04.24.04.08,0,.17.01.26.01.27,0,.46-.06.57-.17.12-.11.17-.24.17-.38s-.05-.24-.14-.33c-.1-.09-.2-.15-.31-.18-.05-.02-.17-.04-.36-.08-.19-.04-.32-.07-.41-.1-.22-.07-.41-.19-.58-.36-.17-.17-.25-.38-.25-.63,0-.12.02-.24.05-.35.04-.11.1-.22.19-.34.09-.11.22-.21.41-.27.18-.07.4-.1.66-.1.38,0,.77.08,1.16.25l-.08.53s-.04-.02-.09-.04c-.05-.02-.09-.04-.09-.05s-.04-.02-.09-.04c-.05-.02-.08-.03-.1-.04s-.05-.02-.1-.04c-.05-.02-.08-.03-.11-.03-.03,0-.07-.01-.12-.02-.05-.01-.1-.02-.14-.02-.04,0-.08,0-.14,0-.05,0-.11,0-.17,0-.25,0-.42.05-.52.15s-.15.21-.15.34c0,.18.07.3.21.38.14.08.34.14.6.18s.44.09.54.14c.19.09.35.21.49.39.13.17.2.38.2.62,0,.12-.02.24-.05.36-.04.12-.1.23-.19.35-.09.12-.22.21-.41.28-.18.07-.4.11-.65.11-.47,0-.92-.12-1.35-.36Z"/><path class="cls-38" d="m5.22,94.86v-.71h.72v.71h-.72Zm.05,4.72v-3.56h.54v3.56h-.54Z"/><path class="cls-38" d="m7.18,99.58v-3.6h.58v.57c.31-.41.7-.61,1.17-.61.2,0,.37.03.51.09.14.06.25.13.32.22s.13.19.17.32c.04.13.07.25.08.35.01.1.02.22.02.36v2.3h-.62v-2.24c0-.09,0-.16,0-.22,0-.05-.02-.13-.05-.23-.03-.1-.07-.18-.12-.24s-.13-.11-.23-.16c-.1-.05-.23-.07-.38-.07-.28,0-.49.12-.62.36-.13.24-.19.53-.19.87v1.92h-.62Z"/><path class="cls-38" d="m11.32,101.13v-5.12h.6v.39c.39-.31.83-.47,1.33-.47.37,0,.67.18.9.55.24.37.36.8.36,1.29,0,.55-.15,1-.44,1.36-.29.35-.64.53-1.04.53s-.75-.15-1.08-.46v1.93h-.62Zm.62-2.57c0,.12.08.25.23.39.15.14.33.22.55.22.3,0,.57-.13.8-.38.24-.26.36-.59.36-.99,0-.36-.1-.68-.3-.94-.2-.27-.46-.4-.78-.4-.06,0-.12,0-.17.01-.05,0-.1.02-.15.04-.04.02-.09.04-.13.06-.04.02-.08.04-.11.06s-.07.05-.09.07c-.03.02-.05.05-.08.07-.02.03-.04.05-.06.06-.01.02-.03.03-.04.05l-.02.03v1.66Z"/><path class="cls-38" d="m15.44,98.6v-2.58h.62v2.68c0,.19.05.32.13.4s.25.12.51.12c.28,0,.5-.07.67-.22.17-.15.26-.32.29-.51,0-.05,0-.13,0-.23v-2.24h.62v3.56h-.61v-.38c-.36.31-.83.47-1.4.47-.16,0-.29-.03-.41-.08s-.2-.11-.25-.17c-.06-.06-.1-.15-.13-.27-.03-.11-.04-.21-.05-.27,0-.07,0-.16,0-.28Z"/><path class="cls-38" d="m19.08,96.49v-.47h.69v-1.01h.56v1.01h1.13v.47h-1.13v1.97c0,.46.14.7.43.7.22,0,.46-.09.7-.26l.13.47c-.38.2-.77.3-1.18.3-.44,0-.66-.34-.66-1.03v-2.15h-.67Z"/><path class="cls-38" d="m24.7,96.49v-.47h.59v-.59s0-.05,0-.1c0-.04,0-.07,0-.1,0-.49.13-.87.4-1.14s.58-.4.94-.4c.2,0,.41.03.63.09v.55c-.23-.09-.45-.14-.65-.14-.18,0-.35.05-.51.16-.16.11-.24.3-.24.57v1.09h.91v.47h-.88v3.09h-.6v-3.09h-.59Z"/><path class="cls-38" d="m27.51,94.86v-.71h.72v.71h-.72Zm.05,4.72v-3.56h.54v3.56h-.54Z"/><path class="cls-38" d="m29.48,99.58v-5.78h.6v5.78h-.6Z"/><path class="cls-38" d="m31.01,97.77c0-.53.16-.97.48-1.33.32-.36.7-.54,1.13-.54.16,0,.31.03.46.08s.29.13.44.25c.15.12.27.29.37.53.1.23.15.51.17.84v.23h-2.48c.02.4.14.73.37.98.23.25.5.38.82.38.41,0,.81-.15,1.21-.44l.05.53c-.41.27-.83.41-1.27.41-.51,0-.92-.19-1.25-.56-.33-.38-.49-.82-.49-1.33Zm.6-.4h1.98c-.03-.21-.09-.38-.17-.53-.08-.14-.18-.25-.28-.31-.1-.06-.2-.1-.28-.12-.08-.02-.16-.03-.24-.03-.27,0-.49.1-.67.31-.18.21-.29.43-.34.67Z"/><path class="cls-38" d="m34.51,99.31l.1-.54s.04.03.1.06.1.06.13.08c.03.02.08.04.14.07s.13.06.18.08c.06.02.12.04.19.06.07.02.15.04.24.04s.17.01.26.01c.27,0,.46-.06.57-.17s.17-.24.17-.38-.05-.24-.14-.33-.2-.15-.31-.18c-.05-.02-.17-.04-.36-.08-.19-.04-.32-.07-.41-.1-.22-.07-.41-.19-.58-.36-.17-.17-.25-.38-.25-.63,0-.12.02-.24.05-.35s.1-.22.19-.34.22-.21.41-.27c.18-.07.4-.1.66-.1.38,0,.77.08,1.16.25l-.08.53s-.04-.02-.09-.04c-.06-.02-.09-.04-.09-.05s-.04-.02-.09-.04c-.05-.02-.08-.03-.1-.04s-.05-.02-.1-.04c-.05-.02-.08-.03-.11-.03-.03,0-.07-.01-.12-.02-.05-.01-.1-.02-.13-.02-.04,0-.09,0-.14,0-.05,0-.11,0-.17,0-.25,0-.42.05-.52.15-.1.1-.15.21-.15.34,0,.18.07.3.21.38s.34.14.6.18.44.09.54.14c.19.09.35.21.49.39.13.17.2.38.2.62,0,.12-.02.24-.05.36-.04.12-.1.23-.19.35-.09.12-.22.21-.41.28-.18.07-.4.11-.65.11-.47,0-.92-.12-1.35-.36Z"/><path class="cls-38" d="m55.06,145.22l.1-.54s.04.03.1.06.1.06.13.08c.03.02.08.04.14.07s.13.06.18.08c.06.02.12.04.19.06.07.02.15.04.24.04s.17.01.26.01c.27,0,.46-.06.57-.17s.17-.24.17-.38-.05-.24-.14-.33-.2-.15-.31-.18c-.05-.02-.17-.04-.36-.08-.19-.04-.32-.07-.41-.1-.22-.07-.41-.19-.58-.36-.17-.17-.25-.38-.25-.63,0-.12.02-.24.05-.35s.1-.22.19-.34.22-.21.41-.27c.18-.07.4-.1.66-.1.38,0,.77.08,1.16.25l-.08.53s-.04-.02-.09-.04c-.06-.02-.09-.04-.09-.05s-.04-.02-.09-.04c-.05-.02-.08-.03-.1-.04s-.05-.02-.1-.04c-.05-.02-.08-.03-.11-.03-.03,0-.07-.01-.12-.02-.05-.01-.1-.02-.13-.02-.04,0-.09,0-.14,0-.05,0-.11,0-.17,0-.25,0-.42.05-.52.15-.1.1-.15.21-.15.34,0,.18.07.3.21.38s.34.14.6.18.44.09.54.14c.19.09.35.21.49.39.13.17.2.38.2.62,0,.12-.02.24-.05.36-.04.12-.1.23-.19.35-.09.12-.22.21-.41.28-.18.07-.4.11-.65.11-.47,0-.92-.12-1.35-.36Z"/><path class="cls-38" d="m58.55,144.51v-2.58h.62v2.68c0,.19.05.32.13.4s.25.12.51.12c.28,0,.5-.07.67-.22.17-.15.26-.32.29-.51,0-.05,0-.13,0-.23v-2.24h.62v3.56h-.61v-.38c-.36.31-.83.47-1.4.47-.16,0-.29-.03-.41-.08s-.2-.11-.25-.17c-.06-.06-.1-.15-.13-.27-.03-.11-.04-.21-.05-.27,0-.07,0-.16,0-.28Z"/><path class="cls-38" d="m62.69,145.48v-5.78h.6v2.61c.39-.31.82-.47,1.28-.47.38,0,.69.18.94.55.25.37.37.8.37,1.29,0,.54-.15.99-.44,1.35-.29.36-.64.54-1.05.54-.38,0-.73-.15-1.07-.46v.37h-.62Zm.62-1.07s0,.07,0,.1c0,.02,0,.05.02.07s.02.04.02.05.02.03.04.05c.02.03.04.05.05.07.18.21.4.32.66.32.28,0,.55-.11.79-.33.24-.22.36-.57.36-1.04,0-.25-.03-.47-.1-.65-.07-.19-.16-.33-.28-.43-.11-.1-.23-.17-.35-.21s-.23-.07-.35-.07c-.21,0-.4.06-.58.18-.18.12-.27.26-.27.41v1.49Z"/><path class="cls-38" d="m66.81,145.48v-3.6h.58v.57c.31-.41.7-.61,1.17-.61.52,0,.86.22,1.02.66.33-.44.73-.66,1.21-.66.2,0,.38.03.52.1.15.07.25.14.32.23s.13.2.17.34.06.25.07.34c0,.09,0,.2,0,.32v2.3h-.62v-2.29s0-.06-.02-.13c0-.06-.02-.12-.04-.18-.02-.06-.05-.12-.08-.19-.04-.07-.08-.13-.14-.18-.05-.05-.12-.09-.21-.13-.08-.04-.18-.05-.29-.05-.28,0-.49.12-.62.36-.13.24-.2.53-.2.87v1.92h-.62v-2.24c0-.09,0-.16,0-.22,0-.05-.02-.13-.05-.23-.03-.1-.07-.18-.12-.24s-.13-.11-.23-.16c-.1-.05-.23-.07-.38-.07-.28,0-.49.12-.62.36-.13.24-.19.53-.19.87v1.92h-.62Z"/><path class="cls-38" d="m73.12,140.77v-.71h.72v.71h-.72Zm.05,4.72v-3.56h.54v3.56h-.54Z"/><path class="cls-38" d="m74.58,142.4v-.47h.69v-1.01h.56v1.01h1.13v.47h-1.13v1.97c0,.46.14.7.43.7.22,0,.46-.09.7-.26l.13.47c-.38.2-.77.3-1.18.3-.44,0-.66-.34-.66-1.03v-2.15h-.67Z"/><path class="cls-38" d="m77.77,147.24s.02-.12.07-.27l2.53-7.25c.05-.15.14-.23.26-.23.07,0,.12.02.17.07s.07.1.07.17c0,.04-.02.11-.05.23l-2.54,7.29c-.06.16-.15.24-.26.24-.06,0-.12-.02-.17-.07s-.07-.11-.07-.18Z"/><path class="cls-38" d="m81.97,147.04v-5.12h.6v.39c.39-.31.83-.47,1.33-.47.37,0,.67.18.9.55.24.37.36.8.36,1.29,0,.55-.15,1-.44,1.36-.29.35-.64.53-1.04.53s-.75-.15-1.08-.46v1.93h-.62Zm.62-2.57c0,.12.08.25.23.39.15.14.33.22.55.22.3,0,.57-.13.8-.38.24-.26.36-.59.36-.99,0-.36-.1-.68-.3-.94-.2-.27-.46-.4-.78-.4-.06,0-.12,0-.17.01-.05,0-.1.02-.15.04-.04.02-.09.04-.13.06-.04.02-.08.04-.11.06s-.07.05-.09.07c-.03.02-.05.05-.08.07-.02.03-.04.05-.06.06-.01.02-.03.03-.04.05l-.02.03v1.66Z"/><path class="cls-38" d="m85.8,144.58c0-.2.08-.37.22-.52.15-.15.34-.26.59-.33s.48-.12.71-.16c.23-.04.46-.05.7-.05v-.27c-.01-.34-.08-.59-.21-.74-.13-.16-.3-.24-.51-.24-.41,0-.81.14-1.2.41l-.05-.54c.4-.23.82-.35,1.25-.35.37,0,.68.12.92.36s.38.54.4.88v2.44h-.61v-.28s-.07.06-.15.1-.23.1-.45.17-.47.1-.73.1c-.3,0-.53-.11-.68-.32-.15-.22-.23-.44-.23-.67Zm.57-.02c0,.15.07.27.21.37.14.1.32.15.53.15.23,0,.44-.05.62-.15.18-.1.28-.26.28-.5v-.51c-.16,0-.33.01-.5.03-.17.02-.35.05-.53.1-.18.04-.33.11-.44.2s-.17.2-.17.31Z"/><path class="cls-38" d="m89.72,145.48v-3.6h.56v.72c.07-.1.14-.2.23-.29s.24-.19.46-.3c.22-.11.45-.16.71-.17v.53c-.14,0-.28.03-.42.08-.14.05-.29.12-.44.22-.15.1-.28.25-.37.45s-.14.44-.14.71v1.65h-.6Z"/><path class="cls-38" d="m92.02,145.22l.1-.54s.04.03.1.06.1.06.13.08c.03.02.08.04.14.07s.13.06.18.08c.06.02.12.04.19.06.07.02.15.04.24.04s.17.01.26.01c.27,0,.46-.06.57-.17s.17-.24.17-.38-.05-.24-.14-.33-.2-.15-.31-.18c-.05-.02-.17-.04-.36-.08-.19-.04-.32-.07-.41-.1-.22-.07-.41-.19-.58-.36-.17-.17-.25-.38-.25-.63,0-.12.02-.24.05-.35s.1-.22.19-.34.22-.21.41-.27c.18-.07.4-.1.66-.1.38,0,.77.08,1.16.25l-.08.53s-.04-.02-.09-.04c-.06-.02-.09-.04-.09-.05s-.04-.02-.09-.04c-.05-.02-.08-.03-.1-.04s-.05-.02-.1-.04c-.05-.02-.08-.03-.11-.03-.03,0-.07-.01-.12-.02-.05-.01-.1-.02-.13-.02-.04,0-.09,0-.14,0-.05,0-.11,0-.17,0-.25,0-.42.05-.52.15-.1.1-.15.21-.15.34,0,.18.07.3.21.38s.34.14.6.18.44.09.54.14c.19.09.35.21.49.39.13.17.2.38.2.62,0,.12-.02.24-.05.36-.04.12-.1.23-.19.35-.09.12-.22.21-.41.28-.18.07-.4.11-.65.11-.47,0-.92-.12-1.35-.36Z"/><path class="cls-38" d="m95.14,143.68c0-.53.16-.97.48-1.33.32-.36.7-.54,1.13-.54.16,0,.31.03.46.08s.29.13.44.25c.15.12.27.29.37.53.1.23.15.51.17.84v.23h-2.48c.02.4.14.73.37.98.23.25.5.38.82.38.41,0,.81-.15,1.21-.44l.05.53c-.41.27-.83.41-1.27.41-.51,0-.92-.19-1.25-.56-.33-.38-.49-.82-.49-1.33Zm.6-.4h1.98c-.03-.21-.09-.38-.17-.53-.08-.14-.18-.25-.28-.31-.1-.06-.2-.1-.28-.12-.08-.02-.16-.03-.24-.03-.27,0-.49.1-.67.31-.18.21-.29.43-.34.67Z"/><path class="cls-38" d="m4.88,141.93h.6c.52,1.64.81,2.7.86,3.16.02-.33.3-1.38.85-3.16h.57l.58,1.95c.19.67.29,1.08.3,1.21.03-.26.32-1.31.89-3.16h.57l-1.1,3.56h-.7c-.36-1.2-.58-1.95-.67-2.26s-.15-.6-.19-.89c-.01.27-.29,1.32-.85,3.15h-.63l-1.1-3.56Z"/><path class="cls-38" d="m10.24,143.72c0-.54.17-.99.52-1.36s.76-.56,1.24-.56.92.19,1.25.58c.33.39.5.84.5,1.35s-.17.97-.53,1.32-.76.53-1.23.53-.88-.18-1.23-.53-.53-.8-.53-1.32Zm.62-.08c0,.47.11.82.34,1.06s.49.36.79.36.56-.12.79-.36.34-.6.34-1.06-.11-.79-.34-1.01-.49-.34-.79-.34-.56.11-.79.34-.34.56-.34,1.01Z"/><path class="cls-38" d="m14.43,145.48v-3.6h.56v.72c.07-.1.14-.2.23-.29s.24-.19.46-.3c.22-.11.45-.16.71-.17v.53c-.14,0-.28.03-.42.08-.14.05-.29.12-.44.22-.15.1-.28.25-.37.45s-.14.44-.14.71v1.65h-.6Z"/><path class="cls-38" d="m17.18,145.48v-5.78h.57v3.89l1.63-1.67h.72l-1.35,1.38,1.52,2.18h-.66l-1.25-1.79-.64.66v1.14h-.56Z"/><path class="cls-38" d="m20.64,142.4v-.47h.59v-.59s0-.05,0-.1,0-.07,0-.1c0-.49.13-.87.4-1.14s.58-.4.94-.4c.2,0,.41.03.63.09v.55c-.23-.09-.45-.14-.65-.14-.18,0-.35.05-.51.16s-.24.3-.24.57v1.09h.91v.47h-.88v3.09h-.6v-3.09h-.59Z"/><path class="cls-38" d="m23.51,145.48v-5.78h.6v5.78h-.6Z"/><path class="cls-38" d="m25.01,143.72c0-.54.17-.99.52-1.36s.76-.56,1.24-.56.92.19,1.25.58c.33.39.5.84.5,1.35s-.17.97-.53,1.32-.76.53-1.23.53-.88-.18-1.23-.53-.53-.8-.53-1.32Zm.62-.08c0,.47.11.82.34,1.06s.49.36.79.36.56-.12.79-.36.34-.6.34-1.06-.11-.79-.34-1.01-.49-.34-.79-.34-.56.11-.79.34-.34.56-.34,1.01Z"/><path class="cls-38" d="m28.67,141.93h.6c.52,1.64.81,2.7.86,3.16.02-.33.3-1.38.85-3.16h.57l.58,1.95c.19.67.29,1.08.3,1.21.03-.26.32-1.31.89-3.16h.57l-1.1,3.56h-.7c-.36-1.2-.58-1.95-.67-2.26s-.15-.6-.19-.89c-.01.27-.29,1.32-.85,3.15h-.63l-1.1-3.56Z"/><path class="cls-38" d="m34.23,145.22l.1-.54s.04.03.1.06.1.06.13.08c.03.02.08.04.14.07s.13.06.18.08c.06.02.12.04.2.06.07.02.15.04.24.04.08,0,.17.01.26.01.27,0,.46-.06.57-.17.12-.11.17-.24.17-.38s-.05-.24-.15-.33c-.1-.09-.2-.15-.3-.18-.05-.02-.17-.04-.36-.08-.19-.04-.32-.07-.41-.1-.22-.07-.41-.19-.58-.36s-.25-.38-.25-.63c0-.12.02-.24.05-.35s.1-.22.19-.34.22-.21.41-.27c.18-.07.4-.1.66-.1.38,0,.77.08,1.16.25l-.08.53s-.04-.02-.09-.04c-.06-.02-.09-.04-.09-.05,0,0-.04-.02-.09-.04-.05-.02-.09-.03-.11-.04s-.05-.02-.1-.04c-.05-.02-.08-.03-.11-.03-.03,0-.07-.01-.12-.02-.05-.01-.1-.02-.13-.02-.04,0-.09,0-.14,0s-.11,0-.17,0c-.25,0-.42.05-.52.15-.1.1-.15.21-.15.34,0,.18.07.3.21.38s.34.14.6.18.44.09.54.14c.19.09.35.21.49.39.13.17.2.38.2.62,0,.12-.02.24-.05.36-.04.12-.1.23-.19.35-.09.12-.22.21-.41.28-.18.07-.4.11-.65.11-.47,0-.92-.12-1.35-.36Z"/><path class="cls-38" d="m165.55,145.48v-3.6h.56v.72c.07-.1.14-.2.23-.29s.24-.19.46-.3c.22-.11.45-.16.71-.17v.53c-.14,0-.28.03-.42.08-.14.05-.29.12-.44.22-.15.1-.28.25-.37.45s-.14.44-.14.71v1.65h-.6Z"/><path class="cls-38" d="m167.91,143.68c0-.53.16-.97.48-1.33.32-.36.7-.54,1.13-.54.16,0,.31.03.46.08s.29.13.44.25c.15.12.27.29.37.53.1.23.15.51.17.84v.23h-2.48c.02.4.14.73.37.98.23.25.5.38.82.38.41,0,.81-.15,1.21-.44l.05.53c-.41.27-.83.41-1.27.41-.51,0-.92-.19-1.25-.56-.33-.38-.49-.82-.49-1.33Zm.6-.4h1.98c-.03-.21-.09-.38-.17-.53-.08-.14-.18-.25-.28-.31-.1-.06-.2-.1-.28-.12-.08-.02-.16-.03-.24-.03-.27,0-.49.1-.67.31-.18.21-.29.43-.34.67Z"/><path class="cls-38" d="m171.47,143.7c0-.5.16-.94.48-1.32s.75-.58,1.28-.58c.25,0,.46.02.62.07.17.05.37.14.62.28l-.1.53c-.26-.16-.46-.27-.6-.31-.15-.04-.34-.06-.55-.06-.36,0-.64.14-.84.41-.2.28-.29.6-.29.98,0,.4.1.72.31.98.21.26.48.38.81.38.42,0,.84-.14,1.26-.43l.04.53c-.42.27-.86.4-1.3.41-.49,0-.9-.18-1.24-.55-.33-.37-.5-.81-.5-1.32Z"/><path class="cls-38" d="m175.33,140.77v-.71h.72v.71h-.72Zm.05,4.72v-3.56h.54v3.56h-.54Z"/><path class="cls-38" d="m177.3,147.04v-5.12h.6v.39c.39-.31.83-.47,1.33-.47.37,0,.67.18.9.55.24.37.36.8.36,1.29,0,.55-.15,1-.44,1.36-.29.35-.64.53-1.04.53s-.75-.15-1.08-.46v1.93h-.62Zm.62-2.57c0,.12.08.25.23.39.15.14.33.22.55.22.3,0,.57-.13.8-.38.24-.26.36-.59.36-.99,0-.36-.1-.68-.3-.94-.2-.27-.46-.4-.78-.4-.06,0-.12,0-.17.01-.05,0-.1.02-.15.04-.04.02-.09.04-.13.06-.04.02-.08.04-.11.06s-.07.05-.09.07c-.03.02-.05.05-.08.07-.02.03-.04.05-.06.06-.01.02-.03.03-.04.05l-.02.03v1.66Z"/><path class="cls-38" d="m181.28,143.68c0-.53.16-.97.48-1.33.32-.36.7-.54,1.13-.54.16,0,.31.03.46.08s.29.13.44.25c.15.12.27.29.37.53.1.23.15.51.17.84v.23h-2.48c.02.4.14.73.37.98.23.25.5.38.82.38.41,0,.81-.15,1.21-.44l.05.53c-.41.27-.83.41-1.27.41-.51,0-.92-.19-1.25-.56-.33-.38-.49-.82-.49-1.33Zm.6-.4h1.98c-.03-.21-.09-.38-.17-.53-.08-.14-.18-.25-.28-.31-.1-.06-.2-.1-.28-.12-.08-.02-.16-.03-.24-.03-.27,0-.49.1-.67.31-.18.21-.29.43-.34.67Z"/><path class="cls-38" d="m184.77,145.22l.1-.54s.04.03.1.06.1.06.13.08c.03.02.08.04.14.07s.13.06.18.08c.06.02.12.04.19.06.07.02.15.04.24.04s.17.01.26.01c.27,0,.46-.06.57-.17s.17-.24.17-.38-.05-.24-.14-.33-.2-.15-.31-.18c-.05-.02-.17-.04-.36-.08-.19-.04-.32-.07-.41-.1-.22-.07-.41-.19-.58-.36-.17-.17-.25-.38-.25-.63,0-.12.02-.24.05-.35s.1-.22.19-.34.22-.21.41-.27c.18-.07.4-.1.66-.1.38,0,.77.08,1.16.25l-.08.53s-.04-.02-.09-.04c-.06-.02-.09-.04-.09-.05s-.04-.02-.09-.04c-.05-.02-.08-.03-.1-.04s-.05-.02-.1-.04c-.05-.02-.08-.03-.11-.03-.03,0-.07-.01-.12-.02-.05-.01-.1-.02-.13-.02-.04,0-.09,0-.14,0-.05,0-.11,0-.17,0-.25,0-.42.05-.52.15-.1.1-.15.21-.15.34,0,.18.07.3.21.38s.34.14.6.18.44.09.54.14c.19.09.35.21.49.39.13.17.2.38.2.62,0,.12-.02.24-.05.36-.04.12-.1.23-.19.35-.09.12-.22.21-.41.28-.18.07-.4.11-.65.11-.47,0-.92-.12-1.35-.36Z"/><path class="cls-38" d="m169.08,99.58v-5.55h.72v2.41h2.72v-2.41h.72v5.55h-.72v-2.64h-2.72v2.64h-.72Z"/><path class="cls-38" d="m174.74,99.58v-5.55h1.89c.49,0,.9.1,1.23.31.24.15.44.34.57.57s.21.47.21.73c0,.42-.17.8-.52,1.14-.34.34-.83.51-1.46.51-.03,0-.07,0-.13,0s-.11,0-.14,0h-.93v2.31h-.72Zm.7-2.78h1.06c.28,0,.52-.04.73-.11.21-.07.36-.17.46-.3s.18-.25.22-.38c.05-.13.07-.25.07-.38,0-.12-.02-.24-.06-.36s-.11-.24-.21-.37-.25-.23-.46-.31c-.21-.08-.46-.12-.75-.12h-1.06v2.33Z"/><path class="cls-38" d="m179.62,96.8c0-.44.08-.85.23-1.22s.35-.69.6-.94c.24-.25.51-.44.81-.58.29-.14.58-.21.87-.21.21,0,.37,0,.49.01.12,0,.28.03.47.07.19.04.4.1.62.19l-.12.66c-.24-.14-.46-.25-.64-.32-.19-.07-.43-.1-.71-.1-.53,0-.98.24-1.35.71s-.54,1.05-.54,1.73.18,1.26.55,1.73c.37.47.82.71,1.37.71.1,0,.2,0,.29-.01.09,0,.17-.02.23-.02.06,0,.13-.03.21-.05.08-.03.13-.05.17-.06.04-.01.09-.04.16-.08.07-.04.12-.07.13-.08.02-.01.07-.04.15-.09.08-.05.13-.08.14-.09l.05.56c-.29.17-.54.29-.74.35s-.48.09-.81.09c-.76,0-1.39-.29-1.88-.88-.49-.59-.74-1.28-.74-2.07Z"/><circle class="cls-17" cx="20.92" cy="114.21" r="3.63"/><circle class="cls-15" cx="30.21" cy="131.24" r="3.63"/><circle class="cls-15" cx="20.92" cy="131.24" r="3.63"/><circle class="cls-15" cx="11.57" cy="131.24" r="3.63"/><path class="cls-7" d="m20.92,117.84v1.17c0,2.01-1.63,3.63-3.63,3.63h-1.31c-2.4,0-4.35,1.95-4.35,4.35v.35"/><polygon class="cls-38" points="10.67 126.51 10.85 126.35 11.64 127.25 12.48 126.4 12.65 126.57 11.63 127.61 10.67 126.51"/><path class="cls-7" d="m20.92,117.84v1.17c0,2.01,1.63,3.63,3.63,3.63h1.31c2.4,0,4.35,1.95,4.35,4.35v.35"/><polygon class="cls-38" points="29.18 126.57 29.36 126.4 30.2 127.25 30.98 126.35 31.16 126.51 30.21 127.61 29.18 126.57"/><line class="cls-7" x1="20.92" y1="117.84" x2="20.92" y2="127.34"/><polygon class="cls-38" points="19.93 126.54 20.11 126.38 20.92 127.25 21.73 126.38 21.91 126.54 20.92 127.61 19.93 126.54"/><path class="cls-44" d="m120.44,80.98c0-.44,0-.79-.03-1.14h.67l.03.68h.03c.24-.4.63-.78,1.32-.78.58,0,1.01.35,1.19.85h.02c.13-.24.3-.42.47-.55.25-.19.53-.3.93-.3.56,0,1.38.37,1.38,1.83v2.48h-.75v-2.39c0-.81-.3-1.3-.92-1.3-.44,0-.78.32-.91.7-.03.1-.06.24-.06.38v2.6h-.75v-2.53c0-.67-.3-1.16-.88-1.16-.48,0-.83.38-.95.77-.04.11-.06.24-.06.38v2.54h-.75v-3.08Z"/><path class="cls-44" d="m128.46,81.77h.02c.1-.15.25-.33.38-.48l1.24-1.46h.92l-1.63,1.73,1.86,2.48h-.93l-1.46-2.02-.39.44v1.59h-.76v-6.19h.76v3.9Z"/><path class="cls-43" d="m132.79,78.65c0,.26-.18.47-.49.47-.27,0-.46-.21-.46-.47s.2-.48.48-.48.47.21.47.48Zm-.85,5.4v-4.22h.77v4.22h-.77Z"/><path class="cls-43" d="m134.9,78.62v1.21h1.1v.58h-1.1v2.27c0,.52.15.82.58.82.2,0,.35-.03.44-.05l.04.57c-.15.06-.38.1-.68.1-.36,0-.65-.11-.83-.32-.22-.23-.3-.6-.3-1.1v-2.3h-.65v-.58h.65v-1.01l.75-.2Z"/><path class="cls-43" d="m137.23,82.08c.02,1.04.68,1.46,1.45,1.46.55,0,.88-.1,1.17-.22l.13.55c-.27.12-.73.26-1.4.26-1.3,0-2.07-.85-2.07-2.13s.75-2.27,1.98-2.27c1.38,0,1.74,1.21,1.74,1.99,0,.16-.02.28-.03.36h-2.96Zm2.25-.55c0-.49-.2-1.25-1.06-1.25-.78,0-1.12.71-1.18,1.25h2.24Z"/><path class="cls-28" d="m128.15,86.6c0,.45.29.63.62.63.24,0,.38-.04.5-.09l.06.24c-.12.05-.32.11-.6.11-.56,0-.89-.37-.89-.92s.32-.98.85-.98c.59,0,.75.52.75.86,0,.07,0,.12-.01.15h-1.28Zm.97-.24c0-.21-.09-.54-.46-.54-.33,0-.48.31-.51.54h.96Z"/><path class="cls-28" d="m129.84,86.12c0-.19,0-.34-.02-.49h.29l.02.3h0c.09-.17.3-.34.6-.34.25,0,.64.15.64.77v1.08h-.33v-1.05c0-.29-.11-.54-.42-.54-.22,0-.39.15-.44.34-.01.04-.02.1-.02.15v1.09h-.33v-1.33Z"/><path class="cls-28" d="m133.49,85.63c0,.13-.01.28-.01.5v1.05c0,.42-.08.67-.26.83-.18.17-.43.22-.66.22s-.46-.05-.6-.15l.08-.25c.12.08.31.14.53.14.34,0,.59-.18.59-.63v-.2h0c-.1.17-.3.3-.58.3-.45,0-.77-.38-.77-.89,0-.62.4-.96.82-.96.32,0,.49.17.57.31h0v-.27h.3Zm-.34.72c0-.06,0-.11-.02-.15-.06-.19-.22-.35-.46-.35-.32,0-.54.27-.54.69,0,.36.18.65.54.65.2,0,.39-.13.46-.34.02-.06.03-.12.03-.18v-.33Z"/><path class="cls-28" d="m134.37,85.12c0,.11-.08.2-.21.2-.12,0-.2-.09-.2-.2s.09-.21.21-.21.2.09.2.21Zm-.37,2.33v-1.82h.33v1.82h-.33Z"/><path class="cls-28" d="m134.88,86.12c0-.19,0-.34-.02-.49h.29l.02.3h0c.09-.17.3-.34.6-.34.25,0,.64.15.64.77v1.08h-.33v-1.05c0-.29-.11-.54-.42-.54-.22,0-.39.15-.44.34-.01.04-.02.1-.02.15v1.09h-.33v-1.33Z"/><path class="cls-28" d="m137.15,86.6c0,.45.29.63.62.63.24,0,.38-.04.5-.09l.06.24c-.12.05-.32.11-.6.11-.56,0-.89-.37-.89-.92s.32-.98.85-.98c.59,0,.75.52.75.86,0,.07,0,.12-.01.15h-1.28Zm.97-.24c0-.21-.09-.54-.46-.54-.33,0-.48.31-.51.54h.96Z"/><path class="cls-28" d="m138.8,87.11c.1.06.27.13.44.13.24,0,.35-.12.35-.27,0-.16-.09-.24-.34-.33-.33-.12-.48-.3-.48-.51,0-.29.24-.53.63-.53.18,0,.34.05.45.11l-.08.24c-.07-.04-.2-.1-.37-.1-.2,0-.3.11-.3.25,0,.15.11.22.34.31.32.12.48.28.48.55,0,.32-.25.54-.68.54-.2,0-.38-.05-.51-.12l.08-.25Z"/><rect class="cls-33" x="114.04" y="60.55" width="26.78" height="16.32"/><path class="cls-30" d="m114.04,76.87h26.78l-11.91-10.84c-.22-.2-.47-.35-.75-.44h-.02c-.45-.16-.94-.16-1.39,0h0c-.27.09-.52.24-.73.44l-11.96,10.85Z"/><path class="cls-32" d="m114.04,60.55h26.78l-11.91,10.84c-.22.2-.47.35-.75.44h-.02c-.45.16-.94.16-1.39,0h0c-.27-.09-.52-.24-.73-.44l-11.96-10.85Z"/><circle class="cls-28" cx="140.03" cy="61.06" r="2.53"/></svg>