<?xml version="1.0" encoding="UTF-8"?><svg id="Layer_2" xmlns="http://www.w3.org/2000/svg" viewBox="0 0 213.19 101.74"><defs><style>.cls-1{fill:#fff;stroke-width:.9px;}.cls-1,.cls-2,.cls-3,.cls-4,.cls-5,.cls-6,.cls-7{stroke:#231f20;stroke-miterlimit:10;}.cls-2{fill:#f2f2f3;stroke-width:.92px;}.cls-8{fill:#231f20;}.cls-3{stroke-width:.48px;}.cls-3,.cls-5,.cls-7{fill:#fac964;}.cls-4{fill:none;stroke-width:.75px;}.cls-5,.cls-6{stroke-width:.5px;}.cls-6{fill:#f47648;}.cls-7{stroke-width:.83px;}</style></defs><g id="Layer_1-2"><line class="cls-4" x1="91.4" y1="28.32" x2="104.65" y2="28.32"/><polygon class="cls-8" points="102.16 31.38 101.65 30.83 104.36 28.32 101.65 25.8 102.16 25.25 105.46 28.32 102.16 31.38"/><line class="cls-4" x1="22.45" y1="28.32" x2="32.25" y2="28.32"/><polygon class="cls-8" points="29.77 31.38 29.25 30.83 31.96 28.32 29.25 25.8 29.77 25.25 33.06 28.32 29.77 31.38"/><line class="cls-4" x1="137.03" y1="28.32" x2="150.27" y2="28.32"/><polygon class="cls-8" points="147.79 31.38 147.28 30.83 149.99 28.32 147.28 25.8 147.79 25.25 151.09 28.32 147.79 31.38"/><line class="cls-4" x1="137.03" y1="77.44" x2="150.27" y2="77.44"/><polygon class="cls-8" points="147.79 80.51 147.28 79.96 149.99 77.44 147.28 74.92 147.79 74.37 151.09 77.44 147.79 80.51"/><line class="cls-4" x1="121.73" y1="44.62" x2="121.73" y2="57.26"/><polygon class="cls-8" points="118.67 54.78 119.21 54.27 121.73 56.98 124.25 54.27 124.8 54.78 121.73 58.08 118.67 54.78"/><line class="cls-4" x1="43.17" y1="55.57" x2="43.17" y2="47.38"/><polygon class="cls-8" points="46.24 49.87 45.69 50.38 43.17 47.67 40.66 50.38 40.11 49.87 43.17 46.57 46.24 49.87"/><line class="cls-4" x1="79.85" y1="55.57" x2="79.85" y2="47.38"/><polygon class="cls-8" points="82.92 49.87 82.37 50.38 79.85 47.67 77.33 50.38 76.78 49.87 79.85 46.57 82.92 49.87"/><rect class="cls-2" x="46.27" y="-.89" width="32" height="58.4" transform="translate(90.58 -33.95) rotate(90)"/><path class="cls-8" d="m45.64,31.27v-8.33h2.65c.55,0,1.04.07,1.47.2s.76.31,1,.53c.24.22.41.44.53.67s.17.46.17.68c0,.4-.17.77-.51,1.12s-.84.6-1.49.77c.64.11,1.19.35,1.65.73.46.38.69.84.69,1.37,0,.58-.25,1.08-.76,1.5-.51.41-1.11.66-1.81.73-.14.02-.34.02-.61.02h-2.97Zm1.01-4.71h1.44c.75,0,1.35-.16,1.78-.47s.65-.66.65-1.05c0-.35-.21-.68-.62-.98s-1.04-.45-1.88-.45h-1.37v.42s-.01,2.53-.01,2.53Zm0,4.04h1.7c.82,0,1.43-.17,1.85-.5.42-.34.62-.7.62-1.09,0-.44-.21-.82-.62-1.13-.42-.31-.92-.5-1.5-.55-.07,0-.28-.01-.62-.01h-1.42v.45s-.01,2.85-.01,2.85Z"/><path class="cls-8" d="m53.45,29.81v-3.87h.94v4.02c0,.28.07.48.2.6.12.12.38.18.76.18.41,0,.75-.11,1-.33.25-.22.4-.48.43-.77,0-.08.01-.19.01-.35v-3.36h.94v5.34h-.91v-.57c-.54.47-1.24.7-2.1.7-.24,0-.44-.04-.61-.11s-.3-.16-.38-.26-.15-.23-.19-.4-.07-.31-.07-.41,0-.24,0-.41Z"/><path class="cls-8" d="m59.58,24.2v-1.07h1.08v1.07h-1.08Zm.08,7.08v-5.34h.81v5.34h-.81Z"/><path class="cls-8" d="m62.53,31.27v-8.67h.9v8.67h-.9Z"/><path class="cls-8" d="m64.84,28.62c0-.79.21-1.46.62-2,.42-.54.92-.81,1.51-.81s1.19.22,1.74.66v-3.86h.9v8.67h-.94v-.62c-.52.5-1.11.76-1.77.76-.59,0-1.09-.28-1.48-.84-.39-.56-.59-1.21-.59-1.95Zm.94-.01c0,.71.17,1.23.5,1.56.33.33.71.5,1.12.5.34,0,.63-.11.89-.34.26-.23.39-.45.39-.65v-2.3c0-.15-.08-.31-.25-.46-.26-.24-.55-.36-.89-.36h-.02c-.19,0-.38.04-.57.11-.19.07-.37.18-.56.33-.18.15-.33.36-.44.64-.11.28-.17.61-.17.98Z"/><path class="cls-8" d="m71.03,28.56c0-.79.24-1.46.72-2,.48-.54,1.05-.81,1.7-.81.24,0,.47.04.68.11s.44.2.66.38.4.44.55.79.23.77.25,1.26v.35h-3.72c.02.6.21,1.09.55,1.47s.75.57,1.22.57c.61,0,1.22-.22,1.82-.66l.08.79c-.61.41-1.24.61-1.9.62-.76,0-1.39-.28-1.88-.85-.49-.56-.74-1.23-.74-2Zm.9-.6h2.98c-.05-.31-.13-.57-.26-.79s-.27-.37-.42-.46-.3-.15-.42-.18c-.12-.03-.24-.05-.35-.05-.41,0-.74.16-1.01.46s-.44.65-.52,1.01Z"/><path class="cls-8" d="m76.92,31.27v-5.4h.84v1.07c.1-.15.21-.3.35-.44s.36-.29.69-.45c.32-.16.68-.24,1.07-.25v.79c-.21,0-.42.05-.62.11s-.43.18-.66.33-.41.38-.55.68c-.14.3-.21.66-.21,1.07v2.48h-.9Z"/><rect class="cls-1" x="153.35" y=".45" width="59.39" height="55.3"/><path class="cls-8" d="m164.16,54.72l.12-.49c.21.16.42.25.62.25.15,0,.29-.04.39-.12s.18-.17.21-.29c0-.05.02-.12.02-.21v-4.08h.6v3.96c0,.44-.1.76-.31.95-.21.19-.44.29-.69.29-.33,0-.65-.09-.96-.27Zm1.25-6.09v-.71h.73v.71h-.73Z"/><path class="cls-8" d="m167.02,51.58c0-.54.17-1,.52-1.37.34-.37.76-.55,1.24-.55s.92.19,1.25.58c.33.39.5.84.5,1.35s-.18.97-.53,1.32c-.35.35-.76.53-1.23.53s-.88-.18-1.23-.53c-.35-.36-.53-.8-.53-1.32Zm.62-.08c0,.47.11.82.34,1.06s.49.36.79.36.56-.12.79-.36.34-.6.34-1.06-.11-.79-.34-1.01-.49-.34-.79-.34-.56.11-.79.34c-.23.22-.34.56-.34,1.01Z"/><path class="cls-8" d="m171.43,53.35v-5.78h.6v2.61c.39-.32.82-.47,1.28-.47.38,0,.69.18.94.55.25.37.37.8.37,1.29,0,.54-.15.99-.44,1.35-.29.36-.64.54-1.05.54-.38,0-.73-.16-1.07-.46v.38h-.62Zm.62-1.07s0,.07,0,.1c0,.02,0,.05.02.07,0,.02.02.04.02.05s.02.03.04.05c.02.03.04.05.05.07.18.21.4.32.66.32.28,0,.54-.11.79-.33.24-.22.36-.57.36-1.04,0-.25-.04-.47-.1-.65-.07-.19-.16-.33-.28-.43-.12-.1-.23-.17-.35-.21s-.23-.07-.35-.07c-.21,0-.4.06-.58.18-.18.12-.27.26-.27.41v1.49Z"/><path class="cls-8" d="m177.79,50.26v-.47h.59v-.59s0-.05,0-.1c0-.04,0-.08,0-.1,0-.49.13-.87.4-1.14s.58-.4.94-.4c.2,0,.41.03.63.09v.55c-.23-.09-.45-.14-.65-.14-.18,0-.35.05-.51.16-.16.11-.24.29-.24.57v1.09h.91v.47h-.88v3.09h-.6v-3.09h-.59Z"/><path class="cls-8" d="m180.25,51.58c0-.54.17-1,.52-1.37.34-.37.76-.55,1.24-.55s.92.19,1.25.58c.33.39.5.84.5,1.35s-.18.97-.53,1.32c-.35.35-.76.53-1.23.53s-.88-.18-1.23-.53c-.35-.36-.53-.8-.53-1.32Zm.62-.08c0,.47.11.82.34,1.06s.49.36.79.36.56-.12.79-.36.34-.6.34-1.06-.11-.79-.34-1.01-.49-.34-.79-.34-.56.11-.79.34c-.23.22-.34.56-.34,1.01Z"/><path class="cls-8" d="m184.66,53.35v-5.78h.6v5.78h-.6Z"/><path class="cls-8" d="m186.2,51.58c0-.53.14-.97.42-1.34.28-.36.61-.54,1.01-.54s.79.15,1.16.44v-2.57h.6v5.78h-.62v-.41c-.35.34-.74.5-1.18.5-.4,0-.72-.19-.99-.56-.26-.37-.39-.81-.39-1.3Zm.62,0c0,.47.11.82.33,1.04.22.22.47.33.75.33.22,0,.42-.08.59-.23s.26-.3.26-.44v-1.53c0-.1-.06-.21-.17-.31-.17-.16-.37-.24-.59-.24h-.02c-.13,0-.25.02-.38.07-.12.05-.25.12-.37.22-.12.1-.22.24-.3.43-.08.19-.11.4-.11.65Z"/><path class="cls-8" d="m190.33,51.54c0-.53.16-.97.48-1.33.32-.36.7-.54,1.13-.54.16,0,.31.03.46.08s.29.13.44.25c.15.12.27.29.37.53.1.23.15.51.17.84v.23h-2.48c.02.4.14.73.37.98.23.25.5.38.82.38.41,0,.81-.15,1.21-.44l.05.53c-.41.27-.83.41-1.27.41-.51,0-.93-.19-1.25-.56-.33-.38-.49-.82-.49-1.34Zm.6-.4h1.98c-.03-.21-.09-.38-.17-.53-.08-.14-.18-.25-.28-.31-.1-.06-.2-.1-.28-.12-.08-.02-.16-.03-.24-.03-.27,0-.5.1-.67.31-.18.21-.29.43-.34.67Z"/><path class="cls-8" d="m194.25,53.35v-3.6h.56v.71c.06-.1.14-.2.23-.29s.24-.19.46-.3c.22-.11.45-.16.71-.17v.53c-.14,0-.28.03-.42.08-.14.04-.29.12-.44.22s-.28.25-.37.46c-.09.2-.14.44-.14.71v1.65h-.6Z"/><path class="cls-8" d="m196.55,53.08l.1-.54s.04.03.1.06c.06.04.1.06.13.08.03.02.08.04.14.07s.13.06.18.08c.06.02.12.04.2.06.07.02.15.04.24.04.08,0,.17.01.26.01.27,0,.46-.06.57-.17s.17-.24.17-.38-.05-.24-.15-.33-.2-.15-.3-.18c-.05-.02-.17-.04-.36-.08-.19-.04-.32-.07-.41-.1-.22-.07-.41-.19-.58-.36s-.25-.38-.25-.63c0-.12.02-.24.05-.35.04-.11.1-.22.19-.34.09-.12.22-.21.41-.27s.4-.1.66-.1c.38,0,.77.08,1.16.25l-.08.53s-.04-.02-.09-.04c-.05-.02-.09-.04-.09-.04,0,0-.04-.02-.09-.04-.05-.02-.08-.04-.1-.04s-.05-.02-.1-.04c-.05-.02-.08-.03-.11-.03-.03,0-.07-.01-.12-.02-.05-.01-.1-.02-.14-.02-.04,0-.08,0-.14,0-.05,0-.11,0-.17,0-.25,0-.42.05-.52.15s-.15.21-.15.34c0,.18.07.3.21.38.14.08.34.14.6.18.26.04.44.09.54.14.19.09.35.21.49.39.13.17.2.38.2.62,0,.12-.02.24-.05.36-.04.12-.1.23-.19.35-.09.12-.22.21-.41.28-.18.07-.4.11-.65.11-.47,0-.92-.12-1.35-.36Z"/><path class="cls-8" d="m168.9,11.9V3.57h2.71c.57,0,1.08.07,1.52.22s.77.34,1.01.57.41.48.52.72.17.48.17.72c0,.46-.18.9-.53,1.29s-.86.69-1.52.88l2.39,3.91h-1.08l-2.24-3.79h-1.89v3.79h-1.04Zm1.04-4.54h1.58c.84,0,1.44-.16,1.79-.47s.53-.67.53-1.07c0-.18-.04-.35-.11-.52s-.19-.33-.35-.5-.4-.3-.71-.4-.69-.16-1.12-.16h-1.62v3.12Z"/><path class="cls-8" d="m175.92,9.19c0-.79.24-1.46.72-2s1.05-.81,1.7-.81c.24,0,.47.04.68.11s.44.2.66.38.4.44.55.79.23.77.25,1.26v.35h-3.72c.02.6.21,1.09.55,1.47s.75.57,1.22.57c.61,0,1.22-.22,1.82-.66l.08.79c-.61.41-1.24.61-1.9.62-.76,0-1.39-.28-1.88-.85s-.74-1.23-.74-2Zm.9-.6h2.98c-.05-.31-.13-.57-.26-.79-.12-.22-.27-.37-.42-.46-.16-.09-.3-.15-.42-.18s-.24-.05-.35-.05c-.41,0-.74.16-1.01.46-.27.31-.44.65-.52,1.01Z"/><path class="cls-8" d="m181.37,10.55c0-.3.11-.56.34-.78s.52-.38.88-.49.72-.19,1.06-.24.69-.08,1.04-.08v-.4c-.02-.51-.12-.88-.31-1.11-.2-.24-.45-.36-.76-.36-.62,0-1.21.2-1.79.61l-.07-.8c.6-.35,1.22-.53,1.88-.53.55,0,1.01.18,1.39.54.37.36.58.8.61,1.32v3.66h-.91v-.42s-.11.08-.22.16c-.12.07-.34.16-.68.25s-.7.15-1.09.15c-.45,0-.79-.16-1.02-.49s-.34-.66-.34-1Zm.86-.03c0,.22.11.4.32.55.21.15.48.22.8.22.34,0,.65-.07.93-.22s.41-.4.41-.75v-.77c-.25,0-.5.02-.75.05-.26.03-.52.08-.79.15-.27.07-.49.17-.66.3-.17.13-.25.29-.25.47Z"/><path class="cls-8" d="m187.02,9.24c0-.79.21-1.46.62-2,.42-.54.92-.81,1.51-.81s1.19.22,1.74.66v-3.86h.9v8.67h-.94v-.62c-.52.5-1.11.76-1.77.76-.59,0-1.09-.28-1.48-.84-.39-.56-.59-1.21-.59-1.95Zm.94-.01c0,.71.17,1.23.5,1.56.34.33.71.5,1.12.5.33,0,.63-.11.89-.34.26-.23.39-.45.39-.65v-2.3c0-.15-.08-.31-.25-.46-.26-.24-.55-.36-.89-.36h-.02c-.19,0-.38.04-.57.11-.19.07-.37.18-.56.33s-.33.36-.44.64-.17.61-.17.98Z"/><path class="cls-8" d="m192.97,6.56h.94c.51,1.18.9,2.1,1.15,2.76.26.66.41,1.08.45,1.25s.09.41.13.73c.02-.56.55-2.14,1.6-4.74h.9l-2.6,6.42c-.23.54-.45.9-.65,1.09s-.45.29-.74.29c-.33,0-.62-.03-.87-.1l-.06-.77c.43.14.72.21.87.21.21,0,.38-.08.49-.23s.28-.51.5-1.05c.05-.14.1-.24.13-.32.03-.07.05-.13.05-.19s-.02-.13-.06-.21l-2.24-5.13Z"/><path class="cls-5" d="m176.35,32.47h-14.77c-.53,0-.96-.43-.96-.96v-9.35c0-.53.43-.96.96-.96h7.93l1.52-1.37h5.32c.53,0,.96.43.96.96v10.71c0,.53-.43.96-.96.96Z"/><path class="cls-5" d="m185.74,35.63h-14.77c-.53,0-.96-.43-.96-.96v-9.35c0-.53.43-.96.96-.96h7.93l1.52-1.37h5.32c.53,0,.96.43.96.96v10.71c0,.53-.43.96-.96.96Z"/><path class="cls-5" d="m195.13,38.79h-14.77c-.53,0-.96-.43-.96-.96v-9.35c0-.53.43-.96.96-.96h7.93l1.52-1.37h5.32c.53,0,.96.43.96.96v10.71c0,.53-.43.96-.96.96Z"/><path class="cls-5" d="m204.52,41.94h-14.77c-.53,0-.96-.43-.96-.96v-9.35c0-.53.43-.96.96-.96h7.93l1.52-1.37h5.32c.53,0,.96.43.96.96v10.71c0,.53-.43.96-.96.96Z"/><path class="cls-7" d="m133.94,38.75h-24.41c-.88,0-1.59-.71-1.59-1.59v-15.44c0-.88.71-1.59,1.59-1.59h13.11l2.51-2.26h8.79c.88,0,1.59.71,1.59,1.59v17.7c0,.88-.71,1.59-1.59,1.59Z"/><rect class="cls-6" x="36.79" y="57.69" width="12.76" height="16.33"/><rect class="cls-6" x="70.28" y="57.69" width="12.76" height="16.33"/><rect class="cls-6" x="73.47" y="61" width="12.76" height="16.33"/><rect class="cls-6" x="76.66" y="64.31" width="12.76" height="16.33"/><path class="cls-8" d="m24.11,82.05l.11-.6c.1.09.17.15.21.19.04.04.15.09.31.16.16.07.33.1.51.1.27,0,.49-.07.67-.21.18-.14.27-.38.27-.73v-4.29h.7v4.31c0,.27-.04.5-.12.7-.08.2-.2.34-.34.44-.14.1-.29.17-.45.21-.16.04-.32.06-.5.06-.47,0-.92-.11-1.37-.34Z"/><path class="cls-8" d="m27.8,80.44c0-.54.17-1,.52-1.36.34-.37.76-.56,1.24-.56s.92.19,1.25.58c.33.39.5.84.5,1.35s-.18.97-.53,1.32c-.35.35-.76.53-1.23.53s-.88-.18-1.23-.53c-.35-.36-.53-.8-.53-1.33Zm.62-.08c0,.47.11.82.34,1.06.23.24.49.36.79.36s.56-.12.79-.36c.23-.24.34-.6.34-1.06s-.11-.79-.34-1.01c-.23-.22-.49-.34-.79-.34s-.56.11-.79.34c-.23.22-.34.56-.34,1.01Z"/><path class="cls-8" d="m32.21,82.21v-5.78h.6v2.61c.39-.31.82-.47,1.28-.47.38,0,.69.18.94.55.25.37.37.8.37,1.29,0,.54-.15.99-.44,1.35s-.64.54-1.05.54c-.38,0-.73-.16-1.07-.46v.37h-.62Zm.62-1.07s0,.07,0,.1c0,.02,0,.05.02.07s.02.04.02.05c0,0,.02.03.04.05.02.03.04.05.05.07.18.21.4.32.66.32.28,0,.54-.11.79-.33.24-.22.36-.57.36-1.04,0-.25-.04-.47-.1-.65-.07-.19-.16-.33-.28-.42-.12-.1-.23-.17-.35-.21-.12-.04-.23-.07-.35-.07-.21,0-.4.06-.58.18-.18.12-.27.26-.27.41v1.49Z"/><path class="cls-8" d="m36.04,81.83l.12-.67c.56.44,1.12.67,1.7.67.35,0,.63-.11.84-.32s.33-.46.33-.74c0-.21-.06-.4-.19-.57-.12-.17-.29-.3-.49-.38-.01,0-.34-.09-.99-.27-.33-.09-.61-.26-.86-.53-.25-.26-.37-.59-.37-.98,0-.41.17-.77.5-1.09.33-.32.76-.48,1.3-.48.5,0,1,.13,1.47.38l-.11.66c-.22-.17-.43-.3-.63-.39s-.44-.13-.74-.13c-.35,0-.63.09-.84.29s-.32.41-.32.67c0,.19.06.36.18.52s.28.27.47.35c.08.02.27.07.58.15.31.08.52.14.62.19.29.12.55.32.76.59.21.27.31.59.31.95,0,.45-.17.85-.51,1.18-.34.34-.78.5-1.31.5-.64,0-1.25-.18-1.82-.55Z"/><path class="cls-8" d="m40.4,80.4c0-.53.16-.97.48-1.33.32-.36.7-.54,1.13-.54.16,0,.31.03.46.08s.29.13.44.25c.15.12.27.29.37.53.1.23.15.51.17.84v.23h-2.48c.02.4.14.73.37.98.23.25.5.38.82.38.41,0,.81-.15,1.21-.44l.05.53c-.41.27-.83.41-1.27.41-.51,0-.93-.19-1.25-.56-.33-.38-.49-.82-.49-1.33Zm.6-.4h1.98c-.03-.21-.09-.38-.17-.53-.08-.14-.18-.25-.28-.31-.1-.06-.2-.1-.28-.12s-.16-.03-.24-.03c-.27,0-.5.1-.67.31-.18.21-.29.43-.34.67Z"/><path class="cls-8" d="m43.83,79.12v-.47h.69v-1.01h.56v1.01h1.13v.47h-1.13v1.97c0,.46.14.7.43.7.22,0,.46-.09.7-.26l.13.47c-.38.2-.77.3-1.18.3-.44,0-.66-.34-.66-1.03v-2.15h-.67Z"/><path class="cls-8" d="m46.71,79.12v-.47h.69v-1.01h.56v1.01h1.13v.47h-1.13v1.97c0,.46.14.7.43.7.22,0,.46-.09.7-.26l.13.47c-.38.2-.77.3-1.18.3-.44,0-.66-.34-.66-1.03v-2.15h-.67Z"/><path class="cls-8" d="m50.05,77.49v-.71h.72v.71h-.72Zm.05,4.72v-3.56h.54v3.56h-.54Z"/><path class="cls-8" d="m52,82.21v-3.6h.58v.57c.31-.41.7-.61,1.17-.61.2,0,.37.03.51.09.14.06.25.13.32.22s.13.19.17.32c.04.13.07.25.08.35,0,.1.02.22.02.36v2.3h-.62v-2.24c0-.09,0-.16,0-.22,0-.05-.02-.13-.05-.23-.03-.1-.07-.18-.12-.24s-.13-.11-.23-.16c-.1-.05-.23-.07-.38-.07-.28,0-.49.12-.62.36-.13.24-.19.53-.19.87v1.92h-.62Z"/><path class="cls-8" d="m55.72,82.78c0-.35.17-.62.51-.83-.13-.19-.2-.39-.2-.6,0-.24.08-.47.23-.68h0c-.18-.24-.27-.5-.27-.81,0-.38.12-.69.38-.93.25-.25.54-.37.88-.37.28,0,.54.09.8.27l-.02-.02c.4-.16.81-.25,1.26-.25l.09.49c-.16-.02-.32-.02-.47-.02-.02,0-.21.01-.6.03l-.07-.06c.21.29.31.57.31.86,0,.35-.12.66-.37.92-.25.26-.55.4-.92.4-.23,0-.47-.08-.72-.24-.08.12-.12.22-.12.3,0,.11.03.21.1.29.06.09.18.13.36.13h.61c.19,0,.35,0,.48.02s.29.04.49.09c.2.05.36.13.49.25.13.12.22.27.27.46.03.11.04.2.04.29,0,.31-.17.57-.52.77s-.77.31-1.26.31-.91-.1-1.25-.31c-.34-.21-.51-.46-.51-.77Zm.56,0c0,.14.07.26.21.36.14.1.3.17.47.21.17.04.34.06.51.06.34,0,.63-.06.87-.17.24-.12.36-.27.36-.45,0-.37-.4-.56-1.21-.56h-.73c-.15.02-.27.08-.36.19s-.13.23-.13.35Zm.28-2.91c0,.26.07.46.2.62.13.15.31.23.53.23.18,0,.35-.07.49-.2.15-.13.22-.35.22-.66,0-.26-.07-.46-.2-.62-.13-.15-.3-.23-.52-.23-.18,0-.35.07-.49.2-.15.13-.22.35-.22.66Z"/><path class="cls-8" d="m59.71,81.94l.1-.54s.04.03.1.06c.06.04.1.06.13.08.03.02.08.04.14.07.07.03.13.06.18.08.06.02.12.04.2.06s.15.04.24.04c.08,0,.17.01.26.01.27,0,.46-.06.57-.17.12-.11.17-.24.17-.38s-.05-.24-.15-.33c-.1-.09-.2-.15-.3-.18-.05-.02-.17-.04-.36-.08-.19-.04-.32-.07-.41-.1-.22-.07-.41-.19-.58-.36-.17-.17-.25-.38-.25-.63,0-.12.02-.24.05-.35.04-.11.1-.22.19-.34.09-.12.22-.21.41-.27.18-.07.4-.1.66-.1.38,0,.77.08,1.16.25l-.08.53s-.04-.02-.09-.04c-.05-.03-.09-.04-.09-.04,0,0-.04-.02-.09-.04-.05-.02-.08-.04-.1-.04-.02,0-.05-.02-.1-.04-.05-.02-.08-.03-.11-.03s-.07-.01-.12-.02-.1-.02-.14-.02c-.04,0-.08,0-.14,0s-.11,0-.17,0c-.25,0-.42.05-.52.15-.1.1-.15.21-.15.34,0,.18.07.3.21.38.14.08.34.14.6.18s.44.09.54.14c.19.09.35.21.49.39.13.17.2.38.2.62,0,.12-.02.24-.05.36s-.1.23-.19.35-.22.21-.41.28c-.18.07-.4.11-.65.11-.47,0-.92-.12-1.35-.36Z"/><path class="cls-8" d="m69.52,90.68l.12-.49c.21.16.42.25.62.25.15,0,.29-.04.39-.12s.18-.17.21-.29c.01-.05.02-.12.02-.21v-4.08h.6v3.96c0,.44-.1.76-.31.95-.21.19-.44.29-.69.29-.33,0-.65-.09-.96-.27Zm1.25-6.09v-.71h.73v.71h-.73Z"/><path class="cls-8" d="m72.38,87.54c0-.54.17-.99.52-1.36.35-.37.76-.56,1.24-.56s.92.19,1.25.58c.33.39.5.84.5,1.35s-.17.97-.53,1.32c-.35.35-.76.53-1.23.53s-.88-.18-1.23-.53c-.35-.36-.53-.8-.53-1.33Zm.62-.08c0,.47.11.82.34,1.06.23.24.49.36.79.36s.56-.12.79-.36c.23-.24.34-.6.34-1.06s-.11-.79-.34-1.01c-.23-.22-.49-.34-.79-.34s-.56.11-.79.34c-.23.22-.34.56-.34,1.01Z"/><path class="cls-8" d="m76.79,89.31v-5.78h.6v2.61c.39-.32.82-.47,1.28-.47.38,0,.69.18.94.55.25.37.37.8.37,1.29,0,.54-.15.99-.44,1.35-.29.36-.64.54-1.05.54-.38,0-.73-.15-1.07-.46v.37h-.62Zm.62-1.07s0,.07,0,.1c0,.02,0,.05.02.07,0,.02.02.04.02.05,0,0,.02.03.04.05.02.03.04.05.05.07.18.21.4.32.66.32.28,0,.55-.11.79-.33.24-.22.36-.57.36-1.04,0-.25-.03-.47-.1-.65-.07-.19-.16-.33-.28-.42-.11-.1-.23-.17-.35-.21-.12-.05-.23-.07-.35-.07-.21,0-.4.06-.58.18-.18.12-.27.26-.27.41v1.49Z"/><path class="cls-8" d="m81.04,89.31v-.71h.67v.71h-.67Z"/><path class="cls-8" d="m82.71,89.04l.1-.54s.04.03.1.06.1.06.13.08c.03.02.08.04.14.07.07.03.13.06.18.08s.12.04.19.06c.07.02.15.04.24.04.08,0,.17.01.26.01.27,0,.46-.06.57-.17.12-.11.17-.24.17-.38s-.05-.24-.14-.33-.2-.15-.31-.18c-.05-.02-.17-.04-.36-.08s-.32-.07-.41-.1c-.22-.07-.41-.19-.58-.36-.17-.17-.25-.38-.25-.63,0-.12.02-.24.05-.35s.1-.22.19-.34c.09-.12.22-.21.41-.27.18-.07.4-.1.66-.1.38,0,.77.08,1.16.25l-.08.53s-.04-.02-.09-.04c-.06-.02-.09-.04-.09-.04,0,0-.04-.02-.09-.04-.05-.02-.08-.04-.1-.04-.02,0-.05-.02-.1-.04-.05-.02-.08-.03-.11-.03-.03,0-.07,0-.12-.02-.05-.01-.1-.02-.13-.02-.04,0-.09,0-.14,0-.05,0-.11,0-.17,0-.25,0-.42.05-.52.15-.1.1-.15.21-.15.34,0,.18.07.3.21.38s.34.14.6.18c.26.04.44.09.54.14.19.09.35.21.49.39.13.17.2.38.2.62,0,.12-.02.24-.05.36-.04.12-.1.23-.19.35-.09.12-.22.21-.41.28s-.4.11-.65.11c-.47,0-.92-.12-1.35-.36Z"/><path class="cls-8" d="m86.2,89.31v-5.78h.6v2.71c.32-.38.71-.58,1.15-.58.2,0,.38.03.52.1.14.06.25.14.32.23.07.09.13.2.17.34.04.14.06.25.07.34s.01.21.01.33v2.3h-.62v-2.24c0-.09,0-.16,0-.22,0-.05-.02-.13-.05-.23-.03-.1-.07-.18-.12-.24s-.13-.11-.23-.16c-.1-.04-.23-.07-.38-.07-.28,0-.49.12-.62.36-.13.24-.19.53-.19.87v1.92h-.62Z"/><path class="cls-8" d="m63.91,95.82v-.47h.69v-1.01h.56v1.01h1.13v.47h-1.13v1.97c0,.46.14.7.43.7.22,0,.46-.09.7-.26l.13.47c-.38.2-.77.3-1.18.3-.44,0-.66-.34-.66-1.03v-2.15h-.67Z"/><path class="cls-8" d="m66.92,97.1c0-.53.16-.97.48-1.33.32-.36.7-.54,1.13-.54.16,0,.31.03.46.08s.29.13.44.25c.15.12.27.29.37.53.1.23.15.51.17.84v.23h-2.48c.02.4.14.73.37.98.23.25.5.38.82.38.41,0,.81-.15,1.21-.44l.05.53c-.41.27-.83.41-1.27.41-.51,0-.92-.19-1.25-.56-.33-.38-.49-.82-.49-1.33Zm.6-.4h1.98c-.03-.21-.09-.38-.17-.53-.08-.14-.18-.25-.28-.31-.1-.06-.2-.1-.28-.12-.08-.02-.16-.03-.24-.03-.27,0-.49.1-.67.31-.18.21-.29.43-.34.67Z"/><path class="cls-8" d="m70.84,98.91v-3.6h.58v.57c.31-.41.7-.61,1.17-.61.52,0,.86.22,1.02.66.33-.44.73-.66,1.21-.66.2,0,.38.03.52.1.15.07.25.14.32.23.07.09.13.2.17.34.04.14.06.25.07.34,0,.09,0,.2,0,.32v2.3h-.62v-2.29s0-.07-.02-.13c0-.06-.02-.12-.04-.18-.02-.06-.05-.12-.08-.19-.04-.07-.08-.13-.14-.18-.05-.05-.12-.09-.21-.13-.08-.04-.18-.05-.29-.05-.28,0-.49.12-.62.36-.13.24-.2.53-.2.87v1.92h-.62v-2.24c0-.09,0-.16,0-.22,0-.05-.02-.13-.05-.23-.03-.1-.07-.18-.12-.24s-.13-.11-.23-.16c-.1-.05-.23-.07-.38-.07-.28,0-.49.12-.62.36s-.19.53-.19.87v1.92h-.62Z"/><path class="cls-8" d="m77.2,100.47v-5.12h.6v.39c.39-.32.83-.47,1.33-.47.37,0,.67.18.9.55.24.37.36.8.36,1.29,0,.55-.15,1-.44,1.36-.29.35-.64.53-1.04.53s-.75-.16-1.08-.46v1.93h-.62Zm.62-2.57c0,.12.08.25.23.39.15.14.33.22.55.22.3,0,.57-.13.8-.38.24-.26.36-.59.36-.99,0-.36-.1-.68-.3-.94-.2-.27-.46-.4-.78-.4-.06,0-.12,0-.17.01-.05,0-.1.02-.15.04-.04.02-.09.04-.13.06-.04.02-.08.04-.11.06s-.07.05-.09.07c-.03.02-.05.05-.08.07-.02.03-.04.05-.06.06-.01.02-.03.03-.04.05l-.02.03v1.66Z"/><path class="cls-8" d="m81.33,98.91v-5.78h.6v5.78h-.6Z"/><path class="cls-8" d="m82.95,98.01c0-.2.08-.37.22-.52.15-.15.34-.26.59-.33.24-.07.48-.12.71-.16.23-.04.46-.05.7-.05v-.27c-.01-.34-.08-.59-.21-.74-.13-.16-.3-.24-.51-.24-.41,0-.81.13-1.2.41l-.05-.54c.4-.23.82-.35,1.25-.35.37,0,.68.12.92.36s.38.54.4.88v2.44h-.61v-.28s-.07.05-.15.1c-.08.05-.23.1-.45.17-.22.06-.47.1-.73.1-.3,0-.53-.11-.68-.32-.15-.22-.23-.44-.23-.67Zm.57-.02c0,.15.07.27.21.37.14.1.32.15.53.15.23,0,.44-.05.62-.15.18-.1.28-.26.28-.5v-.51c-.16,0-.33.01-.5.03-.17.02-.35.05-.53.1-.18.04-.33.11-.44.2-.11.09-.17.2-.17.31Z"/><path class="cls-8" d="m86.58,95.82v-.47h.69v-1.01h.56v1.01h1.13v.47h-1.13v1.97c0,.46.14.7.43.7.22,0,.46-.09.7-.26l.13.47c-.38.2-.77.3-1.18.3-.44,0-.66-.34-.66-1.03v-2.15h-.67Z"/><path class="cls-8" d="m89.6,97.1c0-.53.16-.97.48-1.33.32-.36.7-.54,1.13-.54.16,0,.31.03.46.08s.29.13.44.25c.15.12.27.29.37.53.1.23.15.51.17.84v.23h-2.48c.02.4.14.73.37.98.23.25.5.38.82.38.41,0,.81-.15,1.21-.44l.05.53c-.41.27-.83.41-1.27.41-.51,0-.92-.19-1.25-.56-.33-.38-.49-.82-.49-1.33Zm.6-.4h1.98c-.03-.21-.09-.38-.17-.53-.08-.14-.18-.25-.28-.31-.1-.06-.2-.1-.28-.12-.08-.02-.16-.03-.24-.03-.27,0-.49.1-.67.31-.18.21-.29.43-.34.67Z"/><path class="cls-8" d="m93.09,98.64l.1-.54s.04.03.1.06.1.06.13.08c.03.02.08.04.14.07.07.03.13.06.18.08.06.02.12.04.19.06.07.02.15.04.24.04.08,0,.17.01.26.01.27,0,.46-.06.57-.17.12-.11.17-.24.17-.38s-.05-.24-.14-.33-.2-.15-.31-.18c-.05-.02-.17-.04-.36-.08-.19-.04-.32-.07-.41-.1-.22-.07-.41-.19-.58-.36-.17-.17-.25-.38-.25-.63,0-.12.02-.24.05-.35s.1-.22.19-.34c.09-.11.22-.21.41-.27s.4-.1.66-.1c.38,0,.77.08,1.16.25l-.08.53s-.04-.02-.09-.04c-.06-.03-.09-.04-.09-.05,0,0-.04-.02-.09-.04-.05-.02-.08-.03-.1-.04-.02,0-.05-.02-.1-.04s-.08-.03-.11-.03c-.03,0-.07-.01-.12-.02s-.1-.02-.13-.02-.09,0-.14,0c-.05,0-.11,0-.17,0-.25,0-.42.05-.52.15-.1.1-.15.21-.15.34,0,.18.07.3.21.38s.34.14.6.18c.26.04.44.09.54.14.19.09.35.21.49.39.13.17.2.38.2.62,0,.12-.02.24-.05.36-.04.12-.1.23-.19.35-.09.12-.22.21-.41.28-.18.07-.4.11-.65.11-.47,0-.92-.12-1.35-.36Z"/><path class="cls-8" d="m156.81,92.41l.12-.49c.21.16.42.25.62.25.15,0,.29-.04.39-.12s.18-.17.21-.29c0-.05.02-.12.02-.21v-4.08h.6v3.96c0,.44-.1.76-.31.95-.21.19-.44.29-.69.29-.33,0-.65-.09-.96-.27Zm1.25-6.09v-.71h.73v.71h-.73Z"/><path class="cls-8" d="m159.67,89.28c0-.54.17-.99.52-1.36.34-.37.76-.56,1.24-.56s.92.19,1.25.58c.33.39.5.84.5,1.35s-.18.97-.53,1.32c-.35.35-.76.53-1.23.53s-.88-.18-1.23-.53c-.35-.36-.53-.8-.53-1.33Zm.62-.08c0,.47.11.82.34,1.06.23.24.49.36.79.36s.56-.12.79-.36c.23-.24.34-.6.34-1.06s-.11-.79-.34-1.01c-.23-.22-.49-.34-.79-.34s-.56.11-.79.34c-.23.22-.34.56-.34,1.01Z"/><path class="cls-8" d="m164.08,91.05v-5.78h.6v2.61c.39-.32.82-.47,1.28-.47.38,0,.69.18.94.55.25.37.37.8.37,1.29,0,.54-.15.99-.44,1.35-.29.36-.64.54-1.05.54-.38,0-.73-.15-1.07-.46v.37h-.62Zm.62-1.07s0,.07,0,.1c0,.02,0,.05.02.07,0,.02.02.04.02.05,0,0,.02.03.04.05.02.03.04.05.05.07.18.21.4.32.66.32.28,0,.54-.11.79-.33.24-.22.36-.57.36-1.04,0-.25-.04-.47-.1-.65-.07-.19-.16-.33-.28-.42-.12-.1-.23-.17-.35-.21-.12-.05-.23-.07-.35-.07-.21,0-.4.06-.58.18-.18.12-.27.26-.27.41v1.49Z"/><path class="cls-8" d="m168.33,91.05v-.71h.67v.71h-.67Z"/><path class="cls-8" d="m170,90.78l.1-.54s.04.03.1.06c.06.04.1.06.13.08.03.02.08.04.14.07.07.03.13.06.18.08.06.02.12.04.2.06s.15.04.24.04c.08,0,.17.01.26.01.27,0,.46-.06.57-.17.12-.11.17-.24.17-.38s-.05-.24-.15-.33-.2-.15-.3-.18c-.05-.02-.17-.04-.36-.08-.19-.04-.32-.07-.41-.1-.22-.07-.41-.19-.58-.36-.17-.17-.25-.38-.25-.63,0-.12.02-.24.05-.35.04-.11.1-.22.19-.34.09-.12.22-.21.41-.27.18-.07.4-.1.66-.1.38,0,.77.08,1.16.25l-.08.53s-.04-.02-.09-.04c-.05-.02-.09-.04-.09-.04,0,0-.04-.02-.09-.04-.05-.02-.08-.04-.1-.04-.02,0-.05-.02-.1-.04-.05-.02-.08-.03-.11-.03-.03,0-.07,0-.12-.02-.05-.01-.1-.02-.14-.02-.04,0-.08,0-.14,0-.05,0-.11,0-.17,0-.25,0-.42.05-.52.15-.1.1-.15.21-.15.34,0,.18.07.3.21.38.14.08.34.14.6.18.26.04.44.09.54.14.19.09.35.21.49.39.13.17.2.38.2.62,0,.12-.02.24-.05.36-.04.12-.1.23-.19.35-.09.12-.22.21-.41.28-.18.07-.4.11-.65.11-.47,0-.92-.12-1.35-.36Z"/><path class="cls-8" d="m173.49,91.05v-5.78h.6v2.71c.32-.38.7-.58,1.15-.58.2,0,.38.03.52.1.14.06.25.14.32.23.07.09.13.2.17.34.04.14.06.25.07.34s.01.21.01.33v2.3h-.62v-2.24c0-.09,0-.16,0-.22,0-.05-.02-.13-.05-.23-.03-.1-.07-.18-.12-.24s-.13-.11-.23-.16c-.1-.04-.23-.07-.38-.07-.28,0-.49.12-.62.36-.13.24-.19.53-.19.87v1.92h-.62Z"/><path class="cls-8" d="m156.81,70.1l.12-.49c.21.16.42.25.62.25.15,0,.29-.04.39-.12s.18-.17.21-.29c.01-.05.02-.12.02-.21v-4.08h.6v3.96c0,.44-.1.76-.31.95s-.44.29-.69.29c-.33,0-.65-.09-.96-.27Zm1.25-6.09v-.71h.73v.71h-.73Z"/><path class="cls-8" d="m159.67,66.97c0-.54.17-.99.52-1.37.35-.37.76-.55,1.24-.55s.92.19,1.25.58c.33.39.5.84.5,1.35s-.17.97-.53,1.32c-.35.35-.76.53-1.23.53s-.88-.18-1.23-.53c-.35-.35-.53-.8-.53-1.32Zm.62-.08c0,.47.11.82.34,1.06.23.24.49.36.79.36s.56-.12.79-.36c.23-.24.34-.6.34-1.06s-.11-.79-.34-1.01c-.23-.22-.49-.34-.79-.34s-.56.11-.79.34c-.23.22-.34.56-.34,1.01Z"/><path class="cls-8" d="m164.08,68.74v-5.78h.6v2.61c.39-.32.82-.47,1.28-.47.38,0,.69.18.94.55.25.37.37.8.37,1.29,0,.54-.15.99-.44,1.35-.29.36-.64.54-1.05.54-.38,0-.73-.15-1.07-.46v.38h-.62Zm.62-1.07s0,.07,0,.1c0,.02,0,.04.02.07s.02.04.02.05c0,.01.02.03.04.05.02.03.04.05.05.07.18.21.4.32.66.32.28,0,.55-.11.79-.33.24-.22.36-.57.36-1.04,0-.25-.03-.47-.1-.65-.07-.19-.16-.33-.28-.43-.11-.1-.23-.17-.35-.21-.12-.05-.23-.07-.35-.07-.21,0-.4.06-.58.18-.18.12-.27.26-.27.41v1.49Z"/><path class="cls-8" d="m168.16,64.02v-.71h.72v.71h-.72Zm.05,4.72v-3.56h.54v3.56h-.54Z"/><path class="cls-8" d="m170.12,68.74v-3.6h.58v.57c.31-.41.7-.61,1.17-.61.2,0,.37.03.51.09.14.06.25.13.32.22s.13.19.17.32c.04.13.07.25.08.35.01.1.02.22.02.36v2.3h-.62v-2.24c0-.09,0-.16,0-.22,0-.05-.02-.13-.05-.23-.03-.1-.07-.18-.12-.24s-.13-.11-.23-.16c-.1-.04-.23-.07-.38-.07-.28,0-.49.12-.62.36s-.19.53-.19.87v1.92h-.62Z"/><path class="cls-8" d="m173.82,65.65v-.47h.59v-.59s0-.05,0-.1c0-.04,0-.07,0-.1,0-.49.13-.87.4-1.14s.58-.4.94-.4c.2,0,.41.03.63.09v.54c-.23-.09-.45-.14-.65-.14-.18,0-.35.05-.51.16-.16.11-.24.29-.24.57v1.09h.91v.47h-.88v3.09h-.6v-3.09h-.59Z"/><path class="cls-8" d="m176.28,66.97c0-.54.17-.99.52-1.37.35-.37.76-.55,1.24-.55s.92.19,1.25.58c.33.39.5.84.5,1.35s-.17.97-.53,1.32c-.35.35-.76.53-1.23.53s-.88-.18-1.23-.53c-.35-.35-.53-.8-.53-1.32Zm.62-.08c0,.47.11.82.34,1.06.23.24.49.36.79.36s.56-.12.79-.36c.23-.24.34-.6.34-1.06s-.11-.79-.34-1.01c-.23-.22-.49-.34-.79-.34s-.56.11-.79.34c-.23.22-.34.56-.34,1.01Z"/><path class="cls-8" d="m180.81,68.74v-.71h.67v.71h-.67Z"/><path class="cls-8" d="m181.78,70.1l.12-.49c.21.16.42.25.62.25.15,0,.29-.04.39-.12s.18-.17.21-.29c.01-.05.02-.12.02-.21v-4.08h.6v3.96c0,.44-.1.76-.31.95s-.44.29-.69.29c-.33,0-.65-.09-.96-.27Zm1.25-6.09v-.71h.73v.71h-.73Z"/><path class="cls-8" d="m184.62,68.47l.1-.54s.04.03.1.06.1.06.13.08c.03.02.08.04.14.07.07.03.13.06.18.08.06.02.12.04.19.06.07.02.15.04.24.04s.17.01.26.01c.27,0,.46-.06.57-.17.12-.11.17-.24.17-.38s-.05-.24-.14-.33c-.1-.09-.2-.15-.31-.18-.05-.02-.17-.04-.36-.08s-.32-.07-.41-.1c-.22-.07-.41-.19-.58-.36-.17-.17-.25-.38-.25-.63,0-.12.02-.24.05-.35s.1-.22.19-.34c.09-.11.22-.21.41-.27s.4-.1.66-.1c.38,0,.77.08,1.16.25l-.08.53s-.04-.02-.09-.04c-.06-.02-.09-.04-.09-.05,0,0-.04-.02-.09-.04-.05-.02-.08-.03-.1-.04-.02,0-.05-.02-.1-.04-.05-.02-.08-.03-.11-.03-.03,0-.07,0-.12-.02-.05-.01-.1-.02-.13-.02-.04,0-.09,0-.14,0-.05,0-.11,0-.17,0-.25,0-.42.05-.52.15-.1.1-.15.21-.15.34,0,.18.07.3.21.38.14.08.34.14.6.18s.44.09.54.14c.19.09.35.21.49.38.13.17.2.38.2.62,0,.12-.02.24-.05.36-.04.12-.1.23-.19.35-.09.12-.22.21-.41.28-.18.07-.4.11-.65.11-.47,0-.92-.12-1.35-.36Z"/><path class="cls-8" d="m187.7,66.97c0-.54.17-.99.52-1.37.35-.37.76-.55,1.24-.55s.92.19,1.25.58c.33.39.5.84.5,1.35s-.17.97-.53,1.32c-.35.35-.76.53-1.23.53s-.88-.18-1.23-.53c-.35-.35-.53-.8-.53-1.32Zm.62-.08c0,.47.11.82.34,1.06.23.24.49.36.79.36s.56-.12.79-.36c.23-.24.34-.6.34-1.06s-.11-.79-.34-1.01c-.23-.22-.49-.34-.79-.34s-.56.11-.79.34c-.23.22-.34.56-.34,1.01Z"/><path class="cls-8" d="m192.1,68.74v-3.6h.58v.57c.31-.41.7-.61,1.17-.61.2,0,.37.03.51.09.14.06.25.13.32.22s.13.19.17.32c.04.13.07.25.08.35.01.1.02.22.02.36v2.3h-.62v-2.24c0-.09,0-.16,0-.22,0-.05-.02-.13-.05-.23-.03-.1-.07-.18-.12-.24s-.13-.11-.23-.16c-.1-.04-.23-.07-.38-.07-.28,0-.49.12-.62.36s-.19.53-.19.87v1.92h-.62Z"/><path class="cls-8" d="m157.46,79.89v-3.6h.56v.72c.06-.1.14-.2.23-.29.09-.09.24-.19.46-.3.22-.11.45-.16.71-.17v.53c-.14,0-.28.03-.42.08-.14.05-.29.12-.44.22s-.28.25-.37.45-.14.44-.14.71v1.65h-.6Z"/><path class="cls-8" d="m160.19,78.92v-2.58h.62v2.68c0,.19.05.32.13.4s.25.12.51.12c.28,0,.5-.07.67-.22.17-.15.26-.32.29-.51,0-.05,0-.13,0-.23v-2.24h.62v3.56h-.61v-.38c-.36.31-.83.47-1.4.47-.16,0-.29-.03-.41-.08s-.2-.11-.25-.17c-.06-.07-.1-.16-.13-.27-.03-.11-.04-.21-.05-.27,0-.07,0-.16,0-.28Z"/><path class="cls-8" d="m164.32,79.89v-3.6h.58v.57c.31-.41.7-.61,1.17-.61.2,0,.37.03.51.09.14.06.25.13.32.22s.13.19.17.32c.04.13.07.25.08.35,0,.1.02.22.02.36v2.3h-.62v-2.24c0-.09,0-.16,0-.22,0-.05-.02-.13-.05-.23-.03-.1-.07-.18-.12-.24s-.13-.11-.23-.16c-.1-.05-.23-.07-.38-.07-.28,0-.49.12-.62.36-.13.24-.19.53-.19.87v1.92h-.62Z"/><path class="cls-8" d="m168.03,79.62l.1-.54s.04.03.1.06c.06.04.1.06.13.08.03.02.08.04.14.07.07.03.13.06.18.08.06.02.12.04.2.06s.15.04.24.04c.08,0,.17.01.26.01.27,0,.46-.06.57-.17.12-.11.17-.24.17-.38s-.05-.24-.15-.33c-.1-.09-.2-.15-.3-.18-.05-.02-.17-.04-.36-.08-.19-.04-.32-.07-.41-.1-.22-.07-.41-.19-.58-.36-.17-.17-.25-.38-.25-.63,0-.12.02-.24.05-.35.04-.11.1-.22.19-.34.09-.12.22-.21.41-.27.18-.07.4-.1.66-.1.38,0,.77.08,1.16.25l-.08.53s-.04-.02-.09-.04c-.05-.03-.09-.04-.09-.04,0,0-.04-.02-.09-.04-.05-.02-.08-.04-.1-.04-.02,0-.05-.02-.1-.04-.05-.02-.08-.03-.11-.03s-.07-.01-.12-.02-.1-.02-.14-.02c-.04,0-.08,0-.14,0s-.11,0-.17,0c-.25,0-.42.05-.52.15-.1.1-.15.21-.15.34,0,.18.07.3.21.38.14.08.34.14.6.18s.44.09.54.14c.19.09.35.21.49.39.13.17.2.38.2.62,0,.12-.02.24-.05.36s-.1.23-.19.35-.22.21-.41.28c-.18.07-.4.11-.65.11-.47,0-.92-.12-1.35-.36Z"/><path class="cls-8" d="m171.02,76.8v-.47h.69v-1.01h.56v1.01h1.13v.47h-1.13v1.97c0,.46.14.7.43.7.22,0,.46-.09.7-.26l.13.47c-.38.2-.77.3-1.18.3-.44,0-.66-.34-.66-1.03v-2.15h-.67Z"/><path class="cls-8" d="m174.11,78.99c0-.2.07-.37.22-.52s.34-.26.59-.33.48-.12.71-.16c.23-.04.46-.05.7-.05v-.27c-.01-.34-.08-.59-.21-.74-.13-.16-.3-.24-.5-.24-.41,0-.81.14-1.2.41l-.05-.54c.4-.23.82-.35,1.25-.35.37,0,.68.12.92.36s.38.54.41.88v2.44h-.61v-.28s-.07.06-.15.1c-.08.05-.23.1-.45.17s-.47.1-.73.1c-.3,0-.53-.11-.68-.32s-.23-.44-.23-.67Zm.57-.02c0,.15.07.27.21.37.14.1.32.15.53.15.23,0,.44-.05.62-.15.18-.1.28-.26.28-.5v-.51c-.17,0-.33.01-.5.03-.17.02-.35.05-.53.1-.18.04-.33.11-.44.2s-.17.2-.17.31Z"/><path class="cls-8" d="m177.75,76.8v-.47h.69v-1.01h.56v1.01h1.13v.47h-1.13v1.97c0,.46.14.7.43.7.22,0,.46-.09.7-.26l.13.47c-.38.2-.77.3-1.18.3-.44,0-.66-.34-.66-1.03v-2.15h-.67Z"/><path class="cls-8" d="m180.7,79.62l.1-.54s.04.03.1.06c.06.04.1.06.13.08.03.02.08.04.14.07.07.03.13.06.18.08.06.02.12.04.2.06s.15.04.24.04c.08,0,.17.01.26.01.27,0,.46-.06.57-.17.12-.11.17-.24.17-.38s-.05-.24-.15-.33c-.1-.09-.2-.15-.3-.18-.05-.02-.17-.04-.36-.08-.19-.04-.32-.07-.41-.1-.22-.07-.41-.19-.58-.36-.17-.17-.25-.38-.25-.63,0-.12.02-.24.05-.35.04-.11.1-.22.19-.34.09-.12.22-.21.41-.27.18-.07.4-.1.66-.1.38,0,.77.08,1.16.25l-.08.53s-.04-.02-.09-.04c-.05-.03-.09-.04-.09-.04,0,0-.04-.02-.09-.04-.05-.02-.08-.04-.1-.04-.02,0-.05-.02-.1-.04-.05-.02-.08-.03-.11-.03s-.07-.01-.12-.02-.1-.02-.14-.02c-.04,0-.08,0-.14,0s-.11,0-.17,0c-.25,0-.42.05-.52.15-.1.1-.15.21-.15.34,0,.18.07.3.21.38.14.08.34.14.6.18s.44.09.54.14c.19.09.35.21.49.39.13.17.2.38.2.62,0,.12-.02.24-.05.36s-.1.23-.19.35-.22.21-.41.28c-.18.07-.4.11-.65.11-.47,0-.92-.12-1.35-.36Z"/><path class="cls-8" d="m184.32,79.89v-.71h.67v.71h-.67Z"/><path class="cls-8" d="m185.29,81.26l.12-.49c.21.16.42.25.62.25.15,0,.29-.04.39-.12s.18-.17.21-.29c0-.05.02-.12.02-.21v-4.08h.6v3.96c0,.44-.1.76-.31.95s-.44.29-.69.29c-.33,0-.65-.09-.96-.27Zm1.25-6.09v-.71h.73v.71h-.73Z"/><path class="cls-8" d="m188.12,79.62l.1-.54s.04.03.1.06c.06.04.1.06.13.08.03.02.08.04.14.07.07.03.13.06.18.08.06.02.12.04.2.06s.15.04.24.04c.08,0,.17.01.26.01.27,0,.46-.06.57-.17.12-.11.17-.24.17-.38s-.05-.24-.15-.33c-.1-.09-.2-.15-.3-.18-.05-.02-.17-.04-.36-.08-.19-.04-.32-.07-.41-.1-.22-.07-.41-.19-.58-.36-.17-.17-.25-.38-.25-.63,0-.12.02-.24.05-.35.04-.11.1-.22.19-.34.09-.12.22-.21.41-.27.18-.07.4-.1.66-.1.38,0,.77.08,1.16.25l-.08.53s-.04-.02-.09-.04c-.05-.03-.09-.04-.09-.04,0,0-.04-.02-.09-.04-.05-.02-.08-.04-.1-.04-.02,0-.05-.02-.1-.04-.05-.02-.08-.03-.11-.03s-.07-.01-.12-.02-.1-.02-.14-.02c-.04,0-.08,0-.14,0s-.11,0-.17,0c-.25,0-.42.05-.52.15-.1.1-.15.21-.15.34,0,.18.07.3.21.38.14.08.34.14.6.18s.44.09.54.14c.19.09.35.21.49.39.13.17.2.38.2.62,0,.12-.02.24-.05.36s-.1.23-.19.35-.22.21-.41.28c-.18.07-.4.11-.65.11-.47,0-.92-.12-1.35-.36Z"/><path class="cls-8" d="m191.21,78.12c0-.54.17-1,.52-1.36.34-.37.76-.56,1.24-.56s.92.19,1.25.58c.33.39.5.84.5,1.35s-.18.97-.53,1.32c-.35.35-.76.53-1.23.53s-.88-.18-1.23-.53c-.35-.36-.53-.8-.53-1.33Zm.62-.08c0,.47.11.82.34,1.06.23.24.49.36.79.36s.56-.12.79-.36c.23-.24.34-.6.34-1.06s-.11-.79-.34-1.01c-.23-.22-.49-.34-.79-.34s-.56.11-.79.34c-.23.22-.34.56-.34,1.01Z"/><path class="cls-8" d="m195.61,79.89v-3.6h.58v.57c.31-.41.7-.61,1.17-.61.2,0,.37.03.51.09.14.06.25.13.32.22s.13.19.17.32c.04.13.07.25.08.35,0,.1.02.22.02.36v2.3h-.62v-2.24c0-.09,0-.16,0-.22,0-.05-.02-.13-.05-.23-.03-.1-.07-.18-.12-.24s-.13-.11-.23-.16c-.1-.05-.23-.07-.38-.07-.28,0-.49.12-.62.36-.13.24-.19.53-.19.87v1.92h-.62Z"/><rect class="cls-3" x="112.16" y="63.86" width="12.76" height="16.33"/><rect class="cls-3" x="115.35" y="69.27" width="12.76" height="16.33"/><rect class="cls-6" x="118.54" y="74.69" width="12.76" height="16.33"/><path class="cls-8" d="m.33,45.41l.11-.6c.1.09.17.15.21.19.04.04.15.09.31.16.16.07.33.1.51.1.27,0,.49-.07.67-.21.18-.14.27-.38.27-.73v-4.29h.7v4.31c0,.27-.04.5-.12.7s-.2.34-.34.44c-.14.1-.29.17-.45.21-.15.04-.32.06-.5.06-.47,0-.92-.11-1.37-.34Z"/><path class="cls-8" d="m4.01,43.8c0-.54.17-1,.52-1.37.35-.37.76-.55,1.24-.55s.92.19,1.25.58c.34.39.5.84.5,1.35s-.17.97-.53,1.32c-.35.35-.76.53-1.23.53s-.88-.18-1.23-.53c-.35-.35-.53-.8-.53-1.32Zm.62-.08c0,.47.11.82.34,1.06.23.24.49.36.79.36s.56-.12.79-.36c.23-.24.34-.6.34-1.06s-.11-.79-.34-1.01c-.23-.22-.49-.34-.79-.34s-.56.11-.79.34c-.23.22-.34.56-.34,1.01Z"/><path class="cls-8" d="m8.42,45.57v-5.78h.6v2.61c.39-.31.82-.47,1.28-.47.38,0,.69.18.94.55.25.37.37.8.37,1.29,0,.54-.15.99-.44,1.35-.29.36-.64.54-1.05.54-.38,0-.73-.16-1.07-.46v.38h-.62Zm.62-1.07s0,.07,0,.1c0,.02,0,.05.02.07,0,.02.02.04.02.05,0,.01.02.03.04.05.02.03.04.05.05.07.18.21.4.32.66.32.28,0,.55-.11.79-.33.24-.22.36-.57.36-1.04,0-.25-.03-.47-.1-.65-.07-.19-.16-.33-.28-.43-.11-.1-.23-.17-.35-.21-.12-.04-.23-.07-.35-.07-.21,0-.4.06-.58.18-.18.12-.27.26-.27.41v1.49Z"/><path class="cls-8" d="m12.66,45.57v-5.55h.72v5.55h-.72Z"/><path class="cls-8" d="m14.77,45.57v-3.6h.58v.57c.31-.41.7-.61,1.17-.61.2,0,.37.03.51.09.14.06.25.13.32.22s.13.19.17.32c.04.13.07.25.08.35.01.1.02.22.02.36v2.3h-.62v-2.24c0-.09,0-.16,0-.22,0-.05-.02-.13-.05-.23-.03-.1-.07-.18-.12-.24s-.13-.11-.23-.16c-.1-.05-.23-.07-.38-.07-.28,0-.49.12-.62.36s-.19.53-.19.87v1.92h-.62Z"/><path class="cls-8" d="m18.48,42.48v-.47h.59v-.59s0-.05,0-.1c0-.04,0-.08,0-.1,0-.49.13-.87.4-1.14s.58-.4.94-.4c.2,0,.41.03.63.09v.55c-.23-.09-.45-.14-.65-.14-.18,0-.35.05-.51.16-.16.11-.24.29-.24.57v1.09h.91v.47h-.88v3.09h-.6v-3.09h-.59Z"/><path class="cls-8" d="m20.94,43.8c0-.54.17-1,.52-1.37.35-.37.76-.55,1.24-.55s.92.19,1.25.58c.34.39.5.84.5,1.35s-.17.97-.53,1.32c-.35.35-.76.53-1.23.53s-.88-.18-1.23-.53c-.35-.35-.53-.8-.53-1.32Zm.62-.08c0,.47.11.82.34,1.06.23.24.49.36.79.36s.56-.12.79-.36c.23-.24.34-.6.34-1.06s-.11-.79-.34-1.01c-.23-.22-.49-.34-.79-.34s-.56.11-.79.34c-.23.22-.34.56-.34,1.01Z"/><rect class="cls-3" x="5.97" y="20.15" width="12.76" height="16.33"/></g></svg>