<?xml version="1.0" encoding="UTF-8"?><svg id="Layer_1" xmlns="http://www.w3.org/2000/svg" viewBox="0 0 434.67 188.18"><defs><style>.cls-1{fill:#231f20;}.cls-2,.cls-3,.cls-4,.cls-5,.cls-6,.cls-7,.cls-8{stroke:#231f20;}.cls-2,.cls-3,.cls-4,.cls-5,.cls-6,.cls-7,.cls-8,.cls-9,.cls-10{stroke-miterlimit:10;}.cls-2,.cls-3,.cls-5{stroke-width:.48px;}.cls-2,.cls-4{fill:#2f4259;}.cls-3,.cls-7{fill:#6790b5;}.cls-4,.cls-7{stroke-width:.26px;}.cls-5,.cls-8{fill:#fac964;}.cls-6{stroke-width:.75px;}.cls-6,.cls-9,.cls-10{fill:none;}.cls-8{stroke-width:.26px;}.cls-9{stroke:#6790b5;}.cls-10{stroke:#2f4259;}</style></defs><circle class="cls-5" cx="29.47" cy="52.85" r="12.42"/><circle class="cls-5" cx="181.77" cy="52.85" r="12.42"/><circle class="cls-5" cx="334.49" cy="52.85" r="12.42"/><circle class="cls-3" cx="29.47" cy="103.13" r="12.42"/><circle class="cls-9" cx="29.47" cy="153.41" r="12.42"/><circle class="cls-10" cx="98.74" cy="153.41" r="12.42"/><circle class="cls-9" cx="182.03" cy="153.41" r="12.42"/><circle class="cls-10" cx="251.3" cy="153.41" r="12.42"/><circle class="cls-2" cx="98.74" cy="103.13" r="12.42"/><path class="cls-1" d="m22.26,36.61v-3.6h.56v.72c.06-.1.14-.2.23-.29s.24-.19.46-.3c.22-.11.45-.16.71-.17v.53c-.14,0-.28.03-.42.08-.14.05-.29.12-.44.22-.15.1-.28.25-.37.45s-.14.44-.14.71v1.65h-.6Z"/><path class="cls-1" d="m24.62,34.8c0-.53.16-.97.48-1.33.32-.36.7-.54,1.13-.54.16,0,.31.03.46.08s.29.13.44.25.27.29.37.53.15.51.17.84v.23h-2.48c.02.4.14.73.37.98s.5.38.82.38c.41,0,.81-.15,1.21-.44l.05.53c-.41.27-.83.41-1.27.41-.51,0-.93-.19-1.25-.56-.33-.38-.49-.82-.49-1.33Zm.6-.4h1.98c-.03-.21-.09-.38-.17-.53-.08-.14-.18-.25-.28-.31-.1-.06-.2-.1-.28-.12-.08-.02-.16-.03-.24-.03-.27,0-.49.1-.67.31s-.29.43-.34.67Z"/><path class="cls-1" d="m28.54,36.61v-5.78h.6v5.78h-.6Z"/><path class="cls-1" d="m30.16,35.71c0-.2.07-.37.22-.52.15-.15.34-.26.59-.33s.48-.12.71-.16.46-.05.7-.05v-.27c-.01-.34-.08-.59-.21-.74-.13-.16-.3-.24-.51-.24-.41,0-.81.14-1.2.41l-.05-.54c.4-.23.82-.35,1.25-.35.37,0,.68.12.92.36s.38.54.4.88v2.44h-.61v-.28s-.07.06-.15.1c-.08.05-.23.1-.45.17s-.47.1-.73.1c-.3,0-.53-.11-.68-.32-.15-.22-.23-.44-.23-.67Zm.57-.02c0,.15.07.27.21.37.14.1.32.15.53.15.23,0,.44-.05.62-.15.18-.1.28-.26.28-.5v-.51c-.16,0-.33.01-.5.03-.17.02-.35.05-.53.1-.18.04-.33.11-.44.2s-.17.2-.17.31Z"/><path class="cls-1" d="m33.64,36.61l1.55-1.82v-.02l-1.5-1.72h.66l1.11,1.32h0l1.06-1.32h.66l-1.47,1.72h0s1.6,1.84,1.6,1.84h-.66l-1.2-1.5-1.15,1.5h-.66Z"/><path class="cls-1" d="m174.48,36.61v-5.55h1.96c.53,0,.99.12,1.38.38.39.26.69.6.9,1.04s.32.91.32,1.4c0,.74-.22,1.36-.66,1.86-.44.5-.95.78-1.54.85-.09.01-.21.02-.39.02h-1.98Zm.7-.45h1.14c.67,0,1.19-.25,1.56-.73.31-.41.47-.93.47-1.54,0-.68-.18-1.24-.53-1.7-.36-.45-.85-.68-1.5-.68h-1.14v4.66Z"/><path class="cls-1" d="m179.93,33.86c0-.83.25-1.53.74-2.1.49-.58,1.08-.86,1.76-.86s1.26.29,1.75.86c.49.58.74,1.28.74,2.1s-.25,1.54-.75,2.09c-.5.56-1.08.84-1.75.84s-1.26-.28-1.75-.84c-.5-.56-.74-1.26-.74-2.09Zm1.25-1.81c-.35.43-.53,1-.53,1.7s.17,1.3.5,1.79c.33.49.76.74,1.28.74s.93-.24,1.27-.73c.34-.49.51-1.09.51-1.8s-.18-1.27-.53-1.7-.77-.65-1.25-.65-.9.22-1.25.65Z"/><path class="cls-1" d="m185.73,36.24l.12-.67c.56.44,1.12.67,1.7.67.35,0,.63-.11.85-.32.22-.21.32-.46.32-.74,0-.21-.06-.4-.19-.57-.12-.17-.29-.3-.49-.38-.01,0-.34-.09-.99-.27-.33-.09-.61-.26-.86-.53-.25-.26-.37-.59-.37-.98,0-.41.17-.77.5-1.09.33-.32.76-.48,1.3-.48.5,0,1,.13,1.47.38l-.11.66c-.22-.17-.43-.3-.63-.39-.19-.08-.44-.13-.74-.13-.35,0-.63.1-.84.29-.21.19-.32.41-.32.67,0,.19.06.36.18.52s.28.27.47.35c.08.02.27.07.58.15.31.08.52.14.62.19.29.12.55.32.76.59.21.27.31.59.31.95,0,.45-.17.85-.51,1.19s-.78.5-1.31.5c-.64,0-1.24-.18-1.82-.55Z"/><path class="cls-1" d="m313.84,33.52v-.47h.59v-.59s0-.05,0-.1,0-.07,0-.1c0-.49.13-.87.4-1.14s.58-.4.94-.4c.2,0,.41.03.63.09v.55c-.23-.09-.45-.14-.65-.14-.18,0-.35.05-.51.16s-.24.3-.24.57v1.09h.91v.47h-.88v3.09h-.6v-3.09h-.59Z"/><path class="cls-1" d="m316.33,34.8c0-.53.16-.97.48-1.33.32-.36.7-.54,1.13-.54.16,0,.31.03.46.08s.29.13.44.25.27.29.37.53.15.51.17.84v.23h-2.48c.02.4.14.73.37.98s.5.38.82.38c.41,0,.81-.15,1.21-.44l.05.53c-.41.27-.83.41-1.27.41-.51,0-.93-.19-1.25-.56-.33-.38-.49-.82-.49-1.33Zm.6-.4h1.98c-.03-.21-.09-.38-.17-.53-.08-.14-.18-.25-.28-.31-.1-.06-.2-.1-.28-.12-.08-.02-.16-.03-.24-.03-.27,0-.49.1-.67.31s-.29.43-.34.67Z"/><path class="cls-1" d="m319.96,35.71c0-.2.07-.37.22-.52.15-.15.34-.26.59-.33s.48-.12.71-.16.46-.05.7-.05v-.27c-.01-.34-.08-.59-.21-.74-.13-.16-.3-.24-.51-.24-.41,0-.81.14-1.2.41l-.05-.54c.4-.23.82-.35,1.25-.35.37,0,.68.12.92.36s.38.54.4.88v2.44h-.61v-.28s-.07.06-.15.1c-.08.05-.23.1-.45.17s-.47.1-.73.1c-.3,0-.53-.11-.68-.32-.15-.22-.23-.44-.23-.67Zm.57-.02c0,.15.07.27.21.37.14.1.32.15.53.15.23,0,.44-.05.62-.15.18-.1.28-.26.28-.5v-.51c-.16,0-.33.01-.5.03-.17.02-.35.05-.53.1-.18.04-.33.11-.44.2s-.17.2-.17.31Z"/><path class="cls-1" d="m323.59,33.52v-.47h.69v-1.01h.56v1.01h1.13v.47h-1.13v1.97c0,.46.14.7.43.7.22,0,.46-.09.7-.26l.13.47c-.38.2-.77.3-1.18.3-.44,0-.66-.34-.66-1.03v-2.15h-.67Z"/><path class="cls-1" d="m326.98,35.64v-2.58h.62v2.68c0,.19.05.32.13.4s.25.12.51.12c.28,0,.5-.07.67-.22.17-.15.26-.32.29-.51,0-.05,0-.13,0-.23v-2.24h.62v3.56h-.61v-.38c-.36.31-.83.47-1.4.47-.16,0-.29-.03-.41-.08s-.2-.11-.25-.17-.1-.15-.13-.27-.04-.21-.05-.27,0-.16,0-.28Z"/><path class="cls-1" d="m331.12,36.61v-3.6h.56v.72c.06-.1.14-.2.23-.29s.24-.19.46-.3c.22-.11.45-.16.71-.17v.53c-.14,0-.28.03-.42.08-.14.05-.29.12-.44.22-.15.1-.28.25-.37.45s-.14.44-.14.71v1.65h-.6Z"/><path class="cls-1" d="m333.8,31.9v-.71h.72v.71h-.72Zm.05,4.72v-3.56h.54v3.56h-.54Z"/><path class="cls-1" d="m335.33,36.61v-.33l2.13-2.76h-.24s-1.78.01-1.78.01v-.48h2.86v.32l-2.12,2.74h1.78s.37,0,.37,0v.5h-2.99Z"/><path class="cls-1" d="m338.94,35.71c0-.2.07-.37.22-.52.15-.15.34-.26.59-.33s.48-.12.71-.16.46-.05.7-.05v-.27c-.01-.34-.08-.59-.21-.74-.13-.16-.3-.24-.51-.24-.41,0-.81.14-1.2.41l-.05-.54c.4-.23.82-.35,1.25-.35.37,0,.68.12.92.36s.38.54.4.88v2.44h-.61v-.28s-.07.06-.15.1c-.08.05-.23.1-.45.17s-.47.1-.73.1c-.3,0-.53-.11-.68-.32-.15-.22-.23-.44-.23-.67Zm.57-.02c0,.15.07.27.21.37.14.1.32.15.53.15.23,0,.44-.05.62-.15.18-.1.28-.26.28-.5v-.51c-.16,0-.33.01-.5.03-.17.02-.35.05-.53.1-.18.04-.33.11-.44.2s-.17.2-.17.31Z"/><path class="cls-1" d="m342.57,33.52v-.47h.69v-1.01h.56v1.01h1.13v.47h-1.13v1.97c0,.46.14.7.43.7.22,0,.46-.09.7-.26l.13.47c-.38.2-.77.3-1.18.3-.44,0-.66-.34-.66-1.03v-2.15h-.67Z"/><path class="cls-1" d="m345.91,31.9v-.71h.72v.71h-.72Zm.05,4.72v-3.56h.54v3.56h-.54Z"/><path class="cls-1" d="m347.47,34.85c0-.54.17-.99.52-1.36s.76-.56,1.24-.56.92.19,1.25.58c.33.39.5.84.5,1.35s-.18.97-.53,1.32-.76.53-1.23.53-.88-.18-1.23-.53-.53-.8-.53-1.32Zm.62-.08c0,.47.11.82.34,1.06s.49.36.79.36.56-.12.79-.36.34-.6.34-1.06-.11-.79-.34-1.01-.49-.34-.79-.34-.56.11-.79.34-.34.56-.34,1.01Z"/><path class="cls-1" d="m351.87,36.61v-3.6h.58v.57c.31-.41.7-.61,1.17-.61.2,0,.37.03.51.09s.25.13.32.22.13.19.17.32.07.25.08.35.02.22.02.36v2.3h-.62v-2.24c0-.09,0-.16,0-.22,0-.05-.02-.13-.05-.23s-.07-.18-.12-.24-.13-.11-.23-.16-.23-.07-.38-.07c-.28,0-.49.12-.62.36-.13.24-.19.53-.19.87v1.92h-.62Z"/><path class="cls-1" d="m370.23,55.74l.16-.9c.14.13.25.22.32.28s.22.13.47.23.5.15.76.15c.4,0,.73-.11,1-.32s.41-.57.41-1.09v-6.44h1.04v6.47c0,.41-.06.76-.19,1.05s-.29.51-.51.66-.44.25-.67.32-.48.1-.75.1c-.7,0-1.39-.17-2.05-.5Z"/><path class="cls-1" d="m375.75,53.33c0-.81.26-1.49.78-2.05s1.14-.83,1.85-.83,1.38.29,1.88.87c.5.58.75,1.25.75,2.02s-.26,1.45-.79,1.98-1.14.79-1.84.79-1.32-.27-1.84-.8-.79-1.2-.79-1.99Zm.94-.12c0,.7.17,1.24.51,1.6.34.36.73.54,1.18.54s.84-.18,1.18-.55c.34-.36.51-.89.51-1.59s-.17-1.18-.51-1.51-.73-.5-1.18-.5-.83.17-1.18.5-.52.84-.52,1.51Z"/><path class="cls-1" d="m382.37,55.98v-8.67h.9v3.91c.59-.47,1.23-.71,1.92-.71.57,0,1.04.28,1.41.83.37.55.55,1.2.55,1.94,0,.81-.22,1.48-.66,2.02s-.96.81-1.57.81c-.57,0-1.1-.23-1.61-.7v.56h-.94Zm.94-1.6c0,.06,0,.11,0,.15s.01.07.02.1c.01.03.02.06.04.07s.03.04.06.08c.03.04.05.08.08.11.27.32.59.48.98.48.43,0,.82-.17,1.18-.5s.54-.86.54-1.57c0-.37-.05-.7-.16-.98-.1-.28-.24-.49-.41-.64-.17-.14-.35-.25-.52-.32s-.35-.1-.53-.1c-.31,0-.6.09-.88.27s-.41.39-.41.61v2.23Z"/><path class="cls-1" d="m392.72,55.98v-8.33h1.08v7.56h3.78s0,.77,0,.77h-4.86Z"/><path class="cls-1" d="m398.62,54.62c0-.3.11-.56.34-.78.22-.22.52-.38.88-.49.36-.11.72-.19,1.06-.24.35-.05.69-.08,1.04-.08v-.4c-.02-.51-.12-.88-.31-1.11-.2-.24-.45-.36-.76-.36-.62,0-1.21.2-1.79.61l-.07-.8c.6-.35,1.22-.53,1.87-.53.55,0,1.01.18,1.39.54.37.36.58.8.61,1.32v3.66h-.91v-.42s-.11.08-.22.16c-.12.07-.34.16-.68.25-.34.1-.7.15-1.09.15-.45,0-.79-.16-1.02-.49-.23-.32-.34-.66-.34-1Zm.86-.03c0,.22.11.4.32.55.21.15.48.22.8.22.34,0,.65-.07.93-.22.28-.15.41-.4.41-.75v-.77c-.25,0-.5.02-.75.05s-.52.08-.79.15c-.27.07-.49.17-.66.3-.17.14-.25.29-.25.47Z"/><path class="cls-1" d="m403.68,50.64h.94c.51,1.18.9,2.1,1.15,2.76s.41,1.08.45,1.25.09.41.13.73c.02-.56.55-2.14,1.6-4.74h.9l-2.6,6.42c-.23.54-.45.9-.65,1.09s-.45.29-.74.29c-.33,0-.62-.03-.87-.1l-.06-.77c.43.14.72.21.87.21.21,0,.38-.08.49-.23.11-.16.28-.51.5-1.05.05-.14.1-.24.13-.32.03-.07.05-.13.05-.19s-.02-.13-.06-.21l-2.24-5.13Z"/><path class="cls-1" d="m409.12,53.26c0-.79.24-1.46.72-2,.48-.54,1.05-.81,1.7-.81.24,0,.47.04.68.11s.44.2.66.38.4.44.55.79.23.77.25,1.26v.35h-3.72c.02.6.21,1.09.55,1.47s.75.57,1.22.57c.61,0,1.22-.22,1.82-.66l.08.79c-.61.41-1.24.61-1.9.62-.76,0-1.39-.28-1.88-.85-.49-.56-.74-1.23-.74-2Zm.9-.6h2.98c-.05-.31-.13-.57-.26-.79-.12-.22-.27-.37-.42-.46-.16-.09-.3-.15-.42-.18-.12-.03-.24-.05-.35-.05-.41,0-.74.16-1.01.46-.27.31-.44.65-.52,1.01Z"/><path class="cls-1" d="m415.01,55.98v-5.4h.84v1.07c.1-.15.21-.3.35-.44.13-.14.36-.29.69-.45s.68-.24,1.07-.25v.79c-.21,0-.42.05-.62.11-.21.07-.43.18-.66.33-.23.15-.41.38-.55.68-.14.31-.21.66-.21,1.07v2.48h-.9Z"/><path class="cls-1" d="m370.88,106.05v-8.33h1.5l3.28,6.53.47.96v-7.49h.94v8.33h-1.5l-3.28-6.53-.47-.96v7.49h-.94Z"/><path class="cls-1" d="m378.58,103.4c0-.81.26-1.49.78-2.05s1.14-.83,1.85-.83,1.38.29,1.88.87c.5.58.75,1.25.75,2.02s-.26,1.45-.79,1.98-1.14.79-1.84.79-1.32-.27-1.84-.8-.79-1.2-.79-1.99Zm.94-.12c0,.7.17,1.24.51,1.6.34.36.73.54,1.18.54s.84-.18,1.18-.55c.34-.36.51-.89.51-1.59s-.17-1.18-.51-1.51-.73-.5-1.18-.5-.83.17-1.18.5-.52.84-.52,1.51Z"/><path class="cls-1" d="m384.98,103.39c0-.79.21-1.46.62-2s.92-.81,1.51-.81,1.19.22,1.74.66v-3.86h.9v8.67h-.94v-.62c-.52.5-1.11.76-1.77.76-.59,0-1.09-.28-1.48-.84s-.59-1.21-.59-1.95Zm.94-.01c0,.71.17,1.23.5,1.56s.71.5,1.12.5c.34,0,.63-.11.89-.34.26-.23.39-.45.39-.65v-2.3c0-.15-.08-.31-.25-.46-.26-.24-.55-.36-.89-.36h-.02c-.19,0-.38.04-.57.11s-.37.18-.56.33c-.18.15-.33.36-.44.64-.11.28-.17.61-.17.98Z"/><path class="cls-1" d="m391.17,103.33c0-.79.24-1.46.72-2,.48-.54,1.05-.81,1.7-.81.24,0,.47.04.68.11s.44.2.66.38.4.44.55.79.23.77.25,1.26v.35h-3.72c.02.6.21,1.09.55,1.47s.75.57,1.22.57c.61,0,1.22-.22,1.82-.66l.08.79c-.61.41-1.24.61-1.9.62-.76,0-1.39-.28-1.88-.85-.49-.56-.74-1.23-.74-2Zm.9-.6h2.98c-.05-.31-.13-.57-.26-.79-.12-.22-.27-.37-.42-.46-.16-.09-.3-.15-.42-.18-.12-.03-.24-.05-.35-.05-.41,0-.74.16-1.01.46-.27.31-.44.65-.52,1.01Z"/><path class="cls-1" d="m401.21,106.05v-8.33h1.08v7.56h3.78s0,.77,0,.77h-4.86Z"/><path class="cls-1" d="m407.11,104.7c0-.3.11-.56.34-.78.22-.22.52-.38.88-.49.36-.11.72-.19,1.06-.24.35-.05.69-.08,1.04-.08v-.4c-.02-.51-.12-.88-.31-1.11-.2-.24-.45-.36-.76-.36-.62,0-1.21.2-1.79.61l-.07-.8c.6-.35,1.22-.53,1.87-.53.55,0,1.01.18,1.39.54.37.36.58.8.61,1.32v3.66h-.91v-.42s-.11.08-.22.16c-.12.07-.34.16-.68.25-.34.1-.7.15-1.09.15-.45,0-.79-.16-1.02-.49-.23-.32-.34-.66-.34-1Zm.86-.03c0,.22.11.4.32.55.21.15.48.22.8.22.34,0,.65-.07.93-.22.28-.15.41-.4.41-.75v-.77c-.25,0-.5.02-.75.05s-.52.08-.79.15c-.27.07-.49.17-.66.3-.17.14-.25.29-.25.47Z"/><path class="cls-1" d="m412.17,100.71h.94c.51,1.18.9,2.1,1.15,2.76s.41,1.08.45,1.25.09.41.13.73c.02-.56.55-2.14,1.6-4.74h.9l-2.6,6.42c-.23.54-.45.9-.65,1.09s-.45.29-.74.29c-.33,0-.62-.03-.87-.1l-.06-.77c.43.14.72.21.87.21.21,0,.38-.08.49-.23.11-.16.28-.51.5-1.05.05-.14.1-.24.13-.32.03-.07.05-.13.05-.19s-.02-.13-.06-.21l-2.24-5.13Z"/><path class="cls-1" d="m417.61,103.33c0-.79.24-1.46.72-2,.48-.54,1.05-.81,1.7-.81.24,0,.47.04.68.11s.44.2.66.38.4.44.55.79.23.77.25,1.26v.35h-3.72c.02.6.21,1.09.55,1.47s.75.57,1.22.57c.61,0,1.22-.22,1.82-.66l.08.79c-.61.41-1.24.61-1.9.62-.76,0-1.39-.28-1.88-.85-.49-.56-.74-1.23-.74-2Zm.9-.6h2.98c-.05-.31-.13-.57-.26-.79-.12-.22-.27-.37-.42-.46-.16-.09-.3-.15-.42-.18-.12-.03-.24-.05-.35-.05-.41,0-.74.16-1.01.46-.27.31-.44.65-.52,1.01Z"/><path class="cls-1" d="m423.5,106.05v-5.4h.84v1.07c.1-.15.21-.3.35-.44.13-.14.36-.29.69-.45s.68-.24,1.07-.25v.79c-.21,0-.42.05-.62.11-.21.07-.43.18-.66.33-.23.15-.41.38-.55.68-.14.31-.21.66-.21,1.07v2.48h-.9Z"/><path class="cls-1" d="m370.88,156.3v-8.33h2.95c.8,0,1.49.19,2.07.56.59.38,1.04.9,1.36,1.57s.48,1.36.48,2.1c0,1.11-.33,2.04-.98,2.79s-1.43,1.18-2.31,1.28c-.13.02-.32.02-.58.02h-2.97Zm1.04-.67h1.72c1,0,1.78-.37,2.34-1.1.47-.62.71-1.39.71-2.32,0-1.02-.27-1.87-.8-2.55s-1.28-1.02-2.25-1.02h-1.72v6.99Z"/><path class="cls-1" d="m378.92,154.94c0-.3.11-.56.34-.78.22-.22.52-.38.88-.49.36-.11.72-.19,1.06-.24.35-.05.69-.08,1.04-.08v-.4c-.02-.51-.12-.88-.31-1.11-.2-.24-.45-.36-.76-.36-.62,0-1.21.2-1.79.61l-.07-.8c.6-.35,1.22-.53,1.87-.53.55,0,1.01.18,1.39.54.37.36.58.8.61,1.32v3.66h-.91v-.42s-.11.08-.22.16c-.12.07-.34.16-.68.25-.34.1-.7.15-1.09.15-.45,0-.79-.16-1.02-.49-.23-.32-.34-.66-.34-1Zm.86-.03c0,.22.11.4.32.55.21.15.48.22.8.22.34,0,.65-.07.93-.22.28-.15.41-.4.41-.75v-.77c-.25,0-.5.02-.75.05s-.52.08-.79.15c-.27.07-.49.17-.66.3-.17.14-.25.29-.25.47Z"/><path class="cls-1" d="m384.37,151.66v-.7h1.03v-1.51h.84v1.51h1.69v.7h-1.69v2.96c0,.7.22,1.04.65,1.04.34,0,.69-.13,1.05-.39l.19.71c-.57.3-1.16.45-1.78.45-.66,0-.98-.51-.98-1.54v-3.23h-1.01Z"/><path class="cls-1" d="m389.01,154.94c0-.3.11-.56.34-.78.22-.22.52-.38.88-.49.36-.11.72-.19,1.06-.24.35-.05.69-.08,1.04-.08v-.4c-.02-.51-.12-.88-.31-1.11-.2-.24-.45-.36-.76-.36-.62,0-1.21.2-1.79.61l-.07-.8c.6-.35,1.22-.53,1.87-.53.55,0,1.01.18,1.39.54.37.36.58.8.61,1.32v3.66h-.91v-.42s-.11.08-.22.16c-.12.07-.34.16-.68.25-.34.1-.7.15-1.09.15-.45,0-.79-.16-1.02-.49-.23-.32-.34-.66-.34-1Zm.86-.03c0,.22.11.4.32.55.21.15.48.22.8.22.34,0,.65-.07.93-.22.28-.15.41-.4.41-.75v-.77c-.25,0-.5.02-.75.05s-.52.08-.79.15c-.27.07-.49.17-.66.3-.17.14-.25.29-.25.47Z"/><path class="cls-1" d="m399.37,156.3v-8.33h1.08v7.56h3.78s0,.77,0,.77h-4.86Z"/><path class="cls-1" d="m405.27,154.94c0-.3.11-.56.34-.78.22-.22.52-.38.88-.49.36-.11.72-.19,1.06-.24.35-.05.69-.08,1.04-.08v-.4c-.02-.51-.12-.88-.31-1.11-.2-.24-.45-.36-.76-.36-.62,0-1.21.2-1.79.61l-.07-.8c.6-.35,1.22-.53,1.87-.53.55,0,1.01.18,1.39.54.37.36.58.8.61,1.32v3.66h-.91v-.42s-.11.08-.22.16c-.12.07-.34.16-.68.25-.34.1-.7.15-1.09.15-.45,0-.79-.16-1.02-.49-.23-.32-.34-.66-.34-1Zm.86-.03c0,.22.11.4.32.55.21.15.48.22.8.22.34,0,.65-.07.93-.22.28-.15.41-.4.41-.75v-.77c-.25,0-.5.02-.75.05s-.52.08-.79.15c-.27.07-.49.17-.66.3-.17.14-.25.29-.25.47Z"/><path class="cls-1" d="m410.34,150.96h.94c.51,1.18.9,2.1,1.15,2.76s.41,1.08.45,1.25.09.41.13.73c.02-.56.55-2.14,1.6-4.74h.9l-2.6,6.42c-.23.54-.45.9-.65,1.09s-.45.29-.74.29c-.33,0-.62-.03-.87-.1l-.06-.77c.43.14.72.21.87.21.21,0,.38-.08.49-.23.11-.16.28-.51.5-1.05.05-.14.1-.24.13-.32.03-.07.05-.13.05-.19s-.02-.13-.06-.21l-2.24-5.13Z"/><path class="cls-1" d="m415.77,153.58c0-.79.24-1.46.72-2,.48-.54,1.05-.81,1.7-.81.24,0,.47.04.68.11s.44.2.66.38.4.44.55.79.23.77.25,1.26v.35h-3.72c.02.6.21,1.09.55,1.47s.75.57,1.22.57c.61,0,1.22-.22,1.82-.66l.08.79c-.61.41-1.24.61-1.9.62-.76,0-1.39-.28-1.88-.85-.49-.56-.74-1.23-.74-2Zm.9-.6h2.98c-.05-.31-.13-.57-.26-.79-.12-.22-.27-.37-.42-.46-.16-.09-.3-.15-.42-.18-.12-.03-.24-.05-.35-.05-.41,0-.74.16-1.01.46-.27.31-.44.65-.52,1.01Z"/><path class="cls-1" d="m421.66,156.3v-5.4h.84v1.07c.1-.15.21-.3.35-.44.13-.14.36-.29.69-.45s.68-.24,1.07-.25v.79c-.21,0-.42.05-.62.11-.21.07-.43.18-.66.33-.23.15-.41.38-.55.68-.14.31-.21.66-.21,1.07v2.48h-.9Z"/><path class="cls-1" d="m12.84,177.64c0-.66.11-1.27.34-1.83s.53-1.03.89-1.4.77-.66,1.21-.87.88-.32,1.31-.32c.31,0,.56,0,.74.02s.41.05.7.11.6.15.94.28l-.18,1c-.36-.21-.68-.37-.97-.48s-.64-.16-1.07-.16c-.8,0-1.47.36-2.02,1.07s-.82,1.57-.82,2.59.27,1.89.82,2.6,1.23,1.06,2.05,1.06c.15,0,.3,0,.43-.02s.25-.02.35-.04.2-.04.32-.08.2-.07.26-.08.14-.06.25-.12.17-.1.2-.12.1-.06.22-.14.19-.12.22-.14l.07.84c-.43.26-.81.43-1.12.52s-.71.14-1.21.14c-1.14,0-2.09-.44-2.83-1.32s-1.11-1.92-1.11-3.11Z"/><path class="cls-1" d="m20.68,181.8v-5.4h.84v1.07c.1-.15.21-.3.35-.44.13-.14.36-.29.69-.45s.68-.24,1.07-.25v.79c-.21,0-.42.05-.62.11-.21.07-.43.18-.66.33-.23.15-.41.38-.55.68-.14.31-.21.66-.21,1.07v2.48h-.9Z"/><path class="cls-1" d="m23.98,176.47h.94c.51,1.18.9,2.1,1.15,2.76s.41,1.08.45,1.25.09.41.13.73c.02-.56.55-2.14,1.6-4.74h.9l-2.6,6.42c-.23.54-.45.9-.65,1.09s-.45.29-.74.29c-.33,0-.62-.03-.87-.1l-.06-.77c.43.14.72.21.87.21.21,0,.38-.08.49-.23.11-.16.28-.51.5-1.05.05-.14.1-.24.13-.32.03-.07.05-.13.05-.19s-.02-.13-.06-.21l-2.24-5.13Z"/><path class="cls-1" d="m29.67,181.4l.15-.81s.07.04.15.09c.09.05.15.09.2.11.04.02.12.06.22.11.1.05.19.09.27.11.08.03.18.06.29.09.11.03.23.05.35.07.12.01.25.02.39.02.4,0,.69-.08.86-.26.17-.17.26-.36.26-.57s-.07-.37-.22-.5c-.15-.13-.3-.22-.46-.27-.08-.02-.26-.06-.53-.12-.28-.06-.48-.1-.61-.14-.33-.11-.61-.28-.86-.54-.25-.25-.38-.57-.38-.94,0-.18.03-.36.08-.52.05-.16.15-.33.28-.5.13-.17.33-.31.61-.41.27-.1.6-.15.98-.15.57,0,1.15.12,1.75.37l-.13.8s-.05-.03-.14-.07c-.08-.04-.13-.06-.14-.07-.01,0-.06-.03-.13-.06-.08-.03-.13-.05-.16-.06-.03,0-.08-.03-.15-.06-.07-.03-.13-.04-.17-.05s-.1-.02-.18-.04-.14-.03-.2-.04-.13,0-.21-.01c-.08,0-.17,0-.26,0-.37,0-.63.07-.78.22s-.23.32-.23.51c0,.27.11.46.32.57.21.12.51.21.9.27.38.07.65.14.81.21.29.13.53.32.73.58.2.26.3.56.3.93,0,.18-.03.36-.08.54-.05.17-.15.35-.28.52s-.34.32-.61.43c-.27.11-.6.16-.98.16-.7,0-1.38-.18-2.03-.54Z"/><path class="cls-1" d="m34.15,177.17v-.7h1.03v-1.51h.84v1.51h1.69v.7h-1.69v2.96c0,.7.22,1.04.65,1.04.34,0,.69-.13,1.05-.39l.19.71c-.57.3-1.16.45-1.78.45-.66,0-.98-.51-.98-1.54v-3.23h-1.01Z"/><path class="cls-1" d="m38.79,180.45c0-.3.11-.56.34-.78.22-.22.52-.38.88-.49.36-.11.72-.19,1.06-.24.35-.05.69-.08,1.04-.08v-.4c-.02-.51-.12-.88-.31-1.11-.2-.24-.45-.36-.76-.36-.62,0-1.21.2-1.79.61l-.07-.8c.6-.35,1.22-.53,1.87-.53.55,0,1.01.18,1.39.54.37.36.58.8.61,1.32v3.66h-.91v-.42s-.11.08-.22.16c-.12.07-.34.16-.68.25-.34.1-.7.15-1.09.15-.45,0-.79-.16-1.02-.49-.23-.32-.34-.66-.34-1Zm.86-.03c0,.22.11.4.32.55.21.15.48.22.8.22.34,0,.65-.07.93-.22.28-.15.41-.4.41-.75v-.77c-.25,0-.5.02-.75.05s-.52.08-.79.15c-.27.07-.49.17-.66.3-.17.14-.25.29-.25.47Z"/><path class="cls-1" d="m45,181.8v-8.67h.9v8.67h-.9Z"/><path class="cls-1" d="m66.96,181.94v-8.29h5.36v.78h-.98s-2.88-.01-2.88-.01h-.42s0,2.83,0,2.83h3.96v.74h-3.96v3.11h1.31s2.33-.01,2.33-.01h.26s.56-.01.56-.01v.86h-5.53Z"/><path class="cls-1" d="m73.95,181.94v-5.4h.87v.85c.46-.61,1.05-.91,1.75-.91.3,0,.55.04.76.13s.38.2.49.33.2.29.26.49.1.37.11.52.02.33.02.54v3.46h-.94v-3.36c0-.14,0-.24,0-.32,0-.08-.03-.19-.07-.34-.04-.15-.1-.27-.18-.35-.08-.09-.19-.17-.35-.23-.16-.07-.35-.1-.57-.1-.43,0-.74.18-.93.54-.19.36-.29.79-.29,1.3v2.88h-.94Z"/><path class="cls-1" d="m79.59,179.22c0-.79.24-1.46.72-2,.48-.54,1.05-.81,1.7-.81.24,0,.47.04.68.11s.44.2.66.38.4.44.55.79.23.77.25,1.26v.35h-3.72c.02.6.21,1.09.55,1.47s.75.57,1.22.57c.61,0,1.22-.22,1.82-.66l.08.79c-.61.41-1.24.61-1.9.62-.76,0-1.39-.28-1.88-.85-.49-.56-.74-1.23-.74-2Zm.9-.6h2.98c-.05-.31-.13-.57-.26-.79-.12-.22-.27-.37-.42-.46-.16-.09-.3-.15-.42-.18-.12-.03-.24-.05-.35-.05-.41,0-.74.16-1.01.46-.27.31-.44.65-.52,1.01Z"/><path class="cls-1" d="m85.48,181.94v-5.4h.84v1.07c.1-.15.21-.3.35-.44.13-.14.36-.29.69-.45s.68-.24,1.07-.25v.79c-.21,0-.42.05-.62.11-.21.07-.43.18-.66.33-.23.15-.41.38-.55.68-.14.31-.21.66-.21,1.07v2.48h-.9Z"/><path class="cls-1" d="m88.94,182.79c0-.52.25-.94.76-1.24-.2-.29-.3-.59-.3-.91,0-.36.12-.7.35-1.02h0c-.27-.36-.4-.76-.4-1.21,0-.56.19-1.03.56-1.4.38-.37.82-.55,1.32-.55.41,0,.81.13,1.19.4l-.02-.02c.59-.25,1.22-.37,1.89-.38l.13.74c-.24-.02-.47-.04-.71-.04-.02,0-.32.02-.9.05l-.11-.09c.31.43.47.86.47,1.29,0,.52-.19.98-.56,1.38s-.83.59-1.38.59c-.34,0-.7-.12-1.07-.37-.12.18-.18.33-.18.45,0,.16.05.31.15.44.1.13.28.2.54.2h.92c.28,0,.52,0,.72.03.2.02.44.06.74.13.29.07.54.19.73.37.2.18.33.41.41.69.04.16.06.31.06.44,0,.46-.26.85-.79,1.16-.52.31-1.15.47-1.89.47s-1.36-.16-1.88-.47c-.51-.31-.77-.69-.77-1.15Zm.84,0c0,.21.11.39.32.54.21.15.45.26.71.32.26.06.52.09.76.09.51,0,.94-.09,1.31-.26.36-.17.54-.4.54-.67,0-.56-.6-.83-1.81-.83h-1.1c-.22.04-.4.13-.54.29-.13.16-.2.34-.2.53Zm.42-4.37c0,.39.1.69.3.92s.46.35.79.35c.27,0,.52-.1.74-.29s.33-.52.33-.99c0-.39-.1-.69-.29-.92s-.46-.35-.79-.35c-.27,0-.52.1-.74.29s-.33.53-.33.99Z"/><path class="cls-1" d="m94.78,176.6h.94c.51,1.18.9,2.1,1.15,2.76s.41,1.08.45,1.25.09.41.13.73c.02-.56.55-2.14,1.6-4.74h.9l-2.6,6.42c-.23.54-.45.9-.65,1.09s-.45.29-.74.29c-.33,0-.62-.03-.87-.1l-.06-.77c.43.14.72.21.87.21.21,0,.38-.08.49-.23.11-.16.28-.51.5-1.05.05-.14.1-.24.13-.32.03-.07.05-.13.05-.19s-.02-.13-.06-.21l-2.24-5.13Z"/><path class="cls-1" d="m101.27,181.94v-8.29h5.19v.78h-.94s-2.79-.01-2.79-.01h-.38s0,3.01,0,3.01h3.61v.74h-3.61v3.77h-1.08Z"/><path class="cls-1" d="m106.99,179.29c0-.81.26-1.49.78-2.05s1.14-.83,1.85-.83,1.38.29,1.88.87c.5.58.75,1.25.75,2.02s-.26,1.45-.79,1.98-1.14.79-1.84.79-1.32-.27-1.84-.8-.79-1.2-.79-1.99Zm.94-.12c0,.7.17,1.24.51,1.6.34.36.73.54,1.18.54s.84-.18,1.18-.55c.34-.36.51-.89.51-1.59s-.17-1.18-.51-1.51-.73-.5-1.18-.5-.83.17-1.18.5-.52.84-.52,1.51Z"/><path class="cls-1" d="m113.27,181.94v-5.4h.84v1.07c.1-.15.21-.3.35-.44.13-.14.36-.29.69-.45s.68-.24,1.07-.25v.79c-.21,0-.42.05-.62.11-.21.07-.43.18-.66.33-.23.15-.41.38-.55.68-.14.31-.21.66-.21,1.07v2.48h-.9Z"/><path class="cls-1" d="m116.82,179.26c0-.74.24-1.4.72-1.99s1.12-.87,1.92-.87c.38,0,.69.04.93.11s.56.21.93.42l-.15.79c-.39-.25-.69-.4-.9-.46-.23-.06-.51-.09-.83-.09-.54,0-.96.21-1.25.62s-.44.9-.44,1.47.16,1.08.47,1.47c.31.38.72.58,1.21.58.62,0,1.25-.22,1.89-.65l.06.8c-.63.4-1.29.61-1.96.61-.73,0-1.35-.27-1.85-.82s-.75-1.21-.75-1.99Z"/><path class="cls-1" d="m122.14,179.22c0-.79.24-1.46.72-2,.48-.54,1.05-.81,1.7-.81.24,0,.47.04.68.11s.44.2.66.38.4.44.55.79.23.77.25,1.26v.35h-3.72c.02.6.21,1.09.55,1.47s.75.57,1.22.57c.61,0,1.22-.22,1.82-.66l.08.79c-.61.41-1.24.61-1.9.62-.76,0-1.39-.28-1.88-.85-.49-.56-.74-1.23-.74-2Zm.9-.6h2.98c-.05-.31-.13-.57-.26-.79-.12-.22-.27-.37-.42-.46-.16-.09-.3-.15-.42-.18-.12-.03-.24-.05-.35-.05-.41,0-.74.16-1.01.46-.27.31-.44.65-.52,1.01Z"/><path class="cls-1" d="m127.38,181.53l.15-.81s.07.04.15.09c.09.05.15.09.2.11.04.02.12.06.22.11.1.05.19.09.27.11.08.03.18.06.29.09.11.03.23.05.35.07.12.01.25.02.39.02.4,0,.69-.08.86-.26.17-.17.26-.36.26-.57s-.07-.37-.22-.5c-.15-.13-.3-.22-.46-.27-.08-.02-.26-.06-.53-.12-.28-.06-.48-.1-.61-.14-.33-.11-.61-.28-.86-.54-.25-.25-.38-.57-.38-.94,0-.18.03-.36.08-.52.05-.16.15-.33.28-.5.13-.17.33-.31.61-.41.27-.1.6-.15.98-.15.57,0,1.15.12,1.75.37l-.13.8s-.05-.03-.14-.07c-.08-.04-.13-.06-.14-.07-.01,0-.06-.03-.13-.06-.08-.03-.13-.05-.16-.06-.03,0-.08-.03-.15-.06-.07-.03-.13-.04-.17-.05s-.1-.02-.18-.04-.14-.03-.2-.04-.13,0-.21-.01c-.08,0-.17,0-.26,0-.37,0-.63.07-.78.22s-.23.32-.23.51c0,.27.11.46.32.57.21.12.51.21.9.27.38.07.65.14.81.21.29.13.53.32.73.58.2.26.3.56.3.93,0,.18-.03.36-.08.54-.05.17-.15.35-.28.52s-.34.32-.61.43c-.27.11-.6.16-.98.16-.7,0-1.38-.18-2.03-.54Z"/><line class="cls-6" x1="29.47" y1="65.27" x2="29.47" y2="89.9"/><polygon class="cls-1" points="26.4 87.42 26.95 86.91 29.47 89.61 31.99 86.91 32.54 87.42 29.47 90.72 26.4 87.42"/><line class="cls-6" x1="29.47" y1="115.55" x2="29.47" y2="140.18"/><polygon class="cls-1" points="26.4 137.7 26.95 137.18 29.47 139.89 31.99 137.18 32.54 137.7 29.47 140.99 26.4 137.7"/><line class="cls-6" x1="98.74" y1="115.55" x2="98.74" y2="140.18"/><polygon class="cls-1" points="95.67 137.7 96.22 137.18 98.74 139.89 101.25 137.18 101.8 137.7 98.74 140.99 95.67 137.7"/><line class="cls-6" x1="40.49" y1="58.58" x2="92.42" y2="91.96"/><polygon class="cls-1" points="88.67 93.2 88.54 92.46 92.18 91.81 91.26 88.23 91.99 88.04 93.1 92.41 88.67 93.2"/><line class="cls-6" x1="86.32" y1="103.13" x2="42.7" y2="103.13"/><polygon class="cls-1" points="45.19 100.07 45.7 100.62 42.99 103.13 45.7 105.65 45.19 106.2 41.89 103.13 45.19 100.07"/><line class="cls-6" x1="238.88" y1="103.13" x2="195.26" y2="103.13"/><polygon class="cls-1" points="197.75 100.07 198.26 100.62 195.55 103.13 198.26 105.65 197.75 106.2 194.45 103.13 197.75 100.07"/><path class="cls-6" d="m328.16,113.75c-13.29,5.95-36.68,14.38-66.87,14.83-32.34.48-57.42-8.4-71.22-14.5"/><polygon class="cls-1" points="193.56 112.22 193.82 112.93 190.34 114.18 191.85 117.56 191.16 117.86 189.33 113.75 193.56 112.22"/><circle class="cls-3" cx="182.03" cy="103.13" r="12.42"/><circle class="cls-2" cx="251.3" cy="103.13" r="12.42"/><path class="cls-1" d="m165.4,177.64c0-.66.11-1.27.34-1.83s.53-1.03.89-1.4.77-.66,1.21-.87.88-.32,1.31-.32c.31,0,.56,0,.74.02s.41.05.7.11.6.15.94.28l-.18,1c-.36-.21-.68-.37-.97-.48s-.64-.16-1.07-.16c-.8,0-1.47.36-2.02,1.07s-.82,1.57-.82,2.59.27,1.89.82,2.6,1.23,1.06,2.05,1.06c.15,0,.3,0,.43-.02s.25-.02.35-.04.2-.04.32-.08.2-.07.26-.08.14-.06.25-.12.17-.1.2-.12.1-.06.22-.14.19-.12.22-.14l.07.84c-.43.26-.81.43-1.12.52s-.71.14-1.21.14c-1.14,0-2.09-.44-2.83-1.32s-1.11-1.92-1.11-3.11Z"/><path class="cls-1" d="m173.25,181.8v-5.4h.84v1.07c.1-.15.21-.3.35-.44s.36-.29.69-.45c.32-.16.68-.24,1.07-.25v.79c-.21,0-.42.05-.62.11s-.43.18-.66.33-.41.38-.55.68c-.14.3-.21.66-.21,1.07v2.48h-.9Z"/><path class="cls-1" d="m176.54,176.47h.94c.51,1.18.9,2.1,1.15,2.76.26.67.41,1.08.45,1.25s.09.42.13.73c.02-.56.55-2.14,1.6-4.74h.9l-2.6,6.42c-.23.54-.45.9-.65,1.09s-.45.29-.74.29c-.33,0-.62-.03-.87-.1l-.06-.77c.43.14.72.21.87.21.21,0,.38-.08.49-.23.11-.16.28-.51.5-1.05.05-.14.1-.24.13-.32.03-.07.05-.13.05-.19s-.02-.13-.06-.21l-2.24-5.12Z"/><path class="cls-1" d="m182.23,181.4l.15-.81s.07.04.15.09c.09.05.15.09.2.12.04.02.12.06.22.11.1.05.19.09.27.11.08.03.18.06.29.09.11.03.23.05.35.07.12.01.25.02.39.02.4,0,.69-.08.86-.26.17-.17.26-.36.26-.57s-.07-.37-.22-.5-.3-.22-.46-.27c-.08-.02-.26-.06-.53-.12-.28-.06-.48-.1-.61-.14-.33-.11-.61-.28-.86-.54-.25-.25-.38-.57-.38-.94,0-.18.03-.36.08-.52.05-.16.15-.33.28-.5.13-.17.33-.31.61-.41.27-.1.6-.15.98-.15.57,0,1.15.12,1.75.37l-.13.8s-.05-.03-.14-.07c-.08-.04-.13-.06-.14-.07-.01,0-.06-.03-.13-.06-.08-.03-.13-.05-.16-.06-.03,0-.08-.03-.15-.06-.07-.03-.13-.04-.17-.05s-.1-.02-.18-.04-.14-.03-.2-.04-.13,0-.21-.01c-.08,0-.17,0-.26,0-.37,0-.63.07-.78.22-.15.15-.23.32-.23.51,0,.27.11.46.32.57.21.12.51.21.9.27.38.07.65.14.81.21.29.13.53.32.73.58.2.26.3.56.3.92,0,.18-.03.36-.08.54-.05.17-.15.35-.28.52s-.34.32-.61.43c-.27.11-.6.16-.98.16-.7,0-1.38-.18-2.03-.54Z"/><path class="cls-1" d="m186.72,177.17v-.7h1.03v-1.51h.84v1.51h1.69v.7h-1.69v2.96c0,.7.22,1.04.65,1.04.34,0,.69-.13,1.05-.39l.19.71c-.57.3-1.16.45-1.78.45-.66,0-.98-.51-.98-1.54v-3.23h-1.01Z"/><path class="cls-1" d="m191.36,180.45c0-.3.11-.56.34-.78.22-.22.52-.38.88-.49.36-.11.72-.19,1.06-.24.35-.05.69-.08,1.04-.08v-.4c-.02-.51-.12-.88-.31-1.11-.2-.24-.45-.36-.76-.36-.62,0-1.21.2-1.79.61l-.07-.8c.6-.35,1.22-.53,1.87-.53.55,0,1.01.18,1.39.54.37.36.58.8.61,1.32v3.66h-.91v-.42s-.11.08-.22.16c-.12.07-.34.16-.68.25-.34.1-.7.15-1.09.15-.45,0-.79-.16-1.02-.49-.23-.32-.34-.66-.34-1Zm.86-.03c0,.22.11.4.32.55.21.15.48.22.8.22.34,0,.65-.07.93-.22.28-.15.41-.4.41-.75v-.77c-.25,0-.5.02-.75.05-.26.03-.52.08-.79.15-.27.07-.49.17-.66.3s-.25.29-.25.47Z"/><path class="cls-1" d="m197.56,181.8v-8.67h.9v8.67h-.9Z"/><path class="cls-1" d="m216.63,181.8v-8.33h2.83c.73,0,1.35.16,1.85.47.37.23.65.51.86.85s.31.7.31,1.09c0,.63-.26,1.19-.77,1.7-.52.51-1.25.76-2.19.76-.04,0-.1,0-.19,0s-.16,0-.21,0h-1.4v3.46h-1.08Zm1.04-4.17h1.59c.41,0,.78-.06,1.09-.17s.54-.26.7-.45.26-.38.34-.57.11-.38.11-.57c0-.18-.03-.35-.1-.53s-.17-.37-.32-.56-.38-.35-.69-.47-.69-.18-1.13-.18h-1.59v3.49Z"/><path class="cls-1" d="m224.13,181.8v-5.4h.84v1.07c.1-.15.21-.3.35-.44.13-.14.36-.29.69-.45s.68-.24,1.07-.25v.79c-.21,0-.42.05-.62.11-.21.07-.43.18-.66.33-.23.15-.41.38-.55.68-.14.31-.21.66-.21,1.07v2.48h-.9Z"/><path class="cls-1" d="m227.61,179.15c0-.81.26-1.49.78-2.05s1.14-.83,1.85-.83,1.38.29,1.88.87c.5.58.75,1.25.75,2.02s-.26,1.45-.79,1.98-1.14.79-1.84.79-1.32-.27-1.84-.8-.79-1.2-.79-1.99Zm.94-.12c0,.7.17,1.24.51,1.6.34.36.73.54,1.18.54s.84-.18,1.18-.55c.34-.36.51-.89.51-1.59s-.17-1.18-.51-1.51-.73-.5-1.18-.5-.83.17-1.18.5-.52.84-.52,1.51Z"/><path class="cls-1" d="m232.52,183.86l.18-.73c.31.25.62.37.94.38.23,0,.43-.06.59-.18s.27-.26.32-.43c.02-.07.02-.17.02-.31v-6.12h.9v5.94c0,.66-.16,1.14-.47,1.43s-.66.43-1.04.43c-.49,0-.97-.14-1.44-.41Zm1.87-9.13v-1.07h1.09v1.07h-1.09Z"/><path class="cls-1" d="m236.86,179.09c0-.79.24-1.46.72-2,.48-.54,1.05-.81,1.7-.81.24,0,.47.04.68.11s.44.2.66.38.4.44.55.79.23.77.25,1.26v.35h-3.72c.02.6.21,1.09.55,1.47s.75.57,1.22.57c.61,0,1.22-.22,1.82-.66l.08.79c-.61.41-1.24.61-1.9.62-.76,0-1.39-.28-1.88-.85-.49-.56-.74-1.23-.74-2Zm.9-.6h2.98c-.05-.31-.13-.57-.26-.79-.12-.22-.27-.37-.42-.46-.16-.09-.3-.15-.42-.18-.12-.03-.24-.05-.35-.05-.41,0-.74.16-1.01.46-.27.31-.44.65-.52,1.01Z"/><path class="cls-1" d="m242.2,179.13c0-.74.24-1.4.72-1.99s1.12-.87,1.92-.87c.38,0,.69.04.93.11s.56.21.93.42l-.15.79c-.39-.25-.69-.4-.9-.46-.23-.06-.51-.09-.83-.09-.54,0-.96.21-1.25.62s-.44.9-.44,1.47.16,1.08.47,1.47c.31.38.72.58,1.21.58.62,0,1.25-.22,1.89-.65l.06.8c-.63.4-1.29.61-1.96.61-.73,0-1.35-.27-1.85-.82s-.75-1.21-.75-1.99Z"/><path class="cls-1" d="m247.32,177.17v-.7h1.03v-1.51h.84v1.51h1.69v.7h-1.69v2.96c0,.7.22,1.04.65,1.04.34,0,.69-.13,1.05-.39l.19.71c-.57.3-1.16.45-1.78.45-.66,0-.98-.51-.98-1.54v-3.23h-1.01Z"/><path class="cls-1" d="m251.85,179.09c0-.79.24-1.46.72-2,.48-.54,1.05-.81,1.7-.81.24,0,.47.04.68.11s.44.2.66.38.4.44.55.79.23.77.25,1.26v.35h-3.72c.02.6.21,1.09.55,1.47s.75.57,1.22.57c.61,0,1.22-.22,1.82-.66l.08.79c-.61.41-1.24.61-1.9.62-.76,0-1.39-.28-1.88-.85-.49-.56-.74-1.23-.74-2Zm.9-.6h2.98c-.05-.31-.13-.57-.26-.79-.12-.22-.27-.37-.42-.46-.16-.09-.3-.15-.42-.18-.12-.03-.24-.05-.35-.05-.41,0-.74.16-1.01.46-.27.31-.44.65-.52,1.01Z"/><path class="cls-1" d="m257.18,179.15c0-.79.21-1.46.62-2s.92-.81,1.51-.81,1.19.22,1.74.66v-3.86h.9v8.67h-.94v-.62c-.52.5-1.11.76-1.77.76-.59,0-1.09-.28-1.48-.84s-.59-1.21-.59-1.95Zm.94-.01c0,.71.17,1.23.5,1.56s.71.5,1.12.5c.34,0,.63-.11.89-.34.26-.23.39-.45.39-.65v-2.3c0-.15-.08-.31-.25-.46-.26-.24-.55-.36-.89-.36h-.02c-.19,0-.38.04-.57.11s-.37.18-.56.33c-.18.15-.33.36-.44.64-.11.28-.17.61-.17.98Z"/><path class="cls-1" d="m264.1,181.8v-8.33h2.95c.8,0,1.49.19,2.07.56.59.38,1.04.9,1.36,1.57s.48,1.36.48,2.1c0,1.11-.33,2.04-.98,2.79s-1.43,1.18-2.31,1.28c-.13.02-.32.02-.58.02h-2.97Zm1.04-.67h1.72c1,0,1.78-.37,2.34-1.1.47-.62.71-1.39.71-2.32,0-1.02-.27-1.87-.8-2.55s-1.28-1.02-2.25-1.02h-1.72v6.99Z"/><path class="cls-1" d="m272.28,177.67c0-1.24.37-2.29,1.11-3.16.74-.86,1.62-1.3,2.65-1.3s1.88.43,2.63,1.3c.74.86,1.11,1.92,1.11,3.16s-.37,2.3-1.12,3.14c-.75.84-1.62,1.26-2.63,1.26s-1.88-.42-2.63-1.27c-.74-.84-1.12-1.89-1.12-3.13Zm1.87-2.71c-.53.65-.79,1.5-.79,2.55s.25,1.95.74,2.69c.5.74,1.14,1.11,1.92,1.11s1.4-.37,1.91-1.1c.51-.73.76-1.63.76-2.7s-.26-1.9-.79-2.55-1.15-.97-1.88-.97-1.34.32-1.87.97Z"/><path class="cls-1" d="m280.98,181.24l.18-1c.84.67,1.69,1,2.55,1,.52,0,.94-.16,1.27-.48.32-.32.49-.69.49-1.11,0-.31-.09-.6-.28-.86s-.43-.45-.74-.58c-.02,0-.51-.14-1.49-.4-.49-.13-.92-.39-1.29-.79-.37-.4-.56-.88-.56-1.46,0-.61.25-1.16.75-1.64.5-.48,1.15-.71,1.95-.71.76,0,1.49.19,2.21.57l-.17.99c-.34-.26-.65-.45-.94-.58-.29-.13-.66-.19-1.11-.19-.52,0-.94.14-1.26.43-.32.29-.48.62-.48,1,0,.28.09.54.28.77.18.23.42.4.7.52.12.03.41.1.88.22.47.12.78.21.93.28.44.18.82.48,1.13.88.31.4.47.88.47,1.43,0,.68-.26,1.27-.77,1.78-.51.5-1.16.76-1.96.76-.96,0-1.87-.28-2.73-.83Z"/><path class="cls-1" d="m316.85,181.8v-8.29h5.19v.78h-.94s-2.79-.01-2.79-.01h-.38s0,3.01,0,3.01h3.61v.74h-3.61v3.77h-1.08Z"/><path class="cls-1" d="m322.63,179.09c0-.79.24-1.46.72-2,.48-.54,1.05-.81,1.7-.81.24,0,.47.04.68.11s.44.2.66.38.4.44.55.79.23.77.25,1.26v.35h-3.72c.02.6.21,1.09.55,1.47s.75.57,1.22.57c.61,0,1.22-.22,1.82-.66l.08.79c-.61.41-1.24.61-1.9.62-.76,0-1.39-.28-1.88-.85-.49-.56-.74-1.23-.74-2Zm.9-.6h2.98c-.05-.31-.13-.57-.26-.79-.12-.22-.27-.37-.42-.46-.16-.09-.3-.15-.42-.18-.12-.03-.24-.05-.35-.05-.41,0-.74.16-1.01.46-.27.31-.44.65-.52,1.01Z"/><path class="cls-1" d="m328.07,180.45c0-.3.11-.56.34-.78.22-.22.52-.38.88-.49.36-.11.72-.19,1.06-.24.35-.05.69-.08,1.04-.08v-.4c-.02-.51-.12-.88-.31-1.11-.2-.24-.45-.36-.76-.36-.62,0-1.21.2-1.79.61l-.07-.8c.6-.35,1.22-.53,1.87-.53.55,0,1.01.18,1.39.54.37.36.58.8.61,1.32v3.66h-.91v-.42s-.11.08-.22.16c-.12.07-.34.16-.68.25-.34.1-.7.15-1.09.15-.45,0-.79-.16-1.02-.49-.23-.32-.34-.66-.34-1Zm.86-.03c0,.22.11.4.32.55.21.15.48.22.8.22.34,0,.65-.07.93-.22.28-.15.41-.4.41-.75v-.77c-.25,0-.5.02-.75.05s-.52.08-.79.15c-.27.07-.49.17-.66.3-.17.14-.25.29-.25.47Z"/><path class="cls-1" d="m333.52,177.17v-.7h1.03v-1.51h.84v1.51h1.69v.7h-1.69v2.96c0,.7.22,1.04.65,1.04.34,0,.69-.13,1.05-.39l.19.71c-.57.3-1.16.45-1.78.45-.66,0-.98-.51-.98-1.54v-3.23h-1.01Z"/><path class="cls-1" d="m338.59,180.34v-3.87h.94v4.02c0,.28.07.48.2.6.12.12.38.18.76.18.41,0,.75-.11,1-.33.25-.22.4-.48.43-.77,0-.08.01-.19.01-.35v-3.36h.94v5.34h-.91v-.57c-.54.47-1.24.7-2.1.7-.24,0-.44-.04-.61-.11s-.3-.16-.38-.26-.15-.23-.19-.4-.07-.31-.07-.41,0-.24,0-.41Z"/><path class="cls-1" d="m344.8,181.8v-5.4h.84v1.07c.1-.15.21-.3.35-.44.13-.14.36-.29.69-.45s.68-.24,1.07-.25v.79c-.21,0-.42.05-.62.11-.21.07-.43.18-.66.33-.23.15-.41.38-.55.68-.14.31-.21.66-.21,1.07v2.48h-.9Z"/><path class="cls-1" d="m348.34,179.09c0-.79.24-1.46.72-2,.48-.54,1.05-.81,1.7-.81.24,0,.47.04.68.11s.44.2.66.38.4.44.55.79.23.77.25,1.26v.35h-3.72c.02.6.21,1.09.55,1.47s.75.57,1.22.57c.61,0,1.22-.22,1.82-.66l.08.79c-.61.41-1.24.61-1.9.62-.76,0-1.39-.28-1.88-.85-.49-.56-.74-1.23-.74-2Zm.9-.6h2.98c-.05-.31-.13-.57-.26-.79-.12-.22-.27-.37-.42-.46-.16-.09-.3-.15-.42-.18-.12-.03-.24-.05-.35-.05-.41,0-.74.16-1.01.46-.27.31-.44.65-.52,1.01Z"/><line class="cls-6" x1="182.03" y1="65.27" x2="182.03" y2="89.9"/><polygon class="cls-1" points="178.96 87.42 179.51 86.91 182.03 89.61 184.55 86.91 185.1 87.42 182.03 90.72 178.96 87.42"/><line class="cls-6" x1="182.03" y1="115.55" x2="182.03" y2="140.18"/><polygon class="cls-1" points="178.96 137.7 179.51 137.18 182.03 139.89 184.55 137.18 185.1 137.7 182.03 140.99 178.96 137.7"/><line class="cls-6" x1="251.3" y1="115.55" x2="251.3" y2="140.18"/><polygon class="cls-1" points="248.23 137.7 248.78 137.18 251.3 139.89 253.82 137.18 254.36 137.7 251.3 140.99 248.23 137.7"/><circle class="cls-10" cx="334.49" cy="153.41" r="12.42"/><circle class="cls-2" cx="334.49" cy="103.13" r="12.42"/><line class="cls-6" x1="334.49" y1="65.27" x2="334.49" y2="89.9"/><polygon class="cls-1" points="331.42 87.42 331.97 86.91 334.49 89.61 337.01 86.91 337.56 87.42 334.49 90.72 331.42 87.42"/><line class="cls-6" x1="334.49" y1="115.55" x2="334.49" y2="140.18"/><polygon class="cls-1" points="331.42 137.7 331.97 137.18 334.49 139.89 337.01 137.18 337.56 137.7 334.49 140.99 331.42 137.7"/><line class="cls-6" x1="194.19" y1="52.85" x2="245.02" y2="91.91"/><polygon class="cls-1" points="241.18 92.83 241.11 92.08 244.79 91.73 244.18 88.09 244.92 87.96 245.67 92.41 241.18 92.83"/><path class="cls-6" d="m37.82,93.96c13.95-9.69,35.16-22.14,63.17-30.82,27.03-8.37,50.77-10.26,67.54-10.29"/><polygon class="cls-1" points="166.14 56.02 165.61 55.48 168.25 52.89 165.47 50.45 165.96 49.88 169.35 52.86 166.14 56.02"/><path class="cls-6" d="m190.55,93.96c13.95-9.69,35.16-22.14,63.17-30.82,27.03-8.37,50.77-10.26,67.54-10.29"/><polygon class="cls-1" points="318.86 56.02 318.34 55.48 320.97 52.89 318.19 50.45 318.69 49.88 322.07 52.86 318.86 56.02"/><path class="cls-1" d="m144.84,12.76l.08-.45c.07.06.12.11.16.14s.11.07.23.12.25.07.38.07c.2,0,.37-.05.5-.16s.2-.29.2-.54v-3.22h.52v3.23c0,.2-.03.38-.09.52s-.15.26-.25.33-.22.13-.33.16-.24.05-.37.05c-.35,0-.69-.08-1.03-.25Z"/><path class="cls-1" d="m147.6,11.55c0-.4.13-.75.39-1.02s.57-.42.93-.42.69.15.94.44c.25.29.38.63.38,1.01s-.13.73-.39.99-.57.4-.92.4-.66-.13-.92-.4c-.26-.27-.39-.6-.39-.99Zm.47-.06c0,.35.08.62.25.8.17.18.37.27.59.27s.42-.09.59-.27c.17-.18.25-.45.25-.79s-.08-.59-.25-.76c-.17-.17-.37-.25-.59-.25s-.42.08-.59.25c-.17.17-.26.42-.26.76Z"/><path class="cls-1" d="m150.91,12.88v-4.33h.45v1.96c.29-.24.61-.35.96-.35.29,0,.52.14.7.41.18.28.28.6.28.97,0,.4-.11.74-.33,1.01-.22.27-.48.4-.79.4-.28,0-.55-.12-.8-.35v.28h-.47Zm.47-.8s0,.06,0,.07,0,.03.01.05c0,.02.01.03.02.04s.02.02.03.04c.01.02.03.04.04.06.13.16.3.24.49.24.21,0,.41-.08.59-.25s.27-.43.27-.78c0-.19-.03-.35-.08-.49-.05-.14-.12-.25-.21-.32-.09-.07-.17-.12-.26-.16-.09-.03-.18-.05-.26-.05-.16,0-.3.05-.44.14s-.2.19-.2.31v1.12Z"/><circle class="cls-8" cx="138.11" cy="11.4" r="3.92"/><path class="cls-1" d="m178.06,10.92c0-.33.06-.63.17-.92s.26-.52.45-.7.39-.33.61-.44.44-.16.65-.16c.16,0,.28,0,.37,0s.21.02.35.05.3.08.47.14l-.09.5c-.18-.11-.34-.19-.48-.24s-.32-.08-.54-.08c-.4,0-.74.18-1.01.53s-.41.79-.41,1.29.14.94.41,1.3.62.53,1.02.53c.08,0,.15,0,.22,0s.13-.01.17-.02.1-.02.16-.04.1-.03.13-.04.07-.03.12-.06.09-.05.1-.06.05-.03.11-.07.1-.06.11-.07l.04.42c-.22.13-.4.22-.56.26s-.36.07-.6.07c-.57,0-1.04-.22-1.41-.66s-.56-.96-.56-1.55Z"/><path class="cls-1" d="m181.98,13.01v-4.33h.45v2.04c.24-.29.53-.43.86-.43.15,0,.28.02.39.07s.19.1.24.17.1.15.13.25.05.19.05.26,0,.15,0,.25v1.73h-.47v-1.68c0-.07,0-.12,0-.16,0-.04-.01-.1-.04-.17-.02-.07-.05-.13-.09-.18s-.1-.08-.17-.12-.17-.05-.29-.05c-.21,0-.37.09-.46.27s-.15.4-.15.65v1.44h-.47Z"/><path class="cls-1" d="m184.8,11.65c0-.4.12-.73.36-1,.24-.27.52-.41.85-.41.12,0,.23.02.34.06s.22.1.33.19.2.22.27.4.11.39.13.63v.17h-1.86c.01.3.1.55.28.73s.38.28.61.28c.3,0,.61-.11.91-.33l.04.4c-.3.2-.62.31-.95.31-.38,0-.69-.14-.94-.42-.25-.28-.37-.62-.37-1Zm.45-.3h1.49c-.02-.15-.07-.29-.13-.39-.06-.11-.13-.18-.21-.23s-.15-.08-.21-.09c-.06-.02-.12-.02-.18-.02-.2,0-.37.08-.5.23-.13.16-.22.32-.26.51Z"/><path class="cls-1" d="m187.74,13.01v-2.7h.44v.43c.23-.3.52-.46.88-.46.39,0,.64.16.76.49.24-.33.55-.49.91-.49.15,0,.28.02.39.07.11.05.19.11.24.17.05.07.09.15.12.25.03.1.05.19.05.25s0,.15,0,.24v1.73h-.47v-1.72s0-.05-.01-.1-.02-.09-.03-.13-.03-.09-.06-.14c-.03-.05-.06-.1-.1-.13-.04-.04-.09-.07-.16-.1s-.14-.04-.22-.04c-.21,0-.37.09-.47.27s-.15.4-.15.65v1.44h-.47v-1.68c0-.07,0-.12,0-.16,0-.04-.01-.1-.04-.17-.02-.07-.05-.13-.09-.18s-.1-.08-.17-.12-.17-.05-.29-.05c-.21,0-.37.09-.46.27s-.15.4-.15.65v1.44h-.47Z"/><path class="cls-1" d="m192.6,13.01v-4.16h.75l1.64,3.26.23.48v-3.74h.47v4.16h-.75l-1.64-3.26-.23-.48v3.74h-.47Z"/><path class="cls-1" d="m196.45,11.68c0-.4.13-.75.39-1.02s.57-.42.93-.42.69.15.94.44c.25.29.38.63.38,1.01s-.13.73-.39.99-.57.4-.92.4-.66-.13-.92-.4c-.26-.27-.39-.6-.39-.99Zm.47-.06c0,.35.08.62.25.8.17.18.37.27.59.27s.42-.09.59-.27c.17-.18.25-.45.25-.79s-.08-.59-.25-.76c-.17-.17-.37-.25-.59-.25s-.42.08-.59.25c-.17.17-.26.42-.26.76Z"/><path class="cls-1" d="m199.65,11.68c0-.4.1-.73.31-1s.46-.41.76-.41.59.11.87.33v-1.93h.45v4.33h-.47v-.31c-.26.25-.55.38-.89.38-.3,0-.54-.14-.74-.42s-.29-.6-.29-.98Zm.47,0c0,.36.08.62.25.78s.35.25.56.25c.17,0,.32-.06.45-.17.13-.11.19-.22.19-.33v-1.15c0-.08-.04-.15-.13-.23-.13-.12-.28-.18-.44-.18h-.01c-.1,0-.19.02-.28.05-.09.04-.19.09-.28.17-.09.07-.17.18-.22.32-.06.14-.08.3-.08.49Z"/><path class="cls-1" d="m202.74,11.65c0-.4.12-.73.36-1,.24-.27.52-.41.85-.41.12,0,.23.02.34.06s.22.1.33.19.2.22.27.4.11.39.13.63v.17h-1.86c.01.3.1.55.28.73s.38.28.61.28c.3,0,.61-.11.91-.33l.04.4c-.3.2-.62.31-.95.31-.38,0-.69-.14-.94-.42-.25-.28-.37-.62-.37-1Zm.45-.3h1.49c-.02-.15-.07-.29-.13-.39-.06-.11-.13-.18-.21-.23s-.15-.08-.21-.09c-.06-.02-.12-.02-.18-.02-.2,0-.37.08-.5.23-.13.16-.22.32-.26.51Z"/><circle class="cls-7" cx="171.18" cy="11.4" r="3.92"/><path class="cls-1" d="m229.74,10.92c0-.33.06-.63.17-.92s.26-.52.45-.7.39-.33.61-.44.44-.16.65-.16c.16,0,.28,0,.37,0s.21.02.35.05.3.08.47.14l-.09.5c-.18-.11-.34-.19-.48-.24s-.32-.08-.54-.08c-.4,0-.74.18-1.01.53s-.41.79-.41,1.29.14.94.41,1.3.62.53,1.02.53c.08,0,.15,0,.22,0s.13-.01.17-.02.1-.02.16-.04.1-.03.13-.04.07-.03.12-.06.09-.05.1-.06.05-.03.11-.07.1-.06.11-.07l.04.42c-.22.13-.4.22-.56.26s-.36.07-.6.07c-.57,0-1.04-.22-1.41-.66s-.56-.96-.56-1.55Z"/><path class="cls-1" d="m233.44,12.33c0-.15.06-.28.17-.39s.26-.19.44-.25c.18-.05.36-.09.53-.12.17-.03.35-.04.52-.04v-.2c0-.26-.06-.44-.16-.55-.1-.12-.23-.18-.38-.18-.31,0-.61.1-.9.3l-.03-.4c.3-.18.61-.26.94-.26.28,0,.51.09.69.27.19.18.29.4.3.66v1.83h-.45v-.21s-.05.04-.11.08c-.06.04-.17.08-.34.13s-.35.07-.55.07c-.23,0-.4-.08-.51-.24s-.17-.33-.17-.5Zm.43-.01c0,.11.05.2.16.27.11.07.24.11.4.11.17,0,.33-.04.47-.11.14-.07.21-.2.21-.37v-.39c-.12,0-.25,0-.38.02s-.26.04-.4.07c-.14.03-.25.08-.33.15-.08.07-.13.15-.13.24Z"/><path class="cls-1" d="m236.54,13.01v-4.33h.45v4.33h-.45Z"/><path class="cls-1" d="m237.7,11.67c0-.37.12-.7.36-.99s.56-.44.96-.44c.19,0,.34.02.47.05s.28.11.46.21l-.07.4c-.2-.12-.34-.2-.45-.23-.12-.03-.25-.05-.42-.05-.27,0-.48.1-.63.31s-.22.45-.22.73.08.54.23.73c.16.19.36.29.61.29.31,0,.63-.11.94-.32l.03.4c-.32.2-.64.3-.98.31-.37,0-.68-.14-.93-.41s-.38-.61-.38-.99Z"/><path class="cls-1" d="m240.72,13.01v-4.16h.75l1.64,3.26.23.48v-3.74h.47v4.16h-.75l-1.64-3.26-.23-.48v3.74h-.47Z"/><path class="cls-1" d="m244.57,11.68c0-.4.13-.75.39-1.02s.57-.42.93-.42.69.15.94.44c.25.29.38.63.38,1.01s-.13.73-.39.99-.57.4-.92.4-.66-.13-.92-.4c-.26-.27-.39-.6-.39-.99Zm.47-.06c0,.35.08.62.25.8.17.18.37.27.59.27s.42-.09.59-.27c.17-.18.25-.45.25-.79s-.08-.59-.25-.76c-.17-.17-.37-.25-.59-.25s-.42.08-.59.25c-.17.17-.26.42-.26.76Z"/><path class="cls-1" d="m247.77,11.68c0-.4.1-.73.31-1s.46-.41.76-.41.59.11.87.33v-1.93h.45v4.33h-.47v-.31c-.26.25-.55.38-.89.38-.3,0-.54-.14-.74-.42s-.29-.6-.29-.98Zm.47,0c0,.36.08.62.25.78s.35.25.56.25c.17,0,.32-.06.45-.17.13-.11.19-.22.19-.33v-1.15c0-.08-.04-.15-.13-.23-.13-.12-.28-.18-.44-.18h-.01c-.1,0-.19.02-.28.05-.09.04-.19.09-.28.17-.09.07-.17.18-.22.32-.06.14-.08.3-.08.49Z"/><path class="cls-1" d="m250.86,11.65c0-.4.12-.73.36-1,.24-.27.52-.41.85-.41.12,0,.23.02.34.06s.22.1.33.19.2.22.27.4.11.39.13.63v.17h-1.86c.01.3.1.55.28.73s.38.28.61.28c.3,0,.61-.11.91-.33l.04.4c-.3.2-.62.31-.95.31-.38,0-.69-.14-.94-.42-.25-.28-.37-.62-.37-1Zm.45-.3h1.49c-.02-.15-.07-.29-.13-.39-.06-.11-.13-.18-.21-.23s-.15-.08-.21-.09c-.06-.02-.12-.02-.18-.02-.2,0-.37.08-.5.23-.13.16-.22.32-.26.51Z"/><circle class="cls-4" cx="222.86" cy="11.4" r="3.92"/></svg>