<?xml version="1.0" encoding="UTF-8"?><svg id="Layer_1" xmlns="http://www.w3.org/2000/svg" viewBox="0 0 91.04 176.6"><defs><style>.cls-1{stroke-width:1.1px;}.cls-1,.cls-2,.cls-3,.cls-4,.cls-5,.cls-6,.cls-7,.cls-8,.cls-9,.cls-10{stroke:#231f20;stroke-miterlimit:10;}.cls-1,.cls-2,.cls-4,.cls-7{fill:none;}.cls-11{fill:#231f20;}.cls-2,.cls-9,.cls-10{stroke-width:.18px;}.cls-3{stroke-width:.48px;}.cls-3,.cls-5{fill:#fac964;}.cls-4{stroke-width:.75px;}.cls-5,.cls-6{stroke-width:.5px;}.cls-6,.cls-8{fill:#f47648;}.cls-8{stroke-width:.22px;}.cls-9{fill:#6790b5;}.cls-10{fill:#2f4259;}</style></defs><line class="cls-4" x1="44.34" y1="66.15" x2="44.34" y2="77.05"/><polygon class="cls-11" points="41.27 74.56 41.82 74.05 44.34 76.76 46.86 74.05 47.4 74.56 44.34 77.86 41.27 74.56"/><line class="cls-4" x1="44.34" y1="143.04" x2="44.34" y2="153.94"/><polygon class="cls-11" points="41.27 151.45 41.82 150.94 44.34 153.65 46.86 150.94 47.4 151.45 44.34 154.75 41.27 151.45"/><line class="cls-4" x1="21.97" y1="27.13" x2="21.97" y2="38.04"/><polygon class="cls-11" points="18.9 35.55 19.45 35.04 21.97 37.75 24.49 35.04 25.03 35.55 21.97 38.85 18.9 35.55"/><line class="cls-4" x1="66.35" y1="27.13" x2="66.35" y2="38.04"/><polygon class="cls-11" points="63.28 35.55 63.83 35.04 66.35 37.75 68.87 35.04 69.42 35.55 66.35 38.85 63.28 35.55"/><line class="cls-4" x1="44.34" y1="104.51" x2="44.34" y2="115.41"/><polygon class="cls-11" points="41.27 112.92 41.82 112.41 44.34 115.12 46.86 112.41 47.4 112.92 44.34 116.22 41.27 112.92"/><path class="cls-11" d="m28.35,55.78v-8.33h2.71c.57,0,1.08.07,1.52.22s.77.34,1.01.57.41.48.52.72.17.48.17.72c0,.46-.18.9-.53,1.29s-.86.69-1.52.88l2.39,3.91h-1.08l-2.24-3.79h-1.89v3.79h-1.04Zm1.04-4.54h1.58c.84,0,1.44-.16,1.79-.47s.53-.67.53-1.07c0-.18-.04-.35-.11-.52s-.19-.33-.35-.5-.4-.3-.71-.4-.69-.16-1.12-.16h-1.62v3.12Z"/><path class="cls-11" d="m35.37,53.06c0-.79.24-1.46.72-2,.48-.54,1.05-.81,1.7-.81.24,0,.47.04.68.11s.44.2.66.38.4.44.55.79.23.77.25,1.26v.35h-3.72c.02.6.21,1.09.55,1.47s.75.57,1.22.57c.61,0,1.22-.22,1.82-.66l.08.79c-.61.41-1.24.61-1.9.62-.76,0-1.39-.28-1.88-.85-.49-.56-.74-1.23-.74-2Zm.9-.6h2.98c-.05-.31-.13-.57-.26-.79s-.27-.37-.42-.46-.3-.15-.42-.18c-.12-.03-.24-.05-.35-.05-.41,0-.74.16-1.01.46s-.44.65-.52,1.01Z"/><path class="cls-11" d="m40.71,53.1c0-.74.24-1.41.72-1.99.48-.58,1.12-.87,1.92-.87.38,0,.69.04.93.11s.56.21.93.42l-.15.79c-.39-.25-.69-.4-.9-.46-.23-.06-.51-.09-.83-.09-.54,0-.96.21-1.25.62-.29.41-.44.9-.44,1.47s.16,1.08.47,1.47.72.58,1.21.58c.62,0,1.25-.22,1.89-.65l.06.8c-.63.4-1.29.61-1.96.61-.73,0-1.35-.27-1.85-.82-.5-.55-.75-1.21-.75-1.99Z"/><path class="cls-11" d="m46.51,48.7v-1.07h1.08v1.07h-1.08Zm.08,7.08v-5.34h.81v5.34h-.81Z"/><path class="cls-11" d="m49.45,58.12v-7.68h.9v.59c.59-.47,1.25-.71,1.99-.71.55,0,1,.28,1.35.83s.53,1.2.53,1.94c0,.83-.22,1.5-.66,2.03-.44.53-.96.8-1.56.8s-1.13-.23-1.62-.7v2.9h-.94Zm.94-3.86c0,.18.11.37.34.59.23.22.5.32.82.32.45,0,.85-.19,1.21-.58.36-.38.53-.88.53-1.49,0-.54-.15-1.01-.45-1.42s-.69-.6-1.17-.6c-.09,0-.17,0-.25.02s-.15.03-.22.06c-.07.03-.13.06-.19.08s-.11.06-.17.09-.1.07-.14.1-.08.07-.11.11c-.04.04-.07.07-.08.1s-.04.05-.06.07l-.04.05v2.49Z"/><path class="cls-11" d="m55.42,53.06c0-.79.24-1.46.72-2,.48-.54,1.05-.81,1.7-.81.24,0,.47.04.68.11s.44.2.66.38.4.44.55.79.23.77.25,1.26v.35h-3.72c.02.6.21,1.09.55,1.47s.75.57,1.22.57c.61,0,1.22-.22,1.82-.66l.08.79c-.61.41-1.24.61-1.9.62-.76,0-1.39-.28-1.88-.85-.49-.56-.74-1.23-.74-2Zm.9-.6h2.98c-.05-.31-.13-.57-.26-.79s-.27-.37-.42-.46-.3-.15-.42-.18c-.12-.03-.24-.05-.35-.05-.41,0-.74.16-1.01.46s-.44.65-.52,1.01Z"/><rect class="cls-7" x="11.29" y="38.85" width="66.11" height="26.81"/><path class="cls-11" d="m10.92,133.15v-8.33h2.71c.57,0,1.08.07,1.52.22s.77.34,1.01.57.41.48.52.72.17.48.17.72c0,.46-.18.9-.53,1.29s-.86.69-1.52.88l2.39,3.91h-1.08l-2.24-3.79h-1.89v3.79h-1.04Zm1.04-4.54h1.58c.84,0,1.44-.16,1.79-.47s.53-.67.53-1.07c0-.18-.04-.35-.11-.52s-.19-.33-.35-.5-.4-.3-.71-.4-.69-.16-1.12-.16h-1.62v3.12Z"/><path class="cls-11" d="m17.94,130.44c0-.79.24-1.46.72-2s1.05-.81,1.7-.81c.24,0,.47.04.68.11s.44.2.66.38.4.44.55.79.23.77.25,1.26v.35h-3.72c.02.6.21,1.09.55,1.47s.75.57,1.22.57c.61,0,1.22-.22,1.82-.66l.08.79c-.61.41-1.24.61-1.9.62-.76,0-1.39-.28-1.88-.85s-.74-1.23-.74-2Zm.9-.6h2.98c-.05-.31-.13-.57-.26-.79-.12-.22-.27-.37-.42-.46-.16-.09-.3-.15-.42-.18s-.24-.05-.35-.05c-.41,0-.74.16-1.01.46-.27.31-.44.65-.52,1.01Z"/><path class="cls-11" d="m23.28,130.48c0-.74.24-1.4.72-1.99.48-.58,1.12-.87,1.92-.87.38,0,.69.04.93.11s.56.21.93.42l-.15.79c-.39-.25-.69-.4-.9-.46-.23-.06-.51-.09-.83-.09-.54,0-.96.21-1.25.62-.29.41-.44.9-.44,1.47s.16,1.08.47,1.47c.31.38.72.58,1.21.58.62,0,1.25-.21,1.89-.65l.06.8c-.63.4-1.29.61-1.96.61-.73,0-1.35-.27-1.85-.82-.5-.55-.75-1.21-.75-1.99Z"/><path class="cls-11" d="m29.07,126.07v-1.07h1.08v1.07h-1.08Zm.08,7.08v-5.34h.81v5.34h-.81Z"/><path class="cls-11" d="m32.02,135.49v-7.68h.9v.59c.59-.47,1.25-.71,1.99-.71.55,0,1,.28,1.35.83.36.55.53,1.2.53,1.94,0,.83-.22,1.5-.66,2.04-.44.53-.96.79-1.56.79s-1.13-.23-1.62-.7v2.9h-.94Zm.94-3.86c0,.17.11.37.34.59.23.22.5.32.82.32.45,0,.85-.19,1.21-.58s.53-.88.53-1.49c0-.54-.15-1.01-.45-1.42-.3-.4-.69-.6-1.17-.6-.09,0-.17,0-.25.02s-.15.03-.22.06-.13.06-.19.08-.11.06-.17.09c-.05.04-.1.07-.14.1s-.08.07-.11.11-.07.07-.08.1-.04.05-.06.07l-.04.05v2.49Z"/><path class="cls-11" d="m37.99,130.44c0-.79.24-1.46.72-2s1.05-.81,1.7-.81c.24,0,.47.04.68.11s.44.2.66.38.4.44.55.79.23.77.25,1.26v.35h-3.72c.02.6.21,1.09.55,1.47s.75.57,1.22.57c.61,0,1.22-.22,1.82-.66l.08.79c-.61.41-1.24.61-1.9.62-.76,0-1.39-.28-1.88-.85s-.74-1.23-.74-2Zm.9-.6h2.98c-.05-.31-.13-.57-.26-.79-.12-.22-.27-.37-.42-.46-.16-.09-.3-.15-.42-.18s-.24-.05-.35-.05c-.41,0-.74.16-1.01.46-.27.31-.44.65-.52,1.01Z"/><path class="cls-11" d="m48.04,133.15v-8.33h2.83c.73,0,1.35.16,1.85.47.37.23.65.51.86.85s.31.7.31,1.09c0,.63-.26,1.19-.77,1.7-.52.51-1.25.76-2.19.76-.04,0-.1,0-.19,0s-.16,0-.21,0h-1.4v3.46h-1.08Zm1.04-4.17h1.59c.41,0,.78-.06,1.09-.17s.54-.26.7-.45.26-.38.34-.57.11-.38.11-.57c0-.18-.03-.35-.1-.53s-.17-.37-.32-.56-.38-.35-.69-.47-.69-.18-1.13-.18h-1.59v3.49Z"/><path class="cls-11" d="m54.75,131.8c0-.3.11-.56.34-.78.22-.22.52-.38.88-.49.36-.11.72-.19,1.06-.24.35-.05.69-.08,1.04-.08v-.4c-.02-.51-.12-.88-.31-1.11-.2-.24-.45-.36-.76-.36-.62,0-1.21.2-1.79.61l-.07-.8c.6-.35,1.22-.53,1.87-.53.55,0,1.01.18,1.39.54.37.36.58.8.61,1.32v3.66h-.91v-.42s-.11.08-.22.16-.34.16-.68.25c-.34.1-.7.15-1.09.15-.45,0-.79-.16-1.02-.49-.23-.32-.34-.66-.34-1Zm.86-.03c0,.22.11.4.32.55.21.15.48.22.8.22.34,0,.66-.07.93-.22.28-.15.41-.4.41-.75v-.77c-.25,0-.5.02-.75.05-.26.03-.52.08-.79.15-.27.07-.49.17-.66.3-.17.13-.25.29-.25.47Z"/><path class="cls-11" d="m60.62,133.15v-5.4h.84v1.07c.1-.15.21-.3.35-.44.13-.14.36-.29.69-.45.32-.16.68-.24,1.07-.25v.79c-.21,0-.42.05-.62.12-.21.07-.43.18-.66.33-.23.15-.41.38-.55.68s-.21.66-.21,1.07v2.48h-.9Z"/><path class="cls-11" d="m64.07,132.75l.15-.81s.07.04.15.09c.09.05.15.09.2.11.04.02.12.06.22.11.1.05.19.09.27.12.08.03.18.06.29.09.11.03.23.05.35.07.12.01.25.02.39.02.4,0,.69-.08.86-.26.17-.17.26-.36.26-.57s-.07-.37-.22-.5c-.14-.13-.3-.22-.46-.27-.08-.02-.26-.06-.54-.12-.28-.06-.48-.1-.61-.14-.33-.11-.61-.29-.86-.54-.25-.25-.38-.57-.38-.94,0-.18.03-.36.08-.52.05-.16.15-.33.28-.5s.33-.31.61-.41c.27-.1.6-.15.98-.15.57,0,1.15.12,1.75.37l-.13.8s-.05-.03-.14-.07c-.08-.04-.13-.06-.14-.07-.01,0-.05-.03-.13-.06-.08-.03-.13-.05-.16-.06s-.08-.03-.15-.06-.13-.04-.17-.05-.1-.02-.18-.04-.14-.03-.2-.04-.13,0-.21-.01-.17,0-.26,0c-.37,0-.63.07-.78.22-.15.15-.23.32-.23.51,0,.27.11.46.32.57.21.12.51.21.9.27s.66.14.81.21c.29.13.53.32.73.58.2.26.3.57.3.93,0,.18-.03.36-.08.54s-.15.35-.28.52c-.13.17-.33.32-.61.42-.27.11-.6.16-.98.16-.7,0-1.38-.18-2.03-.54Z"/><path class="cls-11" d="m68.76,130.44c0-.79.24-1.46.72-2s1.05-.81,1.7-.81c.24,0,.47.04.68.11s.44.2.66.38.4.44.55.79.23.77.25,1.26v.35h-3.72c.02.6.21,1.09.55,1.47s.75.57,1.22.57c.61,0,1.22-.22,1.82-.66l.08.79c-.61.41-1.24.61-1.9.62-.76,0-1.39-.28-1.88-.85s-.74-1.23-.74-2Zm.9-.6h2.98c-.05-.31-.13-.57-.26-.79-.12-.22-.27-.37-.42-.46-.16-.09-.3-.15-.42-.18s-.24-.05-.35-.05c-.41,0-.74.16-1.01.46-.27.31-.44.65-.52,1.01Z"/><path class="cls-11" d="m74.65,133.15v-5.4h.84v1.07c.1-.15.21-.3.35-.44.13-.14.36-.29.69-.45.32-.16.68-.24,1.07-.25v.79c-.21,0-.42.05-.62.12-.21.07-.43.18-.66.33-.23.15-.41.38-.55.68s-.21.66-.21,1.07v2.48h-.9Z"/><rect class="cls-1" x="4.52" y="116.22" width="79.64" height="26.81"/><rect class="cls-3" x="15.59" y="10.8" width="12.76" height="16.33"/><rect class="cls-6" x="59.97" y="10.8" width="12.76" height="16.33"/><path class="cls-11" d="m26.66,100.01v-3.6h.56v.71c.06-.1.14-.2.23-.29s.24-.19.46-.3c.22-.11.45-.16.71-.17v.53c-.14,0-.28.03-.42.08-.14.05-.29.12-.44.22-.15.1-.28.25-.37.45-.09.2-.14.44-.14.71v1.65h-.6Z"/><path class="cls-11" d="m29.1,99.11c0-.2.07-.37.22-.52.15-.15.34-.26.59-.33.24-.07.48-.12.71-.16.23-.04.46-.05.7-.05v-.27c-.01-.34-.08-.59-.21-.74-.13-.16-.3-.24-.5-.24-.41,0-.81.13-1.2.41l-.05-.54c.4-.23.82-.35,1.25-.35.37,0,.68.12.92.36s.38.54.41.88v2.44h-.61v-.28s-.07.05-.15.1c-.08.05-.23.1-.45.17-.22.06-.47.1-.73.1-.3,0-.53-.11-.68-.32-.15-.22-.23-.44-.23-.67Zm.57-.02c0,.15.07.27.21.37.14.1.32.15.53.15.23,0,.44-.05.62-.15.18-.1.28-.26.28-.5v-.51c-.17,0-.33.01-.5.03-.17.02-.35.05-.53.1-.18.04-.33.11-.44.2-.11.09-.17.2-.17.31Z"/><path class="cls-11" d="m32.48,96.45h.6c.52,1.64.81,2.7.86,3.16.02-.33.3-1.38.85-3.16h.57l.58,1.95c.19.67.29,1.08.3,1.21.03-.26.32-1.31.89-3.16h.57l-1.1,3.56h-.7c-.36-1.2-.59-1.95-.67-2.26-.08-.31-.15-.6-.19-.89-.01.27-.29,1.32-.85,3.15h-.63l-1.1-3.56Z"/><path class="cls-11" d="m40.73,98.24c0-.54.17-1,.52-1.37.34-.37.76-.55,1.24-.55s.92.19,1.25.58c.33.39.5.84.5,1.35s-.18.97-.53,1.32c-.35.35-.76.53-1.23.53s-.88-.18-1.23-.53c-.35-.35-.53-.8-.53-1.32Zm.62-.08c0,.47.11.82.34,1.06.23.24.49.36.79.36s.56-.12.79-.36c.23-.24.34-.6.34-1.06s-.11-.79-.34-1.01c-.23-.22-.49-.34-.79-.34s-.56.11-.79.34c-.23.22-.34.56-.34,1.01Z"/><path class="cls-11" d="m45.13,99.03v-2.58h.62v2.68c0,.19.05.32.13.4.08.08.25.12.51.12.28,0,.5-.07.67-.22.17-.15.26-.32.29-.51,0-.05,0-.13,0-.23v-2.24h.62v3.56h-.61v-.38c-.36.31-.83.47-1.4.47-.16,0-.29-.03-.41-.08s-.2-.11-.25-.17c-.06-.07-.1-.16-.13-.27-.03-.12-.04-.21-.05-.27,0-.07,0-.16,0-.28Z"/><path class="cls-11" d="m48.77,96.92v-.47h.69v-1.01h.56v1.01h1.13v.47h-1.13v1.97c0,.46.14.7.43.7.22,0,.46-.09.7-.26l.13.47c-.38.2-.77.3-1.18.3-.44,0-.66-.34-.66-1.03v-2.15h-.67Z"/><path class="cls-11" d="m52.16,101.57v-5.12h.6v.39c.39-.32.83-.47,1.33-.47.36,0,.67.18.9.55.24.37.36.8.36,1.29,0,.55-.15,1-.44,1.36s-.64.53-1.04.53-.76-.16-1.08-.46v1.93h-.62Zm.62-2.57c0,.12.08.25.23.39.15.14.33.22.55.22.3,0,.57-.13.8-.38.24-.26.36-.59.36-.99,0-.36-.1-.68-.3-.94-.2-.27-.46-.4-.78-.4-.06,0-.12,0-.17.01-.05,0-.1.02-.15.04-.05.02-.09.04-.13.06-.04.02-.08.04-.11.06s-.07.05-.09.07c-.03.02-.05.05-.08.07-.03.03-.04.05-.06.06-.01.02-.03.03-.04.05l-.02.03v1.66Z"/><path class="cls-11" d="m56.28,99.03v-2.58h.62v2.68c0,.19.05.32.13.4.08.08.25.12.51.12.28,0,.5-.07.67-.22.17-.15.26-.32.29-.51,0-.05,0-.13,0-.23v-2.24h.62v3.56h-.61v-.38c-.36.31-.83.47-1.4.47-.16,0-.29-.03-.41-.08s-.2-.11-.25-.17c-.06-.07-.1-.16-.13-.27-.03-.12-.04-.21-.05-.27,0-.07,0-.16,0-.28Z"/><path class="cls-11" d="m59.92,96.92v-.47h.69v-1.01h.56v1.01h1.13v.47h-1.13v1.97c0,.46.14.7.43.7.22,0,.46-.09.7-.26l.13.47c-.38.2-.77.3-1.18.3-.44,0-.66-.34-.66-1.03v-2.15h-.67Z"/><path class="cls-11" d="m9.95,8.41l.11-.6c.1.09.17.15.21.19.04.04.15.09.31.16.16.07.33.1.51.1.27,0,.49-.07.67-.21.18-.14.27-.38.27-.73V3.02h.7v4.31c0,.27-.04.5-.12.7-.08.2-.2.34-.34.44-.14.1-.29.17-.45.21-.16.04-.32.06-.5.06-.47,0-.92-.11-1.37-.34Z"/><path class="cls-11" d="m13.63,6.81c0-.54.17-.99.52-1.36.34-.37.76-.56,1.24-.56s.92.19,1.25.58c.33.39.5.84.5,1.35s-.18.97-.53,1.32c-.35.35-.76.53-1.23.53s-.88-.18-1.23-.53c-.35-.36-.53-.8-.53-1.33Zm.62-.08c0,.47.11.82.34,1.06.23.24.49.36.79.36s.56-.12.79-.36c.23-.24.34-.6.34-1.06s-.11-.79-.34-1.01c-.23-.22-.49-.34-.79-.34s-.56.11-.79.34c-.23.22-.34.56-.34,1.01Z"/><path class="cls-11" d="m18.04,8.57V2.8h.6v2.61c.39-.32.82-.47,1.28-.47.38,0,.69.18.94.55.25.37.37.8.37,1.29,0,.54-.15.99-.44,1.35-.29.36-.64.54-1.05.54-.38,0-.73-.15-1.07-.46v.37h-.62Zm.62-1.07s0,.07,0,.1c0,.02,0,.05.02.07,0,.02.02.04.02.05,0,0,.02.03.04.05.02.03.04.05.05.07.18.21.4.32.66.32.28,0,.54-.11.79-.33.24-.22.36-.57.36-1.04,0-.25-.04-.47-.1-.65-.07-.19-.16-.33-.28-.42-.12-.1-.23-.17-.35-.21-.12-.05-.23-.07-.35-.07-.21,0-.4.06-.58.18-.18.12-.27.26-.27.41v1.49Z"/><path class="cls-11" d="m22.28,8.57V3.02h.72v5.55h-.72Z"/><path class="cls-11" d="m24.39,8.57v-3.6h.58v.57c.31-.41.7-.61,1.17-.61.2,0,.37.03.51.09.14.06.25.13.32.22s.13.19.17.32c.04.13.07.25.08.35,0,.1.02.22.02.36v2.3h-.62v-2.24c0-.09,0-.16,0-.22,0-.05-.02-.13-.05-.23-.03-.1-.07-.18-.12-.24s-.13-.11-.23-.16c-.1-.04-.23-.07-.38-.07-.28,0-.49.12-.62.36-.13.24-.19.53-.19.87v1.92h-.62Z"/><path class="cls-11" d="m28.1,5.48v-.47h.59v-.59s0-.05,0-.1c0-.04,0-.07,0-.1,0-.49.13-.87.4-1.14s.58-.4.94-.4c.2,0,.41.03.63.09v.54c-.23-.09-.45-.14-.65-.14-.18,0-.35.05-.51.16-.16.11-.24.3-.24.57v1.09h.91v.47h-.88v3.09h-.6v-3.09h-.59Z"/><path class="cls-11" d="m30.56,6.81c0-.54.17-.99.52-1.36.34-.37.76-.56,1.24-.56s.92.19,1.25.58c.33.39.5.84.5,1.35s-.18.97-.53,1.32c-.35.35-.76.53-1.23.53s-.88-.18-1.23-.53c-.35-.36-.53-.8-.53-1.33Zm.62-.08c0,.47.11.82.34,1.06.23.24.49.36.79.36s.56-.12.79-.36c.23-.24.34-.6.34-1.06s-.11-.79-.34-1.01c-.23-.22-.49-.34-.79-.34s-.56.11-.79.34c-.23.22-.34.56-.34,1.01Z"/><path class="cls-11" d="m47.37,8.57V3.05h3.57v.52h-.66s-1.92,0-1.92,0h-.28s0,1.89,0,1.89h2.64v.5h-2.64v2.07h.87s1.55,0,1.55,0h.18s.37,0,.37,0v.57h-3.69Z"/><path class="cls-11" d="m52.04,8.57v-3.6h.58v.57c.31-.41.7-.61,1.17-.61.2,0,.37.03.51.09s.25.13.32.22.13.19.17.32c.04.13.07.25.08.35s.02.22.02.36v2.3h-.62v-2.24c0-.09,0-.16,0-.22,0-.05-.02-.13-.05-.23s-.07-.18-.12-.24-.13-.11-.23-.16c-.1-.05-.23-.07-.38-.07-.28,0-.49.12-.62.36s-.19.53-.19.87v1.92h-.62Z"/><path class="cls-11" d="m55.64,5.02h.61l.75,1.95c.23.65.36,1.05.38,1.21.04-.27.42-1.32,1.12-3.16h.59l-1.38,3.56h-.7l-1.38-3.56Z"/><path class="cls-11" d="m59.57,8.2l.12-.67c.56.44,1.12.67,1.7.67.35,0,.63-.11.84-.32s.33-.46.33-.74c0-.21-.06-.4-.19-.57-.12-.17-.29-.3-.49-.38-.01,0-.34-.09-.99-.27-.33-.09-.61-.26-.86-.53-.25-.26-.37-.59-.37-.98,0-.41.17-.77.5-1.09.33-.32.76-.48,1.3-.48.5,0,1,.13,1.47.38l-.11.66c-.22-.17-.43-.3-.63-.39s-.44-.13-.74-.13c-.35,0-.63.09-.84.29-.21.19-.32.41-.32.67,0,.19.06.36.18.52.12.15.28.27.47.35.08.02.27.07.58.15s.52.14.62.18c.29.12.55.32.76.59.21.27.31.59.31.95,0,.45-.17.85-.51,1.18-.34.34-.78.5-1.31.5-.64,0-1.25-.18-1.82-.55Z"/><path class="cls-11" d="m63.93,6.76c0-.53.16-.97.48-1.33.32-.36.7-.54,1.13-.54.16,0,.31.03.46.08s.29.13.44.25.27.29.37.53.15.51.17.84v.23h-2.48c.02.4.14.73.37.98.23.25.5.38.82.38.41,0,.81-.15,1.21-.44l.05.53c-.41.27-.83.41-1.27.41-.51,0-.92-.19-1.25-.56-.33-.38-.49-.82-.49-1.33Zm.6-.4h1.98c-.03-.21-.09-.38-.17-.53s-.18-.25-.28-.31c-.1-.06-.2-.1-.28-.12-.08-.02-.16-.03-.24-.03-.27,0-.5.1-.67.31-.18.21-.29.43-.34.67Z"/><path class="cls-11" d="m67.35,5.48v-.47h.69v-1.01h.56v1.01h1.13v.47h-1.13v1.97c0,.46.14.7.43.7.22,0,.46-.09.7-.26l.13.47c-.38.2-.77.3-1.18.3-.44,0-.66-.34-.66-1.03v-2.15h-.67Z"/><path class="cls-11" d="m70.23,5.48v-.47h.69v-1.01h.56v1.01h1.13v.47h-1.13v1.97c0,.46.14.7.43.7.22,0,.46-.09.7-.26l.13.47c-.38.2-.77.3-1.18.3-.44,0-.66-.34-.66-1.03v-2.15h-.67Z"/><path class="cls-11" d="m73.57,3.86v-.71h.72v.71h-.72Zm.05,4.72v-3.56h.54v3.56h-.54Z"/><path class="cls-11" d="m75.53,8.57v-3.6h.58v.57c.31-.41.7-.61,1.17-.61.2,0,.37.03.51.09s.25.13.32.22.13.19.17.32c.04.13.07.25.08.35s.02.22.02.36v2.3h-.62v-2.24c0-.09,0-.16,0-.22,0-.05-.02-.13-.05-.23s-.07-.18-.12-.24-.13-.11-.23-.16c-.1-.05-.23-.07-.38-.07-.28,0-.49.12-.62.36s-.19.53-.19.87v1.92h-.62Z"/><path class="cls-11" d="m79.24,9.15c0-.35.17-.62.51-.83-.13-.19-.2-.39-.2-.6,0-.24.08-.47.23-.68h0c-.18-.24-.27-.5-.27-.81,0-.38.13-.69.38-.93.25-.25.54-.37.88-.37.28,0,.54.09.8.27l-.02-.02c.4-.16.82-.25,1.26-.25l.09.49c-.16-.02-.32-.02-.47-.02-.02,0-.21.01-.6.03l-.07-.06c.21.29.31.57.31.86,0,.35-.12.66-.37.92-.25.26-.55.4-.92.4-.23,0-.47-.08-.72-.24-.08.12-.12.22-.12.3,0,.11.03.21.1.3.07.09.18.13.36.13h.61c.19,0,.35,0,.48.02.13.01.29.04.49.09.2.05.36.13.49.25.13.12.22.27.27.46.03.11.04.2.04.29,0,.31-.17.57-.52.77-.35.21-.77.31-1.26.31s-.91-.1-1.25-.31c-.34-.21-.51-.46-.51-.77Zm.56,0c0,.14.07.26.21.36s.3.17.47.21.34.06.51.06c.34,0,.63-.06.87-.17.24-.12.36-.27.36-.45,0-.37-.4-.56-1.21-.56h-.73c-.15.02-.27.08-.36.19-.09.11-.13.23-.13.35Zm.28-2.91c0,.26.07.46.2.62s.31.23.53.23c.18,0,.35-.07.49-.2.15-.13.22-.35.22-.66,0-.26-.07-.46-.2-.62-.13-.15-.3-.23-.52-.23-.18,0-.35.07-.49.2s-.22.35-.22.66Z"/><path class="cls-11" d="m83.23,8.31l.1-.54s.04.03.1.06.1.06.13.08c.03.02.08.04.14.07.07.03.13.06.18.08.06.02.12.04.2.06.07.02.15.04.24.04.08,0,.17.01.26.01.27,0,.46-.06.57-.17.12-.11.17-.24.17-.38s-.05-.24-.15-.33c-.1-.09-.2-.15-.3-.18-.05-.02-.17-.04-.36-.08-.19-.04-.32-.07-.41-.1-.22-.07-.41-.19-.58-.36-.17-.17-.25-.38-.25-.63,0-.12.02-.24.05-.35s.1-.22.19-.34c.09-.11.22-.21.41-.27s.4-.1.66-.1c.38,0,.77.08,1.16.25l-.08.53s-.04-.02-.09-.04c-.06-.03-.09-.04-.09-.05,0,0-.04-.02-.09-.04-.05-.02-.09-.03-.11-.04-.02,0-.05-.02-.1-.04-.05-.02-.08-.03-.11-.03s-.07-.01-.12-.02-.1-.02-.13-.02-.09,0-.14,0c-.05,0-.11,0-.17,0-.25,0-.42.05-.52.15-.1.1-.15.21-.15.34,0,.18.07.3.21.38s.34.14.6.18c.26.04.44.09.54.14.19.09.35.21.49.39.13.17.2.38.2.62,0,.12-.02.24-.05.36s-.1.23-.19.35-.22.21-.41.28c-.18.07-.4.11-.65.11-.47,0-.92-.12-1.35-.36Z"/><path class="cls-5" d="m51.72,93.13h-14.77c-.53,0-.96-.43-.96-.96v-9.35c0-.53.43-.96.96-.96h7.93l1.52-1.37h5.32c.53,0,.96.43.96.96v10.71c0,.53-.43.96-.96.96Z"/><path class="cls-11" d="m53.63,169.05l.11-.6c.1.09.17.15.21.19.04.04.15.09.31.16.16.07.33.1.51.1.27,0,.49-.07.67-.21.18-.14.27-.38.27-.73v-4.29h.7v4.31c0,.27-.04.5-.12.7s-.2.34-.34.44-.29.17-.45.21c-.15.04-.32.06-.5.06-.47,0-.92-.11-1.37-.34Z"/><path class="cls-11" d="m57.32,167.44c0-.54.17-.99.52-1.36.35-.37.76-.56,1.24-.56s.92.19,1.25.58c.33.39.5.84.5,1.35s-.17.97-.53,1.32c-.35.35-.76.53-1.23.53s-.88-.18-1.23-.53c-.35-.36-.53-.8-.53-1.33Zm.62-.08c0,.47.11.82.34,1.06.23.24.49.36.79.36s.56-.12.79-.36c.23-.24.34-.6.34-1.06s-.11-.79-.34-1.01c-.23-.22-.49-.34-.79-.34s-.56.11-.79.34c-.23.22-.34.56-.34,1.01Z"/><path class="cls-11" d="m61.73,169.21v-5.78h.6v2.61c.39-.32.82-.47,1.28-.47.38,0,.69.18.94.55.25.37.37.8.37,1.29,0,.54-.15.99-.44,1.35-.29.36-.64.54-1.05.54-.38,0-.73-.15-1.07-.46v.37h-.62Zm.62-1.07s0,.07,0,.1c0,.02,0,.05.02.07,0,.02.02.04.02.05,0,0,.02.03.04.05.02.03.04.05.05.07.18.21.4.32.66.32.28,0,.55-.11.79-.33.24-.22.36-.57.36-1.04,0-.25-.03-.47-.1-.65-.07-.19-.16-.33-.28-.42-.11-.1-.23-.17-.35-.21-.12-.05-.23-.07-.35-.07-.21,0-.4.06-.58.18-.18.12-.27.26-.27.41v1.49Z"/><path class="cls-11" d="m65.97,169.21v-5.55h1.8c.38,0,.72.05,1.01.15.29.1.52.23.67.38s.27.32.35.48c.07.16.11.32.11.48,0,.31-.12.6-.35.86s-.57.46-1.02.59l1.59,2.61h-.72l-1.5-2.53h-1.26v2.53h-.7Zm.7-3.02h1.05c.56,0,.96-.11,1.2-.32.24-.21.36-.45.36-.71,0-.12-.02-.23-.07-.34-.05-.11-.12-.22-.23-.33-.11-.11-.27-.2-.48-.27s-.46-.11-.75-.11h-1.08v2.08Z"/><path class="cls-11" d="m70.65,167.4c0-.53.16-.97.48-1.33.32-.36.7-.54,1.13-.54.16,0,.31.03.46.08s.29.13.44.25c.15.12.27.29.37.53.1.23.15.51.17.84v.23h-2.48c.02.4.14.73.37.98.23.25.5.38.82.38.41,0,.81-.15,1.21-.44l.05.53c-.41.27-.83.41-1.27.41-.51,0-.92-.19-1.25-.56-.33-.38-.49-.82-.49-1.33Zm.6-.4h1.98c-.03-.21-.09-.38-.17-.53-.08-.14-.18-.25-.28-.31-.1-.06-.2-.1-.28-.12s-.16-.03-.24-.03c-.27,0-.49.1-.67.31-.18.21-.29.43-.34.67Z"/><path class="cls-11" d="m74.14,168.94l.1-.54s.04.03.1.06.1.06.13.08c.03.02.08.04.14.07.07.03.13.06.18.08s.12.04.19.06c.07.02.15.04.24.04.08,0,.17.01.26.01.27,0,.46-.06.57-.17.12-.11.17-.24.17-.38s-.05-.24-.14-.33-.2-.15-.31-.18c-.05-.02-.17-.04-.36-.08s-.32-.07-.41-.1c-.22-.07-.41-.19-.58-.36-.17-.17-.25-.38-.25-.63,0-.12.02-.24.05-.35s.1-.22.19-.34c.09-.12.22-.21.41-.27.18-.07.4-.1.66-.1.38,0,.77.08,1.16.25l-.08.53s-.04-.02-.09-.04c-.06-.02-.09-.04-.09-.04,0,0-.04-.02-.09-.04-.05-.02-.08-.04-.1-.04-.02,0-.05-.02-.1-.04-.05-.02-.08-.03-.11-.03-.03,0-.07,0-.12-.02-.05-.01-.1-.02-.13-.02-.04,0-.09,0-.14,0-.05,0-.11,0-.17,0-.25,0-.42.05-.52.15-.1.1-.15.21-.15.34,0,.18.07.3.21.38s.34.14.6.18c.26.04.44.09.54.14.19.09.35.21.49.39.13.17.2.38.2.62,0,.12-.02.24-.05.36-.04.12-.1.23-.19.35-.09.12-.22.21-.41.28s-.4.11-.65.11c-.47,0-.92-.12-1.35-.36Z"/><path class="cls-11" d="m77.63,168.24v-2.58h.62v2.68c0,.19.05.32.13.4.08.08.25.12.51.12.28,0,.5-.07.67-.22.17-.15.26-.32.29-.51,0-.05,0-.13,0-.23v-2.24h.62v3.56h-.61v-.38c-.36.31-.83.47-1.4.47-.16,0-.29-.03-.41-.08s-.2-.11-.25-.17c-.06-.06-.1-.15-.13-.27-.03-.11-.04-.21-.05-.27,0-.07,0-.16,0-.28Z"/><path class="cls-11" d="m81.77,169.21v-5.78h.6v5.78h-.6Z"/><path class="cls-11" d="m83.18,166.12v-.47h.69v-1.01h.56v1.01h1.13v.47h-1.13v1.97c0,.46.14.7.43.7.22,0,.46-.09.7-.26l.13.47c-.38.2-.77.3-1.18.3-.44,0-.66-.34-.66-1.03v-2.15h-.67Z"/><path class="cls-11" d="m86.14,168.94l.1-.54s.04.03.1.06.1.06.13.08c.03.02.08.04.14.07.07.03.13.06.18.08s.12.04.19.06c.07.02.15.04.24.04.08,0,.17.01.26.01.27,0,.46-.06.57-.17.12-.11.17-.24.17-.38s-.05-.24-.14-.33-.2-.15-.31-.18c-.05-.02-.17-.04-.36-.08s-.32-.07-.41-.1c-.22-.07-.41-.19-.58-.36-.17-.17-.25-.38-.25-.63,0-.12.02-.24.05-.35s.1-.22.19-.34c.09-.12.22-.21.41-.27.18-.07.4-.1.66-.1.38,0,.77.08,1.16.25l-.08.53s-.04-.02-.09-.04c-.06-.02-.09-.04-.09-.04,0,0-.04-.02-.09-.04-.05-.02-.08-.04-.1-.04-.02,0-.05-.02-.1-.04-.05-.02-.08-.03-.11-.03-.03,0-.07,0-.12-.02-.05-.01-.1-.02-.13-.02-.04,0-.09,0-.14,0-.05,0-.11,0-.17,0-.25,0-.42.05-.52.15-.1.1-.15.21-.15.34,0,.18.07.3.21.38s.34.14.6.18c.26.04.44.09.54.14.19.09.35.21.49.39.13.17.2.38.2.62,0,.12-.02.24-.05.36-.04.12-.1.23-.19.35-.09.12-.22.21-.41.28s-.4.11-.65.11c-.47,0-.92-.12-1.35-.36Z"/><rect class="cls-3" x="37.96" y="157.9" width="12.76" height="16.33"/><rect class="cls-10" x="44.65" y="166.61" width="5.21" height="5.21"/><rect class="cls-8" x="45.45" y="159.92" width="4.14" height="4.14"/><rect class="cls-9" x="38.72" y="166.61" width="5.21" height="5.21"/><line class="cls-2" x1="43.89" y1="169.21" x2="44.65" y2="169.21"/></svg>