<?xml version="1.0" encoding="UTF-8"?><svg id="Layer_2" xmlns="http://www.w3.org/2000/svg" viewBox="0 0 300.1 240.85"><defs><style>.cls-1{stroke:#77787b;}.cls-1,.cls-2{stroke-width:.22px;}.cls-1,.cls-2,.cls-3,.cls-4,.cls-5,.cls-6,.cls-7,.cls-8,.cls-9,.cls-10,.cls-11,.cls-12,.cls-13,.cls-14,.cls-15,.cls-16,.cls-17,.cls-18,.cls-19,.cls-20,.cls-21,.cls-22,.cls-23,.cls-24,.cls-25,.cls-26,.cls-27,.cls-28{stroke-miterlimit:10;}.cls-1,.cls-2,.cls-4,.cls-5,.cls-6,.cls-7,.cls-8,.cls-9,.cls-11,.cls-19,.cls-22,.cls-24,.cls-28{fill:none;}.cls-2{stroke:#938551;}.cls-29,.cls-3,.cls-12,.cls-18{fill:#f47648;}.cls-30,.cls-10,.cls-17,.cls-26,.cls-27{fill:#fac964;}.cls-31{fill:#fae9b4;}.cls-32{fill:#fbdf88;}.cls-33,.cls-15,.cls-21,.cls-23{fill:#6790b5;}.cls-34{fill:#231f20;}.cls-35{fill:#3c9394;}.cls-36{fill:#971a3f;}.cls-37,.cls-16,.cls-20,.cls-25{fill:#2f4259;}.cls-38{fill:#58595b;}.cls-3{stroke-width:.17px;}.cls-3,.cls-5,.cls-8,.cls-9,.cls-10,.cls-11,.cls-12,.cls-13,.cls-14,.cls-15,.cls-16,.cls-17,.cls-18,.cls-19,.cls-20,.cls-21,.cls-22,.cls-23,.cls-24,.cls-25,.cls-26,.cls-27,.cls-28{stroke:#231f20;}.cls-4{stroke:#fac964;stroke-width:.85px;}.cls-5{stroke-dasharray:0 0 4.1 4.1;}.cls-5,.cls-12,.cls-19,.cls-24,.cls-28{stroke-width:.5px;}.cls-6{stroke:#6790b5;}.cls-6,.cls-7{stroke-width:.46px;}.cls-7{stroke:#2f4259;}.cls-8,.cls-20,.cls-21{stroke-width:.14px;}.cls-9,.cls-23,.cls-25{stroke-width:.18px;}.cls-10{stroke-width:.48px;}.cls-11{stroke-width:.75px;}.cls-13{fill:#fff;}.cls-14{fill:#f2f2f3;}.cls-15,.cls-16,.cls-17,.cls-18{stroke-width:.22px;}.cls-19{stroke-dasharray:0 0 4.05 4.05;}.cls-22{stroke-width:.34px;}.cls-24{stroke-dasharray:0 0 3.75 3.75;}.cls-26{stroke-width:.35px;}.cls-27{stroke-width:.36px;}</style></defs><g id="Layer_1-2"><rect class="cls-14" x="72.14" y=".5" width="227.46" height="140.87"/><rect class="cls-13" x="80.49" y="106.67" width="66.11" height="26.81"/><rect class="cls-14" x="72.14" y="164.35" width="227.46" height="76"/><path class="cls-34" d="m96.18,124.63l.18-1c.84.67,1.69,1,2.55,1,.52,0,.94-.16,1.27-.48.32-.32.49-.69.49-1.11,0-.31-.09-.6-.28-.86s-.43-.45-.74-.58c-.02,0-.51-.14-1.49-.4-.49-.13-.92-.39-1.29-.79s-.56-.88-.56-1.46c0-.62.25-1.16.75-1.64.5-.48,1.15-.71,1.95-.71.76,0,1.49.19,2.21.57l-.17.99c-.34-.26-.65-.45-.94-.58-.29-.13-.66-.19-1.11-.19-.52,0-.94.14-1.26.43-.32.29-.48.62-.48,1,0,.28.09.54.28.77.18.23.42.4.7.52.12.03.41.1.88.22.47.12.78.21.93.28.44.18.82.48,1.13.88.31.4.47.88.47,1.43,0,.68-.26,1.27-.77,1.78-.51.5-1.16.76-1.96.76-.96,0-1.87-.28-2.73-.83Z"/><path class="cls-34" d="m103.27,123.73v-3.87h.94v4.02c0,.28.07.48.2.6s.38.18.76.18c.41,0,.75-.11,1-.33s.4-.48.43-.77c0-.08.01-.19.01-.35v-3.36h.94v5.34h-.91v-.57c-.54.47-1.24.7-2.1.7-.24,0-.44-.04-.61-.11s-.3-.16-.38-.26-.15-.23-.19-.4-.07-.31-.07-.41,0-.24,0-.41Z"/><path class="cls-34" d="m109.48,125.19v-8.67h.9v3.91c.59-.47,1.23-.71,1.92-.71.57,0,1.04.28,1.41.83.37.55.55,1.2.55,1.94,0,.81-.22,1.48-.66,2.02s-.96.81-1.57.81c-.57,0-1.1-.23-1.61-.7v.56h-.94Zm.94-1.6c0,.06,0,.11,0,.15s.01.07.02.1c.01.03.02.06.04.07s.03.04.06.08c.03.04.05.08.08.11.27.32.59.48.98.48.43,0,.82-.17,1.18-.5s.54-.86.54-1.57c0-.37-.05-.7-.16-.98s-.24-.49-.41-.64-.35-.25-.52-.32c-.18-.07-.35-.1-.53-.1-.31,0-.6.09-.88.27s-.41.39-.41.61v2.23Z"/><path class="cls-34" d="m115.67,125.19v-5.4h.87v.86c.46-.61,1.05-.91,1.75-.91.78,0,1.29.33,1.52.98.49-.66,1.09-.98,1.82-.98.3,0,.56.05.78.15.22.1.38.22.49.35.11.13.19.3.25.51.06.21.09.38.1.51s.01.29.01.49v3.46h-.94v-3.43s0-.1-.02-.19c-.02-.1-.04-.19-.06-.27s-.07-.18-.13-.28-.12-.19-.21-.27c-.08-.08-.18-.14-.31-.19s-.27-.08-.43-.08c-.43,0-.74.18-.93.54s-.29.79-.29,1.3v2.88h-.94v-3.36c0-.14,0-.25,0-.32,0-.08-.03-.19-.07-.34-.04-.15-.1-.27-.18-.35-.08-.09-.19-.17-.35-.23s-.35-.1-.57-.1c-.43,0-.74.18-.93.54s-.29.79-.29,1.3v2.88h-.94Z"/><path class="cls-34" d="m125.13,118.12v-1.07h1.08v1.07h-1.08Zm.08,7.08v-5.34h.81v5.34h-.81Z"/><path class="cls-34" d="m127.32,120.56v-.7h1.03v-1.51h.84v1.51h1.69v.7h-1.69v2.96c0,.7.22,1.04.65,1.04.34,0,.69-.13,1.05-.39l.19.71c-.57.3-1.16.45-1.78.45-.66,0-.98-.51-.98-1.54v-3.23h-1.01Z"/><line class="cls-11" x1="113.54" y1="133.49" x2="113.54" y2="171.03"/><polygon class="cls-34" points="110.48 168.54 111.03 168.03 113.54 170.74 116.06 168.03 116.61 168.54 113.54 171.84 110.48 168.54"/><line class="cls-11" x1="258.03" y1="171.84" x2="258.03" y2="134.3"/><polygon class="cls-34" points="261.09 136.78 260.54 137.3 258.03 134.59 255.51 137.3 254.96 136.78 258.03 133.49 261.09 136.78"/><line class="cls-11" x1="258.03" y1="106.67" x2="258.03" y2="86.84"/><polygon class="cls-34" points="261.09 89.32 260.54 89.83 258.03 87.13 255.51 89.83 254.96 89.32 258.03 86.02 261.09 89.32"/><line class="cls-11" x1="113.54" y1="86.02" x2="113.54" y2="105.86"/><polygon class="cls-34" points="110.48 103.38 111.03 102.86 113.54 105.57 116.06 102.86 116.61 103.38 113.54 106.67 110.48 103.38"/><rect class="cls-13" x="224.97" y="106.67" width="66.11" height="26.81"/><path class="cls-34" d="m245.78,125.19v-8.33h2.83c.73,0,1.35.16,1.85.47.37.23.65.51.86.85s.31.7.31,1.09c0,.63-.26,1.19-.77,1.7-.52.51-1.25.76-2.19.76-.04,0-.1,0-.19,0s-.16,0-.21,0h-1.4v3.46h-1.08Zm1.04-4.17h1.59c.41,0,.78-.06,1.09-.17s.54-.26.7-.45.26-.38.34-.57.11-.38.11-.57c0-.18-.03-.35-.1-.53s-.17-.37-.32-.56-.38-.35-.69-.47-.69-.18-1.13-.18h-1.59v3.49Z"/><path class="cls-34" d="m252.5,123.84c0-.3.11-.56.34-.78.22-.22.52-.38.88-.49.36-.11.72-.19,1.06-.24.35-.05.69-.08,1.04-.08v-.4c-.02-.51-.12-.88-.31-1.11-.2-.24-.45-.36-.76-.36-.62,0-1.21.2-1.79.61l-.07-.8c.6-.35,1.22-.53,1.87-.53.55,0,1.01.18,1.39.54.37.36.58.8.61,1.32v3.66h-.91v-.42s-.11.08-.22.16c-.12.07-.34.16-.68.25-.34.1-.7.15-1.09.15-.45,0-.79-.16-1.02-.49-.23-.32-.34-.66-.34-1Zm.86-.03c0,.22.11.4.32.55.21.15.48.22.8.22.34,0,.65-.07.93-.22.28-.15.41-.4.41-.75v-.77c-.25,0-.5.02-.75.05-.26.03-.52.08-.79.15-.27.07-.49.17-.66.3-.17.13-.25.29-.25.47Z"/><path class="cls-34" d="m258.37,125.19v-5.4h.84v1.07c.1-.15.21-.3.35-.44.13-.14.36-.29.69-.45.32-.16.68-.24,1.07-.25v.79c-.21,0-.42.05-.62.12-.21.07-.43.18-.66.33-.23.15-.41.38-.55.68s-.21.66-.21,1.07v2.48h-.9Z"/><path class="cls-34" d="m261.82,124.79l.15-.81s.07.04.15.09c.09.05.15.09.2.11.04.02.12.06.22.11.1.05.19.09.27.12.08.03.18.06.29.09.11.03.23.05.35.07.12.01.25.02.39.02.4,0,.69-.08.86-.26.17-.17.26-.36.26-.57s-.07-.37-.22-.5c-.15-.13-.3-.22-.46-.27-.08-.02-.26-.06-.53-.12-.28-.06-.48-.1-.61-.14-.33-.11-.61-.29-.86-.54-.25-.25-.38-.57-.38-.94,0-.18.03-.36.08-.52.05-.16.15-.33.28-.5.13-.17.33-.31.61-.41.27-.1.6-.15.98-.15.57,0,1.15.12,1.75.37l-.13.8s-.05-.03-.14-.07c-.08-.04-.13-.06-.14-.07-.01,0-.06-.03-.13-.06-.08-.03-.13-.05-.16-.06-.03,0-.08-.03-.15-.06-.07-.03-.13-.04-.17-.05s-.1-.02-.18-.04-.14-.03-.2-.04-.13,0-.21-.01c-.08,0-.17,0-.26,0-.37,0-.63.07-.78.22-.15.15-.23.32-.23.51,0,.27.11.46.32.57.21.12.51.21.9.27s.65.14.81.21c.29.13.53.32.73.58.2.26.3.57.3.93,0,.18-.03.36-.08.54-.05.17-.15.35-.28.52s-.34.32-.61.42c-.27.11-.6.16-.98.16-.7,0-1.38-.18-2.03-.54Z"/><path class="cls-34" d="m266.5,122.48c0-.79.24-1.46.72-2s1.05-.81,1.7-.81c.24,0,.47.04.68.11s.44.2.66.38.4.44.55.79.23.77.25,1.26v.35h-3.72c.02.6.21,1.09.55,1.47s.75.57,1.22.57c.61,0,1.22-.22,1.82-.66l.08.79c-.61.41-1.24.61-1.9.62-.76,0-1.39-.28-1.88-.85s-.74-1.23-.74-2Zm.9-.6h2.98c-.05-.31-.13-.57-.26-.79-.12-.22-.27-.37-.42-.46-.16-.09-.3-.15-.42-.18s-.24-.05-.35-.05c-.41,0-.74.16-1.01.46-.27.31-.44.65-.52,1.01Z"/><rect class="cls-13" x="80.49" y="171.84" width="66.11" height="61.56"/><path class="cls-34" d="m94.09,230.44l.12-.49c.21.16.42.25.62.25.15,0,.29-.04.39-.12s.18-.17.21-.29c.01-.05.02-.12.02-.21v-4.08h.6v3.96c0,.44-.1.76-.31.95-.21.19-.44.29-.69.29-.33,0-.65-.09-.96-.27Zm1.25-6.09v-.71h.73v.71h-.73Z"/><path class="cls-34" d="m96.95,227.3c0-.54.17-.99.52-1.36s.76-.56,1.24-.56.92.19,1.25.58c.33.39.5.84.5,1.35s-.18.97-.53,1.32-.76.53-1.23.53-.88-.18-1.23-.53-.53-.8-.53-1.33Zm.62-.08c0,.47.11.82.34,1.06s.49.36.79.36.56-.12.79-.36.34-.6.34-1.06-.11-.79-.34-1.01-.49-.34-.79-.34-.56.11-.79.34-.34.56-.34,1.01Z"/><path class="cls-34" d="m101.36,229.07v-5.78h.6v2.61c.39-.31.82-.47,1.28-.47.38,0,.69.18.94.55.25.37.37.8.37,1.29,0,.54-.15.99-.44,1.35-.29.36-.64.54-1.05.54-.38,0-.73-.15-1.07-.46v.37h-.62Zm.62-1.07s0,.07,0,.1,0,.05.02.07c0,.02.02.04.02.05s.02.03.04.05.04.05.05.07c.18.21.4.32.66.32.28,0,.55-.11.79-.33s.36-.57.36-1.04c0-.25-.03-.47-.1-.65s-.16-.33-.28-.42c-.11-.1-.23-.17-.35-.21s-.23-.07-.35-.07c-.21,0-.4.06-.58.18-.18.12-.27.26-.27.41v1.49Z"/><path class="cls-34" d="m105.43,224.35v-.71h.72v.71h-.72Zm.05,4.72v-3.56h.54v3.56h-.54Z"/><path class="cls-34" d="m107.39,229.07v-3.6h.58v.57c.31-.41.7-.61,1.17-.61.2,0,.37.03.51.09s.25.13.32.22.13.19.17.32c.04.13.07.25.08.35s.02.22.02.36v2.3h-.62v-2.24c0-.09,0-.16,0-.22,0-.05-.02-.13-.05-.23-.03-.1-.07-.18-.12-.24s-.13-.11-.23-.16c-.1-.04-.23-.07-.38-.07-.28,0-.49.12-.62.36-.13.24-.19.53-.19.87v1.92h-.62Z"/><path class="cls-34" d="m111.1,225.98v-.47h.59v-.59s0-.05,0-.1,0-.07,0-.1c0-.49.13-.87.4-1.14s.58-.4.94-.4c.2,0,.41.03.63.09v.54c-.23-.09-.45-.14-.65-.14-.18,0-.35.05-.51.16-.16.11-.24.3-.24.57v1.09h.91v.47h-.88v3.09h-.6v-3.09h-.59Z"/><path class="cls-34" d="m113.56,227.3c0-.54.17-.99.52-1.36s.76-.56,1.24-.56.92.19,1.25.58c.33.39.5.84.5,1.35s-.18.97-.53,1.32-.76.53-1.23.53-.88-.18-1.23-.53-.53-.8-.53-1.33Zm.62-.08c0,.47.11.82.34,1.06s.49.36.79.36.56-.12.79-.36.34-.6.34-1.06-.11-.79-.34-1.01-.49-.34-.79-.34-.56.11-.79.34-.34.56-.34,1.01Z"/><path class="cls-34" d="m118.09,229.07v-.71h.67v.71h-.67Z"/><path class="cls-34" d="m119.06,230.44l.12-.49c.21.16.42.25.62.25.15,0,.29-.04.39-.12s.18-.17.21-.29c.01-.05.02-.12.02-.21v-4.08h.6v3.96c0,.44-.1.76-.31.95-.21.19-.44.29-.69.29-.33,0-.65-.09-.96-.27Zm1.25-6.09v-.71h.73v.71h-.73Z"/><path class="cls-34" d="m121.89,228.8l.1-.54s.04.03.1.06c.06.04.1.06.13.08s.08.04.14.07.13.06.18.08c.06.02.12.04.19.06.07.02.15.04.24.04.08,0,.17.01.26.01.27,0,.46-.06.57-.17s.17-.24.17-.38-.05-.24-.15-.33-.2-.15-.31-.18c-.05-.02-.17-.04-.36-.08-.19-.04-.32-.07-.41-.1-.22-.07-.41-.19-.58-.36-.17-.17-.25-.38-.25-.63,0-.12.02-.24.05-.35.04-.11.1-.22.19-.34.09-.11.22-.21.41-.27.18-.07.4-.1.66-.1.38,0,.77.08,1.16.25l-.08.53s-.04-.02-.09-.04c-.06-.03-.09-.04-.09-.05,0,0-.04-.02-.09-.04s-.08-.03-.1-.04-.05-.02-.1-.04c-.05-.02-.08-.03-.11-.03-.03,0-.07,0-.12-.02-.05-.01-.1-.02-.14-.02-.04,0-.09,0-.14,0-.05,0-.11,0-.17,0-.25,0-.42.05-.52.15-.1.1-.15.21-.15.34,0,.18.07.3.21.38.14.08.34.14.6.18.26.04.44.09.54.14.19.09.35.21.49.39s.2.38.2.62c0,.12-.02.24-.05.36-.04.12-.1.23-.19.35-.09.12-.22.21-.41.28-.18.07-.4.11-.65.11-.47,0-.92-.12-1.35-.36Z"/><path class="cls-34" d="m124.98,227.3c0-.54.17-.99.52-1.36s.76-.56,1.24-.56.92.19,1.25.58c.33.39.5.84.5,1.35s-.18.97-.53,1.32-.76.53-1.23.53-.88-.18-1.23-.53-.53-.8-.53-1.33Zm.62-.08c0,.47.11.82.34,1.06s.49.36.79.36.56-.12.79-.36.34-.6.34-1.06-.11-.79-.34-1.01-.49-.34-.79-.34-.56.11-.79.34-.34.56-.34,1.01Z"/><path class="cls-34" d="m129.38,229.07v-3.6h.58v.57c.31-.41.7-.61,1.17-.61.2,0,.37.03.51.09s.25.13.32.22.13.19.17.32c.04.13.07.25.08.35s.02.22.02.36v2.3h-.62v-2.24c0-.09,0-.16,0-.22,0-.05-.02-.13-.05-.23-.03-.1-.07-.18-.12-.24s-.13-.11-.23-.16c-.1-.04-.23-.07-.38-.07-.28,0-.49.12-.62.36-.13.24-.19.53-.19.87v1.92h-.62Z"/><path class="cls-34" d="m94.1,186.42v-8.33h2.65c.55,0,1.04.07,1.47.2s.76.31,1,.53.41.44.53.67c.11.23.17.46.17.68,0,.4-.17.77-.51,1.12s-.84.6-1.49.77c.64.11,1.19.35,1.65.73.46.38.69.84.69,1.37,0,.58-.25,1.08-.76,1.5-.51.41-1.11.66-1.81.73-.14.02-.34.02-.61.02h-2.97Zm1.01-4.71h1.44c.75,0,1.35-.16,1.78-.47s.65-.66.65-1.05c0-.35-.21-.68-.62-.98s-1.04-.45-1.88-.45h-1.37v.42s-.01,2.53-.01,2.53Zm0,4.04h1.7c.82,0,1.43-.17,1.85-.5.42-.34.62-.7.62-1.09,0-.44-.21-.82-.62-1.13-.42-.31-.92-.5-1.5-.55-.07,0-.28-.01-.62-.01h-1.42v.45s-.01,2.85-.01,2.85Z"/><path class="cls-34" d="m101.91,184.95v-3.87h.94v4.02c0,.28.07.48.2.6.12.12.38.18.76.18.41,0,.75-.11,1-.33.25-.22.4-.48.43-.77,0-.08.01-.19.01-.35v-3.36h.94v5.34h-.91v-.57c-.54.47-1.24.7-2.1.7-.24,0-.44-.04-.61-.11s-.3-.16-.38-.26-.15-.23-.19-.4-.07-.31-.07-.41,0-.24,0-.41Z"/><path class="cls-34" d="m108.04,179.34v-1.07h1.08v1.07h-1.08Zm.08,7.08v-5.34h.81v5.34h-.81Z"/><path class="cls-34" d="m110.99,186.42v-8.67h.9v8.67h-.9Z"/><path class="cls-34" d="m113.3,183.76c0-.79.21-1.46.62-2s.92-.81,1.51-.81,1.19.22,1.74.66v-3.86h.9v8.67h-.94v-.62c-.52.5-1.11.76-1.77.76-.59,0-1.09-.28-1.48-.84s-.59-1.21-.59-1.95Zm.94-.01c0,.71.17,1.23.5,1.56s.71.5,1.12.5c.34,0,.63-.11.89-.34.26-.23.39-.45.39-.65v-2.3c0-.15-.08-.31-.25-.46-.26-.24-.55-.36-.89-.36h-.02c-.19,0-.38.04-.57.11s-.37.18-.56.33c-.18.15-.33.36-.44.64-.11.28-.17.61-.17.98Z"/><path class="cls-34" d="m119.97,179.34v-1.07h1.08v1.07h-1.08Zm.08,7.08v-5.34h.81v5.34h-.81Z"/><path class="cls-34" d="m122.9,186.42v-5.4h.87v.85c.46-.61,1.05-.91,1.75-.91.3,0,.55.04.76.13s.38.2.49.33.2.29.26.49.1.37.11.52.02.33.02.54v3.46h-.94v-3.36c0-.14,0-.24,0-.32s-.03-.19-.07-.34-.1-.27-.18-.35-.19-.17-.35-.23c-.16-.07-.35-.1-.57-.1-.43,0-.74.18-.93.54-.19.36-.29.79-.29,1.3v2.88h-.94Z"/><path class="cls-34" d="m128.47,187.28c0-.52.25-.94.76-1.24-.2-.29-.3-.59-.3-.91,0-.36.12-.7.35-1.02h0c-.27-.36-.4-.76-.4-1.21,0-.56.19-1.03.56-1.4.38-.37.82-.55,1.32-.55.41,0,.81.13,1.19.4l-.02-.02c.59-.25,1.22-.37,1.89-.38l.13.74c-.24-.02-.47-.04-.71-.04-.02,0-.32.02-.9.05l-.11-.09c.31.43.47.86.47,1.29,0,.52-.19.98-.56,1.38s-.83.59-1.38.59c-.34,0-.7-.12-1.07-.37-.12.18-.18.33-.18.45,0,.16.05.31.15.44s.28.2.54.2h.92c.28,0,.52,0,.72.03.2.02.44.06.74.13.29.07.54.19.73.37.2.18.33.41.41.69.04.16.06.31.06.44,0,.46-.26.85-.79,1.16-.52.31-1.15.47-1.89.47s-1.36-.16-1.88-.47c-.51-.31-.77-.69-.77-1.15Zm.84,0c0,.21.11.39.32.54.21.15.45.25.71.32.26.06.52.09.76.09.51,0,.94-.09,1.31-.26.36-.17.54-.4.54-.67,0-.56-.6-.83-1.81-.83h-1.1c-.22.04-.4.13-.54.29-.13.16-.2.34-.2.53Zm.42-4.37c0,.39.1.69.3.92.2.23.46.35.79.35.27,0,.52-.1.74-.29.22-.2.33-.53.33-.99,0-.39-.1-.69-.29-.92-.2-.23-.46-.34-.79-.34-.27,0-.52.1-.74.29-.22.2-.33.53-.33.99Z"/><rect class="cls-10" x="92.25" y="194.53" width="12.76" height="16.33"/><rect class="cls-10" x="102.19" y="196.85" width="12.76" height="16.33"/><rect class="cls-10" x="112.13" y="199.18" width="12.76" height="16.33"/><rect class="cls-10" x="122.07" y="201.51" width="12.76" height="16.33"/><path class="cls-34" d="m82.86,155.64l.11-.6c.1.09.17.15.21.19s.15.09.31.16.33.1.51.1c.27,0,.49-.07.67-.21s.27-.38.27-.73v-4.29h.7v4.31c0,.27-.04.5-.12.7-.08.2-.2.34-.34.44-.14.1-.29.17-.45.21s-.32.06-.5.06c-.47,0-.92-.11-1.37-.34Z"/><path class="cls-34" d="m86.54,154.04c0-.54.17-.99.52-1.37.35-.37.76-.55,1.24-.55s.92.19,1.25.58c.33.39.5.84.5,1.35s-.18.97-.53,1.32c-.35.35-.76.53-1.23.53s-.88-.18-1.23-.53c-.35-.35-.53-.8-.53-1.32Zm.62-.08c0,.47.11.82.34,1.06.23.24.49.36.79.36s.56-.12.79-.36c.23-.24.34-.6.34-1.06s-.11-.79-.34-1.01c-.23-.22-.49-.34-.79-.34s-.56.11-.79.34c-.23.22-.34.56-.34,1.01Z"/><path class="cls-34" d="m90.95,155.8v-5.78h.6v2.61c.39-.32.82-.47,1.28-.47.38,0,.69.18.94.55.25.37.37.8.37,1.29,0,.54-.15.99-.44,1.35-.29.36-.64.54-1.05.54-.38,0-.73-.15-1.07-.46v.38h-.62Zm.62-1.07s0,.07,0,.1c0,.02,0,.04.02.07s.02.04.02.05c0,.01.02.03.04.05.02.03.04.05.05.07.18.21.4.32.66.32.28,0,.55-.11.79-.33s.36-.57.36-1.04c0-.25-.03-.47-.1-.65s-.16-.33-.28-.43-.23-.17-.35-.21c-.12-.05-.23-.07-.35-.07-.21,0-.4.06-.58.18s-.27.26-.27.41v1.49Z"/><path class="cls-34" d="m95.19,155.8v-5.55h.72v5.55h-.72Z"/><path class="cls-34" d="m97.3,155.8v-3.6h.58v.57c.31-.41.7-.61,1.17-.61.2,0,.37.03.51.09s.25.13.32.22.13.19.17.32.07.25.08.35.02.22.02.36v2.3h-.62v-2.24c0-.09,0-.16,0-.22,0-.05-.02-.13-.05-.23s-.07-.18-.12-.24-.13-.11-.23-.16-.23-.07-.38-.07c-.28,0-.49.12-.62.36s-.19.53-.19.87v1.92h-.62Z"/><path class="cls-34" d="m101,152.71v-.47h.59v-.59s0-.05,0-.1,0-.07,0-.1c0-.49.13-.87.4-1.14s.58-.4.94-.4c.2,0,.41.03.63.09v.54c-.23-.09-.45-.14-.65-.14-.18,0-.35.05-.51.16s-.24.29-.24.57v1.09h.91v.47h-.88v3.09h-.6v-3.09h-.59Z"/><path class="cls-34" d="m103.46,154.04c0-.54.17-.99.52-1.37.35-.37.76-.55,1.24-.55s.92.19,1.25.58c.33.39.5.84.5,1.35s-.18.97-.53,1.32c-.35.35-.76.53-1.23.53s-.88-.18-1.23-.53c-.35-.35-.53-.8-.53-1.32Zm.62-.08c0,.47.11.82.34,1.06.23.24.49.36.79.36s.56-.12.79-.36c.23-.24.34-.6.34-1.06s-.11-.79-.34-1.01c-.23-.22-.49-.34-.79-.34s-.56.11-.79.34c-.23.22-.34.56-.34,1.01Z"/><rect class="cls-26" x="120.24" y="146.71" width="9.31" height="11.91"/><line class="cls-11" x1="204.12" y1="120.81" x2="223.63" y2="120.81"/><polygon class="cls-34" points="221.14 123.88 220.63 123.33 223.34 120.81 220.63 118.3 221.14 117.75 224.44 120.81 221.14 123.88"/><line class="cls-11" x1="167.34" y1="120.81" x2="147.83" y2="120.81"/><polygon class="cls-34" points="150.32 117.75 150.83 118.3 148.12 120.81 150.83 123.33 150.32 123.88 147.02 120.81 150.32 117.75"/><rect class="cls-12" x="179.49" y="112.65" width="12.76" height="16.33"/><path class="cls-34" d="m166.89,137.74v-5.53h3.57v.52h-.66s-1.92,0-1.92,0h-.28s0,1.89,0,1.89h2.64v.5h-2.64v2.07h.87s1.55,0,1.55,0h.18s.37,0,.37,0v.57h-3.69Z"/><path class="cls-34" d="m171.55,137.74v-3.6h.58v.57c.31-.41.7-.61,1.17-.61.2,0,.37.03.51.09s.25.13.32.22.13.19.17.32c.04.13.07.25.08.35s.02.22.02.36v2.3h-.62v-2.24c0-.09,0-.16,0-.22,0-.05-.02-.13-.05-.23s-.07-.18-.12-.24-.13-.11-.23-.16c-.1-.04-.23-.07-.38-.07-.28,0-.49.12-.62.36-.13.24-.19.53-.19.87v1.92h-.62Z"/><path class="cls-34" d="m175.16,134.18h.61l.75,1.95c.23.65.36,1.05.38,1.21.04-.27.42-1.32,1.12-3.16h.59l-1.38,3.56h-.7l-1.38-3.56Z"/><path class="cls-34" d="m179.09,137.36l.12-.67c.56.44,1.12.67,1.7.67.35,0,.63-.11.85-.32.22-.21.32-.46.32-.74,0-.21-.06-.4-.19-.57s-.29-.3-.49-.38c-.01,0-.34-.09-.99-.27-.33-.09-.61-.26-.86-.53s-.37-.59-.37-.98c0-.41.17-.77.5-1.09.33-.32.76-.48,1.3-.48.5,0,1,.13,1.47.38l-.11.66c-.22-.17-.43-.3-.63-.39-.19-.08-.44-.13-.74-.13-.35,0-.63.1-.84.29-.21.19-.32.41-.32.67,0,.19.06.36.18.52.12.16.28.27.47.35.08.02.27.07.58.15.31.08.52.14.62.19.29.12.55.32.76.59.21.27.31.59.31.95,0,.45-.17.85-.51,1.19-.34.34-.78.5-1.31.5-.64,0-1.24-.18-1.82-.55Z"/><path class="cls-34" d="m183.45,135.93c0-.53.16-.97.48-1.33.32-.36.7-.54,1.13-.54.16,0,.31.03.46.08s.29.13.44.25.27.29.37.53.15.51.17.84v.23h-2.48c.02.4.14.73.37.98.23.25.5.38.82.38.41,0,.81-.15,1.21-.44l.05.53c-.41.27-.83.41-1.27.41-.51,0-.93-.19-1.25-.56-.33-.38-.49-.82-.49-1.33Zm.6-.4h1.98c-.03-.21-.09-.38-.17-.53-.08-.14-.18-.25-.28-.31s-.2-.1-.28-.12-.16-.03-.24-.03c-.27,0-.49.1-.67.31-.18.21-.29.43-.34.67Z"/><path class="cls-34" d="m186.87,134.65v-.47h.69v-1.01h.56v1.01h1.13v.47h-1.13v1.97c0,.46.14.7.43.7.22,0,.46-.09.7-.26l.13.47c-.38.2-.77.3-1.18.3-.44,0-.66-.34-.66-1.03v-2.15h-.67Z"/><path class="cls-34" d="m189.75,134.65v-.47h.69v-1.01h.56v1.01h1.13v.47h-1.13v1.97c0,.46.14.7.43.7.22,0,.46-.09.7-.26l.13.47c-.38.2-.77.3-1.18.3-.44,0-.66-.34-.66-1.03v-2.15h-.67Z"/><path class="cls-34" d="m193.09,133.02v-.71h.72v.71h-.72Zm.05,4.72v-3.56h.54v3.56h-.54Z"/><path class="cls-34" d="m195.05,137.74v-3.6h.58v.57c.31-.41.7-.61,1.17-.61.2,0,.37.03.51.09s.25.13.32.22.13.19.17.32c.04.13.07.25.08.35s.02.22.02.36v2.3h-.62v-2.24c0-.09,0-.16,0-.22,0-.05-.02-.13-.05-.23s-.07-.18-.12-.24-.13-.11-.23-.16c-.1-.04-.23-.07-.38-.07-.28,0-.49.12-.62.36-.13.24-.19.53-.19.87v1.92h-.62Z"/><path class="cls-34" d="m198.76,138.31c0-.35.17-.62.51-.83-.13-.19-.2-.39-.2-.6,0-.24.08-.47.23-.68h0c-.18-.24-.27-.5-.27-.81,0-.38.13-.69.38-.93.25-.25.54-.37.88-.37.28,0,.54.09.8.27l-.02-.02c.4-.16.81-.25,1.26-.25l.09.49c-.16-.02-.32-.02-.47-.02-.02,0-.21.01-.6.03l-.07-.06c.21.29.31.57.31.86,0,.35-.12.66-.37.92s-.55.4-.92.4c-.23,0-.47-.08-.72-.24-.08.12-.12.22-.12.3,0,.11.03.21.1.29.06.09.18.13.36.13h.61c.19,0,.35,0,.48.02.13.01.29.04.49.09.2.04.36.13.49.25.13.12.22.27.27.46.03.11.04.2.04.29,0,.31-.17.57-.52.77-.35.21-.77.31-1.26.31s-.91-.1-1.25-.31c-.34-.21-.51-.46-.51-.77Zm.56,0c0,.14.07.26.21.36.14.1.3.17.47.21.17.04.34.06.51.06.34,0,.63-.06.87-.17.24-.12.36-.27.36-.45,0-.37-.4-.56-1.21-.56h-.73c-.15.02-.27.09-.36.19-.09.11-.13.23-.13.36Zm.28-2.91c0,.26.07.46.2.62s.31.23.53.23c.18,0,.35-.07.49-.2s.22-.35.22-.66c0-.26-.06-.46-.2-.62s-.3-.23-.52-.23c-.18,0-.35.07-.49.2-.15.13-.22.35-.22.66Z"/><path class="cls-34" d="m202.75,137.47l.1-.54s.04.03.1.06c.06.04.1.06.13.08.03.02.08.04.14.07.07.03.13.06.18.08.06.02.12.04.19.06.07.02.15.04.24.04.08,0,.17.01.26.01.27,0,.46-.06.57-.17.12-.11.17-.24.17-.38s-.05-.24-.15-.33-.2-.15-.31-.18c-.05-.02-.17-.04-.36-.08-.19-.04-.32-.07-.41-.1-.22-.07-.41-.19-.58-.36-.17-.17-.25-.38-.25-.63,0-.12.02-.24.05-.35.04-.11.1-.22.19-.34.09-.12.22-.21.41-.27.18-.07.4-.1.66-.1.38,0,.77.08,1.16.25l-.08.53s-.04-.02-.09-.04-.09-.04-.09-.04c0,0-.04-.02-.09-.04-.05-.02-.08-.04-.1-.04-.02,0-.05-.02-.1-.04-.05-.02-.08-.03-.11-.03-.03,0-.07,0-.12-.02-.05-.01-.1-.02-.14-.02-.04,0-.09,0-.14,0-.05,0-.11,0-.17,0-.25,0-.42.05-.52.15-.1.1-.15.21-.15.34,0,.18.07.3.21.38.14.08.34.14.6.18.26.04.44.09.54.14.19.09.35.21.49.39s.2.38.2.62c0,.12-.02.24-.05.36-.04.12-.1.23-.19.35-.09.12-.22.21-.41.28-.18.07-.4.11-.65.11-.47,0-.92-.12-1.35-.36Z"/><path class="cls-34" d="m149.76,46.38c0-.53.14-.97.42-1.34.28-.36.61-.54,1.01-.54s.79.15,1.16.44v-2.57h.6v5.78h-.62v-.41c-.35.34-.74.5-1.18.5-.4,0-.73-.19-.99-.56-.26-.37-.39-.81-.39-1.3Zm.62,0c0,.47.11.82.34,1.04.22.22.47.33.74.33.22,0,.42-.08.59-.23s.26-.3.26-.44v-1.53c0-.1-.06-.21-.17-.31-.17-.16-.37-.24-.59-.24h-.02c-.13,0-.25.02-.38.07-.12.05-.25.12-.37.22-.12.1-.22.24-.3.43-.08.19-.11.4-.11.65Z"/><path class="cls-34" d="m153.96,47.25c0-.2.07-.37.22-.52.15-.15.34-.26.59-.33.24-.07.48-.12.71-.16s.46-.05.7-.05v-.27c-.01-.34-.08-.59-.21-.74-.13-.16-.3-.24-.51-.24-.41,0-.81.13-1.2.41l-.05-.54c.4-.23.82-.35,1.25-.35.37,0,.68.12.92.36s.38.54.4.88v2.44h-.61v-.28s-.07.05-.15.1c-.08.05-.23.1-.45.17-.22.06-.47.1-.73.1-.3,0-.53-.11-.68-.32-.15-.22-.23-.44-.23-.67Zm.57-.02c0,.15.07.27.21.37.14.1.32.15.53.15.23,0,.44-.05.62-.15.18-.1.28-.26.28-.5v-.51c-.16,0-.33.01-.5.03-.17.02-.35.05-.53.1-.18.04-.33.11-.44.2-.11.09-.17.2-.17.31Z"/><path class="cls-34" d="m157.59,45.06v-.47h.69v-1.01h.56v1.01h1.13v.47h-1.13v1.97c0,.46.14.7.43.7.22,0,.46-.09.7-.26l.13.47c-.38.2-.77.3-1.18.3-.44,0-.66-.34-.66-1.03v-2.15h-.67Z"/><path class="cls-34" d="m160.69,47.25c0-.2.07-.37.22-.52.15-.15.34-.26.59-.33.24-.07.48-.12.71-.16s.46-.05.7-.05v-.27c-.01-.34-.08-.59-.21-.74-.13-.16-.3-.24-.51-.24-.41,0-.81.13-1.2.41l-.05-.54c.4-.23.82-.35,1.25-.35.37,0,.68.12.92.36s.38.54.4.88v2.44h-.61v-.28s-.07.05-.15.1c-.08.05-.23.1-.45.17-.22.06-.47.1-.73.1-.3,0-.53-.11-.68-.32-.15-.22-.23-.44-.23-.67Zm.57-.02c0,.15.07.27.21.37.14.1.32.15.53.15.23,0,.44-.05.62-.15.18-.1.28-.26.28-.5v-.51c-.16,0-.33.01-.5.03-.17.02-.35.05-.53.1-.18.04-.33.11-.44.2-.11.09-.17.2-.17.31Z"/><path class="cls-34" d="m164.82,48.15v-5.78h.6v2.61c.39-.31.82-.47,1.28-.47.38,0,.69.18.94.55.25.37.37.8.37,1.29,0,.54-.15.99-.44,1.35-.29.36-.64.54-1.05.54-.38,0-.73-.16-1.07-.46v.38h-.62Zm.62-1.07s0,.07,0,.1,0,.05.02.07c0,.02.02.04.02.05,0,.01.02.03.04.05.02.03.04.05.05.07.18.21.4.32.66.32.28,0,.55-.11.79-.33s.36-.57.36-1.04c0-.25-.03-.47-.1-.65-.07-.19-.16-.33-.28-.43s-.23-.17-.35-.21c-.12-.04-.23-.07-.35-.07-.21,0-.4.06-.58.18-.18.12-.27.26-.27.41v1.49Z"/><path class="cls-34" d="m168.66,47.25c0-.2.07-.37.22-.52.15-.15.34-.26.59-.33.24-.07.48-.12.71-.16s.46-.05.7-.05v-.27c-.01-.34-.08-.59-.21-.74-.13-.16-.3-.24-.51-.24-.41,0-.81.13-1.2.41l-.05-.54c.4-.23.82-.35,1.25-.35.37,0,.68.12.92.36s.38.54.4.88v2.44h-.61v-.28s-.07.05-.15.1c-.08.05-.23.1-.45.17-.22.06-.47.1-.73.1-.3,0-.53-.11-.68-.32-.15-.22-.23-.44-.23-.67Zm.57-.02c0,.15.07.27.21.37.14.1.32.15.53.15.23,0,.44-.05.62-.15.18-.1.28-.26.28-.5v-.51c-.16,0-.33.01-.5.03-.17.02-.35.05-.53.1-.18.04-.33.11-.44.2-.11.09-.17.2-.17.31Z"/><path class="cls-34" d="m172.36,47.89l.1-.54s.04.03.1.06c.06.04.1.06.13.08s.08.04.14.07c.07.03.13.06.18.08.06.02.12.04.19.06.07.02.15.04.24.04.08,0,.17.01.26.01.27,0,.46-.06.57-.17.12-.11.17-.24.17-.38s-.05-.24-.15-.33-.2-.15-.31-.18c-.05-.02-.17-.04-.36-.08-.19-.04-.32-.07-.41-.1-.22-.07-.41-.19-.58-.36-.17-.17-.25-.38-.25-.63,0-.12.02-.24.05-.35.04-.11.1-.22.19-.34.09-.11.22-.21.41-.27s.4-.1.66-.1c.38,0,.77.08,1.16.25l-.08.53s-.04-.02-.09-.04c-.06-.03-.09-.04-.09-.05,0,0-.04-.02-.09-.04-.05-.02-.08-.03-.1-.04-.02,0-.05-.02-.1-.04-.05-.02-.08-.03-.11-.03-.03,0-.07-.01-.12-.02s-.1-.02-.14-.02c-.04,0-.09,0-.14,0-.05,0-.11,0-.17,0-.25,0-.42.05-.52.15-.1.1-.15.21-.15.34,0,.18.07.3.21.38.14.08.34.14.6.18.26.04.44.09.54.14.19.09.35.21.49.39s.2.38.2.62c0,.12-.02.24-.05.36-.04.12-.1.23-.19.35-.09.12-.22.21-.41.28-.18.07-.4.11-.65.11-.47,0-.92-.12-1.35-.36Z"/><path class="cls-34" d="m175.48,46.34c0-.53.16-.97.48-1.33.32-.36.7-.54,1.13-.54.16,0,.31.03.46.08s.29.13.44.25.27.29.37.53.15.51.17.84v.23h-2.48c.02.4.14.73.37.98.23.25.5.38.82.38.41,0,.81-.15,1.21-.44l.05.53c-.41.27-.83.41-1.27.41-.51,0-.93-.19-1.25-.56-.33-.38-.49-.82-.49-1.33Zm.6-.4h1.98c-.03-.21-.09-.38-.17-.53s-.18-.25-.28-.31c-.1-.06-.2-.1-.28-.12-.08-.02-.16-.03-.24-.03-.27,0-.49.1-.67.31-.18.21-.29.43-.34.67Z"/><line class="cls-11" x1="204.12" y1="203.36" x2="223.63" y2="203.36"/><polygon class="cls-34" points="221.14 206.43 220.63 205.88 223.34 203.36 220.63 200.84 221.14 200.29 224.44 203.36 221.14 206.43"/><line class="cls-11" x1="167.34" y1="203.36" x2="147.83" y2="203.36"/><polygon class="cls-34" points="150.32 200.29 150.83 200.84 148.12 203.36 150.83 205.88 150.32 206.43 147.02 203.36 150.32 200.29"/><rect class="cls-12" x="179.49" y="195.19" width="12.76" height="16.33"/><path class="cls-34" d="m161.94,220.28v-5.53h3.57v.52h-.66s-1.92,0-1.92,0h-.28s0,1.89,0,1.89h2.64v.5h-2.64v2.07h.87s1.55,0,1.55,0h.18s.37,0,.37,0v.57h-3.69Z"/><path class="cls-34" d="m166.6,220.28v-3.6h.58v.57c.31-.41.7-.61,1.17-.61.2,0,.37.03.51.09s.25.13.32.22.13.19.17.32c.04.13.07.25.08.35s.02.22.02.36v2.3h-.62v-2.24c0-.09,0-.16,0-.22,0-.05-.02-.13-.05-.23s-.07-.18-.12-.24-.13-.11-.23-.16c-.1-.05-.23-.07-.38-.07-.28,0-.49.12-.62.36s-.19.53-.19.87v1.92h-.62Z"/><path class="cls-34" d="m170.31,220.86c0-.35.17-.62.51-.83-.13-.19-.2-.39-.2-.6,0-.24.08-.47.23-.68h0c-.18-.24-.27-.5-.27-.81,0-.38.13-.69.38-.93s.54-.37.88-.37c.28,0,.54.09.8.27l-.02-.02c.4-.16.81-.25,1.26-.25l.09.49c-.16-.02-.32-.02-.47-.02-.02,0-.21.01-.6.03l-.07-.06c.21.29.31.57.31.86,0,.35-.12.66-.37.92s-.55.4-.92.4c-.23,0-.47-.08-.72-.24-.08.12-.12.22-.12.3,0,.11.03.21.1.3.06.09.18.13.36.13h.61c.19,0,.35,0,.48.02.13.01.29.04.49.09.2.05.36.13.49.25.13.12.22.27.27.46.03.11.04.2.04.29,0,.31-.17.57-.52.77-.35.21-.77.31-1.26.31s-.91-.1-1.25-.31c-.34-.21-.51-.46-.51-.77Zm.56,0c0,.14.07.26.21.36s.3.17.47.21.34.06.51.06c.34,0,.63-.06.87-.17.24-.12.36-.27.36-.45,0-.37-.4-.56-1.21-.56h-.73c-.15.02-.27.08-.36.19-.09.11-.13.23-.13.35Zm.28-2.91c0,.26.07.46.2.62s.31.23.53.23c.18,0,.35-.07.49-.2.15-.13.22-.35.22-.66,0-.26-.06-.46-.2-.62-.13-.15-.3-.23-.52-.23-.18,0-.35.07-.49.2s-.22.35-.22.66Z"/><path class="cls-34" d="m174.69,215.57v-.71h.72v.71h-.72Zm.05,4.72v-3.56h.54v3.56h-.54Z"/><path class="cls-34" d="m176.64,220.28v-3.6h.58v.57c.31-.41.7-.61,1.17-.61.2,0,.37.03.51.09s.25.13.32.22.13.19.17.32c.04.13.07.25.08.35s.02.22.02.36v2.3h-.62v-2.24c0-.09,0-.16,0-.22,0-.05-.02-.13-.05-.23s-.07-.18-.12-.24-.13-.11-.23-.16c-.1-.05-.23-.07-.38-.07-.28,0-.49.12-.62.36s-.19.53-.19.87v1.92h-.62Z"/><path class="cls-34" d="m180.41,218.47c0-.53.16-.97.48-1.33.32-.36.7-.54,1.13-.54.16,0,.31.03.46.08s.29.13.44.25.27.29.37.53.15.51.17.84v.23h-2.48c.02.4.14.73.37.98.23.25.5.38.82.38.41,0,.81-.15,1.21-.44l.05.53c-.41.27-.83.41-1.27.41-.51,0-.93-.19-1.25-.56-.33-.38-.49-.82-.49-1.33Zm.6-.4h1.98c-.03-.21-.09-.38-.17-.53s-.18-.25-.28-.31c-.1-.06-.2-.1-.28-.12-.08-.02-.16-.03-.24-.03-.27,0-.49.1-.67.31-.18.21-.29.43-.34.67Z"/><path class="cls-34" d="m184.04,219.91l.12-.67c.56.44,1.12.67,1.7.67.35,0,.63-.11.85-.32.22-.21.32-.46.32-.74,0-.21-.06-.4-.19-.57-.12-.17-.29-.3-.49-.38-.01,0-.34-.09-.99-.27-.33-.09-.61-.26-.86-.53-.25-.26-.37-.59-.37-.98,0-.41.17-.77.5-1.09.33-.32.76-.48,1.3-.48.5,0,1,.13,1.47.38l-.11.66c-.22-.17-.43-.3-.63-.39s-.44-.13-.74-.13c-.35,0-.63.09-.84.29s-.32.41-.32.67c0,.19.06.36.18.52.12.15.28.27.47.35.08.02.27.07.58.15s.52.14.62.18c.29.12.55.32.76.59.21.27.31.59.31.95,0,.45-.17.85-.51,1.18-.34.34-.78.5-1.31.5-.64,0-1.24-.18-1.82-.55Z"/><path class="cls-34" d="m188.4,218.47c0-.53.16-.97.48-1.33.32-.36.7-.54,1.13-.54.16,0,.31.03.46.08s.29.13.44.25.27.29.37.53.15.51.17.84v.23h-2.48c.02.4.14.73.37.98.23.25.5.38.82.38.41,0,.81-.15,1.21-.44l.05.53c-.41.27-.83.41-1.27.41-.51,0-.93-.19-1.25-.56-.33-.38-.49-.82-.49-1.33Zm.6-.4h1.98c-.03-.21-.09-.38-.17-.53s-.18-.25-.28-.31c-.1-.06-.2-.1-.28-.12-.08-.02-.16-.03-.24-.03-.27,0-.49.1-.67.31-.18.21-.29.43-.34.67Z"/><path class="cls-34" d="m191.82,217.19v-.47h.69v-1.01h.56v1.01h1.13v.47h-1.13v1.97c0,.46.14.7.43.7.22,0,.46-.09.7-.26l.13.47c-.38.2-.77.3-1.18.3-.44,0-.66-.34-.66-1.03v-2.15h-.67Z"/><path class="cls-34" d="m194.71,217.19v-.47h.69v-1.01h.56v1.01h1.13v.47h-1.13v1.97c0,.46.14.7.43.7.22,0,.46-.09.7-.26l.13.47c-.38.2-.77.3-1.18.3-.44,0-.66-.34-.66-1.03v-2.15h-.67Z"/><path class="cls-34" d="m198.04,215.57v-.71h.72v.71h-.72Zm.05,4.72v-3.56h.54v3.56h-.54Z"/><path class="cls-34" d="m200,220.28v-3.6h.58v.57c.31-.41.7-.61,1.17-.61.2,0,.37.03.51.09s.25.13.32.22.13.19.17.32c.04.13.07.25.08.35s.02.22.02.36v2.3h-.62v-2.24c0-.09,0-.16,0-.22,0-.05-.02-.13-.05-.23s-.07-.18-.12-.24-.13-.11-.23-.16c-.1-.05-.23-.07-.38-.07-.28,0-.49.12-.62.36s-.19.53-.19.87v1.92h-.62Z"/><path class="cls-34" d="m203.71,220.86c0-.35.17-.62.51-.83-.13-.19-.2-.39-.2-.6,0-.24.08-.47.23-.68h0c-.18-.24-.27-.5-.27-.81,0-.38.13-.69.38-.93s.54-.37.88-.37c.28,0,.54.09.8.27l-.02-.02c.4-.16.81-.25,1.26-.25l.09.49c-.16-.02-.32-.02-.47-.02-.02,0-.21.01-.6.03l-.07-.06c.21.29.31.57.31.86,0,.35-.12.66-.37.92s-.55.4-.92.4c-.23,0-.47-.08-.72-.24-.08.12-.12.22-.12.3,0,.11.03.21.1.3.06.09.18.13.36.13h.61c.19,0,.35,0,.48.02.13.01.29.04.49.09.2.05.36.13.49.25.13.12.22.27.27.46.03.11.04.2.04.29,0,.31-.17.57-.52.77-.35.21-.77.31-1.26.31s-.91-.1-1.25-.31c-.34-.21-.51-.46-.51-.77Zm.56,0c0,.14.07.26.21.36s.3.17.47.21.34.06.51.06c.34,0,.63-.06.87-.17.24-.12.36-.27.36-.45,0-.37-.4-.56-1.21-.56h-.73c-.15.02-.27.08-.36.19-.09.11-.13.23-.13.35Zm.28-2.91c0,.26.07.46.2.62s.31.23.53.23c.18,0,.35-.07.49-.2.15-.13.22-.35.22-.66,0-.26-.06-.46-.2-.62-.13-.15-.3-.23-.52-.23-.18,0-.35.07-.49.2s-.22.35-.22.66Z"/><path class="cls-34" d="m207.71,220.02l.1-.54s.04.03.1.06c.06.04.1.06.13.08s.08.04.14.07c.07.03.13.06.18.08.06.02.12.04.19.06.07.02.15.04.24.04.08,0,.17.01.26.01.27,0,.46-.06.57-.17.12-.11.17-.24.17-.38s-.05-.24-.15-.33-.2-.15-.31-.18c-.05-.02-.17-.04-.36-.08-.19-.04-.32-.07-.41-.1-.22-.07-.41-.19-.58-.36-.17-.17-.25-.38-.25-.63,0-.12.02-.24.05-.35.04-.11.1-.22.19-.34.09-.11.22-.21.41-.27s.4-.1.66-.1c.38,0,.77.08,1.16.25l-.08.53s-.04-.02-.09-.04c-.06-.03-.09-.04-.09-.05,0,0-.04-.02-.09-.04-.05-.02-.08-.03-.1-.04-.02,0-.05-.02-.1-.04-.05-.02-.08-.03-.11-.03-.03,0-.07-.01-.12-.02s-.1-.02-.14-.02c-.04,0-.09,0-.14,0-.05,0-.11,0-.17,0-.25,0-.42.05-.52.15-.1.1-.15.21-.15.34,0,.18.07.3.21.38.14.08.34.14.6.18.26.04.44.09.54.14.19.09.35.21.49.39s.2.38.2.62c0,.12-.02.24-.05.36-.04.12-.1.23-.19.35-.09.12-.22.21-.41.28-.18.07-.4.11-.65.11-.47,0-.92-.12-1.35-.36Z"/><polyline class="cls-28" points="294.48 83.84 294.48 85.84 292.48 85.84"/><line class="cls-19" x1="288.44" y1="85.84" x2="193.28" y2="85.84"/><polyline class="cls-28" points="191.26 85.84 189.26 85.84 189.26 83.84"/><line class="cls-5" x1="189.26" y1="79.74" x2="189.26" y2="7.94"/><polyline class="cls-28" points="189.26 5.89 189.26 3.89 191.26 3.89"/><line class="cls-19" x1="195.31" y1="3.89" x2="290.46" y2="3.89"/><polyline class="cls-28" points="292.48 3.89 294.48 3.89 294.48 5.89"/><line class="cls-5" x1="294.48" y1="9.99" x2="294.48" y2="81.79"/><line class="cls-22" x1="226.82" y1="20.36" x2="226.82" y2="38.95"/><polygon class="cls-34" points="225.41 37.81 225.67 37.57 226.82 38.82 227.98 37.57 228.23 37.81 226.82 39.32 225.41 37.81"/><circle class="cls-17" cx="226.56" cy="14.6" r="5.7"/><path class="cls-34" d="m209.31,16.1l.07-.41c.07.06.11.1.15.13.03.03.1.06.21.11.11.04.23.07.35.07.18,0,.34-.05.46-.15.12-.1.19-.26.19-.5v-2.96h.48v2.97c0,.19-.03.35-.08.48-.06.13-.13.24-.23.3-.1.07-.2.12-.31.14-.11.03-.22.04-.34.04-.32,0-.64-.08-.94-.23Z"/><path class="cls-34" d="m211.85,15c0-.37.12-.68.36-.94s.52-.38.85-.38.63.13.86.4.35.58.35.93-.12.67-.36.91c-.24.24-.52.36-.85.36s-.6-.12-.85-.37c-.24-.25-.36-.55-.36-.91Zm.43-.05c0,.32.08.57.23.73.16.17.34.25.54.25s.39-.08.54-.25c.16-.17.23-.41.23-.73s-.08-.54-.23-.7c-.16-.15-.34-.23-.54-.23s-.38.08-.54.23c-.16.16-.24.39-.24.7Z"/><path class="cls-34" d="m214.88,16.21v-3.98h.41v1.8c.27-.22.56-.33.88-.33.26,0,.48.13.65.38.17.25.25.55.25.89,0,.37-.1.68-.3.93-.2.25-.44.37-.72.37-.26,0-.51-.11-.74-.32v.26h-.43Zm.43-.73s0,.05,0,.07c0,.02,0,.03.01.05,0,.02.01.03.02.03,0,0,.01.02.03.04.01.02.02.03.04.05.12.15.27.22.45.22.2,0,.38-.08.54-.23s.25-.39.25-.72c0-.17-.02-.32-.07-.45-.05-.13-.11-.23-.19-.29-.08-.07-.16-.11-.24-.15-.08-.03-.16-.05-.24-.05-.14,0-.28.04-.4.13-.12.08-.19.18-.19.28v1.02Z"/><line class="cls-22" x1="230.2" y1="19.06" x2="254.96" y2="40.38"/><polygon class="cls-34" points="253.18 40.7 253.16 40.36 254.86 40.29 254.67 38.6 255.02 38.57 255.24 40.62 253.18 40.7"/><path class="cls-34" d="m192.37,44.93c0-.3.05-.58.16-.84.1-.26.24-.47.41-.64.17-.17.35-.3.56-.4.2-.1.4-.15.6-.15.14,0,.26,0,.34,0,.08,0,.19.02.32.05.13.03.28.07.43.13l-.08.46c-.17-.1-.31-.17-.44-.22-.13-.05-.29-.07-.49-.07-.37,0-.68.16-.93.49s-.38.72-.38,1.19.13.87.38,1.19c.25.33.57.49.94.49.07,0,.14,0,.2,0,.06,0,.12-.01.16-.02.04,0,.09-.02.15-.04.05-.02.09-.03.12-.04.03,0,.06-.03.11-.05.05-.03.08-.05.09-.06.01,0,.05-.03.1-.06s.09-.06.1-.06l.03.38c-.2.12-.37.2-.51.24-.14.04-.33.06-.56.06-.53,0-.96-.2-1.3-.61s-.51-.88-.51-1.43Z"/><path class="cls-34" d="m195.96,46.84v-3.98h.41v1.87c.22-.26.49-.4.79-.4.14,0,.26.02.36.07s.17.1.22.16c.05.06.09.14.12.23.03.09.04.17.05.24,0,.06,0,.14,0,.23v1.59h-.43v-1.54c0-.06,0-.11,0-.15,0-.04-.01-.09-.03-.16-.02-.07-.05-.12-.08-.16-.03-.04-.09-.08-.16-.11-.07-.03-.16-.05-.26-.05-.2,0-.34.08-.43.25-.09.17-.13.36-.13.6v1.32h-.43Z"/><path class="cls-34" d="m198.56,45.6c0-.36.11-.67.33-.92.22-.25.48-.37.78-.37.11,0,.21.02.31.05.1.04.2.09.3.17.1.08.19.2.25.36s.1.35.12.58v.16h-1.71c.01.28.09.5.25.67.16.17.34.26.56.26.28,0,.56-.1.84-.3l.04.36c-.28.19-.57.28-.87.28-.35,0-.64-.13-.86-.39-.23-.26-.34-.57-.34-.92Zm.41-.27h1.37c-.02-.14-.06-.26-.12-.36-.06-.1-.12-.17-.19-.21-.07-.04-.14-.07-.19-.08-.06-.01-.11-.02-.16-.02-.19,0-.34.07-.46.21-.12.14-.2.3-.24.46Z"/><path class="cls-34" d="m201.25,46.84v-2.48h.4v.39c.21-.28.48-.42.8-.42.36,0,.59.15.7.45.22-.3.5-.45.83-.45.14,0,.26.02.36.07s.17.1.22.16.09.14.12.23c.03.09.04.17.05.23,0,.06,0,.14,0,.22v1.59h-.43v-1.58s0-.04-.01-.09-.02-.08-.03-.12c-.01-.04-.03-.08-.06-.13-.03-.05-.06-.09-.09-.12-.04-.03-.08-.06-.14-.09-.06-.02-.12-.04-.2-.04-.2,0-.34.08-.43.25-.09.17-.13.36-.13.6v1.32h-.43v-1.54c0-.06,0-.11,0-.15,0-.04-.01-.09-.03-.16-.02-.07-.05-.12-.08-.16-.03-.04-.09-.08-.16-.11-.07-.03-.16-.05-.26-.05-.2,0-.34.08-.43.25-.09.17-.13.36-.13.6v1.32h-.43Z"/><path class="cls-34" d="m205.71,46.84v-3.82h.69l1.51,3,.21.44v-3.44h.43v3.82h-.69l-1.51-3-.21-.44v3.44h-.43Z"/><path class="cls-34" d="m209.25,45.63c0-.37.12-.69.36-.94s.52-.38.85-.38.63.13.86.4.35.58.35.93-.12.67-.36.91c-.24.24-.52.36-.85.36s-.6-.12-.85-.37-.36-.55-.36-.91Zm.43-.05c0,.32.08.57.23.73.16.17.34.25.54.25s.39-.08.54-.25c.16-.17.23-.41.23-.73s-.08-.54-.23-.7c-.16-.15-.34-.23-.54-.23s-.38.08-.54.23c-.16.15-.24.39-.24.7Z"/><path class="cls-34" d="m212.19,45.63c0-.36.1-.67.29-.92.19-.25.42-.37.69-.37s.54.1.8.3v-1.77h.41v3.98h-.43v-.29c-.24.23-.51.35-.81.35-.27,0-.5-.13-.68-.38-.18-.26-.27-.56-.27-.9Zm.43,0c0,.33.08.57.23.72.15.15.32.23.51.23.15,0,.29-.05.41-.16.12-.11.18-.21.18-.3v-1.05c0-.07-.04-.14-.12-.21-.12-.11-.25-.17-.41-.17h-.01c-.09,0-.17.02-.26.05s-.17.08-.25.15-.15.17-.2.29c-.05.13-.08.28-.08.45Z"/><path class="cls-34" d="m215.03,45.6c0-.36.11-.67.33-.92.22-.25.48-.37.78-.37.11,0,.21.02.31.05.1.04.2.09.3.17.1.08.19.2.25.36s.1.35.12.58v.16h-1.71c.01.28.09.5.25.67.16.17.34.26.56.26.28,0,.56-.1.84-.3l.04.36c-.28.19-.57.28-.87.28-.35,0-.64-.13-.86-.39-.23-.26-.34-.57-.34-.92Zm.41-.27h1.37c-.02-.14-.06-.26-.12-.36-.06-.1-.12-.17-.19-.21-.07-.04-.14-.07-.19-.08-.06-.01-.11-.02-.16-.02-.19,0-.34.07-.46.21-.12.14-.2.3-.24.46Z"/><path class="cls-34" d="m266.82,44.99c0-.3.05-.58.16-.84.1-.26.24-.47.41-.64.17-.17.35-.3.56-.4.2-.1.4-.15.6-.15.14,0,.26,0,.34,0,.08,0,.19.02.32.05.13.03.28.07.43.13l-.08.46c-.17-.1-.31-.17-.44-.22-.13-.05-.29-.07-.49-.07-.37,0-.68.16-.93.49s-.38.72-.38,1.19.13.87.38,1.19c.25.33.57.49.94.49.07,0,.14,0,.2,0,.06,0,.12-.01.16-.02.04,0,.09-.02.15-.04.05-.02.09-.03.12-.04.03,0,.06-.03.11-.05.05-.03.08-.05.09-.06.01,0,.05-.03.1-.06s.09-.06.1-.06l.03.38c-.2.12-.37.2-.51.24-.14.04-.33.06-.56.06-.53,0-.96-.2-1.3-.61s-.51-.88-.51-1.43Z"/><path class="cls-34" d="m270.22,46.28c0-.14.05-.25.15-.36s.24-.18.4-.23c.17-.05.33-.09.49-.11.16-.02.32-.04.48-.04v-.19c0-.23-.05-.4-.14-.51-.09-.11-.21-.16-.35-.16-.28,0-.56.09-.82.28l-.03-.37c.27-.16.56-.24.86-.24.25,0,.47.08.64.25.17.17.26.37.28.61v1.68h-.42v-.19s-.05.04-.1.07c-.05.03-.16.07-.31.12-.15.04-.32.07-.5.07-.21,0-.36-.08-.47-.22s-.16-.3-.16-.46Zm.4-.01c0,.1.05.18.15.25.1.07.22.1.37.1.16,0,.3-.03.43-.1.13-.07.19-.18.19-.34v-.35c-.11,0-.23,0-.35.02s-.24.04-.36.07-.23.08-.3.14c-.08.06-.12.13-.12.22Z"/><path class="cls-34" d="m273.07,46.9v-3.98h.41v3.98h-.41Z"/><path class="cls-34" d="m274.13,45.68c0-.34.11-.65.33-.91s.51-.4.88-.4c.17,0,.31.02.43.05s.26.1.43.19l-.07.36c-.18-.11-.32-.18-.41-.21-.11-.03-.23-.04-.38-.04-.25,0-.44.09-.58.28-.13.19-.2.41-.2.67s.07.5.21.67c.14.18.33.26.56.26.29,0,.58-.1.87-.3l.03.37c-.29.18-.59.28-.9.28-.34,0-.62-.13-.85-.38s-.35-.56-.35-.91Z"/><path class="cls-34" d="m276.91,46.9v-3.82h.69l1.51,3,.21.44v-3.44h.43v3.82h-.69l-1.51-3-.21-.44v3.44h-.43Z"/><path class="cls-34" d="m280.44,45.69c0-.37.12-.69.36-.94s.52-.38.85-.38.63.13.86.4.35.58.35.93-.12.67-.36.91c-.24.24-.52.36-.85.36s-.6-.12-.85-.37-.36-.55-.36-.91Zm.43-.05c0,.32.08.57.23.73.16.17.34.25.54.25s.39-.08.54-.25c.16-.17.23-.41.23-.73s-.08-.54-.23-.7c-.16-.15-.34-.23-.54-.23s-.38.08-.54.23c-.16.15-.24.39-.24.7Z"/><path class="cls-34" d="m283.38,45.68c0-.36.1-.67.29-.92.19-.25.42-.37.69-.37s.54.1.8.3v-1.77h.41v3.98h-.43v-.29c-.24.23-.51.35-.81.35-.27,0-.5-.13-.68-.38-.18-.26-.27-.56-.27-.9Zm.43,0c0,.33.08.57.23.72.15.15.32.23.51.23.15,0,.29-.05.41-.16.12-.11.18-.21.18-.3v-1.05c0-.07-.04-.14-.12-.21-.12-.11-.25-.17-.41-.17h-.01c-.09,0-.17.02-.26.05s-.17.08-.25.15-.15.17-.2.29c-.05.13-.08.28-.08.45Z"/><path class="cls-34" d="m286.22,45.66c0-.36.11-.67.33-.92.22-.25.48-.37.78-.37.11,0,.21.02.31.05.1.04.2.09.3.17.1.08.19.2.25.36s.1.35.12.58v.16h-1.71c.01.28.09.5.25.67.16.17.34.26.56.26.28,0,.56-.1.84-.3l.04.36c-.28.19-.57.28-.87.28-.35,0-.64-.13-.86-.39-.23-.26-.34-.57-.34-.92Zm.41-.27h1.37c-.02-.14-.06-.26-.12-.36-.06-.1-.12-.17-.19-.21-.07-.04-.14-.07-.19-.08-.06-.01-.11-.02-.16-.02-.19,0-.34.07-.46.21-.12.14-.2.3-.24.46Z"/><path class="cls-34" d="m266.98,16.21v-3.82h1.24c.26,0,.5.03.7.1.2.07.36.15.46.26.11.11.19.22.24.33.05.11.08.22.08.33,0,.21-.08.41-.24.59-.16.18-.39.32-.7.41l1.1,1.8h-.5l-1.03-1.74h-.87v1.74h-.48Zm.48-2.08h.73c.39,0,.66-.07.82-.22.16-.14.25-.31.25-.49,0-.08-.02-.16-.05-.24s-.08-.15-.16-.23-.18-.14-.33-.19c-.15-.05-.32-.07-.52-.07h-.74v1.43Z"/><path class="cls-34" d="m270.46,15.54v-1.78h.43v1.85c0,.13.03.22.09.28s.17.08.35.08c.19,0,.34-.05.46-.15.12-.1.18-.22.2-.35,0-.04,0-.09,0-.16v-1.54h.43v2.45h-.42v-.26c-.25.21-.57.32-.96.32-.11,0-.2-.02-.28-.05-.08-.03-.14-.07-.17-.12-.04-.04-.07-.11-.09-.19-.02-.08-.03-.14-.03-.19,0-.05,0-.11,0-.19Z"/><path class="cls-34" d="m273.3,16.21v-2.48h.4v.39c.21-.28.48-.42.8-.42.14,0,.25.02.35.06.1.04.17.09.22.15.05.06.09.13.12.22.03.09.05.17.05.24s.01.15.01.25v1.59h-.43v-1.54c0-.06,0-.11,0-.15,0-.04-.01-.09-.03-.16-.02-.07-.05-.12-.08-.16-.03-.04-.09-.08-.16-.11-.07-.03-.16-.05-.26-.05-.2,0-.34.08-.43.25s-.13.36-.13.6v1.32h-.43Z"/><path class="cls-34" d="m275.95,15.96l.08-.46c.38.31.77.46,1.17.46.24,0,.43-.07.58-.22.15-.15.22-.32.22-.51,0-.14-.04-.27-.13-.39s-.2-.21-.34-.27c0,0-.24-.06-.68-.18-.22-.06-.42-.18-.59-.36-.17-.18-.26-.41-.26-.67,0-.28.11-.53.34-.75.23-.22.53-.33.89-.33.35,0,.69.09,1.01.26l-.08.46c-.16-.12-.3-.21-.43-.27-.13-.06-.3-.09-.51-.09-.24,0-.43.07-.58.2s-.22.28-.22.46c0,.13.04.25.13.35s.19.19.32.24c.05.01.19.05.4.1.21.05.36.1.43.13.2.08.38.22.52.4.14.18.22.4.22.66,0,.31-.12.58-.35.82s-.53.35-.9.35c-.44,0-.86-.13-1.25-.38Z"/><path class="cls-34" d="m278.87,14.09v-.32h.47v-.69h.38v.69h.78v.32h-.78v1.36c0,.32.1.48.3.48.15,0,.32-.06.48-.18l.09.33c-.26.14-.53.21-.81.21-.3,0-.45-.24-.45-.71v-1.48h-.46Z"/><path class="cls-34" d="m281,15.59c0-.14.05-.25.15-.36.1-.1.24-.18.4-.23.17-.05.33-.09.49-.11.16-.02.32-.04.48-.04v-.19c0-.24-.05-.4-.14-.51-.09-.11-.21-.16-.35-.16-.28,0-.56.09-.82.28l-.03-.37c.27-.16.56-.24.86-.24.25,0,.47.08.64.25.17.17.26.37.28.61v1.68h-.42v-.19s-.05.04-.1.07c-.05.03-.16.07-.31.12-.15.04-.32.07-.5.07-.21,0-.36-.07-.47-.22-.1-.15-.16-.3-.16-.46Zm.4-.01c0,.1.05.18.15.25.1.07.22.1.37.1.16,0,.3-.03.43-.1.13-.07.19-.18.19-.34v-.35c-.11,0-.23,0-.35.02s-.24.04-.36.07c-.12.03-.23.08-.3.14-.08.06-.12.13-.12.22Z"/><path class="cls-34" d="m283.5,14.09v-.32h.47v-.69h.38v.69h.78v.32h-.78v1.36c0,.32.1.48.3.48.15,0,.32-.06.48-.18l.09.33c-.26.14-.53.21-.81.21-.3,0-.45-.24-.45-.71v-1.48h-.46Z"/><path class="cls-34" d="m285.53,16.03l.07-.37s.03.02.07.04c.04.02.07.04.09.05s.05.03.1.05c.05.02.09.04.13.05.04.01.08.03.13.04s.11.02.16.03c.06,0,.12,0,.18,0,.18,0,.31-.04.39-.12s.12-.17.12-.26-.03-.17-.1-.23c-.07-.06-.14-.1-.21-.12-.04-.01-.12-.03-.25-.06s-.22-.05-.28-.07c-.15-.05-.28-.13-.4-.25-.12-.12-.17-.26-.17-.43,0-.08.01-.16.04-.24.02-.08.07-.15.13-.23s.15-.14.28-.19.28-.07.45-.07c.26,0,.53.06.8.17l-.06.37s-.02-.01-.06-.03c-.04-.02-.06-.03-.06-.03,0,0-.03-.01-.06-.03-.03-.01-.06-.02-.07-.03-.01,0-.04-.01-.07-.03-.03-.01-.06-.02-.08-.02-.02,0-.05,0-.08-.02s-.07-.01-.09-.02c-.03,0-.06,0-.1,0-.04,0-.08,0-.12,0-.17,0-.29.03-.36.1s-.11.15-.11.23c0,.12.05.21.15.26.1.05.24.09.41.12.18.03.3.06.37.1.13.06.24.15.34.27.09.12.14.26.14.42,0,.08-.01.17-.04.25-.03.08-.07.16-.13.24-.06.08-.15.15-.28.2-.13.05-.28.08-.45.08-.32,0-.63-.08-.93-.25Z"/><circle class="cls-15" cx="226.82" cy="44.69" r="5.7"/><circle class="cls-6" cx="226.82" cy="67.77" r="5.7"/><circle class="cls-7" cx="258.62" cy="67.77" r="5.7"/><circle class="cls-16" cx="258.62" cy="44.69" r="5.7"/><path class="cls-34" d="m219.19,78.89c0-.3.05-.58.16-.84.1-.26.24-.47.41-.64.17-.17.35-.3.56-.4.2-.1.4-.15.6-.15.14,0,.26,0,.34,0,.08,0,.19.02.32.05.13.03.28.07.43.13l-.08.46c-.17-.1-.31-.17-.44-.22-.13-.05-.29-.07-.49-.07-.37,0-.68.16-.93.49s-.38.72-.38,1.19.13.87.38,1.19c.25.33.57.49.94.49.07,0,.14,0,.2,0,.06,0,.12-.01.16-.02.04,0,.09-.02.15-.04.05-.02.09-.03.12-.04.03,0,.06-.03.11-.05.05-.03.08-.05.09-.06.01,0,.05-.03.1-.06s.09-.06.1-.06l.03.38c-.2.12-.37.2-.51.24-.14.04-.33.06-.56.06-.53,0-.96-.2-1.3-.61s-.51-.88-.51-1.43Z"/><path class="cls-34" d="m222.79,80.8v-2.48h.38v.49c.04-.07.1-.14.16-.2.06-.06.17-.13.32-.21.15-.07.31-.11.49-.11v.36c-.09,0-.19.02-.29.05-.1.03-.2.08-.3.15-.1.07-.19.17-.25.31-.06.14-.1.3-.1.49v1.14h-.41Z"/><path class="cls-34" d="m224.3,78.35h.43c.24.54.41.96.53,1.27.12.31.19.5.21.58s.04.19.06.33c0-.26.25-.98.73-2.18h.41l-1.19,2.95c-.11.25-.21.41-.3.5-.09.09-.21.13-.34.13-.15,0-.28-.01-.4-.04l-.03-.36c.2.06.33.09.4.09.1,0,.17-.04.22-.11.05-.07.13-.23.23-.48.03-.06.05-.11.06-.15.01-.03.02-.06.02-.09s0-.06-.03-.1l-1.03-2.35Z"/><path class="cls-34" d="m226.91,80.62l.07-.37s.03.02.07.04.07.04.09.05.05.03.1.05c.05.02.09.04.13.05.04.01.08.03.13.04.05.01.11.03.16.03.06,0,.12,0,.18,0,.18,0,.31-.04.39-.12.08-.08.12-.17.12-.26s-.03-.17-.1-.23c-.07-.06-.14-.1-.21-.12-.04-.01-.12-.03-.25-.05-.13-.03-.22-.05-.28-.07-.15-.05-.28-.13-.4-.25-.12-.12-.17-.26-.17-.43,0-.08.01-.17.04-.24.02-.08.07-.15.13-.23s.15-.14.28-.19.28-.07.45-.07c.26,0,.53.06.8.17l-.06.37s-.02-.01-.06-.03c-.04-.02-.06-.03-.06-.03,0,0-.03-.01-.06-.03-.03-.01-.06-.02-.07-.03-.01,0-.04-.01-.07-.03-.03-.01-.06-.02-.08-.02-.02,0-.05,0-.08-.02-.04,0-.07-.01-.09-.02-.03,0-.06,0-.1,0-.04,0-.08,0-.12,0-.17,0-.29.03-.36.1s-.11.15-.11.23c0,.12.05.21.15.26.1.05.24.09.41.13.18.03.3.06.37.1.13.06.24.15.34.27.09.12.14.26.14.42,0,.08-.01.17-.04.25-.03.08-.07.16-.13.24s-.15.15-.28.2-.28.08-.45.08c-.32,0-.63-.08-.93-.25Z"/><path class="cls-34" d="m228.97,78.68v-.32h.47v-.69h.38v.69h.78v.32h-.78v1.36c0,.32.1.48.3.48.15,0,.32-.06.48-.18l.09.32c-.26.14-.53.21-.81.21-.3,0-.45-.24-.45-.71v-1.48h-.46Z"/><path class="cls-34" d="m231.1,80.18c0-.14.05-.25.15-.36s.24-.18.4-.23c.17-.05.33-.09.49-.11.16-.02.32-.04.48-.04v-.19c0-.23-.05-.4-.14-.51-.09-.11-.21-.16-.35-.16-.28,0-.56.09-.82.28l-.03-.37c.27-.16.56-.24.86-.24.25,0,.47.08.64.25.17.17.26.37.28.61v1.68h-.42v-.19s-.05.04-.1.07c-.05.03-.16.07-.31.12-.15.04-.32.07-.5.07-.21,0-.36-.08-.47-.22s-.16-.3-.16-.46Zm.4-.01c0,.1.05.18.15.25.1.07.22.1.37.1.16,0,.3-.03.43-.1.13-.07.19-.18.19-.34v-.35c-.11,0-.23,0-.35.02s-.24.04-.36.07-.23.08-.3.14c-.08.06-.12.13-.12.22Z"/><path class="cls-34" d="m233.95,80.8v-3.98h.41v3.98h-.41Z"/><path class="cls-34" d="m244.03,80.87v-3.81h2.46v.36h-.45s-1.32,0-1.32,0h-.19s0,1.3,0,1.3h1.82v.34h-1.82v1.43h.6s1.07,0,1.07,0h.12s.26,0,.26,0v.4h-2.54Z"/><path class="cls-34" d="m247.24,80.87v-2.48h.4v.39c.21-.28.48-.42.8-.42.14,0,.25.02.35.06.1.04.17.09.22.15.05.06.09.13.12.22.03.09.05.17.05.24,0,.07.01.15.01.25v1.59h-.43v-1.54c0-.06,0-.11,0-.15,0-.04-.01-.09-.03-.16-.02-.07-.05-.12-.08-.16-.03-.04-.09-.08-.16-.11-.07-.03-.16-.05-.26-.05-.2,0-.34.08-.43.25-.09.17-.13.36-.13.6v1.32h-.43Z"/><path class="cls-34" d="m249.84,79.62c0-.36.11-.67.33-.92.22-.25.48-.37.78-.37.11,0,.21.02.31.05.1.04.2.09.3.17.1.08.19.2.25.36s.1.35.12.58v.16h-1.71c.01.28.09.5.25.67.16.17.34.26.56.26.28,0,.56-.1.84-.3l.04.36c-.28.19-.57.28-.87.28-.35,0-.64-.13-.86-.39-.23-.26-.34-.57-.34-.92Zm.41-.27h1.37c-.02-.14-.06-.26-.12-.36-.06-.1-.12-.17-.19-.21-.07-.04-.14-.07-.19-.08-.06-.01-.11-.02-.16-.02-.19,0-.34.07-.46.21-.12.14-.2.3-.24.46Z"/><path class="cls-34" d="m252.54,80.87v-2.48h.38v.49c.04-.07.1-.14.16-.2.06-.06.17-.13.32-.21.15-.07.31-.11.49-.11v.36c-.09,0-.19.02-.29.05-.1.03-.2.08-.3.15-.1.07-.19.17-.25.31-.06.14-.1.3-.1.49v1.14h-.41Z"/><path class="cls-34" d="m254.13,81.26c0-.24.12-.43.35-.57-.09-.13-.14-.27-.14-.42,0-.17.05-.32.16-.47h0c-.12-.16-.18-.35-.18-.55,0-.26.09-.47.26-.64s.38-.25.61-.25c.19,0,.37.06.55.18h-.01c.27-.12.56-.18.87-.18l.06.34c-.11-.01-.22-.02-.33-.02-.01,0-.15,0-.41.02l-.05-.04c.14.2.22.39.22.59,0,.24-.09.45-.26.63-.17.18-.38.27-.63.27-.16,0-.32-.06-.49-.17-.06.08-.08.15-.08.21,0,.07.02.14.07.2s.13.09.25.09h.42c.13,0,.24,0,.33.01s.2.03.34.06.25.09.34.17.15.19.19.32c.02.07.03.14.03.2,0,.21-.12.39-.36.53-.24.14-.53.21-.87.21s-.62-.07-.86-.21c-.24-.14-.35-.32-.35-.53Zm.38,0c0,.1.05.18.15.25.1.07.21.12.33.15.12.03.24.04.35.04.23,0,.43-.04.6-.12.17-.08.25-.18.25-.31,0-.25-.28-.38-.83-.38h-.51c-.1.02-.18.06-.25.13s-.09.16-.09.25Zm.19-2.01c0,.18.04.32.14.42s.21.16.36.16c.13,0,.24-.04.34-.14.1-.09.15-.24.15-.45,0-.18-.04-.32-.13-.42s-.21-.16-.36-.16c-.13,0-.24.04-.34.14-.1.09-.15.24-.15.45Z"/><path class="cls-34" d="m256.81,78.42h.43c.24.54.41.96.53,1.27.12.31.19.5.21.58s.04.19.06.33c0-.26.25-.98.73-2.18h.41l-1.19,2.95c-.11.25-.21.41-.3.5-.09.09-.21.13-.34.13-.15,0-.28-.01-.4-.04l-.03-.36c.2.06.33.09.4.09.1,0,.17-.04.22-.11.05-.07.13-.23.23-.48.03-.06.05-.11.06-.15.01-.03.02-.06.02-.09s0-.06-.03-.1l-1.03-2.35Z"/><path class="cls-34" d="m259.79,80.87v-3.81h2.38v.36h-.43s-1.28,0-1.28,0h-.17s0,1.38,0,1.38h1.66v.34h-1.66v1.73h-.5Z"/><path class="cls-34" d="m262.41,79.65c0-.37.12-.69.36-.94s.52-.38.85-.38.63.13.86.4.35.58.35.93-.12.67-.36.91c-.24.24-.52.36-.85.36s-.6-.12-.85-.37-.36-.55-.36-.91Zm.43-.05c0,.32.08.57.23.73.16.17.34.25.54.25s.39-.08.54-.25c.16-.17.23-.41.23-.73s-.08-.54-.23-.7c-.16-.15-.34-.23-.54-.23s-.38.08-.54.23c-.16.15-.24.39-.24.7Z"/><path class="cls-34" d="m265.3,80.87v-2.48h.38v.49c.04-.07.1-.14.16-.2.06-.06.17-.13.32-.21.15-.07.31-.11.49-.11v.36c-.09,0-.19.02-.29.05-.1.03-.2.08-.3.15-.1.07-.19.17-.25.31-.06.14-.1.3-.1.49v1.14h-.41Z"/><path class="cls-34" d="m266.93,79.64c0-.34.11-.65.33-.91s.51-.4.88-.4c.17,0,.31.02.43.05s.26.1.43.19l-.07.36c-.18-.11-.32-.18-.41-.21-.11-.03-.23-.04-.38-.04-.25,0-.44.09-.58.28-.13.19-.2.41-.2.67s.07.5.21.67c.14.18.33.26.56.26.29,0,.58-.1.87-.3l.03.37c-.29.18-.59.28-.9.28-.34,0-.62-.13-.85-.38s-.35-.56-.35-.91Z"/><path class="cls-34" d="m269.37,79.62c0-.36.11-.67.33-.92.22-.25.48-.37.78-.37.11,0,.21.02.31.05.1.04.2.09.3.17.1.08.19.2.25.36s.1.35.12.58v.16h-1.71c.01.28.09.5.25.67.16.17.34.26.56.26.28,0,.56-.1.84-.3l.04.36c-.28.19-.57.28-.87.28-.35,0-.64-.13-.86-.39-.23-.26-.34-.57-.34-.92Zm.41-.27h1.37c-.02-.14-.06-.26-.12-.36-.06-.1-.12-.17-.19-.21-.07-.04-.14-.07-.19-.08-.06-.01-.11-.02-.16-.02-.19,0-.34.07-.46.21-.12.14-.2.3-.24.46Z"/><path class="cls-34" d="m271.77,80.68l.07-.37s.03.02.07.04.07.04.09.05.05.03.1.05c.05.02.09.04.13.05.04.01.08.03.13.04.05.01.11.03.16.03.06,0,.12,0,.18,0,.18,0,.31-.04.39-.12.08-.08.12-.17.12-.26s-.03-.17-.1-.23c-.07-.06-.14-.1-.21-.12-.04-.01-.12-.03-.25-.05-.13-.03-.22-.05-.28-.07-.15-.05-.28-.13-.4-.25-.12-.12-.17-.26-.17-.43,0-.08.01-.17.04-.24.02-.08.07-.15.13-.23s.15-.14.28-.19.28-.07.45-.07c.26,0,.53.06.8.17l-.06.37s-.02-.01-.06-.03c-.04-.02-.06-.03-.06-.03,0,0-.03-.01-.06-.03-.03-.01-.06-.02-.07-.03-.01,0-.04-.01-.07-.03-.03-.01-.06-.02-.08-.02-.02,0-.05,0-.08-.02-.04,0-.07-.01-.09-.02-.03,0-.06,0-.1,0-.04,0-.08,0-.12,0-.17,0-.29.03-.36.1s-.11.15-.11.23c0,.12.05.21.15.26.1.05.24.09.41.13.18.03.3.06.37.1.13.06.24.15.34.27.09.12.14.26.14.42,0,.08-.01.17-.04.25-.03.08-.07.16-.13.24s-.15.15-.28.2-.28.08-.45.08c-.32,0-.63-.08-.93-.25Z"/><line class="cls-22" x1="226.82" y1="50.39" x2="226.82" y2="61.7"/><polygon class="cls-34" points="225.41 60.55 225.67 60.32 226.82 61.56 227.98 60.32 228.23 60.55 226.82 62.07 225.41 60.55"/><line class="cls-22" x1="258.62" y1="50.39" x2="258.62" y2="61.7"/><polygon class="cls-34" points="257.22 60.55 257.47 60.32 258.62 61.56 259.78 60.32 260.03 60.55 258.62 62.07 257.22 60.55"/><line class="cls-22" x1="252.92" y1="44.69" x2="232.9" y2="44.69"/><polygon class="cls-34" points="234.04 43.28 234.27 43.53 233.03 44.69 234.27 45.84 234.04 46.09 232.52 44.69 234.04 43.28"/><line class="cls-22" x1="232.26" y1="14.6" x2="252.28" y2="14.6"/><polygon class="cls-34" points="251.14 16.01 250.91 15.75 252.15 14.6 250.91 13.44 251.14 13.19 252.66 14.6 251.14 16.01"/><circle class="cls-18" cx="258.62" cy="14.6" r="5.7"/><polyline class="cls-28" points="136.15 84.02 136.15 86.02 134.15 86.02"/><line class="cls-24" x1="130.4" y1="86.02" x2="94.81" y2="86.02"/><polyline class="cls-28" points="92.94 86.02 90.94 86.02 90.94 84.02"/><line class="cls-5" x1="90.94" y1="79.92" x2="90.94" y2="8.12"/><polyline class="cls-28" points="90.94 6.07 90.94 4.07 92.94 4.07"/><line class="cls-24" x1="96.68" y1="4.07" x2="132.28" y2="4.07"/><polyline class="cls-28" points="134.15 4.07 136.15 4.07 136.15 6.07"/><line class="cls-5" x1="136.15" y1="10.17" x2="136.15" y2="81.97"/><circle class="cls-17" cx="113.36" cy="45.08" r="5.7"/><circle class="cls-15" cx="113.36" cy="20.93" r="5.7"/><path class="cls-34" d="m95.4,46.73l.07-.41c.07.06.11.1.15.13.03.03.1.06.21.11.11.04.23.07.35.07.18,0,.34-.05.46-.15.12-.1.19-.26.19-.5v-2.96h.48v2.97c0,.19-.03.35-.08.48-.06.13-.13.24-.23.3-.1.07-.2.12-.31.14-.11.03-.22.04-.34.04-.32,0-.64-.08-.94-.23Z"/><path class="cls-34" d="m97.94,45.63c0-.37.12-.68.36-.94s.52-.38.85-.38.63.13.86.4.35.58.35.93-.12.67-.36.91c-.24.24-.52.36-.85.36s-.6-.12-.85-.37c-.24-.25-.36-.55-.36-.91Zm.43-.05c0,.32.08.57.23.73.16.17.34.25.54.25s.39-.08.54-.25c.16-.17.23-.41.23-.73s-.08-.54-.23-.7c-.16-.15-.34-.23-.54-.23s-.38.08-.54.23c-.16.16-.24.39-.24.7Z"/><path class="cls-34" d="m100.98,46.84v-3.98h.41v1.8c.27-.22.56-.33.88-.33.26,0,.48.13.65.38.17.25.25.55.25.89,0,.37-.1.68-.3.93-.2.25-.44.37-.72.37-.26,0-.51-.11-.74-.32v.26h-.43Zm.43-.73s0,.05,0,.07c0,.02,0,.03.01.05,0,.02.01.03.02.03,0,0,.01.02.03.04.01.02.02.03.04.05.12.15.27.22.45.22.2,0,.38-.08.54-.23s.25-.39.25-.72c0-.17-.02-.32-.07-.45-.05-.13-.11-.23-.19-.29-.08-.07-.16-.11-.24-.15-.08-.03-.16-.05-.24-.05-.14,0-.28.04-.4.13-.12.08-.19.18-.19.28v1.02Z"/><path class="cls-34" d="m116.62,78.92c0-.37.12-.69.36-.94s.52-.38.85-.38.63.13.86.4.35.58.35.93-.12.67-.36.91c-.24.24-.52.36-.85.36s-.6-.12-.85-.37-.36-.55-.36-.91Zm.43-.05c0,.32.08.57.23.73.16.17.34.25.54.25s.39-.08.54-.25c.16-.17.23-.41.23-.73s-.08-.54-.23-.7c-.16-.15-.34-.23-.54-.23s-.38.08-.54.23c-.16.15-.24.39-.24.7Z"/><path class="cls-34" d="m119.66,81.21v-3.52h.41v.27c.27-.22.57-.33.91-.33.25,0,.46.13.62.38.16.25.24.55.24.89,0,.38-.1.69-.3.93-.2.24-.44.37-.72.37s-.52-.11-.74-.32v1.33h-.43Zm.43-1.77c0,.08.05.17.16.27.1.1.23.15.38.15.21,0,.39-.09.55-.26.16-.18.25-.4.25-.68,0-.25-.07-.46-.21-.65s-.32-.28-.54-.28c-.04,0-.08,0-.12,0-.04,0-.07.01-.1.03s-.06.03-.09.04c-.03.01-.05.03-.08.04-.02.02-.04.03-.06.05-.02.01-.04.03-.05.05-.02.02-.03.03-.04.04s-.02.02-.03.03l-.02.02v1.14Z"/><path class="cls-34" d="m122.16,78.01v-.32h.47v-.69h.38v.69h.78v.32h-.78v1.36c0,.32.1.48.3.48.15,0,.32-.06.48-.18l.09.32c-.26.14-.53.21-.81.21-.3,0-.45-.24-.45-.71v-1.48h-.46Z"/><path class="cls-34" d="m124.46,76.89v-.49h.5v.49h-.5Zm.04,3.25v-2.45h.37v2.45h-.37Z"/><path class="cls-34" d="m125.53,78.92c0-.37.12-.69.36-.94s.52-.38.85-.38.63.13.86.4.35.58.35.93-.12.67-.36.91c-.24.24-.52.36-.85.36s-.6-.12-.85-.37-.36-.55-.36-.91Zm.43-.05c0,.32.08.57.23.73.16.17.34.25.54.25s.39-.08.54-.25c.16-.17.23-.41.23-.73s-.08-.54-.23-.7c-.16-.15-.34-.23-.54-.23s-.38.08-.54.23c-.16.15-.24.39-.24.7Z"/><path class="cls-34" d="m128.56,80.14v-2.48h.4v.39c.21-.28.48-.42.8-.42.14,0,.25.02.35.06.1.04.17.09.22.15.05.06.09.13.12.22.03.09.05.17.05.24,0,.07.01.15.01.25v1.59h-.43v-1.54c0-.06,0-.11,0-.15,0-.04-.01-.09-.03-.16-.02-.07-.05-.12-.08-.16-.03-.04-.09-.08-.16-.11-.07-.03-.16-.05-.26-.05-.2,0-.34.08-.43.25-.09.17-.13.36-.13.6v1.32h-.43Z"/><path class="cls-34" d="m131.11,79.95l.07-.37s.03.02.07.04.07.04.09.05.05.03.1.05c.05.02.09.04.13.05.04.01.08.03.13.04.05.01.11.03.16.03.06,0,.12,0,.18,0,.18,0,.31-.04.39-.12.08-.08.12-.17.12-.26s-.03-.17-.1-.23c-.07-.06-.14-.1-.21-.12-.04-.01-.12-.03-.25-.05-.13-.03-.22-.05-.28-.07-.15-.05-.28-.13-.4-.25-.12-.12-.17-.26-.17-.43,0-.08.01-.17.04-.24.02-.08.07-.15.13-.23s.15-.14.28-.19.28-.07.45-.07c.26,0,.53.06.8.17l-.06.37s-.02-.01-.06-.03c-.04-.02-.06-.03-.06-.03,0,0-.03-.01-.06-.03-.03-.01-.06-.02-.07-.03-.01,0-.04-.01-.07-.03-.03-.01-.06-.02-.08-.02-.02,0-.05,0-.08-.02-.04,0-.07-.01-.09-.02-.03,0-.06,0-.1,0-.04,0-.08,0-.12,0-.17,0-.29.03-.36.1s-.11.15-.11.23c0,.12.05.21.15.26.1.05.24.09.41.13.18.03.3.06.37.1.13.06.24.15.34.27.09.12.14.26.14.42,0,.08-.01.17-.04.25-.03.08-.07.16-.13.24s-.15.15-.28.2-.28.08-.45.08c-.32,0-.63-.08-.93-.25Z"/><path class="cls-34" d="m106.8,9.3v-.49h.5v.49h-.5Zm.04,3.25v-2.45h.37v2.45h-.37Z"/><path class="cls-34" d="m108.15,12.55v-2.48h.4v.39c.21-.28.48-.42.8-.42.14,0,.25.02.35.06.1.04.17.09.22.15.05.06.09.13.12.22.03.09.05.17.05.24,0,.07.01.15.01.25v1.59h-.43v-1.54c0-.06,0-.11,0-.15,0-.04-.01-.09-.03-.16-.02-.07-.05-.12-.08-.16-.03-.04-.09-.08-.16-.11-.07-.03-.16-.05-.26-.05-.2,0-.34.08-.43.25-.09.17-.13.36-.13.6v1.32h-.43Z"/><path class="cls-34" d="m111,13.62v-3.52h.41v.27c.27-.22.57-.33.91-.33.25,0,.46.13.62.38.16.25.24.55.24.89,0,.38-.1.69-.3.93-.2.24-.44.37-.72.37s-.52-.11-.74-.32v1.33h-.43Zm.43-1.77c0,.08.05.17.16.27.1.1.23.15.38.15.21,0,.39-.09.55-.26.16-.18.25-.4.25-.68,0-.25-.07-.46-.21-.65s-.32-.28-.54-.28c-.04,0-.08,0-.12,0-.04,0-.07.01-.1.03s-.06.03-.09.04c-.03.01-.05.03-.08.04-.02.02-.04.03-.06.05-.02.01-.04.03-.05.05-.02.02-.03.03-.04.04s-.02.02-.03.03l-.02.02v1.14Z"/><path class="cls-34" d="m113.84,11.88v-1.78h.43v1.85c0,.13.03.22.09.28.06.06.17.08.35.08.19,0,.34-.05.46-.15.12-.1.18-.22.2-.35,0-.04,0-.09,0-.16v-1.54h.43v2.45h-.42v-.26c-.25.21-.57.32-.96.32-.11,0-.2-.02-.28-.05s-.14-.08-.17-.12c-.04-.04-.07-.11-.09-.19-.02-.08-.03-.14-.03-.19,0-.05,0-.11,0-.19Z"/><path class="cls-34" d="m116.34,10.42v-.32h.47v-.69h.38v.69h.78v.32h-.78v1.36c0,.32.1.48.3.48.15,0,.32-.06.48-.18l.09.32c-.26.14-.53.21-.81.21-.3,0-.45-.24-.45-.71v-1.48h-.46Z"/><path class="cls-34" d="m118.38,12.36l.07-.37s.03.02.07.04.07.04.09.05.05.03.1.05c.05.02.09.04.13.05.04.01.08.03.13.04.05.01.11.03.16.03.06,0,.12,0,.18,0,.18,0,.31-.04.39-.12.08-.08.12-.17.12-.26s-.03-.17-.1-.23c-.07-.06-.14-.1-.21-.12-.04-.01-.12-.03-.25-.05-.13-.03-.22-.05-.28-.07-.15-.05-.28-.13-.4-.25-.12-.12-.17-.26-.17-.43,0-.08.01-.17.04-.24.02-.08.07-.15.13-.23s.15-.14.28-.19.28-.07.45-.07c.26,0,.53.06.8.17l-.06.37s-.02-.01-.06-.03c-.04-.02-.06-.03-.06-.03,0,0-.03-.01-.06-.03-.03-.01-.06-.02-.07-.03-.01,0-.04-.01-.07-.03-.03-.01-.06-.02-.08-.02-.02,0-.05,0-.08-.02-.04,0-.07-.01-.09-.02-.03,0-.06,0-.1,0-.04,0-.08,0-.12,0-.17,0-.29.03-.36.1s-.11.15-.11.23c0,.12.05.21.15.26.1.05.24.09.41.13.18.03.3.06.37.1.13.06.24.15.34.27.09.12.14.26.14.42,0,.08-.01.17-.04.25-.03.08-.07.16-.13.24s-.15.15-.28.2-.28.08-.45.08c-.32,0-.63-.08-.93-.25Z"/><line class="cls-22" x1="113.36" y1="26.63" x2="113.36" y2="38.95"/><polygon class="cls-34" points="111.96 37.81 112.21 37.57 113.36 38.82 114.52 37.57 114.77 37.81 113.36 39.32 111.96 37.81"/><circle class="cls-4" cx="124.77" cy="69.23" r="5.7"/><path class="cls-34" d="m95.1,80.14v-3.82h1.24c.26,0,.5.03.7.1.2.07.36.16.46.26.11.11.19.22.24.33.05.11.08.22.08.33,0,.21-.08.41-.24.59-.16.18-.39.32-.7.41l1.1,1.8h-.5l-1.03-1.74h-.87v1.74h-.48Zm.48-2.08h.73c.39,0,.66-.07.82-.22s.25-.31.25-.49c0-.08-.02-.16-.05-.24s-.08-.15-.16-.23-.18-.14-.33-.19c-.15-.05-.32-.07-.52-.07h-.74v1.43Z"/><path class="cls-34" d="m98.32,78.89c0-.36.11-.67.33-.92.22-.25.48-.37.78-.37.11,0,.21.02.31.05.1.04.2.09.3.17.1.08.19.2.25.36s.1.35.12.58v.16h-1.71c.01.28.09.5.25.67.16.17.34.26.56.26.28,0,.56-.1.84-.3l.04.36c-.28.19-.57.28-.87.28-.35,0-.64-.13-.86-.39-.23-.26-.34-.57-.34-.92Zm.41-.27h1.37c-.02-.14-.06-.26-.12-.36-.06-.1-.12-.17-.19-.21-.07-.04-.14-.07-.19-.08-.06-.01-.11-.02-.16-.02-.19,0-.34.07-.46.21-.12.14-.2.3-.24.46Z"/><path class="cls-34" d="m100.77,78.91c0-.34.11-.65.33-.91s.51-.4.88-.4c.17,0,.31.02.43.05s.26.1.43.19l-.07.36c-.18-.11-.32-.18-.41-.21-.11-.03-.23-.04-.38-.04-.25,0-.44.09-.58.28-.13.19-.2.41-.2.67s.07.5.21.67c.14.18.33.26.56.26.29,0,.58-.1.87-.3l.03.37c-.29.18-.59.28-.9.28-.34,0-.62-.13-.85-.38s-.35-.56-.35-.91Z"/><path class="cls-34" d="m103.44,76.89v-.49h.5v.49h-.5Zm.04,3.25v-2.45h.37v2.45h-.37Z"/><path class="cls-34" d="m104.79,81.21v-3.52h.41v.27c.27-.22.57-.33.91-.33.25,0,.46.13.62.38.16.25.24.55.24.89,0,.38-.1.69-.3.93-.2.24-.44.37-.72.37s-.52-.11-.74-.32v1.33h-.43Zm.43-1.77c0,.08.05.17.16.27.1.1.23.15.38.15.21,0,.39-.09.55-.26.16-.18.25-.4.25-.68,0-.25-.07-.46-.21-.65s-.32-.28-.54-.28c-.04,0-.08,0-.12,0-.04,0-.07.01-.1.03s-.06.03-.09.04c-.03.01-.05.03-.08.04-.02.02-.04.03-.06.05-.02.01-.04.03-.05.05-.02.02-.03.03-.04.04s-.02.02-.03.03l-.02.02v1.14Z"/><path class="cls-34" d="m107.53,78.89c0-.36.11-.67.33-.92.22-.25.48-.37.78-.37.11,0,.21.02.31.05.1.04.2.09.3.17.1.08.19.2.25.36s.1.35.12.58v.16h-1.71c.01.28.09.5.25.67.16.17.34.26.56.26.28,0,.56-.1.84-.3l.04.36c-.28.19-.57.28-.87.28-.35,0-.64-.13-.86-.39-.23-.26-.34-.57-.34-.92Zm.41-.27h1.37c-.02-.14-.06-.26-.12-.36-.06-.1-.12-.17-.19-.21-.07-.04-.14-.07-.19-.08-.06-.01-.11-.02-.16-.02-.19,0-.34.07-.46.21-.12.14-.2.3-.24.46Z"/><circle class="cls-18" cx="102.18" cy="69.23" r="5.7"/><line class="cls-22" x1="122.76" y1="63.9" x2="115.96" y2="50.58"/><polygon class="cls-34" points="117.73 50.95 117.62 51.28 116.02 50.69 115.56 52.33 115.23 52.23 115.79 50.24 117.73 50.95"/><line class="cls-22" x1="104.18" y1="63.9" x2="110.98" y2="50.58"/><polygon class="cls-34" points="111.71 52.23 111.38 52.33 110.92 50.69 109.32 51.28 109.2 50.95 111.15 50.24 111.71 52.23"/><path class="cls-34" d="m262.97,155.64l.11-.6c.1.09.17.15.21.19s.15.09.31.16.33.1.51.1c.27,0,.49-.07.67-.21s.27-.38.27-.73v-4.29h.7v4.31c0,.27-.04.5-.12.7-.08.2-.2.34-.34.44-.14.1-.29.17-.45.21s-.32.06-.5.06c-.47,0-.92-.11-1.37-.34Z"/><path class="cls-34" d="m266.65,154.04c0-.54.17-.99.52-1.37.35-.37.76-.55,1.24-.55s.92.19,1.25.58c.33.39.5.84.5,1.35s-.18.97-.53,1.32c-.35.35-.76.53-1.23.53s-.88-.18-1.23-.53c-.35-.35-.53-.8-.53-1.32Zm.62-.08c0,.47.11.82.34,1.06.23.24.49.36.79.36s.56-.12.79-.36c.23-.24.34-.6.34-1.06s-.11-.79-.34-1.01c-.23-.22-.49-.34-.79-.34s-.56.11-.79.34c-.23.22-.34.56-.34,1.01Z"/><path class="cls-34" d="m271.06,155.8v-5.78h.6v2.61c.39-.32.82-.47,1.28-.47.38,0,.69.18.94.55.25.37.37.8.37,1.29,0,.54-.15.99-.44,1.35-.29.36-.64.54-1.05.54-.38,0-.73-.15-1.07-.46v.38h-.62Zm.62-1.07s0,.07,0,.1c0,.02,0,.04.02.07s.02.04.02.05c0,.01.02.03.04.05.02.03.04.05.05.07.18.21.4.32.66.32.28,0,.55-.11.79-.33s.36-.57.36-1.04c0-.25-.03-.47-.1-.65s-.16-.33-.28-.43-.23-.17-.35-.21c-.12-.05-.23-.07-.35-.07-.21,0-.4.06-.58.18s-.27.26-.27.41v1.49Z"/><path class="cls-34" d="m275.31,155.8v-5.55h1.8c.38,0,.72.05,1.01.15s.52.22.67.38.27.32.35.48.11.32.11.48c0,.31-.12.6-.35.86s-.57.46-1.02.59l1.59,2.61h-.72l-1.5-2.53h-1.26v2.53h-.7Zm.7-3.02h1.05c.56,0,.96-.11,1.2-.32s.36-.45.36-.71c0-.12-.02-.23-.07-.34s-.12-.22-.23-.33-.27-.2-.48-.27-.46-.11-.75-.11h-1.08v2.08Z"/><path class="cls-34" d="m279.99,153.99c0-.53.16-.97.48-1.33.32-.36.7-.54,1.13-.54.16,0,.31.03.46.08s.29.13.44.25.27.29.37.53.15.51.17.84v.23h-2.48c.02.4.14.73.37.98s.5.38.82.38c.41,0,.81-.15,1.21-.44l.05.53c-.41.27-.83.41-1.27.41-.51,0-.93-.19-1.25-.56-.33-.38-.49-.82-.49-1.33Zm.6-.4h1.98c-.03-.21-.09-.38-.17-.53-.08-.14-.18-.25-.28-.31-.1-.06-.2-.1-.28-.12-.08-.02-.16-.03-.24-.03-.27,0-.49.1-.67.31-.18.21-.29.43-.34.67Z"/><path class="cls-34" d="m283.48,155.54l.1-.54s.04.03.1.06c.06.04.1.06.13.08.03.02.08.04.14.07.07.03.13.06.18.08.06.02.12.04.19.06.07.02.15.04.24.04.08,0,.17.01.26.01.27,0,.46-.06.57-.17.12-.11.17-.24.17-.38s-.05-.24-.15-.33c-.1-.09-.2-.15-.31-.18-.05-.02-.17-.04-.36-.08-.19-.04-.32-.07-.41-.1-.22-.07-.41-.19-.58-.36-.17-.17-.25-.38-.25-.63,0-.12.02-.24.05-.35.04-.11.1-.22.19-.34.09-.11.22-.21.41-.27s.4-.1.66-.1c.38,0,.77.08,1.16.25l-.08.53s-.04-.02-.09-.04-.09-.04-.09-.05c0,0-.04-.02-.09-.04-.05-.02-.08-.03-.1-.04-.02,0-.05-.02-.1-.04-.05-.02-.08-.03-.11-.03-.03,0-.07,0-.12-.02-.05-.01-.1-.02-.14-.02-.04,0-.09,0-.14,0-.05,0-.11,0-.17,0-.25,0-.42.05-.52.15-.1.1-.15.21-.15.34,0,.18.07.3.21.38.14.08.34.14.6.18s.44.09.54.14c.19.09.35.21.49.38.13.17.2.38.2.62,0,.12-.02.24-.05.36-.04.12-.1.23-.19.35-.09.12-.22.21-.41.28-.18.07-.4.11-.65.11-.47,0-.92-.12-1.35-.36Z"/><path class="cls-34" d="m286.97,154.83v-2.58h.62v2.68c0,.19.05.32.13.4s.25.12.51.12c.28,0,.5-.07.67-.22.17-.15.26-.32.29-.51,0-.05,0-.13,0-.23v-2.24h.62v3.56h-.61v-.38c-.36.31-.83.47-1.4.47-.16,0-.29-.03-.41-.08s-.2-.11-.25-.17-.1-.15-.13-.27-.04-.21-.05-.27,0-.16,0-.28Z"/><path class="cls-34" d="m291.11,155.8v-5.78h.6v5.78h-.6Z"/><path class="cls-34" d="m292.52,152.71v-.47h.69v-1.01h.56v1.01h1.13v.47h-1.13v1.97c0,.46.14.7.43.7.22,0,.46-.09.7-.26l.13.47c-.38.2-.77.3-1.18.3-.44,0-.66-.34-.66-1.03v-2.15h-.67Z"/><path class="cls-34" d="m295.47,155.54l.1-.54s.04.03.1.06c.06.04.1.06.13.08.03.02.08.04.14.07.07.03.13.06.18.08.06.02.12.04.19.06.07.02.15.04.24.04.08,0,.17.01.26.01.27,0,.46-.06.57-.17.12-.11.17-.24.17-.38s-.05-.24-.15-.33c-.1-.09-.2-.15-.31-.18-.05-.02-.17-.04-.36-.08-.19-.04-.32-.07-.41-.1-.22-.07-.41-.19-.58-.36-.17-.17-.25-.38-.25-.63,0-.12.02-.24.05-.35.04-.11.1-.22.19-.34.09-.11.22-.21.41-.27s.4-.1.66-.1c.38,0,.77.08,1.16.25l-.08.53s-.04-.02-.09-.04-.09-.04-.09-.05c0,0-.04-.02-.09-.04-.05-.02-.08-.03-.1-.04-.02,0-.05-.02-.1-.04-.05-.02-.08-.03-.11-.03-.03,0-.07,0-.12-.02-.05-.01-.1-.02-.14-.02-.04,0-.09,0-.14,0-.05,0-.11,0-.17,0-.25,0-.42.05-.52.15-.1.1-.15.21-.15.34,0,.18.07.3.21.38.14.08.34.14.6.18s.44.09.54.14c.19.09.35.21.49.38.13.17.2.38.2.62,0,.12-.02.24-.05.36-.04.12-.1.23-.19.35-.09.12-.22.21-.41.28-.18.07-.4.11-.65.11-.47,0-.92-.12-1.35-.36Z"/><rect class="cls-27" x="241.87" y="146.52" width="9.61" height="12.29"/><rect class="cls-20" x="246.91" y="153.07" width="3.92" height="3.92"/><rect class="cls-3" x="247.51" y="148.04" width="3.11" height="3.11"/><rect class="cls-21" x="242.44" y="153.07" width="3.92" height="3.92"/><line class="cls-8" x1="246.33" y1="155.03" x2="246.91" y2="155.03"/><rect class="cls-13" x="224.97" y="171.91" width="66.11" height="61.56"/><path class="cls-34" d="m235.07,230.51l.12-.49c.21.16.42.25.62.25.15,0,.29-.04.39-.12s.18-.17.21-.29c.01-.05.02-.12.02-.21v-4.08h.6v3.96c0,.44-.1.76-.31.95-.21.19-.44.29-.69.29-.33,0-.65-.09-.96-.27Zm1.25-6.09v-.71h.73v.71h-.73Z"/><path class="cls-34" d="m237.93,227.38c0-.54.17-1,.52-1.37s.76-.55,1.24-.55.92.19,1.25.58c.33.39.5.84.5,1.35s-.18.97-.53,1.32-.76.53-1.23.53-.88-.18-1.23-.53-.53-.8-.53-1.32Zm.62-.08c0,.47.11.82.34,1.06s.49.36.79.36.56-.12.79-.36.34-.6.34-1.06-.11-.79-.34-1.01-.49-.34-.79-.34-.56.11-.79.34-.34.56-.34,1.01Z"/><path class="cls-34" d="m242.34,229.14v-5.78h.6v2.61c.39-.32.82-.47,1.28-.47.38,0,.69.18.94.55.25.37.37.8.37,1.29,0,.54-.15.99-.44,1.35-.29.36-.64.54-1.05.54-.38,0-.73-.16-1.07-.46v.38h-.62Zm.62-1.07s0,.07,0,.1c0,.02,0,.05.02.07,0,.02.02.04.02.05s.02.03.04.05.04.05.05.07c.18.21.4.32.66.32.28,0,.55-.11.79-.33s.36-.57.36-1.04c0-.25-.03-.47-.1-.65-.07-.19-.16-.33-.28-.43s-.23-.17-.35-.21-.23-.07-.35-.07c-.21,0-.4.06-.58.18-.18.12-.27.26-.27.41v1.49Z"/><path class="cls-34" d="m246.25,229.14v-3.6h.56v.71c.06-.1.14-.2.23-.29s.24-.19.46-.3.45-.16.71-.17v.53c-.14,0-.28.03-.42.08-.14.04-.29.12-.44.22s-.28.25-.37.46c-.09.2-.14.44-.14.71v1.65h-.6Z"/><path class="cls-34" d="m248.6,227.33c0-.53.16-.97.48-1.33.32-.36.7-.54,1.13-.54.16,0,.31.03.46.08s.29.13.44.25.27.29.37.53.15.51.17.84v.23h-2.48c.02.4.14.73.37.98.23.25.5.38.82.38.41,0,.81-.15,1.21-.44l.05.53c-.41.27-.83.41-1.27.41-.51,0-.93-.19-1.25-.56-.33-.38-.49-.82-.49-1.34Zm.6-.4h1.98c-.03-.21-.09-.38-.17-.53-.08-.14-.18-.25-.28-.31s-.2-.1-.28-.12c-.08-.02-.16-.03-.24-.03-.27,0-.49.1-.67.31s-.29.43-.34.67Z"/><path class="cls-34" d="m252.1,228.88l.1-.54s.04.03.1.06c.06.04.1.06.13.08.03.02.08.04.14.07s.13.06.18.08c.06.02.12.04.19.06.07.02.15.04.24.04.08,0,.17.01.26.01.27,0,.46-.06.57-.17s.17-.24.17-.38-.05-.24-.15-.33-.2-.15-.31-.18c-.05-.02-.17-.04-.36-.08-.19-.04-.32-.07-.41-.1-.22-.07-.41-.19-.58-.36-.17-.17-.25-.38-.25-.63,0-.12.02-.24.05-.35.04-.11.1-.22.19-.34.09-.12.22-.21.41-.27s.4-.1.66-.1c.38,0,.77.08,1.16.25l-.08.53s-.04-.02-.09-.04c-.06-.02-.09-.04-.09-.04,0,0-.04-.02-.09-.04s-.08-.04-.1-.04-.05-.02-.1-.04c-.05-.02-.08-.03-.11-.03-.03,0-.07-.01-.12-.02-.05-.01-.1-.02-.14-.02-.04,0-.09,0-.14,0-.05,0-.11,0-.17,0-.25,0-.42.05-.52.15-.1.1-.15.21-.15.34,0,.18.07.3.21.38.14.08.34.14.6.18.26.04.44.09.54.14.19.09.35.21.49.39s.2.38.2.62c0,.12-.02.24-.05.36-.04.12-.1.23-.19.35-.09.12-.22.21-.41.28-.18.07-.4.11-.65.11-.47,0-.92-.12-1.35-.36Z"/><path class="cls-34" d="m255.59,228.17v-2.58h.62v2.68c0,.19.05.32.13.4.08.08.25.12.51.12.28,0,.5-.07.67-.22.17-.15.26-.32.29-.51,0-.05,0-.13,0-.23v-2.24h.62v3.56h-.61v-.38c-.36.31-.83.47-1.4.47-.16,0-.29-.03-.41-.08s-.2-.11-.25-.17c-.06-.07-.1-.16-.13-.27-.03-.12-.04-.21-.05-.27s0-.16,0-.28Z"/><path class="cls-34" d="m259.73,229.14v-5.78h.6v5.78h-.6Z"/><path class="cls-34" d="m261.13,226.05v-.47h.69v-1.01h.56v1.01h1.13v.47h-1.13v1.97c0,.46.14.7.43.7.22,0,.46-.09.7-.26l.13.47c-.38.2-.77.3-1.18.3-.44,0-.66-.34-.66-1.03v-2.15h-.67Z"/><path class="cls-34" d="m264.09,228.88l.1-.54s.04.03.1.06c.06.04.1.06.13.08.03.02.08.04.14.07s.13.06.18.08c.06.02.12.04.19.06.07.02.15.04.24.04.08,0,.17.01.26.01.27,0,.46-.06.57-.17s.17-.24.17-.38-.05-.24-.15-.33-.2-.15-.31-.18c-.05-.02-.17-.04-.36-.08-.19-.04-.32-.07-.41-.1-.22-.07-.41-.19-.58-.36-.17-.17-.25-.38-.25-.63,0-.12.02-.24.05-.35.04-.11.1-.22.19-.34.09-.12.22-.21.41-.27s.4-.1.66-.1c.38,0,.77.08,1.16.25l-.08.53s-.04-.02-.09-.04c-.06-.02-.09-.04-.09-.04,0,0-.04-.02-.09-.04s-.08-.04-.1-.04-.05-.02-.1-.04c-.05-.02-.08-.03-.11-.03-.03,0-.07-.01-.12-.02-.05-.01-.1-.02-.14-.02-.04,0-.09,0-.14,0-.05,0-.11,0-.17,0-.25,0-.42.05-.52.15-.1.1-.15.21-.15.34,0,.18.07.3.21.38.14.08.34.14.6.18.26.04.44.09.54.14.19.09.35.21.49.39s.2.38.2.62c0,.12-.02.24-.05.36-.04.12-.1.23-.19.35-.09.12-.22.21-.41.28-.18.07-.4.11-.65.11-.47,0-.92-.12-1.35-.36Z"/><path class="cls-34" d="m267.71,229.14v-.71h.67v.71h-.67Z"/><path class="cls-34" d="m268.67,230.51l.12-.49c.21.16.42.25.62.25.15,0,.29-.04.39-.12s.18-.17.21-.29c.01-.05.02-.12.02-.21v-4.08h.6v3.96c0,.44-.1.76-.31.95-.21.19-.44.29-.69.29-.33,0-.65-.09-.96-.27Zm1.25-6.09v-.71h.73v.71h-.73Z"/><path class="cls-34" d="m271.51,228.88l.1-.54s.04.03.1.06c.06.04.1.06.13.08.03.02.08.04.14.07s.13.06.18.08c.06.02.12.04.19.06.07.02.15.04.24.04.08,0,.17.01.26.01.27,0,.46-.06.57-.17s.17-.24.17-.38-.05-.24-.15-.33-.2-.15-.31-.18c-.05-.02-.17-.04-.36-.08-.19-.04-.32-.07-.41-.1-.22-.07-.41-.19-.58-.36-.17-.17-.25-.38-.25-.63,0-.12.02-.24.05-.35.04-.11.1-.22.19-.34.09-.12.22-.21.41-.27s.4-.1.66-.1c.38,0,.77.08,1.16.25l-.08.53s-.04-.02-.09-.04c-.06-.02-.09-.04-.09-.04,0,0-.04-.02-.09-.04s-.08-.04-.1-.04-.05-.02-.1-.04c-.05-.02-.08-.03-.11-.03-.03,0-.07-.01-.12-.02-.05-.01-.1-.02-.14-.02-.04,0-.09,0-.14,0-.05,0-.11,0-.17,0-.25,0-.42.05-.52.15-.1.1-.15.21-.15.34,0,.18.07.3.21.38.14.08.34.14.6.18.26.04.44.09.54.14.19.09.35.21.49.39s.2.38.2.62c0,.12-.02.24-.05.36-.04.12-.1.23-.19.35-.09.12-.22.21-.41.28-.18.07-.4.11-.65.11-.47,0-.92-.12-1.35-.36Z"/><path class="cls-34" d="m274.59,227.38c0-.54.17-1,.52-1.37s.76-.55,1.24-.55.92.19,1.25.58c.33.39.5.84.5,1.35s-.18.97-.53,1.32-.76.53-1.23.53-.88-.18-1.23-.53-.53-.8-.53-1.32Zm.62-.08c0,.47.11.82.34,1.06s.49.36.79.36.56-.12.79-.36.34-.6.34-1.06-.11-.79-.34-1.01-.49-.34-.79-.34-.56.11-.79.34-.34.56-.34,1.01Z"/><path class="cls-34" d="m279,229.14v-3.6h.58v.57c.31-.41.7-.61,1.17-.61.2,0,.37.03.51.09s.25.13.32.22.13.19.17.32c.04.13.07.25.08.35s.02.22.02.36v2.3h-.62v-2.24c0-.09,0-.16,0-.22s-.02-.13-.05-.23c-.03-.1-.07-.18-.12-.24s-.13-.11-.23-.16c-.1-.05-.23-.07-.38-.07-.28,0-.49.12-.62.36-.13.24-.19.53-.19.87v1.92h-.62Z"/><path class="cls-34" d="m240.21,186.49v-8.33h2.83c.73,0,1.35.16,1.85.47.37.23.65.51.86.85s.31.7.31,1.09c0,.63-.26,1.19-.77,1.7s-1.25.76-2.19.76c-.04,0-.1,0-.19,0s-.16,0-.21,0h-1.4v3.46h-1.08Zm1.04-4.17h1.59c.41,0,.78-.06,1.09-.17s.54-.26.7-.45.26-.38.34-.57.11-.38.11-.57c0-.18-.03-.35-.1-.53s-.17-.37-.32-.56-.38-.35-.69-.47-.69-.18-1.13-.18h-1.59v3.49Z"/><path class="cls-34" d="m246.92,185.14c0-.3.11-.56.34-.78.22-.22.52-.38.88-.49.36-.11.72-.19,1.06-.24.35-.05.69-.08,1.04-.08v-.4c-.02-.51-.12-.88-.31-1.11-.2-.24-.45-.36-.76-.36-.62,0-1.21.2-1.79.61l-.07-.8c.6-.35,1.22-.53,1.87-.53.55,0,1.01.18,1.39.54.37.36.58.8.61,1.32v3.66h-.91v-.42s-.11.08-.22.16c-.12.07-.34.16-.68.25-.34.1-.7.15-1.09.15-.45,0-.79-.16-1.02-.49-.23-.32-.34-.66-.34-1Zm.86-.03c0,.22.11.4.32.55.21.15.48.22.8.22.34,0,.65-.07.93-.22.28-.15.41-.4.41-.75v-.77c-.25,0-.5.02-.75.05-.26.03-.52.08-.79.15-.27.07-.49.17-.66.3s-.25.29-.25.47Z"/><path class="cls-34" d="m252.79,186.49v-5.4h.84v1.07c.1-.15.21-.3.35-.44s.36-.29.69-.45c.32-.16.68-.24,1.07-.25v.79c-.21,0-.42.05-.62.11s-.43.18-.66.33-.41.38-.55.68c-.14.3-.21.66-.21,1.07v2.48h-.9Z"/><path class="cls-34" d="m256.24,186.09l.15-.81s.07.04.15.09c.09.05.15.09.2.12.04.02.12.06.22.11.1.05.19.09.27.11.08.03.18.06.29.09.11.03.23.05.35.07.12.01.25.02.39.02.4,0,.69-.08.86-.26.17-.17.26-.36.26-.57s-.07-.37-.22-.5-.3-.22-.46-.27c-.08-.02-.26-.06-.53-.12-.28-.06-.48-.1-.61-.14-.33-.11-.61-.28-.86-.54-.25-.25-.38-.57-.38-.94,0-.18.03-.36.08-.52.05-.16.15-.33.28-.5.13-.17.33-.31.61-.41.27-.1.6-.15.98-.15.57,0,1.15.12,1.75.37l-.13.8s-.05-.03-.14-.07c-.08-.04-.13-.06-.14-.07-.01,0-.06-.03-.13-.06-.08-.03-.13-.05-.16-.06-.03,0-.08-.03-.15-.06-.07-.03-.13-.04-.17-.05s-.1-.02-.18-.04-.14-.03-.2-.04-.13,0-.21-.01c-.08,0-.17,0-.26,0-.37,0-.63.07-.78.22-.15.15-.23.32-.23.51,0,.27.11.46.32.57.21.12.51.21.9.27.38.07.65.14.81.21.29.13.53.32.73.58.2.26.3.56.3.92,0,.18-.03.36-.08.54-.05.17-.15.35-.28.52s-.34.32-.61.43c-.27.11-.6.16-.98.16-.7,0-1.38-.18-2.03-.54Z"/><path class="cls-34" d="m261.41,179.41v-1.07h1.08v1.07h-1.08Zm.08,7.08v-5.34h.81v5.34h-.81Z"/><path class="cls-34" d="m264.34,186.49v-5.4h.87v.85c.46-.61,1.05-.91,1.75-.91.3,0,.55.04.76.13s.38.2.49.33.2.29.26.49.1.37.11.52.02.33.02.54v3.46h-.94v-3.36c0-.14,0-.24,0-.32s-.03-.19-.07-.34-.1-.27-.18-.35-.19-.17-.35-.23c-.16-.07-.35-.1-.57-.1-.43,0-.74.18-.93.54-.19.36-.29.79-.29,1.3v2.88h-.94Z"/><path class="cls-34" d="m269.91,187.35c0-.52.25-.94.76-1.24-.2-.29-.3-.59-.3-.91,0-.36.12-.7.35-1.02h0c-.27-.36-.4-.76-.4-1.21,0-.56.19-1.03.56-1.4.38-.37.82-.55,1.32-.55.41,0,.81.13,1.19.4l-.02-.02c.59-.25,1.22-.37,1.89-.38l.13.74c-.24-.02-.47-.04-.71-.04-.02,0-.32.02-.9.05l-.11-.09c.31.43.47.86.47,1.29,0,.52-.19.98-.56,1.38s-.83.59-1.38.59c-.34,0-.7-.12-1.07-.37-.12.18-.18.33-.18.45,0,.16.05.31.15.44s.28.2.54.2h.92c.28,0,.52,0,.72.03.2.02.44.06.74.13.29.07.54.19.73.37.2.18.33.41.41.69.04.16.06.31.06.44,0,.46-.26.85-.79,1.16-.52.31-1.15.47-1.89.47s-1.36-.16-1.88-.47c-.51-.31-.77-.69-.77-1.15Zm.84,0c0,.21.11.39.32.54.21.15.45.25.71.32.26.06.52.09.76.09.51,0,.94-.09,1.31-.26.36-.17.54-.4.54-.67,0-.56-.6-.83-1.81-.83h-1.1c-.22.04-.4.13-.54.29-.13.16-.2.34-.2.53Zm.42-4.37c0,.39.1.69.3.92.2.23.46.35.79.35.27,0,.52-.1.74-.29.22-.2.33-.53.33-.99,0-.39-.1-.69-.29-.92-.2-.23-.46-.34-.79-.34-.27,0-.52.1-.74.29-.22.2-.33.53-.33.99Z"/><rect class="cls-10" x="236.74" y="194.53" width="12.76" height="16.33"/><rect class="cls-25" x="243.43" y="203.23" width="5.21" height="5.21"/><rect class="cls-18" x="244.23" y="196.55" width="4.14" height="4.14"/><rect class="cls-23" x="237.49" y="203.23" width="5.21" height="5.21"/><line class="cls-9" x1="242.67" y1="205.83" x2="243.43" y2="205.83"/><rect class="cls-10" x="246.67" y="196.93" width="12.76" height="16.33"/><rect class="cls-25" x="253.37" y="205.63" width="5.21" height="5.21"/><rect class="cls-18" x="254.17" y="198.95" width="4.14" height="4.14"/><rect class="cls-23" x="247.43" y="205.63" width="5.21" height="5.21"/><line class="cls-9" x1="252.6" y1="208.23" x2="253.37" y2="208.23"/><rect class="cls-10" x="256.61" y="199.57" width="12.76" height="16.33"/><rect class="cls-25" x="263.31" y="208.28" width="5.21" height="5.21"/><rect class="cls-18" x="264.11" y="201.59" width="4.14" height="4.14"/><rect class="cls-23" x="257.37" y="208.28" width="5.21" height="5.21"/><line class="cls-9" x1="262.54" y1="210.88" x2="263.31" y2="210.88"/><rect class="cls-10" x="266.55" y="201.58" width="12.76" height="16.33"/><rect class="cls-25" x="273.25" y="210.29" width="5.21" height="5.21"/><rect class="cls-18" x="274.05" y="203.6" width="4.14" height="4.14"/><rect class="cls-23" x="267.31" y="210.29" width="5.21" height="5.21"/><line class="cls-9" x1="272.48" y1="212.89" x2="273.25" y2="212.89"/><polygon class="cls-32" points="63.79 53.49 44.96 54.95 42.59 76.48 64.04 72.04 63.79 53.49"/><path class="cls-1" d="m42.04,76.98c-3.16,3.03-7.16,5.52-11.53,5.6-5.03.09-9.54-2.96-14.43-4.16-2.24-.55-4.88-.61-6.55.97"/><path class="cls-1" d="m11.32,78.36c-.63.1-1.31,0-2.09-.38"/><polyline class="cls-2" points="63.79 53.49 56.73 61.29 42.59 76.48"/><circle class="cls-33" cx="37.34" cy="80.54" r=".87"/><circle class="cls-35" cx="32.22" cy="82.4" r=".87"/><circle class="cls-30" cx="26.29" cy="82.01" r=".87"/><circle class="cls-29" cx="20.73" cy="80.13" r=".87"/><circle class="cls-36" cx="14.95" cy="78.12" r=".87"/><polygon class="cls-30" points="42.59 76.48 60.92 66.91 63.79 53.49 64.04 72.04 42.59 76.48"/><polygon class="cls-31" points="42.59 76.48 48.31 56.5 63.79 53.49 44.96 54.95 42.59 76.48"/><path class="cls-2" d="m44.96,54.95s9.29,4.1,11.77,6.34c2.41,2.18,7.31,10.74,7.31,10.74"/><circle class="cls-37" cx="44.96" cy="54.95" r="1.22"/><circle class="cls-37" cx="63.79" cy="53.49" r="1.22"/><circle class="cls-37" cx="64.04" cy="72.04" r="1.22"/><circle class="cls-37" cx="42.59" cy="76.48" r="1.22"/><circle class="cls-37" cx="56.79" cy="61.33" r="1.22"/><path class="cls-38" d="m1.54,62.77c0-.79-.02-1.44-.06-2.07h1.22l.06,1.23h.05c.43-.73,1.14-1.41,2.41-1.41,1.04,0,1.84.63,2.17,1.54h.03c.24-.43.54-.76.85-1,.46-.35.97-.54,1.69-.54,1.01,0,2.52.67,2.52,3.32v4.51h-1.36v-4.34c0-1.47-.54-2.36-1.66-2.36-.79,0-1.41.59-1.65,1.27-.06.19-.11.44-.11.7v4.73h-1.36v-4.59c0-1.22-.54-2.1-1.6-2.1-.87,0-1.5.7-1.73,1.39-.08.21-.11.44-.11.68v4.62h-1.36v-5.59Z"/><path class="cls-38" d="m16.11,64.21h.03c.19-.27.46-.6.68-.87l2.25-2.64h1.68l-2.96,3.15,3.37,4.51h-1.69l-2.64-3.67-.71.79v2.88h-1.38v-11.23h1.38v7.09Z"/><path class="cls-37" d="m23.98,58.55c.02.47-.33.85-.89.85-.49,0-.84-.38-.84-.85s.36-.87.87-.87.85.38.85.87Zm-1.55,9.81v-7.66h1.39v7.66h-1.39Z"/><path class="cls-37" d="m27.81,58.5v2.2h1.99v1.06h-1.99v4.13c0,.95.27,1.49,1.04,1.49.36,0,.63-.05.81-.09l.06,1.04c-.27.11-.7.19-1.23.19-.65,0-1.17-.21-1.5-.58-.4-.41-.54-1.09-.54-1.99v-4.18h-1.19v-1.06h1.19v-1.84l1.36-.36Z"/><path class="cls-37" d="m32.05,64.78c.03,1.88,1.23,2.66,2.63,2.66,1,0,1.6-.17,2.12-.4l.24,1c-.49.22-1.33.47-2.55.47-2.36,0-3.77-1.55-3.77-3.86s1.36-4.13,3.59-4.13c2.5,0,3.16,2.2,3.16,3.61,0,.28-.03.51-.05.65h-5.38Zm4.08-1c.02-.89-.36-2.26-1.93-2.26-1.41,0-2.03,1.3-2.14,2.26h4.07Z"/><rect class="cls-32" x="40.95" y="199.38" width="23.18" height="14.13"/><path class="cls-30" d="m40.95,213.52h23.18l-10.32-9.39c-.19-.17-.41-.3-.65-.38h-.02c-.39-.14-.82-.14-1.21,0h0c-.23.08-.45.21-.63.38l-10.36,9.4Z"/><path class="cls-38" d="m1.16,201.69c0-.8-.02-1.45-.06-2.09h1.23l.06,1.24h.05c.43-.73,1.15-1.42,2.42-1.42,1.05,0,1.85.64,2.18,1.55h.03c.24-.43.54-.76.86-1,.46-.35.97-.54,1.7-.54,1.02,0,2.53.67,2.53,3.35v4.54h-1.37v-4.37c0-1.48-.54-2.37-1.67-2.37-.8,0-1.42.59-1.66,1.27-.06.19-.11.45-.11.7v4.76h-1.37v-4.62c0-1.23-.54-2.12-1.61-2.12-.88,0-1.51.7-1.74,1.4-.08.21-.11.45-.11.69v4.65h-1.37v-5.62Z"/><path class="cls-38" d="m15.83,203.14h.03c.19-.27.46-.61.69-.88l2.26-2.66h1.69l-2.98,3.17,3.39,4.54h-1.7l-2.66-3.7-.72.8v2.9h-1.39v-11.31h1.39v7.14Z"/><path class="cls-37" d="m23.74,197.44c.02.48-.33.86-.89.86-.49,0-.84-.38-.84-.86s.37-.88.88-.88.86.38.86.88Zm-1.56,9.88v-7.71h1.4v7.71h-1.4Z"/><path class="cls-37" d="m27.6,197.39v2.21h2.01v1.07h-2.01v4.16c0,.96.27,1.5,1.05,1.5.37,0,.64-.05.81-.1l.06,1.05c-.27.11-.7.19-1.24.19-.65,0-1.18-.21-1.51-.59-.4-.42-.54-1.1-.54-2.01v-4.21h-1.19v-1.07h1.19v-1.85l1.37-.37Z"/><path class="cls-37" d="m31.87,203.72c.03,1.9,1.24,2.68,2.64,2.68,1,0,1.61-.18,2.13-.4l.24,1c-.49.22-1.34.48-2.56.48-2.37,0-3.79-1.56-3.79-3.89s1.37-4.16,3.62-4.16c2.52,0,3.19,2.21,3.19,3.63,0,.29-.03.51-.05.65h-5.42Zm4.11-1c.02-.89-.37-2.28-1.94-2.28-1.42,0-2.04,1.31-2.15,2.28h4.09Z"/><path class="cls-29" d="m15.26,211.96c.01.82.54,1.15,1.14,1.15.43,0,.69-.08.92-.17l.1.43c-.21.1-.58.21-1.11.21-1.02,0-1.63-.67-1.63-1.67s.59-1.79,1.56-1.79c1.08,0,1.37.95,1.37,1.57,0,.12-.01.22-.02.28h-2.33Zm1.77-.43c0-.38-.16-.98-.84-.98-.61,0-.88.56-.93.98h1.76Z"/><path class="cls-29" d="m18.36,211.09c0-.34,0-.62-.03-.9h.54l.03.55h.01c.16-.32.55-.62,1.1-.62.46,0,1.17.27,1.17,1.41v1.98h-.6v-1.92c0-.54-.2-.98-.77-.98-.4,0-.71.28-.81.62-.03.08-.04.18-.04.28v2h-.6v-2.42Z"/><path class="cls-29" d="m25.04,210.19c-.01.24-.03.51-.03.91v1.93c0,.76-.15,1.23-.47,1.52-.32.3-.79.4-1.21.4s-.84-.1-1.11-.28l.15-.46c.22.14.56.26.98.26.62,0,1.07-.32,1.07-1.16v-.37h-.01c-.19.31-.54.56-1.06.56-.82,0-1.41-.7-1.41-1.62,0-1.13.73-1.76,1.5-1.76.58,0,.89.3,1.04.58h.01l.03-.5h.53Zm-.62,1.31c0-.1,0-.19-.03-.27-.11-.35-.41-.64-.84-.64-.58,0-.99.49-.99,1.26,0,.65.33,1.2.98,1.2.37,0,.71-.23.84-.62.03-.1.05-.22.05-.32v-.6Z"/><path class="cls-29" d="m26.64,209.26c0,.21-.14.37-.38.37-.21,0-.36-.16-.36-.37s.16-.38.38-.38.37.17.37.38Zm-.67,4.26v-3.32h.6v3.32h-.6Z"/><path class="cls-29" d="m27.58,211.09c0-.34,0-.62-.03-.9h.54l.03.55h.01c.16-.32.55-.62,1.1-.62.46,0,1.17.27,1.17,1.41v1.98h-.6v-1.92c0-.54-.2-.98-.77-.98-.4,0-.71.28-.81.62-.03.08-.04.18-.04.28v2h-.6v-2.42Z"/><path class="cls-29" d="m31.72,211.96c.01.82.54,1.15,1.14,1.15.43,0,.69-.08.92-.17l.1.43c-.21.1-.58.21-1.11.21-1.02,0-1.63-.67-1.63-1.67s.59-1.79,1.56-1.79c1.08,0,1.37.95,1.37,1.57,0,.12-.01.22-.02.28h-2.33Zm1.77-.43c0-.38-.16-.98-.84-.98-.61,0-.88.56-.93.98h1.76Z"/><path class="cls-29" d="m34.74,212.9c.18.12.49.24.8.24.44,0,.65-.22.65-.49,0-.29-.17-.45-.62-.61-.6-.21-.88-.54-.88-.94,0-.54.43-.97,1.15-.97.34,0,.63.1.82.21l-.15.44c-.13-.08-.37-.19-.68-.19-.36,0-.56.21-.56.45,0,.27.2.4.63.56.58.22.87.51.87,1,0,.58-.45,1-1.24,1-.36,0-.7-.09-.93-.23l.15-.46Z"/><path class="cls-31" d="m40.95,199.38h23.18l-10.32,9.39c-.19.17-.41.3-.65.38h-.02c-.39.14-.82.14-1.21,0h0c-.23-.08-.45-.21-.63-.38l-10.36-9.4Z"/><circle class="cls-29" cx="63.45" cy="199.83" r="2.19"/></g></svg>