<?xml version="1.0" encoding="UTF-8"?><svg id="Layer_2" xmlns="http://www.w3.org/2000/svg" viewBox="0 0 300.44 276.9"><defs><style>.cls-1,.cls-2,.cls-3{fill:#f47648;}.cls-4,.cls-5{fill:#f2f2f3;}.cls-6,.cls-7,.cls-8{fill:#fac964;}.cls-9{fill:#fae9b4;}.cls-10{fill:#fbdf88;}.cls-11{fill:#9e9e9e;}.cls-12{fill:#231f20;}.cls-13,.cls-14,.cls-15{fill:#2f4259;}.cls-16{fill:#58595b;}.cls-17,.cls-7,.cls-18,.cls-8,.cls-2,.cls-19,.cls-5,.cls-3,.cls-20,.cls-15{stroke:#231f20;stroke-miterlimit:10;}.cls-17,.cls-18,.cls-21{fill:none;}.cls-17,.cls-20,.cls-15{stroke-width:.18px;}.cls-7{stroke-width:.48px;}.cls-18{stroke-width:.75px;}.cls-8,.cls-2{stroke-width:.5px;}.cls-19{fill:#fff;}.cls-21{stroke:#9e9e9e;stroke-miterlimit:3.2;stroke-width:1.1px;}.cls-3{stroke-width:.22px;}.cls-14{fill-rule:evenodd;}.cls-20{fill:#6790b5;}</style></defs><g id="Layer_1-2"><rect class="cls-5" x="95.57" y="63.68" width="35.94" height="83.83" transform="translate(219.14 -7.95) rotate(90)"/><rect class="cls-5" x="72.14" y=".5" width="227.46" height="76"/><rect class="cls-5" x="72.35" y="138.27" width="227.46" height="138.13"/><rect class="cls-19" x="81.73" y="228.01" width="208.87" height="26.81"/><line class="cls-18" x1="146.64" y1="174.27" x2="151.69" y2="174.27"/><polygon class="cls-12" points="149.2 177.34 148.69 176.79 151.4 174.27 148.69 171.76 149.2 171.21 152.5 174.27 149.2 177.34"/><line class="cls-18" x1="218.88" y1="174.27" x2="223.93" y2="174.27"/><polygon class="cls-12" points="221.44 177.34 220.93 176.79 223.64 174.27 220.93 171.76 221.44 171.21 224.74 174.27 221.44 177.34"/><line class="cls-18" x1="175.23" y1="207.36" x2="175.23" y2="227.2"/><polygon class="cls-12" points="172.16 224.72 172.71 224.2 175.23 226.91 177.75 224.2 178.3 224.72 175.23 228.01 172.16 224.72"/><line class="cls-18" x1="194.23" y1="228.01" x2="194.23" y2="208.18"/><polygon class="cls-12" points="197.3 210.66 196.75 211.17 194.23 208.47 191.71 211.17 191.16 210.66 194.23 207.36 197.3 210.66"/><line class="cls-18" x1="113.54" y1="123.57" x2="113.54" y2="144.99"/><polygon class="cls-12" points="110.48 142.51 111.03 142 113.54 144.71 116.06 142 116.61 142.51 113.54 145.81 110.48 142.51"/><line class="cls-18" x1="258.03" y1="145.81" x2="258.03" y2="124.38"/><polygon class="cls-12" points="261.09 126.86 260.54 127.38 258.03 124.67 255.51 127.38 254.96 126.86 258.03 123.57 261.09 126.86"/><line class="cls-18" x1="113.54" y1="69.54" x2="113.54" y2="87.17"/><polygon class="cls-12" points="110.48 84.69 111.03 84.18 113.54 86.89 116.06 84.18 116.61 84.69 113.54 87.99 110.48 84.69"/><line class="cls-18" x1="258.03" y1="87.99" x2="258.03" y2="70.36"/><polygon class="cls-12" points="261.09 72.84 260.54 73.35 258.03 70.64 255.51 73.35 254.96 72.84 258.03 69.54 261.09 72.84"/><path class="cls-12" d="m150.06,246.53v-8.33h1.08v3.62h4.08v-3.62h1.08v8.33h-1.08v-3.96h-4.08v3.96h-1.08Z"/><path class="cls-12" d="m158.56,246.53v-8.33h2.83c.73,0,1.35.16,1.85.47.37.23.65.51.86.85s.31.7.31,1.09c0,.63-.26,1.19-.77,1.7s-1.25.76-2.19.76c-.04,0-.1,0-.19,0s-.16,0-.21,0h-1.4v3.46h-1.08Zm1.04-4.17h1.59c.41,0,.78-.06,1.09-.17s.54-.26.7-.45.26-.38.34-.57.11-.38.11-.57c0-.18-.03-.35-.1-.53s-.17-.37-.32-.56-.38-.35-.69-.47-.69-.18-1.13-.18h-1.59v3.49Z"/><path class="cls-12" d="m165.87,242.36c0-.66.11-1.27.34-1.83s.53-1.03.89-1.4.77-.66,1.21-.87.88-.32,1.31-.32c.31,0,.56,0,.74.02s.41.05.7.11.6.15.94.28l-.18,1c-.36-.21-.68-.37-.97-.48s-.64-.16-1.07-.16c-.8,0-1.47.36-2.02,1.07s-.82,1.57-.82,2.59.27,1.89.82,2.6,1.23,1.06,2.05,1.06c.15,0,.3,0,.43-.02s.25-.02.35-.04.2-.04.32-.08.2-.07.26-.08.14-.06.25-.12.17-.1.2-.12.1-.06.22-.14.19-.12.22-.14l.07.84c-.43.26-.81.43-1.12.52s-.71.14-1.21.14c-1.14,0-2.09-.44-2.83-1.32s-1.11-1.92-1.11-3.11Z"/><path class="cls-12" d="m177.26,245.97l.18-1c.84.67,1.69,1,2.55,1,.52,0,.94-.16,1.27-.48s.49-.69.49-1.11c0-.31-.09-.6-.28-.86s-.43-.45-.74-.58c-.02,0-.51-.14-1.49-.4-.49-.13-.92-.39-1.29-.79-.37-.4-.56-.88-.56-1.46,0-.61.25-1.16.75-1.64.5-.48,1.15-.71,1.95-.71.76,0,1.49.19,2.21.57l-.17.99c-.34-.26-.65-.45-.94-.58s-.66-.19-1.11-.19c-.52,0-.94.14-1.26.43-.32.29-.48.62-.48,1,0,.28.09.54.28.77s.42.41.7.52c.12.03.41.1.88.22.47.12.78.21.93.28.44.18.82.48,1.13.88.31.4.47.88.47,1.43,0,.68-.26,1.27-.77,1.78-.51.5-1.16.76-1.96.76-.96,0-1.87-.28-2.73-.83Z"/><path class="cls-12" d="m183.81,243.85c0-.74.24-1.41.72-1.99.48-.58,1.12-.87,1.92-.87.38,0,.69.04.93.11s.56.21.93.42l-.15.79c-.39-.25-.69-.4-.9-.46-.23-.06-.51-.09-.83-.09-.54,0-.96.21-1.25.62-.29.41-.44.9-.44,1.47s.16,1.08.47,1.47.72.58,1.21.58c.62,0,1.25-.22,1.89-.65l.06.8c-.63.4-1.29.61-1.96.61-.73,0-1.35-.27-1.85-.82-.5-.55-.75-1.21-.75-1.99Z"/><path class="cls-12" d="m189.68,246.53v-8.67h.9v4.07c.48-.57,1.06-.86,1.73-.87.3,0,.57.05.78.14s.38.21.49.34.19.3.25.5.1.38.11.52.02.31.02.5v3.46h-.94v-3.36c0-.14,0-.24,0-.32s-.03-.19-.07-.34-.1-.27-.18-.35-.19-.17-.35-.23c-.16-.07-.35-.1-.57-.1-.43,0-.74.18-.93.54-.19.36-.29.79-.29,1.3v2.88h-.94Z"/><path class="cls-12" d="m195.33,243.81c0-.79.24-1.46.72-2,.48-.54,1.05-.81,1.7-.81.24,0,.47.04.68.11s.44.2.66.38.4.44.55.79.23.77.25,1.26v.35h-3.72c.02.6.21,1.09.55,1.47s.75.57,1.22.57c.61,0,1.22-.22,1.82-.66l.08.79c-.61.41-1.24.61-1.9.62-.76,0-1.39-.28-1.88-.85-.49-.56-.74-1.23-.74-2Zm.9-.6h2.98c-.05-.31-.13-.57-.26-.79s-.27-.37-.42-.46-.3-.15-.42-.18c-.12-.03-.24-.05-.35-.05-.41,0-.74.16-1.01.46s-.44.65-.52,1.01Z"/><path class="cls-12" d="m200.67,243.88c0-.79.21-1.46.62-2s.92-.81,1.51-.81,1.19.22,1.74.66v-3.86h.9v8.67h-.94v-.62c-.52.5-1.11.76-1.77.76-.59,0-1.09-.28-1.48-.84s-.59-1.21-.59-1.95Zm.94-.01c0,.71.17,1.23.5,1.56s.71.5,1.12.5c.34,0,.63-.11.89-.34.26-.23.39-.45.39-.65v-2.3c0-.15-.08-.31-.25-.46-.26-.24-.55-.36-.89-.36h-.02c-.19,0-.38.04-.57.11s-.37.18-.56.33c-.18.15-.33.36-.44.64-.11.28-.17.61-.17.98Z"/><path class="cls-12" d="m207.4,245.06v-3.87h.94v4.02c0,.28.07.48.2.6.12.12.38.18.76.18.41,0,.75-.11,1-.33.25-.22.4-.48.43-.77,0-.08.01-.19.01-.35v-3.36h.94v5.34h-.91v-.57c-.54.47-1.24.7-2.1.7-.24,0-.44-.04-.61-.11s-.3-.16-.38-.26-.15-.23-.19-.4-.07-.31-.07-.41,0-.24,0-.41Z"/><path class="cls-12" d="m213.62,246.53v-8.67h.9v8.67h-.9Z"/><path class="cls-12" d="m215.92,243.81c0-.79.24-1.46.72-2,.48-.54,1.05-.81,1.7-.81.24,0,.47.04.68.11s.44.2.66.38.4.44.55.79.23.77.25,1.26v.35h-3.72c.02.6.21,1.09.55,1.47s.75.57,1.22.57c.61,0,1.22-.22,1.82-.66l.08.79c-.61.41-1.24.61-1.9.62-.76,0-1.39-.28-1.88-.85-.49-.56-.74-1.23-.74-2Zm.9-.6h2.98c-.05-.31-.13-.57-.26-.79s-.27-.37-.42-.46-.3-.15-.42-.18c-.12-.03-.24-.05-.35-.05-.41,0-.74.16-1.01.46s-.44.65-.52,1.01Z"/><path class="cls-12" d="m221.81,246.53v-5.4h.84v1.07c.1-.15.21-.3.35-.44s.36-.29.69-.45c.32-.16.68-.24,1.07-.25v.79c-.21,0-.42.05-.62.11s-.43.18-.66.33-.41.38-.55.68c-.14.3-.21.66-.21,1.07v2.48h-.9Z"/><rect class="cls-19" x="80.49" y="7.98" width="66.11" height="61.56"/><path class="cls-12" d="m94.09,66.58l.12-.49c.21.16.42.25.62.25.15,0,.29-.04.39-.12s.18-.17.21-.29c.01-.05.02-.12.02-.21v-4.08h.6v3.96c0,.44-.1.76-.31.95-.21.19-.44.29-.69.29-.33,0-.65-.09-.96-.27Zm1.25-6.09v-.71h.73v.71h-.73Z"/><path class="cls-12" d="m96.95,63.45c0-.54.17-.99.52-1.36s.76-.56,1.24-.56.92.19,1.25.58c.33.39.5.84.5,1.35s-.18.97-.53,1.32-.76.53-1.23.53-.88-.18-1.23-.53-.53-.8-.53-1.33Zm.62-.08c0,.47.11.82.34,1.06s.49.36.79.36.56-.12.79-.36.34-.6.34-1.06-.11-.79-.34-1.01-.49-.34-.79-.34-.56.11-.79.34-.34.56-.34,1.01Z"/><path class="cls-12" d="m101.36,65.22v-5.78h.6v2.61c.39-.31.82-.47,1.28-.47.38,0,.69.18.94.55.25.37.37.8.37,1.29,0,.54-.15.99-.44,1.35-.29.36-.64.54-1.05.54-.38,0-.73-.15-1.07-.46v.37h-.62Zm.62-1.07s0,.07,0,.1,0,.05.02.07c0,.02.02.04.02.05s.02.03.04.05.04.05.05.07c.18.21.4.32.66.32.28,0,.55-.11.79-.33s.36-.57.36-1.04c0-.25-.03-.47-.1-.65s-.16-.33-.28-.42c-.11-.1-.23-.17-.35-.21s-.23-.07-.35-.07c-.21,0-.4.06-.58.18-.18.12-.27.26-.27.41v1.49Z"/><path class="cls-12" d="m105.43,60.5v-.71h.72v.71h-.72Zm.05,4.72v-3.56h.54v3.56h-.54Z"/><path class="cls-12" d="m107.39,65.22v-3.6h.58v.57c.31-.41.7-.61,1.17-.61.2,0,.37.03.51.09s.25.13.32.22.13.19.17.32c.04.13.07.25.08.35s.02.22.02.36v2.3h-.62v-2.24c0-.09,0-.16,0-.22,0-.05-.02-.13-.05-.23-.03-.1-.07-.18-.12-.24s-.13-.11-.23-.16c-.1-.04-.23-.07-.38-.07-.28,0-.49.12-.62.36-.13.24-.19.53-.19.87v1.92h-.62Z"/><path class="cls-12" d="m111.1,62.13v-.47h.59v-.59s0-.05,0-.1,0-.07,0-.1c0-.49.13-.87.4-1.14s.58-.4.94-.4c.2,0,.41.03.63.09v.54c-.23-.09-.45-.14-.65-.14-.18,0-.35.05-.51.16-.16.11-.24.3-.24.57v1.09h.91v.47h-.88v3.09h-.6v-3.09h-.59Z"/><path class="cls-12" d="m113.56,63.45c0-.54.17-.99.52-1.36s.76-.56,1.24-.56.92.19,1.25.58c.33.39.5.84.5,1.35s-.18.97-.53,1.32-.76.53-1.23.53-.88-.18-1.23-.53-.53-.8-.53-1.33Zm.62-.08c0,.47.11.82.34,1.06s.49.36.79.36.56-.12.79-.36.34-.6.34-1.06-.11-.79-.34-1.01-.49-.34-.79-.34-.56.11-.79.34-.34.56-.34,1.01Z"/><path class="cls-12" d="m118.09,65.22v-.71h.67v.71h-.67Z"/><path class="cls-12" d="m119.06,66.58l.12-.49c.21.16.42.25.62.25.15,0,.29-.04.39-.12s.18-.17.21-.29c.01-.05.02-.12.02-.21v-4.08h.6v3.96c0,.44-.1.76-.31.95-.21.19-.44.29-.69.29-.33,0-.65-.09-.96-.27Zm1.25-6.09v-.71h.73v.71h-.73Z"/><path class="cls-12" d="m121.89,64.95l.1-.54s.04.03.1.06c.06.04.1.06.13.08s.08.04.14.07.13.06.18.08c.06.02.12.04.19.06.07.02.15.04.24.04.08,0,.17.01.26.01.27,0,.46-.06.57-.17s.17-.24.17-.38-.05-.24-.15-.33-.2-.15-.31-.18c-.05-.02-.17-.04-.36-.08-.19-.04-.32-.07-.41-.1-.22-.07-.41-.19-.58-.36-.17-.17-.25-.38-.25-.63,0-.12.02-.24.05-.35.04-.11.1-.22.19-.34.09-.11.22-.21.41-.27.18-.07.4-.1.66-.1.38,0,.77.08,1.16.25l-.08.53s-.04-.02-.09-.04c-.06-.03-.09-.04-.09-.05,0,0-.04-.02-.09-.04s-.08-.03-.1-.04-.05-.02-.1-.04c-.05-.02-.08-.03-.11-.03-.03,0-.07,0-.12-.02-.05-.01-.1-.02-.14-.02-.04,0-.09,0-.14,0-.05,0-.11,0-.17,0-.25,0-.42.05-.52.15-.1.1-.15.21-.15.34,0,.18.07.3.21.38.14.08.34.14.6.18.26.04.44.09.54.14.19.09.35.21.49.39s.2.38.2.62c0,.12-.02.24-.05.36-.04.12-.1.23-.19.35-.09.12-.22.21-.41.28-.18.07-.4.11-.65.11-.47,0-.92-.12-1.35-.36Z"/><path class="cls-12" d="m124.98,63.45c0-.54.17-.99.52-1.36s.76-.56,1.24-.56.92.19,1.25.58c.33.39.5.84.5,1.35s-.18.97-.53,1.32-.76.53-1.23.53-.88-.18-1.23-.53-.53-.8-.53-1.33Zm.62-.08c0,.47.11.82.34,1.06s.49.36.79.36.56-.12.79-.36.34-.6.34-1.06-.11-.79-.34-1.01-.49-.34-.79-.34-.56.11-.79.34-.34.56-.34,1.01Z"/><path class="cls-12" d="m129.38,65.22v-3.6h.58v.57c.31-.41.7-.61,1.17-.61.2,0,.37.03.51.09s.25.13.32.22.13.19.17.32c.04.13.07.25.08.35s.02.22.02.36v2.3h-.62v-2.24c0-.09,0-.16,0-.22,0-.05-.02-.13-.05-.23-.03-.1-.07-.18-.12-.24s-.13-.11-.23-.16c-.1-.04-.23-.07-.38-.07-.28,0-.49.12-.62.36-.13.24-.19.53-.19.87v1.92h-.62Z"/><path class="cls-12" d="m94.1,22.56v-8.33h2.65c.55,0,1.04.07,1.47.2s.76.31,1,.53.41.44.53.67c.11.23.17.46.17.68,0,.4-.17.77-.51,1.12s-.84.6-1.49.77c.64.11,1.19.35,1.65.73.46.38.69.84.69,1.37,0,.58-.25,1.08-.76,1.5-.51.41-1.11.66-1.81.73-.14.02-.34.02-.61.02h-2.97Zm1.01-4.71h1.44c.75,0,1.35-.16,1.78-.47s.65-.66.65-1.05c0-.35-.21-.68-.62-.98s-1.04-.45-1.88-.45h-1.37v.42s-.01,2.53-.01,2.53Zm0,4.04h1.7c.82,0,1.43-.17,1.85-.5.42-.34.62-.7.62-1.09,0-.44-.21-.82-.62-1.13-.42-.31-.92-.5-1.5-.55-.07,0-.28-.01-.62-.01h-1.42v.45s-.01,2.85-.01,2.85Z"/><path class="cls-12" d="m101.91,21.1v-3.87h.94v4.02c0,.28.07.48.2.6.12.12.38.18.76.18.41,0,.75-.11,1-.33.25-.22.4-.48.43-.77,0-.08.01-.19.01-.35v-3.36h.94v5.34h-.91v-.57c-.54.47-1.24.7-2.1.7-.24,0-.44-.04-.61-.11s-.3-.16-.38-.26-.15-.23-.19-.4-.07-.31-.07-.41,0-.24,0-.41Z"/><path class="cls-12" d="m108.04,15.49v-1.07h1.08v1.07h-1.08Zm.08,7.08v-5.34h.81v5.34h-.81Z"/><path class="cls-12" d="m110.99,22.56v-8.67h.9v8.67h-.9Z"/><path class="cls-12" d="m113.3,19.91c0-.79.21-1.46.62-2s.92-.81,1.51-.81,1.19.22,1.74.66v-3.86h.9v8.67h-.94v-.62c-.52.5-1.11.76-1.77.76-.59,0-1.09-.28-1.48-.84s-.59-1.21-.59-1.95Zm.94-.01c0,.71.17,1.23.5,1.56s.71.5,1.12.5c.34,0,.63-.11.89-.34.26-.23.39-.45.39-.65v-2.3c0-.15-.08-.31-.25-.46-.26-.24-.55-.36-.89-.36h-.02c-.19,0-.38.04-.57.11s-.37.18-.56.33c-.18.15-.33.36-.44.64-.11.28-.17.61-.17.98Z"/><path class="cls-12" d="m119.97,15.49v-1.07h1.08v1.07h-1.08Zm.08,7.08v-5.34h.81v5.34h-.81Z"/><path class="cls-12" d="m122.9,22.56v-5.4h.87v.85c.46-.61,1.05-.91,1.75-.91.3,0,.55.04.76.13s.38.2.49.33.2.29.26.49.1.37.11.52.02.33.02.54v3.46h-.94v-3.36c0-.14,0-.24,0-.32s-.03-.19-.07-.34-.1-.27-.18-.35-.19-.17-.35-.23c-.16-.07-.35-.1-.57-.1-.43,0-.74.18-.93.54-.19.36-.29.79-.29,1.3v2.88h-.94Z"/><path class="cls-12" d="m128.47,23.42c0-.52.25-.94.76-1.24-.2-.29-.3-.59-.3-.91,0-.36.12-.7.35-1.02h0c-.27-.36-.4-.76-.4-1.21,0-.56.19-1.03.56-1.4.38-.37.82-.55,1.32-.55.41,0,.81.13,1.19.4l-.02-.02c.59-.25,1.22-.37,1.89-.38l.13.74c-.24-.02-.47-.04-.71-.04-.02,0-.32.02-.9.05l-.11-.09c.31.43.47.86.47,1.29,0,.52-.19.98-.56,1.38s-.83.59-1.38.59c-.34,0-.7-.12-1.07-.37-.12.18-.18.33-.18.45,0,.16.05.31.15.44s.28.2.54.2h.92c.28,0,.52,0,.72.03.2.02.44.06.74.13.29.07.54.19.73.37.2.18.33.41.41.69.04.16.06.31.06.44,0,.46-.26.85-.79,1.16-.52.31-1.15.47-1.89.47s-1.36-.16-1.88-.47c-.51-.31-.77-.69-.77-1.15Zm.84,0c0,.21.11.39.32.54.21.15.45.25.71.32.26.06.52.09.76.09.51,0,.94-.09,1.31-.26.36-.17.54-.4.54-.67,0-.56-.6-.83-1.81-.83h-1.1c-.22.04-.4.13-.54.29-.13.16-.2.34-.2.53Zm.42-4.37c0,.39.1.69.3.92.2.23.46.35.79.35.27,0,.52-.1.74-.29.22-.2.33-.53.33-.99,0-.39-.1-.69-.29-.92-.2-.23-.46-.34-.79-.34-.27,0-.52.1-.74.29-.22.2-.33.53-.33.99Z"/><rect class="cls-7" x="92.25" y="30.67" width="12.76" height="16.33"/><rect class="cls-7" x="102.19" y="33" width="12.76" height="16.33"/><rect class="cls-7" x="112.13" y="35.33" width="12.76" height="16.33"/><rect class="cls-7" x="122.07" y="37.65" width="12.76" height="16.33"/><path class="cls-12" d="m96.92,109.12v-8.33h2.65c.55,0,1.04.07,1.47.2s.76.31,1,.53.41.44.53.67c.11.23.17.46.17.68,0,.4-.17.77-.51,1.12s-.84.6-1.49.77c.64.11,1.19.35,1.65.73.46.38.69.84.69,1.37,0,.58-.25,1.08-.76,1.5-.51.41-1.11.66-1.81.73-.14.02-.34.02-.61.02h-2.97Zm1.01-4.71h1.44c.75,0,1.35-.16,1.78-.47s.65-.66.65-1.05c0-.35-.21-.68-.62-.98s-1.04-.45-1.88-.45h-1.37v.42s-.01,2.53-.01,2.53Zm0,4.04h1.7c.82,0,1.43-.17,1.85-.5.42-.34.62-.7.62-1.09,0-.44-.21-.82-.62-1.13-.42-.31-.92-.5-1.5-.55-.07,0-.28-.01-.62-.01h-1.42v.45s-.01,2.85-.01,2.85Z"/><path class="cls-12" d="m104.73,107.65v-3.87h.94v4.03c0,.28.07.48.2.6.12.12.38.18.76.18.41,0,.75-.11,1-.33.25-.22.4-.48.43-.77,0-.08.01-.19.01-.35v-3.36h.94v5.34h-.91v-.57c-.54.47-1.24.7-2.1.7-.24,0-.44-.04-.61-.11s-.3-.16-.38-.26-.15-.23-.19-.4-.07-.31-.07-.41,0-.24,0-.41Z"/><path class="cls-12" d="m110.86,102.04v-1.07h1.08v1.07h-1.08Zm.08,7.08v-5.34h.81v5.34h-.81Z"/><path class="cls-12" d="m113.8,109.12v-8.67h.9v8.67h-.9Z"/><path class="cls-12" d="m116.12,106.46c0-.79.21-1.46.62-2s.92-.81,1.51-.81,1.19.22,1.74.66v-3.86h.9v8.67h-.94v-.62c-.52.5-1.11.76-1.77.76-.59,0-1.09-.28-1.48-.84s-.59-1.21-.59-1.95Zm.94-.01c0,.71.17,1.23.5,1.56s.71.49,1.12.49c.34,0,.63-.11.89-.34.26-.23.39-.45.39-.65v-2.3c0-.15-.08-.31-.25-.46-.26-.24-.55-.36-.89-.36h-.02c-.19,0-.38.04-.57.11s-.37.18-.56.33c-.18.15-.33.36-.44.64-.11.28-.17.61-.17.98Z"/><path class="cls-12" d="m122.31,106.4c0-.79.24-1.46.72-2s1.05-.81,1.7-.81c.24,0,.47.04.68.12s.44.2.66.38.4.44.55.79.23.77.25,1.26v.35h-3.72c.02.6.21,1.09.55,1.47s.75.56,1.22.56c.61,0,1.22-.22,1.82-.66l.08.79c-.61.41-1.24.61-1.9.62-.76,0-1.39-.28-1.88-.85-.49-.56-.74-1.23-.74-2Zm.9-.6h2.98c-.05-.31-.13-.57-.26-.79s-.27-.37-.42-.46c-.16-.09-.3-.15-.42-.18s-.24-.05-.35-.05c-.41,0-.74.16-1.01.46-.27.31-.44.65-.52,1.01Z"/><path class="cls-12" d="m128.2,109.12v-5.4h.84v1.07c.1-.15.21-.3.35-.44.13-.14.36-.29.69-.45s.68-.24,1.07-.25v.79c-.21,0-.42.05-.62.12s-.43.18-.66.33-.41.38-.55.68c-.14.3-.21.66-.21,1.07v2.48h-.9Z"/><rect class="cls-5" x="240.06" y="63.68" width="35.94" height="83.83" transform="translate(363.62 -152.43) rotate(90)"/><path class="cls-12" d="m223.89,109.12v-8.33h2.83c.73,0,1.35.16,1.85.47.37.23.65.51.86.85s.31.7.31,1.09c0,.63-.26,1.19-.77,1.7-.52.51-1.25.76-2.19.76-.04,0-.1,0-.19,0s-.16,0-.21,0h-1.4v3.46h-1.08Zm1.04-4.17h1.59c.41,0,.78-.06,1.09-.17s.54-.26.7-.45.26-.38.34-.57.11-.38.11-.57c0-.18-.03-.35-.1-.53s-.17-.37-.32-.56-.38-.35-.69-.47-.69-.18-1.13-.18h-1.59v3.49Z"/><path class="cls-12" d="m230.43,106.47c0-.81.26-1.49.78-2.05.52-.55,1.14-.83,1.85-.83s1.38.29,1.88.87c.5.58.75,1.25.75,2.02s-.26,1.45-.79,1.98c-.53.53-1.14.79-1.84.79s-1.32-.27-1.84-.8c-.53-.53-.79-1.2-.79-1.99Zm.94-.12c0,.7.17,1.24.51,1.6.34.36.73.54,1.18.54s.84-.18,1.18-.55c.34-.36.51-.89.51-1.59s-.17-1.18-.51-1.51c-.34-.34-.73-.5-1.18-.5s-.83.17-1.18.5c-.34.34-.52.84-.52,1.51Z"/><path class="cls-12" d="m236.4,108.72l.15-.81s.07.04.15.09c.09.05.15.09.2.11.04.02.12.06.22.11.1.05.19.09.27.12.08.03.18.06.29.09.11.03.23.05.35.07.12.01.25.02.39.02.4,0,.69-.08.86-.26.17-.17.26-.36.26-.57s-.07-.37-.22-.5c-.15-.13-.3-.22-.46-.27-.08-.02-.26-.06-.53-.12-.28-.06-.48-.1-.61-.14-.33-.11-.61-.29-.86-.54-.25-.25-.38-.57-.38-.94,0-.18.03-.36.08-.52.05-.16.15-.33.28-.5.13-.17.33-.31.61-.41.27-.1.6-.15.98-.15.57,0,1.15.12,1.75.37l-.13.8s-.05-.03-.14-.07c-.08-.04-.13-.06-.14-.07-.01,0-.06-.03-.13-.06-.08-.03-.13-.05-.16-.06-.03,0-.08-.03-.15-.06-.07-.03-.13-.04-.17-.05s-.1-.02-.18-.04-.14-.03-.2-.04-.13,0-.21-.01c-.08,0-.17,0-.26,0-.37,0-.63.07-.78.22-.15.15-.23.32-.23.51,0,.27.11.46.32.57.21.12.51.21.9.27s.65.14.81.21c.29.13.53.32.73.58.2.26.3.57.3.93,0,.18-.03.36-.08.54-.05.17-.15.35-.28.52s-.34.32-.61.42c-.27.11-.6.16-.98.16-.7,0-1.38-.18-2.03-.54Z"/><path class="cls-12" d="m240.89,104.48v-.7h1.03v-1.51h.84v1.51h1.69v.7h-1.69v2.96c0,.7.22,1.04.65,1.04.34,0,.69-.13,1.05-.39l.19.71c-.57.3-1.16.45-1.78.45-.66,0-.98-.51-.98-1.54v-3.23h-1.01Z"/><path class="cls-12" d="m245.97,111.46v-7.68h.9v.59c.59-.47,1.25-.71,1.99-.71.55,0,1,.28,1.35.83.35.55.53,1.2.53,1.94,0,.83-.22,1.5-.66,2.04s-.96.79-1.56.79-1.13-.23-1.62-.7v2.9h-.94Zm.94-3.86c0,.17.11.37.34.59.23.22.5.32.82.32.45,0,.85-.19,1.21-.58s.53-.88.53-1.49c0-.54-.15-1.01-.45-1.42-.3-.4-.69-.6-1.17-.6-.09,0-.17,0-.25.02s-.15.03-.22.06-.13.06-.19.08-.11.06-.17.09c-.05.04-.1.07-.14.1s-.08.07-.11.11-.07.07-.08.1-.04.05-.06.07l-.04.05v2.49Z"/><path class="cls-12" d="m251.84,109.12v-5.4h.84v1.07c.1-.15.21-.3.35-.44.13-.14.36-.29.69-.45.32-.16.68-.24,1.07-.25v.79c-.21,0-.42.05-.62.12-.21.07-.43.18-.66.33-.23.15-.41.38-.55.68s-.21.66-.21,1.07v2.48h-.9Z"/><path class="cls-12" d="m255.32,106.47c0-.81.26-1.49.78-2.05.52-.55,1.14-.83,1.85-.83s1.38.29,1.88.87c.5.58.75,1.25.75,2.02s-.26,1.45-.79,1.98c-.53.53-1.14.79-1.84.79s-1.32-.27-1.84-.8c-.53-.53-.79-1.2-.79-1.99Zm.94-.12c0,.7.17,1.24.51,1.6.34.36.73.54,1.18.54s.84-.18,1.18-.55c.34-.36.51-.89.51-1.59s-.17-1.18-.51-1.51c-.34-.34-.73-.5-1.18-.5s-.83.17-1.18.5c-.34.34-.52.84-.52,1.51Z"/><path class="cls-12" d="m261.72,106.44c0-.74.24-1.4.72-1.99.48-.58,1.12-.87,1.92-.87.38,0,.69.04.93.11s.56.21.93.42l-.15.79c-.39-.25-.69-.4-.9-.46-.23-.06-.51-.09-.83-.09-.54,0-.96.21-1.25.62-.29.41-.44.9-.44,1.47s.16,1.08.47,1.47c.31.38.72.58,1.21.58.62,0,1.25-.21,1.89-.65l.06.8c-.63.4-1.29.61-1.96.61-.73,0-1.35-.27-1.85-.82-.5-.55-.75-1.21-.75-1.99Z"/><path class="cls-12" d="m267.04,106.4c0-.79.24-1.46.72-2s1.05-.81,1.7-.81c.24,0,.47.04.68.11s.44.2.66.38.4.44.55.79.23.77.25,1.26v.35h-3.72c.02.6.21,1.09.55,1.47s.75.57,1.22.57c.61,0,1.22-.22,1.82-.66l.08.79c-.61.41-1.24.61-1.9.62-.76,0-1.39-.28-1.88-.85s-.74-1.23-.74-2Zm.9-.6h2.98c-.05-.31-.13-.57-.26-.79-.12-.22-.27-.37-.42-.46-.16-.09-.3-.15-.42-.18s-.24-.05-.35-.05c-.41,0-.74.16-1.01.46-.27.31-.44.65-.52,1.01Z"/><path class="cls-12" d="m272.27,108.72l.15-.81s.07.04.15.09c.09.05.15.09.2.11.04.02.12.06.22.11.1.05.19.09.27.12.08.03.18.06.29.09.11.03.23.05.35.07.12.01.25.02.39.02.4,0,.69-.08.86-.26.17-.17.26-.36.26-.57s-.07-.37-.22-.5c-.15-.13-.3-.22-.46-.27-.08-.02-.26-.06-.53-.12-.28-.06-.48-.1-.61-.14-.33-.11-.61-.29-.86-.54-.25-.25-.38-.57-.38-.94,0-.18.03-.36.08-.52.05-.16.15-.33.28-.5.13-.17.33-.31.61-.41.27-.1.6-.15.98-.15.57,0,1.15.12,1.75.37l-.13.8s-.05-.03-.14-.07c-.08-.04-.13-.06-.14-.07-.01,0-.06-.03-.13-.06-.08-.03-.13-.05-.16-.06-.03,0-.08-.03-.15-.06-.07-.03-.13-.04-.17-.05s-.1-.02-.18-.04-.14-.03-.2-.04-.13,0-.21-.01c-.08,0-.17,0-.26,0-.37,0-.63.07-.78.22-.15.15-.23.32-.23.51,0,.27.11.46.32.57.21.12.51.21.9.27s.65.14.81.21c.29.13.53.32.73.58.2.26.3.57.3.93,0,.18-.03.36-.08.54-.05.17-.15.35-.28.52s-.34.32-.61.42c-.27.11-.6.16-.98.16-.7,0-1.38-.18-2.03-.54Z"/><path class="cls-12" d="m276.87,108.72l.15-.81s.07.04.15.09c.09.05.15.09.2.11.04.02.12.06.22.11.1.05.19.09.27.12.08.03.18.06.29.09.11.03.23.05.35.07.12.01.25.02.39.02.4,0,.69-.08.86-.26.17-.17.26-.36.26-.57s-.07-.37-.22-.5c-.15-.13-.3-.22-.46-.27-.08-.02-.26-.06-.53-.12-.28-.06-.48-.1-.61-.14-.33-.11-.61-.29-.86-.54-.25-.25-.38-.57-.38-.94,0-.18.03-.36.08-.52.05-.16.15-.33.28-.5.13-.17.33-.31.61-.41.27-.1.6-.15.98-.15.57,0,1.15.12,1.75.37l-.13.8s-.05-.03-.14-.07c-.08-.04-.13-.06-.14-.07-.01,0-.06-.03-.13-.06-.08-.03-.13-.05-.16-.06-.03,0-.08-.03-.15-.06-.07-.03-.13-.04-.17-.05s-.1-.02-.18-.04-.14-.03-.2-.04-.13,0-.21-.01c-.08,0-.17,0-.26,0-.37,0-.63.07-.78.22-.15.15-.23.32-.23.51,0,.27.11.46.32.57.21.12.51.21.9.27s.65.14.81.21c.29.13.53.32.73.58.2.26.3.57.3.93,0,.18-.03.36-.08.54-.05.17-.15.35-.28.52s-.34.32-.61.42c-.27.11-.6.16-.98.16-.7,0-1.38-.18-2.03-.54Z"/><path class="cls-12" d="m281.5,106.47c0-.81.26-1.49.78-2.05.52-.55,1.14-.83,1.85-.83s1.38.29,1.88.87c.5.58.75,1.25.75,2.02s-.26,1.45-.79,1.98c-.53.53-1.14.79-1.84.79s-1.32-.27-1.84-.8c-.53-.53-.79-1.2-.79-1.99Zm.94-.12c0,.7.17,1.24.51,1.6.34.36.73.54,1.18.54s.84-.18,1.18-.55c.34-.36.51-.89.51-1.59s-.17-1.18-.51-1.51c-.34-.34-.73-.5-1.18-.5s-.83.17-1.18.5c-.34.34-.52.84-.52,1.51Z"/><path class="cls-12" d="m287.78,109.12v-5.4h.84v1.07c.1-.15.21-.3.35-.44.13-.14.36-.29.69-.45.32-.16.68-.24,1.07-.25v.79c-.21,0-.42.05-.62.12-.21.07-.43.18-.66.33-.23.15-.41.38-.55.68s-.21.66-.21,1.07v2.48h-.9Z"/><path class="cls-12" d="m169.42,270.67v-8.33h2.71c.57,0,1.08.07,1.52.22s.77.34,1.01.57.41.48.52.72.17.48.17.72c0,.46-.18.9-.53,1.29s-.86.69-1.52.88l2.39,3.91h-1.08l-2.24-3.79h-1.89v3.79h-1.04Zm1.04-4.54h1.58c.84,0,1.44-.16,1.79-.47s.53-.67.53-1.07c0-.18-.04-.35-.11-.52s-.19-.33-.35-.5-.4-.3-.71-.4-.69-.16-1.12-.16h-1.62v3.12Z"/><path class="cls-12" d="m176.99,269.2v-3.87h.94v4.02c0,.28.07.48.2.6.12.12.38.18.76.18.41,0,.75-.11,1-.33.25-.22.4-.48.43-.77,0-.08.01-.19.01-.35v-3.36h.94v5.34h-.91v-.57c-.54.47-1.24.7-2.1.7-.24,0-.44-.04-.61-.11s-.3-.16-.38-.26-.15-.23-.19-.4-.07-.31-.07-.41,0-.24,0-.41Z"/><path class="cls-12" d="m183.19,270.67v-5.4h.87v.85c.46-.61,1.05-.91,1.75-.91.3,0,.55.04.76.13s.38.2.49.33.2.29.26.49.1.37.11.52.02.33.02.54v3.46h-.94v-3.36c0-.14,0-.24,0-.32s-.03-.19-.07-.34-.1-.27-.18-.35-.19-.17-.35-.23c-.16-.07-.35-.1-.57-.1-.43,0-.74.18-.93.54-.19.36-.29.79-.29,1.3v2.88h-.94Z"/><path class="cls-12" d="m189.38,270.67v-5.4h.87v.85c.46-.61,1.05-.91,1.75-.91.3,0,.55.04.76.13s.38.2.49.33.2.29.26.49.1.37.11.52.02.33.02.54v3.46h-.94v-3.36c0-.14,0-.24,0-.32s-.03-.19-.07-.34-.1-.27-.18-.35-.19-.17-.35-.23c-.16-.07-.35-.1-.57-.1-.43,0-.74.18-.93.54-.19.36-.29.79-.29,1.3v2.88h-.94Z"/><path class="cls-12" d="m195.03,267.95c0-.79.24-1.46.72-2,.48-.54,1.05-.81,1.7-.81.24,0,.47.04.68.11s.44.2.66.38.4.44.55.79.23.77.25,1.26v.35h-3.72c.02.6.21,1.09.55,1.47s.75.57,1.22.57c.61,0,1.22-.22,1.82-.66l.08.79c-.61.41-1.24.61-1.9.62-.76,0-1.39-.28-1.88-.85-.49-.56-.74-1.23-.74-2Zm.9-.6h2.98c-.05-.31-.13-.57-.26-.79s-.27-.37-.42-.46-.3-.15-.42-.18c-.12-.03-.24-.05-.35-.05-.41,0-.74.16-1.01.46s-.44.65-.52,1.01Z"/><path class="cls-12" d="m200.92,270.67v-5.4h.84v1.07c.1-.15.21-.3.35-.44s.36-.29.69-.45c.32-.16.68-.24,1.07-.25v.79c-.21,0-.42.05-.62.11s-.43.18-.66.33-.41.38-.55.68c-.14.3-.21.66-.21,1.07v2.48h-.9Z"/><rect class="cls-19" x="80.49" y="145.81" width="66.11" height="61.56"/><path class="cls-12" d="m95.86,204.41l.12-.49c.21.16.42.25.62.25.15,0,.29-.04.39-.12s.18-.17.21-.29c.01-.05.02-.12.02-.21v-4.08h.6v3.96c0,.44-.1.76-.31.95-.21.19-.44.29-.69.29-.33,0-.65-.09-.96-.27Zm1.25-6.09v-.71h.73v.71h-.73Z"/><path class="cls-12" d="m98.72,201.27c0-.54.17-.99.52-1.36s.76-.56,1.24-.56.92.19,1.25.58c.33.39.5.84.5,1.35s-.18.97-.53,1.32-.76.53-1.23.53-.88-.18-1.23-.53c-.35-.36-.53-.8-.53-1.33Zm.62-.08c0,.47.11.82.34,1.06.23.24.49.36.79.36s.56-.12.79-.36c.23-.24.34-.6.34-1.06s-.11-.79-.34-1.01c-.23-.22-.49-.34-.79-.34s-.56.11-.79.34c-.23.22-.34.56-.34,1.01Z"/><path class="cls-12" d="m103.13,203.04v-5.78h.6v2.61c.39-.32.82-.47,1.28-.47.38,0,.69.18.94.55.25.37.37.8.37,1.29,0,.54-.15.99-.44,1.35-.29.36-.64.54-1.05.54-.38,0-.73-.15-1.07-.46v.37h-.62Zm.62-1.07s0,.07,0,.1c0,.02,0,.05.02.07,0,.02.02.04.02.05,0,0,.02.03.04.05.02.03.04.05.05.07.18.21.4.32.66.32.28,0,.55-.11.79-.33s.36-.57.36-1.04c0-.25-.03-.47-.1-.65s-.16-.33-.28-.42c-.11-.1-.23-.17-.35-.21-.12-.05-.23-.07-.35-.07-.21,0-.4.06-.58.18-.18.12-.27.26-.27.41v1.49Z"/><path class="cls-12" d="m109.49,199.95v-.47h.59v-.59s0-.05,0-.1,0-.07,0-.1c0-.49.13-.87.4-1.14s.58-.4.94-.4c.2,0,.41.03.63.09v.54c-.23-.09-.45-.14-.65-.14-.18,0-.35.05-.51.16-.16.11-.24.3-.24.57v1.09h.91v.47h-.88v3.09h-.6v-3.09h-.59Z"/><path class="cls-12" d="m111.95,201.27c0-.54.17-.99.52-1.36s.76-.56,1.24-.56.92.19,1.25.58c.33.39.5.84.5,1.35s-.18.97-.53,1.32-.76.53-1.23.53-.88-.18-1.23-.53c-.35-.36-.53-.8-.53-1.33Zm.62-.08c0,.47.11.82.34,1.06.23.24.49.36.79.36s.56-.12.79-.36c.23-.24.34-.6.34-1.06s-.11-.79-.34-1.01c-.23-.22-.49-.34-.79-.34s-.56.11-.79.34c-.23.22-.34.56-.34,1.01Z"/><path class="cls-12" d="m116.36,203.04v-5.78h.6v5.78h-.6Z"/><path class="cls-12" d="m117.9,201.27c0-.53.14-.97.42-1.34.28-.36.61-.54,1.01-.54s.79.15,1.16.44v-2.57h.6v5.78h-.62v-.41c-.35.34-.74.5-1.18.5-.4,0-.73-.19-.99-.56-.26-.37-.39-.81-.39-1.3Zm.62,0c0,.47.11.82.34,1.04.22.22.47.33.74.33.22,0,.42-.08.59-.23s.26-.3.26-.44v-1.53c0-.1-.06-.2-.17-.31-.17-.16-.37-.24-.59-.24h-.02c-.13,0-.25.02-.38.07-.12.05-.25.12-.37.22-.12.1-.22.24-.3.43-.08.19-.11.4-.11.65Z"/><path class="cls-12" d="m122.03,201.23c0-.53.16-.97.48-1.33.32-.36.7-.54,1.13-.54.16,0,.31.03.46.08s.29.13.44.25.27.29.37.53.15.51.17.84v.23h-2.48c.02.4.14.73.37.98.23.25.5.38.82.38.41,0,.81-.15,1.21-.44l.05.53c-.41.27-.83.41-1.27.41-.51,0-.93-.19-1.25-.56-.33-.38-.49-.82-.49-1.33Zm.6-.4h1.98c-.03-.21-.09-.38-.17-.53-.08-.14-.18-.25-.28-.31s-.2-.1-.28-.12-.16-.03-.24-.03c-.27,0-.49.1-.67.31-.18.21-.29.43-.34.67Z"/><path class="cls-12" d="m125.95,203.04v-3.6h.56v.72c.06-.1.14-.2.23-.29s.24-.19.46-.3c.22-.11.45-.16.71-.17v.53c-.14,0-.28.03-.42.08-.14.05-.29.12-.44.22s-.28.25-.37.45c-.09.2-.14.44-.14.71v1.65h-.6Z"/><path class="cls-12" d="m128.25,202.77l.1-.54s.04.03.1.06c.06.04.1.06.13.08.03.02.08.04.14.07.07.03.13.06.18.08.06.02.12.04.19.06.07.02.15.04.24.04.08,0,.17.01.26.01.27,0,.46-.06.57-.17.12-.11.17-.24.17-.38s-.05-.24-.15-.33-.2-.15-.31-.18c-.05-.02-.17-.04-.36-.08-.19-.04-.32-.07-.41-.1-.22-.07-.41-.19-.58-.36-.17-.17-.25-.38-.25-.63,0-.12.02-.24.05-.35.04-.11.1-.22.19-.34.09-.12.22-.21.41-.27.18-.07.4-.1.66-.1.38,0,.77.08,1.16.25l-.08.53s-.04-.02-.09-.04-.09-.04-.09-.04c0,0-.04-.02-.09-.04-.05-.02-.08-.04-.1-.04-.02,0-.05-.02-.1-.04-.05-.02-.08-.03-.11-.03-.03,0-.07,0-.12-.02-.05-.01-.1-.02-.14-.02-.04,0-.09,0-.14,0-.05,0-.11,0-.17,0-.25,0-.42.05-.52.15-.1.1-.15.21-.15.34,0,.18.07.3.21.38.14.08.34.14.6.18.26.04.44.09.54.14.19.09.35.21.49.39s.2.38.2.62c0,.12-.02.24-.05.36-.04.12-.1.23-.19.35-.09.12-.22.21-.41.28-.18.07-.4.11-.65.11-.47,0-.92-.12-1.35-.36Z"/><path class="cls-12" d="m99.4,160.38v-8.33h2.71c.57,0,1.08.07,1.52.22s.77.34,1.01.57.41.48.52.72.17.48.17.72c0,.46-.18.9-.53,1.29s-.86.69-1.52.88l2.39,3.91h-1.08l-2.24-3.79h-1.89v3.79h-1.04Zm1.04-4.54h1.58c.84,0,1.44-.16,1.79-.47s.53-.67.53-1.07c0-.18-.04-.35-.11-.52s-.19-.33-.35-.5-.4-.3-.71-.4-.69-.16-1.12-.16h-1.62v3.12Z"/><path class="cls-12" d="m106.42,157.67c0-.79.24-1.46.72-2s1.05-.81,1.7-.81c.24,0,.47.04.68.11s.44.2.66.38.4.44.55.79.23.77.25,1.26v.35h-3.72c.02.6.21,1.09.55,1.47s.75.57,1.22.57c.61,0,1.22-.22,1.82-.66l.08.79c-.61.41-1.24.61-1.9.62-.76,0-1.39-.28-1.88-.85s-.74-1.23-.74-2Zm.9-.6h2.98c-.05-.31-.13-.57-.26-.79-.12-.22-.27-.37-.42-.46-.16-.09-.3-.15-.42-.18s-.24-.05-.35-.05c-.41,0-.74.16-1.01.46-.27.31-.44.65-.52,1.01Z"/><path class="cls-12" d="m111.87,159.03c0-.3.11-.56.34-.78.22-.22.52-.38.88-.49.36-.11.72-.19,1.06-.24.35-.05.69-.08,1.04-.08v-.4c-.02-.51-.12-.88-.31-1.11-.2-.24-.45-.36-.76-.36-.62,0-1.21.2-1.79.61l-.07-.8c.6-.35,1.22-.53,1.87-.53.55,0,1.01.18,1.39.54.37.36.58.8.61,1.32v3.66h-.91v-.42s-.11.08-.22.16c-.12.07-.34.16-.68.25-.34.1-.7.15-1.09.15-.45,0-.79-.16-1.02-.49-.23-.32-.34-.66-.34-1Zm.86-.03c0,.22.11.4.32.55.21.15.48.22.8.22.34,0,.65-.07.93-.22.28-.15.41-.4.41-.75v-.77c-.25,0-.5.02-.75.05-.26.03-.52.08-.79.15-.27.07-.49.17-.66.3-.17.13-.25.29-.25.47Z"/><path class="cls-12" d="m117.52,157.73c0-.79.21-1.46.62-2s.92-.81,1.51-.81,1.19.22,1.74.66v-3.86h.9v8.67h-.94v-.62c-.52.5-1.11.76-1.77.76-.59,0-1.09-.28-1.48-.84s-.59-1.21-.59-1.95Zm.94-.01c0,.71.17,1.23.5,1.56s.71.5,1.12.5c.34,0,.63-.11.89-.34.26-.23.39-.45.39-.65v-2.3c0-.15-.08-.31-.25-.46-.26-.24-.55-.36-.89-.36h-.02c-.19,0-.38.04-.57.11s-.37.18-.56.33c-.18.15-.33.36-.44.64-.11.28-.17.61-.17.98Z"/><path class="cls-12" d="m123.47,155.05h.94c.51,1.18.9,2.1,1.15,2.76.26.66.41,1.08.45,1.25s.09.41.13.73c.02-.56.55-2.14,1.6-4.74h.9l-2.6,6.42c-.23.54-.45.9-.65,1.09s-.45.29-.74.29c-.33,0-.62-.03-.87-.1l-.06-.77c.43.14.72.21.87.21.21,0,.38-.08.49-.23s.28-.51.5-1.05c.05-.14.1-.24.13-.32.03-.07.05-.13.05-.19s-.02-.13-.06-.21l-2.24-5.13Z"/><path class="cls-8" d="m106.84,180.96h-14.77c-.53,0-.96-.43-.96-.96v-9.35c0-.53.43-.96.96-.96h7.93l1.52-1.37h5.32c.53,0,.96.43.96.96v10.71c0,.53-.43.96-.96.96Z"/><path class="cls-8" d="m116.23,184.11h-14.77c-.53,0-.96-.43-.96-.96v-9.35c0-.53.43-.96.96-.96h7.93l1.52-1.37h5.32c.53,0,.96.43.96.96v10.71c0,.53-.43.96-.96.96Z"/><path class="cls-8" d="m125.62,187.27h-14.77c-.53,0-.96-.43-.96-.96v-9.35c0-.53.43-.96.96-.96h7.93l1.52-1.37h5.32c.53,0,.96.43.96.96v10.71c0,.53-.43.96-.96.96Z"/><path class="cls-8" d="m135.01,190.43h-14.77c-.53,0-.96-.43-.96-.96v-9.35c0-.53.43-.96.96-.96h7.93l1.52-1.37h5.32c.53,0,.96.43.96.96v10.71c0,.53-.43.96-.96.96Z"/><rect class="cls-2" x="179.35" y="102.15" width="12.76" height="16.33"/><path class="cls-12" d="m168.79,87.94v-.5c.31,0,.59-.08.85-.22s.39-.36.42-.64v-1.89c0-.07,0-.13.02-.19s.05-.15.1-.25c.06-.11.13-.2.23-.27.1-.08.24-.14.44-.2.19-.06.42-.08.67-.08h.42v.5h-.19c-.25,0-.45.01-.61.04-.15.03-.26.07-.32.13s-.1.12-.12.17c-.02.05-.02.12-.02.2v1.69c0,.2-.03.38-.1.53-.07.16-.15.28-.24.36-.09.09-.2.16-.33.22s-.24.1-.34.12c-.1.02-.19.03-.29.04.12,0,.25.03.38.07s.27.1.41.19c.15.09.27.22.36.4.09.18.14.38.14.62v1.71c0,.17.07.3.21.38.14.08.43.13.86.13h.19v.5h-.36c-.38,0-.69-.06-.95-.17-.08-.03-.14-.07-.2-.11s-.11-.08-.15-.12-.07-.08-.1-.13-.05-.09-.06-.12-.03-.07-.04-.12c-.01-.05-.02-.09-.02-.11,0-.02,0-.05,0-.1v-1.72c-.01-.21-.03-.35-.05-.42-.09-.2-.24-.36-.47-.47-.23-.11-.47-.16-.74-.16Z"/><path class="cls-12" d="m172.7,89.54l.11-.6c.1.09.17.15.21.19.04.04.15.09.31.16s.33.1.51.1c.27,0,.49-.07.67-.21s.27-.38.27-.73v-4.29h.7v4.31c0,.27-.04.5-.12.7-.08.2-.2.34-.34.44-.14.1-.29.17-.45.21s-.32.06-.5.06c-.47,0-.92-.11-1.37-.34Z"/><path class="cls-12" d="m176.38,87.93c0-.54.17-1,.52-1.37s.76-.55,1.24-.55.92.19,1.25.58c.33.39.5.84.5,1.35s-.18.97-.53,1.32-.76.53-1.23.53-.88-.18-1.23-.53c-.35-.35-.53-.8-.53-1.32Zm.62-.08c0,.47.11.82.34,1.06.23.24.49.36.79.36s.56-.12.79-.36c.23-.24.34-.6.34-1.06s-.11-.79-.34-1.01c-.23-.22-.49-.34-.79-.34s-.56.11-.79.34c-.23.22-.34.56-.34,1.01Z"/><path class="cls-12" d="m180.79,89.7v-5.78h.6v2.61c.39-.31.82-.47,1.28-.47.38,0,.69.18.94.55.25.37.37.8.37,1.29,0,.54-.15.99-.44,1.35-.29.36-.64.54-1.05.54-.38,0-.73-.16-1.07-.46v.38h-.62Zm.62-1.07s0,.07,0,.1,0,.05.02.07c0,.02.02.04.02.05,0,.01.02.03.04.05.02.03.04.05.05.07.18.21.4.32.66.32.28,0,.55-.11.79-.33s.36-.57.36-1.04c0-.25-.03-.47-.1-.65-.07-.19-.16-.33-.28-.43s-.23-.17-.35-.21c-.12-.04-.23-.07-.35-.07-.21,0-.4.06-.58.18-.18.12-.27.26-.27.41v1.49Z"/><path class="cls-12" d="m185.05,89.7v-.67h.67v.67s-.34,1-.34,1h-.34l.21-1h-.21Z"/><path class="cls-12" d="m187.26,89.7v-5.53h3.57v.52h-.66s-1.92,0-1.92,0h-.28s0,1.89,0,1.89h2.64v.5h-2.64v2.07h.87s1.55,0,1.55,0h.18s.37,0,.37,0v.57h-3.69Z"/><path class="cls-12" d="m191.92,89.7v-3.6h.58v.57c.31-.41.7-.61,1.17-.61.2,0,.37.03.51.09s.25.13.32.22.13.19.17.32c.04.13.07.25.08.35s.02.22.02.36v2.3h-.62v-2.24c0-.09,0-.16,0-.22,0-.05-.02-.13-.05-.23s-.07-.18-.12-.24-.13-.11-.23-.16c-.1-.05-.23-.07-.38-.07-.28,0-.49.12-.62.36s-.19.53-.19.87v1.92h-.62Z"/><path class="cls-12" d="m195.52,86.14h.61l.75,1.95c.23.65.36,1.05.38,1.21.04-.27.42-1.32,1.12-3.16h.59l-1.38,3.56h-.7l-1.38-3.56Z"/><path class="cls-12" d="m199.51,91.2h.05c.15,0,.28,0,.37,0,.09,0,.21-.02.35-.04s.25-.06.33-.11.13-.13.15-.21c0-.03,0-.1,0-.21v-1.64c0-.24.05-.45.14-.62.09-.18.21-.31.36-.4.15-.09.28-.15.41-.19s.25-.06.38-.07c-.12,0-.25-.03-.38-.07-.13-.04-.27-.1-.41-.19-.15-.09-.27-.22-.36-.4-.09-.18-.14-.38-.14-.62v-1.72c0-.17-.07-.3-.22-.38-.14-.08-.43-.13-.86-.13h-.19v-.5h.39c.15,0,.26,0,.33.01s.15.01.26.04c.11.02.21.06.31.11.08.03.15.07.21.11s.12.08.16.12.07.08.1.13c.03.05.05.09.06.12s.03.07.04.12c.01.05.02.09.02.11,0,.02,0,.05,0,.1v1.73c.01.2.03.34.06.42.09.2.24.36.46.47s.47.16.74.16v.5c-.31,0-.59.07-.84.22s-.39.36-.41.64v.18s0,1.65,0,1.65c-.01.21-.04.36-.07.44-.1.21-.28.36-.52.46s-.54.15-.87.15h-.43v-.5Z"/><path class="cls-12" d="m172.65,98.32l.12-.67c.56.44,1.12.67,1.7.67.35,0,.63-.11.85-.32.22-.21.32-.46.32-.74,0-.21-.06-.4-.19-.57-.12-.17-.29-.3-.49-.38-.01,0-.34-.09-.99-.27-.33-.09-.61-.26-.86-.53-.25-.26-.37-.59-.37-.98,0-.41.17-.77.5-1.09.33-.32.76-.48,1.3-.48.5,0,1,.13,1.47.38l-.11.66c-.22-.17-.43-.3-.63-.39s-.44-.13-.74-.13c-.35,0-.63.09-.84.29s-.32.41-.32.67c0,.19.06.36.18.52.12.15.28.27.47.35.08.02.27.07.58.15s.52.14.62.18c.29.12.55.32.76.59.21.27.31.59.31.95,0,.45-.17.85-.51,1.18-.34.34-.78.5-1.31.5-.64,0-1.24-.18-1.82-.55Z"/><path class="cls-12" d="m177.01,96.89c0-.53.16-.97.48-1.33.32-.36.7-.54,1.13-.54.16,0,.31.03.46.08s.29.13.44.25.27.29.37.53.15.51.17.84v.23h-2.48c.02.4.14.73.37.98.23.25.5.38.82.38.41,0,.81-.15,1.21-.44l.05.53c-.41.27-.83.41-1.27.41-.51,0-.93-.19-1.25-.56-.33-.38-.49-.82-.49-1.33Zm.6-.4h1.98c-.03-.21-.09-.38-.17-.53s-.18-.25-.28-.31c-.1-.06-.2-.1-.28-.12-.08-.02-.16-.03-.24-.03-.27,0-.49.1-.67.31-.18.21-.29.43-.34.67Z"/><path class="cls-12" d="m180.43,95.61v-.47h.69v-1.01h.56v1.01h1.13v.47h-1.13v1.97c0,.46.14.7.43.7.22,0,.46-.09.7-.26l.13.47c-.38.2-.77.3-1.18.3-.44,0-.66-.34-.66-1.03v-2.15h-.67Z"/><path class="cls-12" d="m183.32,95.61v-.47h.69v-1.01h.56v1.01h1.13v.47h-1.13v1.97c0,.46.14.7.43.7.22,0,.46-.09.7-.26l.13.47c-.38.2-.77.3-1.18.3-.44,0-.66-.34-.66-1.03v-2.15h-.67Z"/><path class="cls-12" d="m186.66,93.98v-.71h.72v.71h-.72Zm.05,4.72v-3.56h.54v3.56h-.54Z"/><path class="cls-12" d="m188.61,98.7v-3.6h.58v.57c.31-.41.7-.61,1.17-.61.2,0,.37.03.51.09s.25.13.32.22.13.19.17.32c.04.13.07.25.08.35s.02.22.02.36v2.3h-.62v-2.24c0-.09,0-.16,0-.22,0-.05-.02-.13-.05-.23s-.07-.18-.12-.24-.13-.11-.23-.16c-.1-.05-.23-.07-.38-.07-.28,0-.49.12-.62.36s-.19.53-.19.87v1.92h-.62Z"/><path class="cls-12" d="m192.32,99.27c0-.35.17-.62.51-.83-.13-.19-.2-.39-.2-.6,0-.24.08-.47.23-.68h0c-.18-.24-.27-.5-.27-.81,0-.38.13-.69.38-.93s.54-.37.88-.37c.28,0,.54.09.8.27l-.02-.02c.4-.16.81-.25,1.26-.25l.09.49c-.16-.02-.32-.02-.47-.02-.02,0-.21.01-.6.03l-.07-.06c.21.29.31.57.31.86,0,.35-.12.66-.37.92s-.55.4-.92.4c-.23,0-.47-.08-.72-.24-.08.12-.12.22-.12.3,0,.11.03.21.1.3.06.09.18.13.36.13h.61c.19,0,.35,0,.48.02.13.01.29.04.49.09.2.05.36.13.49.25.13.12.22.27.27.46.03.11.04.2.04.29,0,.31-.17.57-.52.77-.35.21-.77.31-1.26.31s-.91-.1-1.25-.31c-.34-.21-.51-.46-.51-.77Zm.56,0c0,.14.07.26.21.36s.3.17.47.21.34.06.51.06c.34,0,.63-.06.87-.17.24-.12.36-.27.36-.45,0-.37-.4-.56-1.21-.56h-.73c-.15.02-.27.08-.36.19-.09.11-.13.23-.13.35Zm.28-2.91c0,.26.07.46.2.62s.31.23.53.23c.18,0,.35-.07.49-.2.15-.13.22-.35.22-.66,0-.26-.06-.46-.2-.62-.13-.15-.3-.23-.52-.23-.18,0-.35.07-.49.2s-.22.35-.22.66Z"/><path class="cls-12" d="m196.32,98.43l.1-.54s.04.03.1.06c.06.04.1.06.13.08s.08.04.14.07c.07.03.13.06.18.08.06.02.12.04.19.06.07.02.15.04.24.04.08,0,.17.01.26.01.27,0,.46-.06.57-.17.12-.11.17-.24.17-.38s-.05-.24-.15-.33-.2-.15-.31-.18c-.05-.02-.17-.04-.36-.08-.19-.04-.32-.07-.41-.1-.22-.07-.41-.19-.58-.36-.17-.17-.25-.38-.25-.63,0-.12.02-.24.05-.35.04-.11.1-.22.19-.34.09-.11.22-.21.41-.27s.4-.1.66-.1c.38,0,.77.08,1.16.25l-.08.53s-.04-.02-.09-.04c-.06-.03-.09-.04-.09-.05,0,0-.04-.02-.09-.04-.05-.02-.08-.03-.1-.04-.02,0-.05-.02-.1-.04-.05-.02-.08-.03-.11-.03-.03,0-.07-.01-.12-.02s-.1-.02-.14-.02c-.04,0-.09,0-.14,0-.05,0-.11,0-.17,0-.25,0-.42.05-.52.15-.1.1-.15.21-.15.34,0,.18.07.3.21.38.14.08.34.14.6.18.26.04.44.09.54.14.19.09.35.21.49.39s.2.38.2.62c0,.12-.02.24-.05.36-.04.12-.1.23-.19.35-.09.12-.22.21-.41.28-.18.07-.4.11-.65.11-.47,0-.92-.12-1.35-.36Z"/><line class="cls-18" x1="200.66" y1="110.14" x2="214.76" y2="110.14"/><polygon class="cls-12" points="212.27 113.2 211.76 112.65 214.47 110.14 211.76 107.62 212.27 107.07 215.57 110.14 212.27 113.2"/><line class="cls-18" x1="170.76" y1="110.14" x2="156.67" y2="110.14"/><polygon class="cls-12" points="159.15 107.07 159.66 107.62 156.95 110.14 159.66 112.65 159.15 113.2 155.85 110.14 159.15 107.07"/><line class="cls-18" x1="185.73" y1="122.36" x2="185.73" y2="137.45"/><polygon class="cls-12" points="182.67 134.97 183.22 134.46 185.73 137.17 188.25 134.46 188.8 134.97 185.73 138.27 182.67 134.97"/><line class="cls-18" x1="204.12" y1="39.5" x2="223.63" y2="39.5"/><polygon class="cls-12" points="221.14 42.57 220.63 42.02 223.34 39.51 220.63 36.99 221.14 36.44 224.44 39.51 221.14 42.57"/><line class="cls-18" x1="167.34" y1="39.5" x2="147.83" y2="39.5"/><polygon class="cls-12" points="150.32 36.44 150.83 36.99 148.12 39.5 150.83 42.02 150.32 42.57 147.02 39.5 150.32 36.44"/><rect class="cls-2" x="179.49" y="31.34" width="12.76" height="16.33"/><path class="cls-12" d="m161.94,56.43v-5.53h3.57v.52h-.66s-1.92,0-1.92,0h-.28s0,1.89,0,1.89h2.64v.5h-2.64v2.07h.87s1.55,0,1.55,0h.18s.37,0,.37,0v.57h-3.69Z"/><path class="cls-12" d="m166.6,56.43v-3.6h.58v.57c.31-.41.7-.61,1.17-.61.2,0,.37.03.51.09s.25.13.32.22.13.19.17.32c.04.13.07.25.08.35s.02.22.02.36v2.3h-.62v-2.24c0-.09,0-.16,0-.22,0-.05-.02-.13-.05-.23s-.07-.18-.12-.24-.13-.11-.23-.16c-.1-.05-.23-.07-.38-.07-.28,0-.49.12-.62.36s-.19.53-.19.87v1.92h-.62Z"/><path class="cls-12" d="m170.31,57c0-.35.17-.62.51-.83-.13-.19-.2-.39-.2-.6,0-.24.08-.47.23-.68h0c-.18-.24-.27-.5-.27-.81,0-.38.13-.69.38-.93s.54-.37.88-.37c.28,0,.54.09.8.27l-.02-.02c.4-.16.81-.25,1.26-.25l.09.49c-.16-.02-.32-.02-.47-.02-.02,0-.21.01-.6.03l-.07-.06c.21.29.31.57.31.86,0,.35-.12.66-.37.92s-.55.4-.92.4c-.23,0-.47-.08-.72-.24-.08.12-.12.22-.12.3,0,.11.03.21.1.3.06.09.18.13.36.13h.61c.19,0,.35,0,.48.02.13.01.29.04.49.09.2.05.36.13.49.25.13.12.22.27.27.46.03.11.04.2.04.29,0,.31-.17.57-.52.77-.35.21-.77.31-1.26.31s-.91-.1-1.25-.31c-.34-.21-.51-.46-.51-.77Zm.56,0c0,.14.07.26.21.36s.3.17.47.21.34.06.51.06c.34,0,.63-.06.87-.17.24-.12.36-.27.36-.45,0-.37-.4-.56-1.21-.56h-.73c-.15.02-.27.08-.36.19-.09.11-.13.23-.13.35Zm.28-2.91c0,.26.07.46.2.62s.31.23.53.23c.18,0,.35-.07.49-.2.15-.13.22-.35.22-.66,0-.26-.06-.46-.2-.62-.13-.15-.3-.23-.52-.23-.18,0-.35.07-.49.2s-.22.35-.22.66Z"/><path class="cls-12" d="m174.69,51.71v-.71h.72v.71h-.72Zm.05,4.72v-3.56h.54v3.56h-.54Z"/><path class="cls-12" d="m176.64,56.43v-3.6h.58v.57c.31-.41.7-.61,1.17-.61.2,0,.37.03.51.09s.25.13.32.22.13.19.17.32c.04.13.07.25.08.35s.02.22.02.36v2.3h-.62v-2.24c0-.09,0-.16,0-.22,0-.05-.02-.13-.05-.23s-.07-.18-.12-.24-.13-.11-.23-.16c-.1-.05-.23-.07-.38-.07-.28,0-.49.12-.62.36s-.19.53-.19.87v1.92h-.62Z"/><path class="cls-12" d="m180.41,54.62c0-.53.16-.97.48-1.33.32-.36.7-.54,1.13-.54.16,0,.31.03.46.08s.29.13.44.25.27.29.37.53.15.51.17.84v.23h-2.48c.02.4.14.73.37.98.23.25.5.38.82.38.41,0,.81-.15,1.21-.44l.05.53c-.41.27-.83.41-1.27.41-.51,0-.93-.19-1.25-.56-.33-.38-.49-.82-.49-1.33Zm.6-.4h1.98c-.03-.21-.09-.38-.17-.53s-.18-.25-.28-.31c-.1-.06-.2-.1-.28-.12-.08-.02-.16-.03-.24-.03-.27,0-.49.1-.67.31-.18.21-.29.43-.34.67Z"/><path class="cls-12" d="m184.04,56.05l.12-.67c.56.44,1.12.67,1.7.67.35,0,.63-.11.85-.32.22-.21.32-.46.32-.74,0-.21-.06-.4-.19-.57-.12-.17-.29-.3-.49-.38-.01,0-.34-.09-.99-.27-.33-.09-.61-.26-.86-.53-.25-.26-.37-.59-.37-.98,0-.41.17-.77.5-1.09.33-.32.76-.48,1.3-.48.5,0,1,.13,1.47.38l-.11.66c-.22-.17-.43-.3-.63-.39s-.44-.13-.74-.13c-.35,0-.63.09-.84.29s-.32.41-.32.67c0,.19.06.36.18.52.12.15.28.27.47.35.08.02.27.07.58.15s.52.14.62.18c.29.12.55.32.76.59.21.27.31.59.31.95,0,.45-.17.85-.51,1.18-.34.34-.78.5-1.31.5-.64,0-1.24-.18-1.82-.55Z"/><path class="cls-12" d="m188.4,54.62c0-.53.16-.97.48-1.33.32-.36.7-.54,1.13-.54.16,0,.31.03.46.08s.29.13.44.25.27.29.37.53.15.51.17.84v.23h-2.48c.02.4.14.73.37.98.23.25.5.38.82.38.41,0,.81-.15,1.21-.44l.05.53c-.41.27-.83.41-1.27.41-.51,0-.93-.19-1.25-.56-.33-.38-.49-.82-.49-1.33Zm.6-.4h1.98c-.03-.21-.09-.38-.17-.53s-.18-.25-.28-.31c-.1-.06-.2-.1-.28-.12-.08-.02-.16-.03-.24-.03-.27,0-.49.1-.67.31-.18.21-.29.43-.34.67Z"/><path class="cls-12" d="m191.82,53.34v-.47h.69v-1.01h.56v1.01h1.13v.47h-1.13v1.97c0,.46.14.7.43.7.22,0,.46-.09.7-.26l.13.47c-.38.2-.77.3-1.18.3-.44,0-.66-.34-.66-1.03v-2.15h-.67Z"/><path class="cls-12" d="m194.71,53.34v-.47h.69v-1.01h.56v1.01h1.13v.47h-1.13v1.97c0,.46.14.7.43.7.22,0,.46-.09.7-.26l.13.47c-.38.2-.77.3-1.18.3-.44,0-.66-.34-.66-1.03v-2.15h-.67Z"/><path class="cls-12" d="m198.04,51.71v-.71h.72v.71h-.72Zm.05,4.72v-3.56h.54v3.56h-.54Z"/><path class="cls-12" d="m200,56.43v-3.6h.58v.57c.31-.41.7-.61,1.17-.61.2,0,.37.03.51.09s.25.13.32.22.13.19.17.32c.04.13.07.25.08.35s.02.22.02.36v2.3h-.62v-2.24c0-.09,0-.16,0-.22,0-.05-.02-.13-.05-.23s-.07-.18-.12-.24-.13-.11-.23-.16c-.1-.05-.23-.07-.38-.07-.28,0-.49.12-.62.36s-.19.53-.19.87v1.92h-.62Z"/><path class="cls-12" d="m203.71,57c0-.35.17-.62.51-.83-.13-.19-.2-.39-.2-.6,0-.24.08-.47.23-.68h0c-.18-.24-.27-.5-.27-.81,0-.38.13-.69.38-.93s.54-.37.88-.37c.28,0,.54.09.8.27l-.02-.02c.4-.16.81-.25,1.26-.25l.09.49c-.16-.02-.32-.02-.47-.02-.02,0-.21.01-.6.03l-.07-.06c.21.29.31.57.31.86,0,.35-.12.66-.37.92s-.55.4-.92.4c-.23,0-.47-.08-.72-.24-.08.12-.12.22-.12.3,0,.11.03.21.1.3.06.09.18.13.36.13h.61c.19,0,.35,0,.48.02.13.01.29.04.49.09.2.05.36.13.49.25.13.12.22.27.27.46.03.11.04.2.04.29,0,.31-.17.57-.52.77-.35.21-.77.31-1.26.31s-.91-.1-1.25-.31c-.34-.21-.51-.46-.51-.77Zm.56,0c0,.14.07.26.21.36s.3.17.47.21.34.06.51.06c.34,0,.63-.06.87-.17.24-.12.36-.27.36-.45,0-.37-.4-.56-1.21-.56h-.73c-.15.02-.27.08-.36.19-.09.11-.13.23-.13.35Zm.28-2.91c0,.26.07.46.2.62s.31.23.53.23c.18,0,.35-.07.49-.2.15-.13.22-.35.22-.66,0-.26-.06-.46-.2-.62-.13-.15-.3-.23-.52-.23-.18,0-.35.07-.49.2s-.22.35-.22.66Z"/><path class="cls-12" d="m207.71,56.16l.1-.54s.04.03.1.06c.06.04.1.06.13.08s.08.04.14.07c.07.03.13.06.18.08.06.02.12.04.19.06.07.02.15.04.24.04.08,0,.17.01.26.01.27,0,.46-.06.57-.17.12-.11.17-.24.17-.38s-.05-.24-.15-.33-.2-.15-.31-.18c-.05-.02-.17-.04-.36-.08-.19-.04-.32-.07-.41-.1-.22-.07-.41-.19-.58-.36-.17-.17-.25-.38-.25-.63,0-.12.02-.24.05-.35.04-.11.1-.22.19-.34.09-.11.22-.21.41-.27s.4-.1.66-.1c.38,0,.77.08,1.16.25l-.08.53s-.04-.02-.09-.04c-.06-.03-.09-.04-.09-.05,0,0-.04-.02-.09-.04-.05-.02-.08-.03-.1-.04-.02,0-.05-.02-.1-.04-.05-.02-.08-.03-.11-.03-.03,0-.07-.01-.12-.02s-.1-.02-.14-.02c-.04,0-.09,0-.14,0-.05,0-.11,0-.17,0-.25,0-.42.05-.52.15-.1.1-.15.21-.15.34,0,.18.07.3.21.38.14.08.34.14.6.18.26.04.44.09.54.14.19.09.35.21.49.39s.2.38.2.62c0,.12-.02.24-.05.36-.04.12-.1.23-.19.35-.09.12-.22.21-.41.28-.18.07-.4.11-.65.11-.47,0-.92-.12-1.35-.36Z"/><rect class="cls-19" x="152.68" y="145.81" width="66.11" height="61.56"/><path class="cls-8" d="m179.03,180.96h-14.77c-.53,0-.96-.43-.96-.96v-9.35c0-.53.43-.96.96-.96h7.93l1.52-1.37h5.32c.53,0,.96.43.96.96v10.71c0,.53-.43.96-.96.96Z"/><path class="cls-8" d="m188.42,184.11h-14.77c-.53,0-.96-.43-.96-.96v-9.35c0-.53.43-.96.96-.96h7.93l1.52-1.37h5.32c.53,0,.96.43.96.96v10.71c0,.53-.43.96-.96.96Z"/><path class="cls-8" d="m197.81,187.27h-14.77c-.53,0-.96-.43-.96-.96v-9.35c0-.53.43-.96.96-.96h7.93l1.52-1.37h5.32c.53,0,.96.43.96.96v10.71c0,.53-.43.96-.96.96Z"/><path class="cls-8" d="m207.2,190.43h-14.77c-.53,0-.96-.43-.96-.96v-9.35c0-.53.43-.96.96-.96h7.93l1.52-1.37h5.32c.53,0,.96.43.96.96v10.71c0,.53-.43.96-.96.96Z"/><path class="cls-12" d="m169,204.41l.12-.49c.21.16.42.25.62.25.15,0,.29-.04.39-.12s.18-.17.21-.29c.01-.05.02-.12.02-.21v-4.08h.6v3.96c0,.44-.1.76-.31.95-.21.19-.44.29-.69.29-.33,0-.65-.09-.96-.27Zm1.25-6.09v-.71h.73v.71h-.73Z"/><path class="cls-12" d="m171.86,201.27c0-.54.17-.99.52-1.36s.76-.56,1.24-.56.92.19,1.25.58c.33.39.5.84.5,1.35s-.18.97-.53,1.32-.76.53-1.23.53-.88-.18-1.23-.53c-.35-.36-.53-.8-.53-1.33Zm.62-.08c0,.47.11.82.34,1.06.23.24.49.36.79.36s.56-.12.79-.36c.23-.24.34-.6.34-1.06s-.11-.79-.34-1.01c-.23-.22-.49-.34-.79-.34s-.56.11-.79.34c-.23.22-.34.56-.34,1.01Z"/><path class="cls-12" d="m176.27,203.04v-5.78h.6v2.61c.39-.32.82-.47,1.28-.47.38,0,.69.18.94.55.25.37.37.8.37,1.29,0,.54-.15.99-.44,1.35-.29.36-.64.54-1.05.54-.38,0-.73-.15-1.07-.46v.37h-.62Zm.62-1.07s0,.07,0,.1c0,.02,0,.05.02.07,0,.02.02.04.02.05,0,0,.02.03.04.05.02.03.04.05.05.07.18.21.4.32.66.32.28,0,.55-.11.79-.33s.36-.57.36-1.04c0-.25-.03-.47-.1-.65s-.16-.33-.28-.42c-.11-.1-.23-.17-.35-.21-.12-.05-.23-.07-.35-.07-.21,0-.4.06-.58.18-.18.12-.27.26-.27.41v1.49Z"/><path class="cls-12" d="m182.63,199.95v-.47h.59v-.59s0-.05,0-.1,0-.07,0-.1c0-.49.13-.87.4-1.14s.58-.4.94-.4c.2,0,.41.03.63.09v.54c-.23-.09-.45-.14-.65-.14-.18,0-.35.05-.51.16-.16.11-.24.3-.24.57v1.09h.91v.47h-.88v3.09h-.6v-3.09h-.59Z"/><path class="cls-12" d="m185.09,201.27c0-.54.17-.99.52-1.36s.76-.56,1.24-.56.92.19,1.25.58c.33.39.5.84.5,1.35s-.18.97-.53,1.32-.76.53-1.23.53-.88-.18-1.23-.53c-.35-.36-.53-.8-.53-1.33Zm.62-.08c0,.47.11.82.34,1.06.23.24.49.36.79.36s.56-.12.79-.36c.23-.24.34-.6.34-1.06s-.11-.79-.34-1.01c-.23-.22-.49-.34-.79-.34s-.56.11-.79.34c-.23.22-.34.56-.34,1.01Z"/><path class="cls-12" d="m189.5,203.04v-5.78h.6v5.78h-.6Z"/><path class="cls-12" d="m191.05,201.27c0-.53.14-.97.42-1.34.28-.36.61-.54,1.01-.54s.79.15,1.16.44v-2.57h.6v5.78h-.62v-.41c-.35.34-.74.5-1.18.5-.4,0-.73-.19-.99-.56-.26-.37-.39-.81-.39-1.3Zm.62,0c0,.47.11.82.34,1.04.22.22.47.33.74.33.22,0,.42-.08.59-.23s.26-.3.26-.44v-1.53c0-.1-.06-.2-.17-.31-.17-.16-.37-.24-.59-.24h-.02c-.13,0-.25.02-.38.07-.12.05-.25.12-.37.22-.12.1-.22.24-.3.43-.08.19-.11.4-.11.65Z"/><path class="cls-12" d="m195.17,201.23c0-.53.16-.97.48-1.33.32-.36.7-.54,1.13-.54.16,0,.31.03.46.08s.29.13.44.25.27.29.37.53.15.51.17.84v.23h-2.48c.02.4.14.73.37.98.23.25.5.38.82.38.41,0,.81-.15,1.21-.44l.05.53c-.41.27-.83.41-1.27.41-.51,0-.93-.19-1.25-.56-.33-.38-.49-.82-.49-1.33Zm.6-.4h1.98c-.03-.21-.09-.38-.17-.53-.08-.14-.18-.25-.28-.31s-.2-.1-.28-.12-.16-.03-.24-.03c-.27,0-.49.1-.67.31-.18.21-.29.43-.34.67Z"/><path class="cls-12" d="m199.1,203.04v-3.6h.56v.72c.06-.1.14-.2.23-.29s.24-.19.46-.3c.22-.11.45-.16.71-.17v.53c-.14,0-.28.03-.42.08-.14.05-.29.12-.44.22s-.28.25-.37.45c-.09.2-.14.44-.14.71v1.65h-.6Z"/><path class="cls-12" d="m201.4,202.77l.1-.54s.04.03.1.06c.06.04.1.06.13.08.03.02.08.04.14.07.07.03.13.06.18.08.06.02.12.04.19.06.07.02.15.04.24.04.08,0,.17.01.26.01.27,0,.46-.06.57-.17.12-.11.17-.24.17-.38s-.05-.24-.15-.33-.2-.15-.31-.18c-.05-.02-.17-.04-.36-.08-.19-.04-.32-.07-.41-.1-.22-.07-.41-.19-.58-.36-.17-.17-.25-.38-.25-.63,0-.12.02-.24.05-.35.04-.11.1-.22.19-.34.09-.12.22-.21.41-.27.18-.07.4-.1.66-.1.38,0,.77.08,1.16.25l-.08.53s-.04-.02-.09-.04-.09-.04-.09-.04c0,0-.04-.02-.09-.04-.05-.02-.08-.04-.1-.04-.02,0-.05-.02-.1-.04-.05-.02-.08-.03-.11-.03-.03,0-.07,0-.12-.02-.05-.01-.1-.02-.14-.02-.04,0-.09,0-.14,0-.05,0-.11,0-.17,0-.25,0-.42.05-.52.15-.1.1-.15.21-.15.34,0,.18.07.3.21.38.14.08.34.14.6.18.26.04.44.09.54.14.19.09.35.21.49.39s.2.38.2.62c0,.12-.02.24-.05.36-.04.12-.1.23-.19.35-.09.12-.22.21-.41.28-.18.07-.4.11-.65.11-.47,0-.92-.12-1.35-.36Z"/><path class="cls-12" d="m171.45,160.38v-8.33h2.95c.8,0,1.49.19,2.07.56.59.38,1.04.9,1.36,1.57.32.66.48,1.36.48,2.1,0,1.11-.33,2.04-.98,2.79-.66.75-1.43,1.18-2.31,1.28-.13.02-.32.02-.58.02h-2.97Zm1.04-.67h1.72c1,0,1.78-.37,2.34-1.1.47-.62.71-1.39.71-2.32,0-1.02-.27-1.87-.8-2.55-.53-.68-1.28-1.02-2.25-1.02h-1.72v6.99Z"/><path class="cls-12" d="m179.33,157.73c0-.81.26-1.49.78-2.05.52-.55,1.14-.83,1.85-.83s1.38.29,1.88.87c.5.58.75,1.25.75,2.02s-.26,1.45-.79,1.98c-.53.53-1.14.79-1.84.79s-1.32-.27-1.84-.8c-.53-.53-.79-1.2-.79-1.99Zm.94-.12c0,.7.17,1.24.51,1.6.34.36.73.54,1.18.54s.84-.18,1.18-.55c.34-.36.51-.89.51-1.59s-.17-1.18-.51-1.51c-.34-.34-.73-.5-1.18-.5s-.83.17-1.18.5c-.34.34-.52.84-.52,1.51Z"/><path class="cls-12" d="m185.86,153.31v-1.07h1.08v1.07h-1.08Zm.08,7.08v-5.34h.81v5.34h-.81Z"/><path class="cls-12" d="m188.79,160.38v-5.4h.87v.86c.46-.61,1.05-.91,1.75-.91.3,0,.55.04.76.13s.38.2.49.33.2.29.26.49.1.37.11.52.02.33.02.54v3.46h-.94v-3.36c0-.14,0-.25,0-.32,0-.08-.03-.19-.07-.34-.04-.15-.1-.27-.18-.35-.08-.09-.19-.17-.35-.23s-.35-.1-.57-.1c-.43,0-.74.18-.93.54s-.29.79-.29,1.3v2.88h-.94Z"/><path class="cls-12" d="m194.36,161.24c0-.53.25-.94.76-1.24-.2-.29-.3-.59-.3-.91,0-.36.12-.7.35-1.02h0c-.27-.36-.4-.76-.4-1.21,0-.56.19-1.03.56-1.4.38-.37.82-.55,1.32-.55.41,0,.81.13,1.19.4l-.02-.02c.59-.25,1.22-.37,1.89-.38l.13.74c-.24-.02-.47-.04-.71-.04-.02,0-.32.02-.9.05l-.11-.09c.31.43.47.86.47,1.29,0,.52-.19.98-.56,1.38s-.83.59-1.38.59c-.34,0-.7-.12-1.07-.37-.12.18-.18.33-.18.45,0,.16.05.31.15.44.1.13.28.2.54.2h.92c.28,0,.52,0,.72.03.2.02.44.06.74.13.29.07.54.19.73.37.2.18.33.41.41.69.04.16.06.31.06.44,0,.46-.26.85-.79,1.16-.52.31-1.15.47-1.89.47s-1.36-.16-1.88-.47c-.51-.31-.77-.69-.77-1.15Zm.84,0c0,.21.11.39.32.54s.45.26.71.32c.26.06.52.09.76.09.51,0,.94-.09,1.31-.26.36-.17.54-.4.54-.67,0-.56-.6-.83-1.81-.83h-1.1c-.22.04-.4.13-.54.29-.13.16-.2.34-.2.53Zm.42-4.37c0,.39.1.69.3.92.2.23.46.34.79.34.27,0,.52-.1.74-.29.22-.2.33-.52.33-.99,0-.38-.1-.69-.29-.92-.2-.23-.46-.35-.79-.35-.27,0-.52.1-.74.29-.22.2-.33.53-.33.99Z"/><rect class="cls-19" x="224.97" y="145.81" width="66.11" height="61.56"/><path class="cls-12" d="m240.16,204.41l.12-.49c.21.16.42.25.62.25.15,0,.29-.04.39-.12s.18-.17.21-.29c.01-.05.02-.12.02-.21v-4.08h.6v3.96c0,.44-.1.76-.31.95-.21.19-.44.29-.69.29-.33,0-.65-.09-.96-.27Zm1.25-6.09v-.71h.73v.71h-.73Z"/><path class="cls-12" d="m243.02,201.27c0-.54.17-.99.52-1.36s.76-.56,1.24-.56.92.19,1.25.58c.33.39.5.84.5,1.35s-.18.97-.53,1.32-.76.53-1.23.53-.88-.18-1.23-.53c-.35-.36-.53-.8-.53-1.33Zm.62-.08c0,.47.11.82.34,1.06.23.24.49.36.79.36s.56-.12.79-.36c.23-.24.34-.6.34-1.06s-.11-.79-.34-1.01c-.23-.22-.49-.34-.79-.34s-.56.11-.79.34c-.23.22-.34.56-.34,1.01Z"/><path class="cls-12" d="m247.43,203.04v-5.78h.6v2.61c.39-.32.82-.47,1.28-.47.38,0,.69.18.94.55.25.37.37.8.37,1.29,0,.54-.15.99-.44,1.35-.29.36-.64.54-1.05.54-.38,0-.73-.15-1.07-.46v.37h-.62Zm.62-1.07s0,.07,0,.1c0,.02,0,.05.02.07,0,.02.02.04.02.05,0,0,.02.03.04.05.02.03.04.05.05.07.18.21.4.32.66.32.28,0,.55-.11.79-.33s.36-.57.36-1.04c0-.25-.03-.47-.1-.65s-.16-.33-.28-.42c-.11-.1-.23-.17-.35-.21-.12-.05-.23-.07-.35-.07-.21,0-.4.06-.58.18-.18.12-.27.26-.27.41v1.49Z"/><path class="cls-12" d="m253.79,199.95v-.47h.59v-.59s0-.05,0-.1,0-.07,0-.1c0-.49.13-.87.4-1.14s.58-.4.94-.4c.2,0,.41.03.63.09v.54c-.23-.09-.45-.14-.65-.14-.18,0-.35.05-.51.16-.16.11-.24.3-.24.57v1.09h.91v.47h-.88v3.09h-.6v-3.09h-.59Z"/><path class="cls-12" d="m256.25,201.27c0-.54.17-.99.52-1.36s.76-.56,1.24-.56.92.19,1.25.58c.33.39.5.84.5,1.35s-.18.97-.53,1.32-.76.53-1.23.53-.88-.18-1.23-.53c-.35-.36-.53-.8-.53-1.33Zm.62-.08c0,.47.11.82.34,1.06.23.24.49.36.79.36s.56-.12.79-.36c.23-.24.34-.6.34-1.06s-.11-.79-.34-1.01c-.23-.22-.49-.34-.79-.34s-.56.11-.79.34c-.23.22-.34.56-.34,1.01Z"/><path class="cls-12" d="m260.66,203.04v-5.78h.6v5.78h-.6Z"/><path class="cls-12" d="m262.2,201.27c0-.53.14-.97.42-1.34.28-.36.61-.54,1.01-.54s.79.15,1.16.44v-2.57h.6v5.78h-.62v-.41c-.35.34-.74.5-1.18.5-.4,0-.73-.19-.99-.56-.26-.37-.39-.81-.39-1.3Zm.62,0c0,.47.11.82.34,1.04.22.22.47.33.74.33.22,0,.42-.08.59-.23s.26-.3.26-.44v-1.53c0-.1-.06-.2-.17-.31-.17-.16-.37-.24-.59-.24h-.02c-.13,0-.25.02-.38.07-.12.05-.25.12-.37.22-.12.1-.22.24-.3.43-.08.19-.11.4-.11.65Z"/><path class="cls-12" d="m266.33,201.23c0-.53.16-.97.48-1.33.32-.36.7-.54,1.13-.54.16,0,.31.03.46.08s.29.13.44.25.27.29.37.53.15.51.17.84v.23h-2.48c.02.4.14.73.37.98.23.25.5.38.82.38.41,0,.81-.15,1.21-.44l.05.53c-.41.27-.83.41-1.27.41-.51,0-.93-.19-1.25-.56-.33-.38-.49-.82-.49-1.33Zm.6-.4h1.98c-.03-.21-.09-.38-.17-.53-.08-.14-.18-.25-.28-.31s-.2-.1-.28-.12-.16-.03-.24-.03c-.27,0-.49.1-.67.31-.18.21-.29.43-.34.67Z"/><path class="cls-12" d="m270.25,203.04v-3.6h.56v.72c.06-.1.14-.2.23-.29s.24-.19.46-.3c.22-.11.45-.16.71-.17v.53c-.14,0-.28.03-.42.08-.14.05-.29.12-.44.22s-.28.25-.37.45c-.09.2-.14.44-.14.71v1.65h-.6Z"/><path class="cls-12" d="m272.56,202.77l.1-.54s.04.03.1.06c.06.04.1.06.13.08.03.02.08.04.14.07.07.03.13.06.18.08.06.02.12.04.19.06.07.02.15.04.24.04.08,0,.17.01.26.01.27,0,.46-.06.57-.17.12-.11.17-.24.17-.38s-.05-.24-.15-.33-.2-.15-.31-.18c-.05-.02-.17-.04-.36-.08-.19-.04-.32-.07-.41-.1-.22-.07-.41-.19-.58-.36-.17-.17-.25-.38-.25-.63,0-.12.02-.24.05-.35.04-.11.1-.22.19-.34.09-.12.22-.21.41-.27.18-.07.4-.1.66-.1.38,0,.77.08,1.16.25l-.08.53s-.04-.02-.09-.04-.09-.04-.09-.04c0,0-.04-.02-.09-.04-.05-.02-.08-.04-.1-.04-.02,0-.05-.02-.1-.04-.05-.02-.08-.03-.11-.03-.03,0-.07,0-.12-.02-.05-.01-.1-.02-.14-.02-.04,0-.09,0-.14,0-.05,0-.11,0-.17,0-.25,0-.42.05-.52.15-.1.1-.15.21-.15.34,0,.18.07.3.21.38.14.08.34.14.6.18.26.04.44.09.54.14.19.09.35.21.49.39s.2.38.2.62c0,.12-.02.24-.05.36-.04.12-.1.23-.19.35-.09.12-.22.21-.41.28-.18.07-.4.11-.65.11-.47,0-.92-.12-1.35-.36Z"/><path class="cls-8" d="m251.33,180.96h-14.77c-.53,0-.96-.43-.96-.96v-9.35c0-.53.43-.96.96-.96h7.93l1.52-1.37h5.32c.53,0,.96.43.96.96v10.71c0,.53-.43.96-.96.96Z"/><path class="cls-8" d="m260.72,184.11h-14.77c-.53,0-.96-.43-.96-.96v-9.35c0-.53.43-.96.96-.96h7.93l1.52-1.37h5.32c.53,0,.96.43.96.96v10.71c0,.53-.43.96-.96.96Z"/><path class="cls-8" d="m270.11,187.27h-14.77c-.53,0-.96-.43-.96-.96v-9.35c0-.53.43-.96.96-.96h7.93l1.52-1.37h5.32c.53,0,.96.43.96.96v10.71c0,.53-.43.96-.96.96Z"/><path class="cls-8" d="m279.5,190.43h-14.77c-.53,0-.96-.43-.96-.96v-9.35c0-.53.43-.96.96-.96h7.93l1.52-1.37h5.32c.53,0,.96.43.96.96v10.71c0,.53-.43.96-.96.96Z"/><path class="cls-12" d="m245.51,160.38v-8.33h2.95c.8,0,1.49.19,2.07.56.59.38,1.04.9,1.36,1.57.32.66.48,1.36.48,2.1,0,1.11-.33,2.04-.98,2.79-.66.75-1.43,1.18-2.31,1.28-.13.02-.32.02-.58.02h-2.97Zm1.04-.67h1.72c1,0,1.78-.37,2.34-1.1.47-.62.71-1.39.71-2.32,0-1.02-.27-1.87-.8-2.55-.53-.68-1.28-1.02-2.25-1.02h-1.72v6.99Z"/><path class="cls-12" d="m253.39,157.73c0-.81.26-1.49.78-2.05.52-.55,1.14-.83,1.85-.83s1.38.29,1.88.87c.5.58.75,1.25.75,2.02s-.26,1.45-.79,1.98c-.53.53-1.14.79-1.84.79s-1.32-.27-1.84-.8c-.53-.53-.79-1.2-.79-1.99Zm.94-.12c0,.7.17,1.24.51,1.6.34.36.73.54,1.18.54s.84-.18,1.18-.55c.34-.36.51-.89.51-1.59s-.17-1.18-.51-1.51c-.34-.34-.73-.5-1.18-.5s-.83.17-1.18.5c-.34.34-.52.84-.52,1.51Z"/><path class="cls-12" d="m259.99,160.38v-5.4h.87v.86c.46-.61,1.05-.91,1.75-.91.3,0,.55.04.76.13s.38.2.49.33.2.29.26.49.1.37.11.52.02.33.02.54v3.46h-.94v-3.36c0-.14,0-.25,0-.32,0-.08-.03-.19-.07-.34-.04-.15-.1-.27-.18-.35-.08-.09-.19-.17-.35-.23s-.35-.1-.57-.1c-.43,0-.74.18-.93.54s-.29.79-.29,1.3v2.88h-.94Z"/><path class="cls-12" d="m265.64,157.67c0-.79.24-1.46.72-2s1.05-.81,1.7-.81c.24,0,.47.04.68.11s.44.2.66.38.4.44.55.79.23.77.25,1.26v.35h-3.72c.02.6.21,1.09.55,1.47s.75.57,1.22.57c.61,0,1.22-.22,1.82-.66l.08.79c-.61.41-1.24.61-1.9.62-.76,0-1.39-.28-1.88-.85s-.74-1.23-.74-2Zm.9-.6h2.98c-.05-.31-.13-.57-.26-.79-.12-.22-.27-.37-.42-.46-.16-.09-.3-.15-.42-.18s-.24-.05-.35-.05c-.41,0-.74.16-1.01.46-.27.31-.44.65-.52,1.01Z"/><rect class="cls-19" x="224.97" y="8.06" width="66.11" height="61.56"/><path class="cls-12" d="m235.07,66.66l.12-.49c.21.16.42.25.62.25.15,0,.29-.04.39-.12s.18-.17.21-.29c.01-.05.02-.12.02-.21v-4.08h.6v3.96c0,.44-.1.76-.31.95-.21.19-.44.29-.69.29-.33,0-.65-.09-.96-.27Zm1.25-6.09v-.71h.73v.71h-.73Z"/><path class="cls-12" d="m237.93,63.52c0-.54.17-1,.52-1.37s.76-.55,1.24-.55.92.19,1.25.58c.33.39.5.84.5,1.35s-.18.97-.53,1.32-.76.53-1.23.53-.88-.18-1.23-.53-.53-.8-.53-1.32Zm.62-.08c0,.47.11.82.34,1.06s.49.36.79.36.56-.12.79-.36.34-.6.34-1.06-.11-.79-.34-1.01-.49-.34-.79-.34-.56.11-.79.34-.34.56-.34,1.01Z"/><path class="cls-12" d="m242.34,65.29v-5.78h.6v2.61c.39-.32.82-.47,1.28-.47.38,0,.69.18.94.55.25.37.37.8.37,1.29,0,.54-.15.99-.44,1.35-.29.36-.64.54-1.05.54-.38,0-.73-.16-1.07-.46v.38h-.62Zm.62-1.07s0,.07,0,.1c0,.02,0,.05.02.07,0,.02.02.04.02.05s.02.03.04.05.04.05.05.07c.18.21.4.32.66.32.28,0,.55-.11.79-.33s.36-.57.36-1.04c0-.25-.03-.47-.1-.65-.07-.19-.16-.33-.28-.43s-.23-.17-.35-.21-.23-.07-.35-.07c-.21,0-.4.06-.58.18-.18.12-.27.26-.27.41v1.49Z"/><path class="cls-12" d="m246.25,65.29v-3.6h.56v.71c.06-.1.14-.2.23-.29s.24-.19.46-.3.45-.16.71-.17v.53c-.14,0-.28.03-.42.08-.14.04-.29.12-.44.22s-.28.25-.37.46c-.09.2-.14.44-.14.71v1.65h-.6Z"/><path class="cls-12" d="m248.6,63.48c0-.53.16-.97.48-1.33.32-.36.7-.54,1.13-.54.16,0,.31.03.46.08s.29.13.44.25.27.29.37.53.15.51.17.84v.23h-2.48c.02.4.14.73.37.98.23.25.5.38.82.38.41,0,.81-.15,1.21-.44l.05.53c-.41.27-.83.41-1.27.41-.51,0-.93-.19-1.25-.56-.33-.38-.49-.82-.49-1.34Zm.6-.4h1.98c-.03-.21-.09-.38-.17-.53-.08-.14-.18-.25-.28-.31s-.2-.1-.28-.12c-.08-.02-.16-.03-.24-.03-.27,0-.49.1-.67.31s-.29.43-.34.67Z"/><path class="cls-12" d="m252.1,65.02l.1-.54s.04.03.1.06c.06.04.1.06.13.08.03.02.08.04.14.07s.13.06.18.08c.06.02.12.04.19.06.07.02.15.04.24.04.08,0,.17.01.26.01.27,0,.46-.06.57-.17s.17-.24.17-.38-.05-.24-.15-.33-.2-.15-.31-.18c-.05-.02-.17-.04-.36-.08-.19-.04-.32-.07-.41-.1-.22-.07-.41-.19-.58-.36-.17-.17-.25-.38-.25-.63,0-.12.02-.24.05-.35.04-.11.1-.22.19-.34.09-.12.22-.21.41-.27s.4-.1.66-.1c.38,0,.77.08,1.16.25l-.08.53s-.04-.02-.09-.04c-.06-.02-.09-.04-.09-.04,0,0-.04-.02-.09-.04s-.08-.04-.1-.04-.05-.02-.1-.04c-.05-.02-.08-.03-.11-.03-.03,0-.07-.01-.12-.02-.05-.01-.1-.02-.14-.02-.04,0-.09,0-.14,0-.05,0-.11,0-.17,0-.25,0-.42.05-.52.15-.1.1-.15.21-.15.34,0,.18.07.3.21.38.14.08.34.14.6.18.26.04.44.09.54.14.19.09.35.21.49.39s.2.38.2.62c0,.12-.02.24-.05.36-.04.12-.1.23-.19.35-.09.12-.22.21-.41.28-.18.07-.4.11-.65.11-.47,0-.92-.12-1.35-.36Z"/><path class="cls-12" d="m255.59,64.31v-2.58h.62v2.68c0,.19.05.32.13.4.08.08.25.12.51.12.28,0,.5-.07.67-.22.17-.15.26-.32.29-.51,0-.05,0-.13,0-.23v-2.24h.62v3.56h-.61v-.38c-.36.31-.83.47-1.4.47-.16,0-.29-.03-.41-.08s-.2-.11-.25-.17c-.06-.07-.1-.16-.13-.27-.03-.12-.04-.21-.05-.27s0-.16,0-.28Z"/><path class="cls-12" d="m259.73,65.29v-5.78h.6v5.78h-.6Z"/><path class="cls-12" d="m261.13,62.2v-.47h.69v-1.01h.56v1.01h1.13v.47h-1.13v1.97c0,.46.14.7.43.7.22,0,.46-.09.7-.26l.13.47c-.38.2-.77.3-1.18.3-.44,0-.66-.34-.66-1.03v-2.15h-.67Z"/><path class="cls-12" d="m264.09,65.02l.1-.54s.04.03.1.06c.06.04.1.06.13.08.03.02.08.04.14.07s.13.06.18.08c.06.02.12.04.19.06.07.02.15.04.24.04.08,0,.17.01.26.01.27,0,.46-.06.57-.17s.17-.24.17-.38-.05-.24-.15-.33-.2-.15-.31-.18c-.05-.02-.17-.04-.36-.08-.19-.04-.32-.07-.41-.1-.22-.07-.41-.19-.58-.36-.17-.17-.25-.38-.25-.63,0-.12.02-.24.05-.35.04-.11.1-.22.19-.34.09-.12.22-.21.41-.27s.4-.1.66-.1c.38,0,.77.08,1.16.25l-.08.53s-.04-.02-.09-.04c-.06-.02-.09-.04-.09-.04,0,0-.04-.02-.09-.04s-.08-.04-.1-.04-.05-.02-.1-.04c-.05-.02-.08-.03-.11-.03-.03,0-.07-.01-.12-.02-.05-.01-.1-.02-.14-.02-.04,0-.09,0-.14,0-.05,0-.11,0-.17,0-.25,0-.42.05-.52.15-.1.1-.15.21-.15.34,0,.18.07.3.21.38.14.08.34.14.6.18.26.04.44.09.54.14.19.09.35.21.49.39s.2.38.2.62c0,.12-.02.24-.05.36-.04.12-.1.23-.19.35-.09.12-.22.21-.41.28-.18.07-.4.11-.65.11-.47,0-.92-.12-1.35-.36Z"/><path class="cls-12" d="m267.71,65.29v-.71h.67v.71h-.67Z"/><path class="cls-12" d="m268.67,66.66l.12-.49c.21.16.42.25.62.25.15,0,.29-.04.39-.12s.18-.17.21-.29c.01-.05.02-.12.02-.21v-4.08h.6v3.96c0,.44-.1.76-.31.95-.21.19-.44.29-.69.29-.33,0-.65-.09-.96-.27Zm1.25-6.09v-.71h.73v.71h-.73Z"/><path class="cls-12" d="m271.51,65.02l.1-.54s.04.03.1.06c.06.04.1.06.13.08.03.02.08.04.14.07s.13.06.18.08c.06.02.12.04.19.06.07.02.15.04.24.04.08,0,.17.01.26.01.27,0,.46-.06.57-.17s.17-.24.17-.38-.05-.24-.15-.33-.2-.15-.31-.18c-.05-.02-.17-.04-.36-.08-.19-.04-.32-.07-.41-.1-.22-.07-.41-.19-.58-.36-.17-.17-.25-.38-.25-.63,0-.12.02-.24.05-.35.04-.11.1-.22.19-.34.09-.12.22-.21.41-.27s.4-.1.66-.1c.38,0,.77.08,1.16.25l-.08.53s-.04-.02-.09-.04c-.06-.02-.09-.04-.09-.04,0,0-.04-.02-.09-.04s-.08-.04-.1-.04-.05-.02-.1-.04c-.05-.02-.08-.03-.11-.03-.03,0-.07-.01-.12-.02-.05-.01-.1-.02-.14-.02-.04,0-.09,0-.14,0-.05,0-.11,0-.17,0-.25,0-.42.05-.52.15-.1.1-.15.21-.15.34,0,.18.07.3.21.38.14.08.34.14.6.18.26.04.44.09.54.14.19.09.35.21.49.39s.2.38.2.62c0,.12-.02.24-.05.36-.04.12-.1.23-.19.35-.09.12-.22.21-.41.28-.18.07-.4.11-.65.11-.47,0-.92-.12-1.35-.36Z"/><path class="cls-12" d="m274.59,63.52c0-.54.17-1,.52-1.37s.76-.55,1.24-.55.92.19,1.25.58c.33.39.5.84.5,1.35s-.18.97-.53,1.32-.76.53-1.23.53-.88-.18-1.23-.53-.53-.8-.53-1.32Zm.62-.08c0,.47.11.82.34,1.06s.49.36.79.36.56-.12.79-.36.34-.6.34-1.06-.11-.79-.34-1.01-.49-.34-.79-.34-.56.11-.79.34-.34.56-.34,1.01Z"/><path class="cls-12" d="m279,65.29v-3.6h.58v.57c.31-.41.7-.61,1.17-.61.2,0,.37.03.51.09s.25.13.32.22.13.19.17.32c.04.13.07.25.08.35s.02.22.02.36v2.3h-.62v-2.24c0-.09,0-.16,0-.22s-.02-.13-.05-.23c-.03-.1-.07-.18-.12-.24s-.13-.11-.23-.16c-.1-.05-.23-.07-.38-.07-.28,0-.49.12-.62.36-.13.24-.19.53-.19.87v1.92h-.62Z"/><path class="cls-12" d="m240.21,22.64v-8.33h2.83c.73,0,1.35.16,1.85.47.37.23.65.51.86.85s.31.7.31,1.09c0,.63-.26,1.19-.77,1.7s-1.25.76-2.19.76c-.04,0-.1,0-.19,0s-.16,0-.21,0h-1.4v3.46h-1.08Zm1.04-4.17h1.59c.41,0,.78-.06,1.09-.17s.54-.26.7-.45.26-.38.34-.57.11-.38.11-.57c0-.18-.03-.35-.1-.53s-.17-.37-.32-.56-.38-.35-.69-.47-.69-.18-1.13-.18h-1.59v3.49Z"/><path class="cls-12" d="m246.92,21.28c0-.3.11-.56.34-.78.22-.22.52-.38.88-.49.36-.11.72-.19,1.06-.24.35-.05.69-.08,1.04-.08v-.4c-.02-.51-.12-.88-.31-1.11-.2-.24-.45-.36-.76-.36-.62,0-1.21.2-1.79.61l-.07-.8c.6-.35,1.22-.53,1.87-.53.55,0,1.01.18,1.39.54.37.36.58.8.61,1.32v3.66h-.91v-.42s-.11.08-.22.16c-.12.07-.34.16-.68.25-.34.1-.7.15-1.09.15-.45,0-.79-.16-1.02-.49-.23-.32-.34-.66-.34-1Zm.86-.03c0,.22.11.4.32.55.21.15.48.22.8.22.34,0,.65-.07.93-.22.28-.15.41-.4.41-.75v-.77c-.25,0-.5.02-.75.05-.26.03-.52.08-.79.15-.27.07-.49.17-.66.3s-.25.29-.25.47Z"/><path class="cls-12" d="m252.79,22.64v-5.4h.84v1.07c.1-.15.21-.3.35-.44s.36-.29.69-.45c.32-.16.68-.24,1.07-.25v.79c-.21,0-.42.05-.62.11s-.43.18-.66.33-.41.38-.55.68c-.14.3-.21.66-.21,1.07v2.48h-.9Z"/><path class="cls-12" d="m256.24,22.23l.15-.81s.07.04.15.09c.09.05.15.09.2.12.04.02.12.06.22.11.1.05.19.09.27.11.08.03.18.06.29.09.11.03.23.05.35.07.12.01.25.02.39.02.4,0,.69-.08.86-.26.17-.17.26-.36.26-.57s-.07-.37-.22-.5-.3-.22-.46-.27c-.08-.02-.26-.06-.53-.12-.28-.06-.48-.1-.61-.14-.33-.11-.61-.28-.86-.54-.25-.25-.38-.57-.38-.94,0-.18.03-.36.08-.52.05-.16.15-.33.28-.5.13-.17.33-.31.61-.41.27-.1.6-.15.98-.15.57,0,1.15.12,1.75.37l-.13.8s-.05-.03-.14-.07c-.08-.04-.13-.06-.14-.07-.01,0-.06-.03-.13-.06-.08-.03-.13-.05-.16-.06-.03,0-.08-.03-.15-.06-.07-.03-.13-.04-.17-.05s-.1-.02-.18-.04-.14-.03-.2-.04-.13,0-.21-.01c-.08,0-.17,0-.26,0-.37,0-.63.07-.78.22-.15.15-.23.32-.23.51,0,.27.11.46.32.57.21.12.51.21.9.27.38.07.65.14.81.21.29.13.53.32.73.58.2.26.3.56.3.92,0,.18-.03.36-.08.54-.05.17-.15.35-.28.52s-.34.32-.61.43c-.27.11-.6.16-.98.16-.7,0-1.38-.18-2.03-.54Z"/><path class="cls-12" d="m261.41,15.56v-1.07h1.08v1.07h-1.08Zm.08,7.08v-5.34h.81v5.34h-.81Z"/><path class="cls-12" d="m264.34,22.64v-5.4h.87v.85c.46-.61,1.05-.91,1.75-.91.3,0,.55.04.76.13s.38.2.49.33.2.29.26.49.1.37.11.52.02.33.02.54v3.46h-.94v-3.36c0-.14,0-.24,0-.32s-.03-.19-.07-.34-.1-.27-.18-.35-.19-.17-.35-.23c-.16-.07-.35-.1-.57-.1-.43,0-.74.18-.93.54-.19.36-.29.79-.29,1.3v2.88h-.94Z"/><path class="cls-12" d="m269.91,23.49c0-.52.25-.94.76-1.24-.2-.29-.3-.59-.3-.91,0-.36.12-.7.35-1.02h0c-.27-.36-.4-.76-.4-1.21,0-.56.19-1.03.56-1.4.38-.37.82-.55,1.32-.55.41,0,.81.13,1.19.4l-.02-.02c.59-.25,1.22-.37,1.89-.38l.13.74c-.24-.02-.47-.04-.71-.04-.02,0-.32.02-.9.05l-.11-.09c.31.43.47.86.47,1.29,0,.52-.19.98-.56,1.38s-.83.59-1.38.59c-.34,0-.7-.12-1.07-.37-.12.18-.18.33-.18.45,0,.16.05.31.15.44s.28.2.54.2h.92c.28,0,.52,0,.72.03.2.02.44.06.74.13.29.07.54.19.73.37.2.18.33.41.41.69.04.16.06.31.06.44,0,.46-.26.85-.79,1.16-.52.31-1.15.47-1.89.47s-1.36-.16-1.88-.47c-.51-.31-.77-.69-.77-1.15Zm.84,0c0,.21.11.39.32.54.21.15.45.25.71.32.26.06.52.09.76.09.51,0,.94-.09,1.31-.26.36-.17.54-.4.54-.67,0-.56-.6-.83-1.81-.83h-1.1c-.22.04-.4.13-.54.29-.13.16-.2.34-.2.53Zm.42-4.37c0,.39.1.69.3.92.2.23.46.35.79.35.27,0,.52-.1.74-.29.22-.2.33-.53.33-.99,0-.39-.1-.69-.29-.92-.2-.23-.46-.34-.79-.34-.27,0-.52.1-.74.29-.22.2-.33.53-.33.99Z"/><rect class="cls-7" x="236.74" y="30.67" width="12.76" height="16.33"/><rect class="cls-15" x="243.43" y="39.38" width="5.21" height="5.21"/><rect class="cls-3" x="244.23" y="32.69" width="4.14" height="4.14"/><rect class="cls-20" x="237.49" y="39.38" width="5.21" height="5.21"/><line class="cls-17" x1="242.67" y1="41.98" x2="243.43" y2="41.98"/><rect class="cls-7" x="246.67" y="33.07" width="12.76" height="16.33"/><rect class="cls-15" x="253.37" y="41.78" width="5.21" height="5.21"/><rect class="cls-3" x="254.17" y="35.09" width="4.14" height="4.14"/><rect class="cls-20" x="247.43" y="41.78" width="5.21" height="5.21"/><line class="cls-17" x1="252.6" y1="44.38" x2="253.37" y2="44.38"/><rect class="cls-7" x="256.61" y="35.72" width="12.76" height="16.33"/><rect class="cls-15" x="263.31" y="44.42" width="5.21" height="5.21"/><rect class="cls-3" x="264.11" y="37.74" width="4.14" height="4.14"/><rect class="cls-20" x="257.37" y="44.42" width="5.21" height="5.21"/><line class="cls-17" x1="262.54" y1="47.02" x2="263.31" y2="47.02"/><rect class="cls-7" x="266.55" y="37.73" width="12.76" height="16.33"/><rect class="cls-15" x="273.25" y="46.43" width="5.21" height="5.21"/><rect class="cls-3" x="274.05" y="39.75" width="4.14" height="4.14"/><rect class="cls-20" x="267.31" y="46.43" width="5.21" height="5.21"/><line class="cls-17" x1="272.48" y1="49.03" x2="273.25" y2="49.03"/><path id="path7264" class="cls-21" d="m49.55,202.36h-7.32"/><path id="path7264-2" class="cls-21" d="m49.57,207.38h-7.32"/><path id="path7264-3" class="cls-21" d="m49.57,204.87h-7.32"/><path id="path7264-4" class="cls-21" d="m49.57,199.85h-7.32"/><path id="path7264-5" class="cls-21" d="m49.57,194.83h-7.32"/><path id="path7264-6" class="cls-21" d="m49.57,189.82h-7.32"/><path id="path7264-7" class="cls-21" d="m49.57,209.89h-7.32"/><g id="path7252"><polyline class="cls-21" points="37.59 194.83 56.44 194.83 60.34 191.67"/><path class="cls-11" d="m61.08,192.67c.53-.43.61-1.21.18-1.74-.43-.53-1.21-.61-1.74-.18-.53.43-.61,1.21-.18,1.74s1.21.61,1.74.18Z"/></g><g id="path7252-2"><polyline class="cls-21" points="33 189.82 51.84 189.82 55.75 186.65"/><path class="cls-11" d="m56.48,187.65c.53-.43.61-1.21.18-1.74-.43-.53-1.21-.61-1.74-.18s-.61,1.21-.18,1.74c.43.53,1.21.61,1.74.18Z"/></g><g id="path7252-3"><polyline class="cls-21" points="37.59 204.87 56.44 204.87 60.34 208.04"/><path class="cls-11" d="m59.52,208.96c.53.43,1.31.35,1.74-.18s.35-1.31-.18-1.74c-.53-.43-1.31-.35-1.74.18-.43.53-.35,1.31.18,1.74Z"/></g><g id="path7252-4"><polyline class="cls-21" points="33 209.89 51.84 209.89 55.75 213.05"/><path class="cls-11" d="m54.92,213.98c.53.43,1.31.35,1.74-.18.43-.53.35-1.31-.18-1.74-.53-.43-1.31-.35-1.74.18-.43.53-.35,1.31.18,1.74Z"/></g><g id="path7268"><line class="cls-21" x1="37.59" y1="199.85" x2="62.14" y2="199.85"/><path class="cls-11" d="m62.08,201.09c.68,0,1.24-.55,1.24-1.24s-.55-1.24-1.24-1.24-1.24.55-1.24,1.24.55,1.24,1.24,1.24Z"/></g><path id="path7272" class="cls-21" d="m49.55,197.34h-7.32"/><path id="path7280" class="cls-21" d="m49.55,192.33h-7.32"/><path id="path7264-8" class="cls-21" d="m18.72,202.36H2.32"/><path id="path7264-9" class="cls-21" d="m18.74,207.38h-7.32"/><path id="path7264-10" class="cls-21" d="m18.74,204.87H2.35"/><path id="path7264-11" class="cls-21" d="m18.74,199.85H2.35"/><path id="path7264-12" class="cls-21" d="m18.74,194.83H2.35"/><path id="path7264-13" class="cls-21" d="m18.74,189.82h-7.32"/><path id="path7264-14" class="cls-21" d="m18.74,209.89h-7.32"/><path id="path7272-2" class="cls-21" d="m18.72,197.34H2.32"/><path id="path7280-2" class="cls-21" d="m18.72,192.33h-7.32"/><g id="g7312"><path id="path7314" class="cls-21" d="m39.01,218.43v-7.32"/><path id="path7316" class="cls-21" d="m20.96,218.43v-7.32"/><path id="path7318" class="cls-21" d="m23.54,218.43v-7.32"/><path id="path7320" class="cls-21" d="m26.12,218.43v-7.32"/><path id="path7322" class="cls-21" d="m28.7,218.43v-7.32"/><path id="path7324" class="cls-21" d="m31.27,218.43v-7.32"/><path id="path7326" class="cls-21" d="m33.85,218.43v-7.32"/><path id="path7328" class="cls-21" d="m36.43,218.43v-7.32"/></g><path id="path7332" class="cls-21" d="m39.01,188.28v-7.32"/><path id="path7336" class="cls-21" d="m23.54,188.28v-7.32"/><path id="path7336-2" class="cls-21" d="m20.96,188.28v-7.32"/><path id="path7338" class="cls-21" d="m26.12,188.28v-7.32"/><path id="path7340" class="cls-21" d="m28.7,188.28v-7.32"/><path id="path7344" class="cls-21" d="m33.85,188.28v-7.32"/><path id="path7344-2" class="cls-21" d="m31.27,188.28v-7.32"/><path id="path7346" class="cls-21" d="m36.43,188.28v-7.32"/><path id="path7332-2" class="cls-21" d="m39.01,211.11v7.32"/><path id="path7336-3" class="cls-21" d="m23.54,211.11v7.32"/><path id="path7336-4" class="cls-21" d="m20.96,211.11v7.32"/><path id="path7338-2" class="cls-21" d="m26.12,211.11v7.32"/><path id="path7340-2" class="cls-21" d="m28.7,211.11v7.32"/><path id="path7344-3" class="cls-21" d="m33.85,211.11v7.32"/><path id="path7344-4" class="cls-21" d="m31.27,211.11v7.32"/><path id="path7346-2" class="cls-21" d="m36.43,211.11v7.32"/><path id="path7348" class="cls-14" d="m16.77,184.62l-1.37,1.37v28.78h30.15v-30.15h-28.78s0,0,0,0Z"/><circle id="path7250" class="cls-10" cx="18.74" cy="187.96" r="1.14"/><path class="cls-4" d="m24.78,210.65c0-.29,0-.53-.02-.76h.45l.02.46h.02c.16-.27.42-.52.89-.52.38,0,.68.23.8.57h.01c.09-.16.2-.28.31-.37.17-.13.36-.2.62-.2.37,0,.93.25.93,1.22v1.66h-.5v-1.6c0-.54-.2-.87-.61-.87-.29,0-.52.22-.61.47-.02.07-.04.16-.04.26v1.74h-.5v-1.69c0-.45-.2-.78-.59-.78-.32,0-.55.26-.64.51-.03.08-.04.16-.04.25v1.7h-.5v-2.06Z"/><path class="cls-4" d="m30.14,211.18h.01c.07-.1.17-.22.25-.32l.83-.97h.62l-1.09,1.16,1.24,1.66h-.62l-.97-1.35-.26.29v1.06h-.51v-4.14h.51v2.61Z"/><path class="cls-10" d="m32.65,209.88l.37,1.43c.08.32.16.61.21.9h.02c.06-.29.16-.59.25-.89l.46-1.44h.43l.44,1.41c.1.34.19.63.25.92h.02c.05-.29.12-.58.22-.92l.4-1.42h.51l-.91,2.82h-.47l-.43-1.35c-.1-.31-.18-.59-.25-.93h-.01c-.07.34-.16.63-.26.93l-.45,1.34h-.47l-.85-2.82h.52Z"/><path class="cls-10" d="m37.3,209.09c0,.17-.12.32-.33.32-.18,0-.31-.14-.31-.32s.13-.32.32-.32.31.14.31.32Zm-.57,3.61v-2.82h.51v2.82h-.51Z"/><path class="cls-10" d="m38.09,210.65c0-.29,0-.53-.02-.76h.45l.03.47h.01c.14-.27.47-.53.93-.53.39,0,1,.23,1,1.2v1.68h-.51v-1.63c0-.46-.17-.83-.65-.83-.34,0-.6.24-.69.52-.02.06-.04.15-.04.24v1.7h-.51v-2.06Z"/><path class="cls-10" d="m43.76,208.57v3.41c0,.25,0,.54.02.73h-.46l-.02-.49h-.01c-.16.31-.5.55-.96.55-.68,0-1.21-.58-1.21-1.43,0-.94.58-1.52,1.26-1.52.43,0,.72.2.85.43h.01v-1.68h.51Zm-.51,2.47c0-.06,0-.15-.02-.22-.08-.33-.36-.59-.74-.59-.53,0-.85.47-.85,1.09,0,.57.28,1.04.83,1.04.34,0,.66-.23.75-.61.02-.07.02-.14.02-.22v-.49Z"/><rect class="cls-10" x="40.95" y="35.53" width="23.18" height="14.13"/><path class="cls-6" d="m40.95,49.66h23.18l-10.32-9.39c-.19-.17-.41-.3-.65-.38h-.02c-.39-.14-.82-.14-1.21,0h0c-.23.08-.45.21-.63.38l-10.36,9.4Z"/><path class="cls-16" d="m1.16,37.84c0-.8-.02-1.45-.06-2.09h1.23l.06,1.24h.05c.43-.73,1.15-1.42,2.42-1.42,1.05,0,1.85.64,2.18,1.55h.03c.24-.43.54-.76.86-1,.46-.35.97-.54,1.7-.54,1.02,0,2.53.67,2.53,3.35v4.54h-1.37v-4.37c0-1.48-.54-2.37-1.67-2.37-.8,0-1.42.59-1.66,1.27-.06.19-.11.45-.11.7v4.76h-1.37v-4.62c0-1.23-.54-2.12-1.61-2.12-.88,0-1.51.7-1.74,1.4-.08.21-.11.45-.11.69v4.65h-1.37v-5.62Z"/><path class="cls-16" d="m15.83,39.29h.03c.19-.27.46-.61.69-.88l2.26-2.66h1.69l-2.98,3.17,3.39,4.54h-1.7l-2.66-3.7-.72.8v2.9h-1.39v-11.31h1.39v7.14Z"/><path class="cls-13" d="m23.74,33.58c.02.48-.33.86-.89.86-.49,0-.84-.38-.84-.86s.37-.88.88-.88.86.38.86.88Zm-1.56,9.88v-7.71h1.4v7.71h-1.4Z"/><path class="cls-13" d="m27.6,33.54v2.21h2.01v1.07h-2.01v4.16c0,.96.27,1.5,1.05,1.5.37,0,.64-.05.81-.1l.06,1.05c-.27.11-.7.19-1.24.19-.65,0-1.18-.21-1.51-.59-.4-.42-.54-1.1-.54-2.01v-4.21h-1.19v-1.07h1.19v-1.85l1.37-.37Z"/><path class="cls-13" d="m31.87,39.86c.03,1.9,1.24,2.68,2.64,2.68,1,0,1.61-.18,2.13-.4l.24,1c-.49.22-1.34.48-2.56.48-2.37,0-3.79-1.56-3.79-3.89s1.37-4.16,3.62-4.16c2.52,0,3.19,2.21,3.19,3.63,0,.29-.03.51-.05.65h-5.42Zm4.11-1c.02-.89-.37-2.28-1.94-2.28-1.42,0-2.04,1.31-2.15,2.28h4.09Z"/><path class="cls-1" d="m15.26,48.11c.01.82.54,1.15,1.14,1.15.43,0,.69-.08.92-.17l.1.43c-.21.1-.58.21-1.11.21-1.02,0-1.63-.67-1.63-1.67s.59-1.79,1.56-1.79c1.08,0,1.37.95,1.37,1.57,0,.12-.01.22-.02.28h-2.33Zm1.77-.43c0-.38-.16-.98-.84-.98-.61,0-.88.56-.93.98h1.76Z"/><path class="cls-1" d="m18.36,47.24c0-.34,0-.62-.03-.9h.54l.03.55h.01c.16-.32.55-.62,1.1-.62.46,0,1.17.27,1.17,1.41v1.98h-.6v-1.92c0-.54-.2-.98-.77-.98-.4,0-.71.28-.81.62-.03.08-.04.18-.04.28v2h-.6v-2.42Z"/><path class="cls-1" d="m25.04,46.34c-.01.24-.03.51-.03.91v1.93c0,.76-.15,1.23-.47,1.52-.32.3-.79.4-1.21.4s-.84-.1-1.11-.28l.15-.46c.22.14.56.26.98.26.62,0,1.07-.32,1.07-1.16v-.37h-.01c-.19.31-.54.56-1.06.56-.82,0-1.41-.7-1.41-1.62,0-1.13.73-1.76,1.5-1.76.58,0,.89.3,1.04.58h.01l.03-.5h.53Zm-.62,1.31c0-.1,0-.19-.03-.27-.11-.35-.41-.64-.84-.64-.58,0-.99.49-.99,1.26,0,.65.33,1.2.98,1.2.37,0,.71-.23.84-.62.03-.1.05-.22.05-.32v-.6Z"/><path class="cls-1" d="m26.64,45.4c0,.21-.14.37-.38.37-.21,0-.36-.16-.36-.37s.16-.38.38-.38.37.17.37.38Zm-.67,4.26v-3.32h.6v3.32h-.6Z"/><path class="cls-1" d="m27.58,47.24c0-.34,0-.62-.03-.9h.54l.03.55h.01c.16-.32.55-.62,1.1-.62.46,0,1.17.27,1.17,1.41v1.98h-.6v-1.92c0-.54-.2-.98-.77-.98-.4,0-.71.28-.81.62-.03.08-.04.18-.04.28v2h-.6v-2.42Z"/><path class="cls-1" d="m31.72,48.11c.01.82.54,1.15,1.14,1.15.43,0,.69-.08.92-.17l.1.43c-.21.1-.58.21-1.11.21-1.02,0-1.63-.67-1.63-1.67s.59-1.79,1.56-1.79c1.08,0,1.37.95,1.37,1.57,0,.12-.01.22-.02.28h-2.33Zm1.77-.43c0-.38-.16-.98-.84-.98-.61,0-.88.56-.93.98h1.76Z"/><path class="cls-1" d="m34.74,49.04c.18.12.49.24.8.24.44,0,.65-.22.65-.49,0-.29-.17-.45-.62-.61-.6-.21-.88-.54-.88-.94,0-.54.43-.97,1.15-.97.34,0,.63.1.82.21l-.15.44c-.13-.08-.37-.19-.68-.19-.36,0-.56.21-.56.45,0,.27.2.4.63.56.58.22.87.51.87,1,0,.58-.45,1-1.24,1-.36,0-.7-.09-.93-.23l.15-.46Z"/><path class="cls-9" d="m40.95,35.53h23.18l-10.32,9.39c-.19.17-.41.3-.65.38h-.02c-.39.14-.82.14-1.21,0h0c-.23-.08-.45-.21-.63-.38l-10.36-9.4Z"/><circle class="cls-1" cx="63.45" cy="35.97" r="2.19"/></g></svg>